<svg xmlns="http://www.w3.org/2000/svg" xmlns:xlink="http://www.w3.org/1999/xlink" viewBox="0 0 398.11 135.04"><defs><style>.cls-1{fill:#e2e2e2;opacity:0.34;}.cls-2{fill:url(#Безымянный_градиент_7);}.cls-3{fill:#17211d;}.cls-4{fill:#242449;}.cls-5{fill:url(#Безымянный_градиент_7-2);}.cls-6{fill:url(#Безымянный_градиент_7-3);}.cls-7{fill:url(#Безымянный_градиент_12);}.cls-8{fill:#edad9f;}.cls-9{fill:url(#Безымянный_градиент_7-4);}.cls-10{fill:url(#Безымянный_градиент_7-5);}.cls-11{fill:url(#Безымянный_градиент_7-6);}</style><linearGradient id="Безымянный_градиент_7" x1="234.99" y1="77.92" x2="247.65" y2="77.92" gradientUnits="userSpaceOnUse"><stop offset="0.1" stop-color="#487cff"/><stop offset="0.48" stop-color="#2742ff"/><stop offset="0.83" stop-color="#0b12ff"/><stop offset="1" stop-color="blue"/></linearGradient><linearGradient id="Безымянный_градиент_7-2" x1="247.46" y1="75.06" x2="282.82" y2="75.06" xlink:href="#Безымянный_градиент_7"/><linearGradient id="Безымянный_градиент_7-3" x1="280.96" y1="46.42" x2="312.47" y2="46.42" xlink:href="#Безымянный_градиент_7"/><linearGradient id="Безымянный_градиент_12" x1="232" y1="41.76" x2="289.84" y2="41.76" gradientUnits="userSpaceOnUse"><stop offset="0.39" stop-color="#f2b143"/><stop offset="0.73" stop-color="#eb933e"/><stop offset="1" stop-color="#e6813b"/></linearGradient><linearGradient id="Безымянный_градиент_7-4" x1="415.97" y1="105.05" x2="572.03" y2="105.05" gradientTransform="matrix(-1, 0, 0, 1, 572.03, 0)" xlink:href="#Безымянный_градиент_7"/><linearGradient id="Безымянный_градиент_7-5" x1="396.31" y1="112.25" x2="514.91" y2="112.25" gradientTransform="matrix(-1, 0, 0, 1, 572.03, 0)" xlink:href="#Безымянный_градиент_7"/><linearGradient id="Безымянный_градиент_7-6" x1="173.92" y1="122.29" x2="240.25" y2="122.29" gradientTransform="matrix(-1, 0, 0, 1, 572.03, 0)" xlink:href="#Безымянный_градиент_7"/></defs><title>Ресурс 12</title><g id="Слой_2" data-name="Слой 2"><g id="OBJECTS"><path class="cls-1" d="M265.14,104.73H218.59s-17.76-.41-14.92,5.65,19.9,2.26,18.83,6.12,1.07,9.9,21,9.9,27.36-1.07,26.29-3.55,23.45-4.27,29.49-1.78,27.53-1.24,29.13-7.57c1.23-4.84-12.08-8.78-19.72-8.78Z"/><path class="cls-2" d="M238.72,66.39A41.76,41.76,0,0,0,235,85.05l8.22,4.4s-1.53-14,4.42-20.61Z"/><path class="cls-3" d="M248.52,110.77s-8.43,4.88-13.23,1.59,6.62-5.09,6.62-5.09Z"/><path class="cls-3" d="M282.82,110.77s8.44,4.88,13.23,1.59-6.61-5.09-6.61-5.09Z"/><path class="cls-4" d="M251.86,113.5s-15.46-6.66-23.72-18.65,5.33-12.52,9.33-10.93,15.45,8.26,15.45,8.26Z"/><path class="cls-4" d="M280.91,114.81s15.46-6.66,23.72-18.65-5.33-12.53-9.33-10.93-15.45,8.26-15.45,8.26Z"/><path class="cls-4" d="M249.59,89.45s-6.13,12.12-1.07,21.32C253,119,277.3,116.36,280.77,115s5.06-7.2,3.73-16-3.73-9.59-3.73-9.59Z"/><path class="cls-5" d="M249.59,89.45s-4.8-10.39,0-28.78H281s4.19,14.12,0,28.78Z"/><path class="cls-6" d="M312.47,21.24s-7.88,34.37-29.65,53.82L281,60.67S301.3,37,308.35,17.77C308.35,17.77,310.61,17.77,312.47,21.24Z"/><path class="cls-7" d="M271.71,7.65s-12.79-3.73-20.52,5.59-2.13,21.59-3.73,25.32S231.74,44.69,232,56.94s12.52,13.06,19.85,12,6.27,9.33,24.39,7.46S288.61,55.08,281,50.55c-3.66-2.93,5.21-4,7.3-8.79s2.67-11.86-1.86-19.86S282.23,9.38,271.71,7.65Z"/><path class="cls-8" d="M308.35,17.77s3.32-12.39,4.12-15.58S315,.05,315.4.72s.54,3.06,0,5.6,1.74,2.13,2.27,4.66-5.2,10.26-5.2,10.26S311.29,17.77,308.35,17.77Z"/><path class="cls-9" d="M147,122c-.34,0-.68,0-1,0a8.59,8.59,0,0,0,.13-1.45,7.92,7.92,0,0,0-13.49-5.64,8.57,8.57,0,0,0-13.79-.25,5.18,5.18,0,0,0-3.67-1.52l-.16,0a9.08,9.08,0,0,0,0-.91,8.14,8.14,0,0,0-13.17-6.41,6.76,6.76,0,0,0-9.82-4.52A12.76,12.76,0,0,0,73.78,88.49a15.19,15.19,0,0,0-30.27,1.38c-.32,0-.64-.05-1-.05a12.18,12.18,0,0,0-11.42,8,8.81,8.81,0,0,0-8.33,8.79,8.94,8.94,0,0,0,.36,2.5A10,10,0,0,0,10,118.53a9.85,9.85,0,0,0,.67,3.57A12.82,12.82,0,0,0,9,122c-5,0-9,2.92-9,6.52,0,3.19,3.17,5.85,7.37,6.41V135H147c5,0,9-2.92,9-6.53S152,122,147,122Z"/><path class="cls-10" d="M64,125.12q.39,0,.78,0a5.62,5.62,0,0,1-.11-1.1,6,6,0,0,1,10.26-4.29,6.52,6.52,0,0,1,10.48-.19,3.93,3.93,0,0,1,2.78-1.15h.13a5.12,5.12,0,0,1,0-.69,6.19,6.19,0,0,1,10-4.87,5.13,5.13,0,0,1,7.46-3.43,9.46,9.46,0,0,1-.06-1.07,9.69,9.69,0,0,1,14-8.71,11.54,11.54,0,0,1,23,1c.24,0,.49,0,.74,0a9.24,9.24,0,0,1,8.67,6,6.68,6.68,0,0,1,6.06,8.58,7.57,7.57,0,0,1,9.48,9.9,10.23,10.23,0,0,1,1.25-.08c3.79,0,6.87,2.22,6.87,5,0,2.43-2.42,4.44-5.6,4.87V135H64c-3.79,0-6.86-2.22-6.86-5S60.19,125.12,64,125.12Z"/><path class="cls-11" d="M335.62,129.49l.43,0a4.21,4.21,0,0,1-.05-.62,3.37,3.37,0,0,1,3.37-3.37,3.32,3.32,0,0,1,2.36,1,3.66,3.66,0,0,1,3-1.54,3.62,3.62,0,0,1,2.89,1.43,2.2,2.2,0,0,1,1.56-.65h.07c0-.13,0-.25,0-.38a3.46,3.46,0,0,1,5.6-2.73,2.89,2.89,0,0,1,2.82-2.26,2.94,2.94,0,0,1,1.35.34,5.85,5.85,0,0,1,0-.59,5.44,5.44,0,0,1,7.82-4.88,6.46,6.46,0,0,1,12.87.59l.41,0a5.17,5.17,0,0,1,4.85,3.38,3.74,3.74,0,0,1,3.55,3.73,3.79,3.79,0,0,1-.16,1.07,4.23,4.23,0,0,1,5.3,5.54,5.36,5.36,0,0,1,.7,0c2.12,0,3.84,1.24,3.84,2.77,0,1.36-1.35,2.49-3.13,2.73v0H335.62c-2.12,0-3.84-1.24-3.84-2.78S333.5,129.49,335.62,129.49Z"/></g></g></svg>