<svg xmlns="http://www.w3.org/2000/svg" xmlns:xlink="http://www.w3.org/1999/xlink" viewBox="0 0 127.61 106.1"><defs><style>.cls-1{fill:url(#Безымянный_градиент_7);}.cls-2{fill:url(#Безымянный_градиент_7-2);}.cls-3{fill:#1537ff;}.cls-4{fill:url(#Безымянный_градиент_7-3);}.cls-5{fill:#606060;}</style><linearGradient id="Безымянный_градиент_7" x1="43.18" y1="41.92" x2="115.59" y2="41.92" gradientUnits="userSpaceOnUse"><stop offset="0.1" stop-color="#487cff"/><stop offset="0.48" stop-color="#2742ff"/><stop offset="0.83" stop-color="#0b12ff"/><stop offset="1" stop-color="blue"/></linearGradient><linearGradient id="Безымянный_градиент_7-2" x1="0" y1="62.39" x2="77.25" y2="62.39" xlink:href="#Безымянный_градиент_7"/><linearGradient id="Безымянный_градиент_7-3" x1="67.59" y1="63.08" x2="127.61" y2="63.08" xlink:href="#Безымянный_градиент_7"/></defs><title>Ресурс 3</title><g id="Слой_2" data-name="Слой 2"><g id="OBJECTS"><path class="cls-1" d="M67.17,7.29c1,.31,1.07,1.6,1.06,2.62a28.5,28.5,0,0,0,3.28,13.78,1.48,1.48,0,0,0,1.83.71c.83-.35.77-1.29.66-2.06q-1.05-7-2.09-14.08c-.26-1.74-.49-3.68,1.38-4.89a4.12,4.12,0,0,1,1.52-.57,9.67,9.67,0,0,1,5.13,1,12.8,12.8,0,0,0-1.26,14.42,1.79,1.79,0,0,0,1.86.91c.72-.15.92-.73,1-1.28.61-3-.83-6.19-.19-9.21A9.21,9.21,0,0,1,85.6,3.12,27.26,27.26,0,0,1,92.19.37c1.19-.38,2.46-.76,3.7.46a4.15,4.15,0,0,1,1.19,3c0,1.89-1,3.6-1.73,5.32a25.57,25.57,0,0,0-2.1,9c1.63.13,2.46-1.87,2.93-3.44a26.8,26.8,0,0,1,3.23-6.92c.21-.31.46-.64.82-.68a1.24,1.24,0,0,1,.5.1,3.8,3.8,0,0,1,2.38,3.24c.22,3.28-2,5.52-4,7.6l-5.61,5.63c-.54.54-1.13,1.33-.62,2a1.25,1.25,0,0,0,1.37.37c5-1.51,6.91-7.08,10.41-10.76a1.78,1.78,0,0,1,1.06-.65c.83-.07,1.45.93,1.8,1.42a7.48,7.48,0,0,1,1.4,5.52c-.54,3.31-2.9,3.93-5.1,4.6-4.68,1.44-9.32,3.54-12.47,7.39a3.07,3.07,0,0,0,0,3.94c1.61,1.81,4.26.21,6-1.3a120.38,120.38,0,0,1,10.14-8,4.7,4.7,0,0,1,1.77-.89A3.5,3.5,0,0,1,112,28.33c2.52,2.3,2.89,6.36,1.43,9.45a13.74,13.74,0,0,1-7.6,6.49c-3.59,1.4-7.51,1.77-11.31,2.3a3.76,3.76,0,0,0-2.26,1.12c-1.88,2,.09,4.21,2.09,4.43A8.69,8.69,0,0,0,98.76,51l11.9-5.5c1.22-.57,2.6-1.15,3.87.1a3.35,3.35,0,0,1,.89,1.69,9.17,9.17,0,0,1-6.78,10.43c-6,1.39-12.3-3.49-18.15-1.59-.49.16-1,.38-1,1.09a1.78,1.78,0,0,0,.88,1.6c2.8,1.75,6.2,1.82,9.46,1.93s7,.36,9.68,2.61a6.12,6.12,0,0,1,2.3,5.17c-.33,3.59-4,4.94-7,4.38a18,18,0,0,1-6.51-3.2l-5.8-3.9c-1.21-.81-2.5-1.65-4-1.5a2.41,2.41,0,0,0-2,1.33,2.32,2.32,0,0,0,1.6,3A10.75,10.75,0,0,0,91,69c3.85.35,7.7,2.19,9.35,6a7.14,7.14,0,0,1,.38,4.33c-.29,1.29-1,2.69-3.18,2.23a5.08,5.08,0,0,1-1.93-.93L85.32,72.81c-1-.81-2.55-1.61-3.57-.76,0,1.59,1.15,2.94,2.41,3.91,1.57,1.21,3.43,2.15,4.2,4.12A2.87,2.87,0,0,1,88,83c-1.1,1.31-2.92.92-4.39.38-3.34-1.21-6.8-3.2-7.94-6.57C74,71.85,77.93,66,75.49,61.45l0-.06a3.81,3.81,0,0,0-6.61,0c-1.09,1.89-2.3,4.49-2,6.44.09.68.23,1.48-.24,2a2,2,0,0,1-.9.48c-7.14,2.23-15.7-1.95-18.22-9a2.6,2.6,0,0,1,0-1.76c.43-1.13,1.42-1.14,2.3-1.11,1.63.06,3.26.15,4.88.29A2,2,0,0,0,55.76,55l0,0c-1.46-.75-3.18-.74-4.77-1.1a10,10,0,0,1-7.76-9.65A5.25,5.25,0,0,1,45,40.36a1.7,1.7,0,0,1,.91-.47,2,2,0,0,1,1.51.82c1.32,1.43,2.39,3.13,4,4.22s4,1.37,5.35-.07a28.54,28.54,0,0,1-7.45-7,15.24,15.24,0,0,1-3-6.4,7.61,7.61,0,0,1,2.55-7.41,2.59,2.59,0,0,1,2.42-.42c1.23.45,1.32,1.54,1.46,2.52a15.54,15.54,0,0,0,6.4,10.37,1.48,1.48,0,0,0,1.83.22,1.83,1.83,0,0,0,.77-1.62c-.21-3.55-3.14-5.95-5.54-8.42C54,24.47,52,21.25,53.11,18.29a7.09,7.09,0,0,1,3.29-3.4c.66-.38,1.55-.68,2.15-.2a2.17,2.17,0,0,1,.6,1.51,31.54,31.54,0,0,0,7.18,16.27,1.84,1.84,0,0,0,1.62.69c1.57-.2,1.48-2.33,1-3.73a56.49,56.49,0,0,0-3.56-7.89c-1.83-3.35-4.07-6.71-2.94-10.86a4.71,4.71,0,0,1,4-3.44A1.94,1.94,0,0,1,67.17,7.29Z"/><path class="cls-2" d="M66.38,94.67a34.91,34.91,0,0,0-.87-14.42,2.53,2.53,0,0,1-.07-1.69,2.44,2.44,0,0,1,1.39-1,18.41,18.41,0,0,0,7.06-4.78,15.89,15.89,0,0,0,3.32-9.35,47.83,47.83,0,0,0-.88-10,34.15,34.15,0,0,1-6.83,5.1,11.48,11.48,0,0,1-8.27,1.15,9,9,0,0,1,2.84-4.15l8.4-8.37c-2.92-3-6-5.82-9.17-8.51a2.76,2.76,0,0,0-3.43-.64,43.39,43.39,0,0,0-9.93,4.93L50.69,34a3.69,3.69,0,0,0-.16-1.84,3.21,3.21,0,0,0-1-1.15,14.78,14.78,0,0,0-8.84-3.14,29.17,29.17,0,0,0-6.36.82,1.77,1.77,0,0,0-1,.45,1.85,1.85,0,0,0-.34,1l-1,8.08a13.2,13.2,0,0,1-3.45-6.58A5.79,5.79,0,0,0,28,29.66c-.69-1.18-2.21-1.56-3.58-1.59-4.34-.09-8.31,2.27-12,4.56a70.09,70.09,0,0,0-11.27,8c-.65.61-1.34,1.46-1,2.3a2.42,2.42,0,0,0,1.09,1.1c3.13,2,6.75,4.09,10.33,3.14a23.31,23.31,0,0,0,3.78-1.71,16.12,16.12,0,0,1,9.05-1.4l-7.91,8a1.9,1.9,0,0,0-.63,2.42q2.58,8.41,5.15,16.85A42,42,0,0,1,39,66.17c.15,1.41-1,2.61-2.08,3.52a40,40,0,0,1-13.16,7.22A82.34,82.34,0,0,0,39.14,88.32c2.7,1.56,5.7,3,8.79,2.64,3.46-.4,6.21-2.94,9.2-4.74a1.61,1.61,0,0,1,1.08-.33c.52.1.8.65,1,1.14a46.44,46.44,0,0,1,2.62,8.63,1.72,1.72,0,0,0,.51,1.1,1.58,1.58,0,0,0,.94.21,7.66,7.66,0,0,0,3.25-.82"/><path class="cls-3" d="M15.5,38.55c9-.27,16.59,3.35,23.2,8.87,1.69-3.05,2.82-6.66,4.17-9.88.58-1.39,2.87-.77,2.28.63-1.45,3.46-2.61,7.61-4.53,10.93a72.13,72.13,0,0,1,6.47,6.81l10.1-8.48c1.16-1,2.8.73,1.63,1.71l-10.23,8.6c.6.74,7.06,9.62,8.95,12.5a10.72,10.72,0,0,1,3.15-5.32c1.12-1,2.76.67,1.64,1.71-1.67,1.55-2.84,6.25-3,6.42,2.17,3.36,4.22,6.6,6.19,9.54.85,1.26-1.23,2.39-2.07,1.14-2.39-3.57-4.71-7.39-7.1-11.19-2.5-.72-6,1.61-8.22,2.69a74.71,74.71,0,0,0-7,4c-1.29.82-2.42-1.25-1.14-2.07a72.52,72.52,0,0,1,9.77-5.29,17.83,17.83,0,0,1,5.06-1.77c-1.62-2.53-3.29-5-5-7.39l-4.61,2c-1.38.62-2.53-1.45-1.14-2.07l4.27-1.89c-1.24-1.58-2.52-3.08-3.87-4.5-1.64-1.72-3.42-3.43-5.31-5.07-2.24,2.46-5.91,4.18-8.49,6C29.4,58,28.27,56,29.51,55.1c2.5-1.72,5.49-3.32,7.61-5.56-6.3-5-13.73-8.86-21.65-8.63C13.94,41,14,38.59,15.5,38.55Z"/><path class="cls-4" d="M127.1,30.76a7.1,7.1,0,0,1-2.36,1.79A104.65,104.65,0,0,0,103,48.7c-.27.25-.53.51-.79.77-.92.9-1.82,1.83-2.71,2.77-1.1,1.17-2.18,2.38-3.37,3.45a9.32,9.32,0,0,0-4-2.72,1.3,1.3,0,0,0-1.35.09,1.18,1.18,0,0,0-.26.73,3.8,3.8,0,0,0,2,3.63c.42.22.95.43,1,.9a1.31,1.31,0,0,1-.1.55q-2.13,5.88-4.24,11.77c-1.61-.8-3.5-1.63-5.13-.88a1.6,1.6,0,0,0-1,1.82c.5,1.39,3.29.84,3.51,2.3a2,2,0,0,1-.23,1,60.88,60.88,0,0,0-4.15,14.93,19.55,19.55,0,0,1-1.55,6.31c-1,1.93-3.08,3.5-5.23,3.19a4.42,4.42,0,0,1-1.48-.51A6.63,6.63,0,0,1,72.68,98l-.38-.34a15.39,15.39,0,0,1-4.19-8.35,38.06,38.06,0,0,1-.51-7.7,2.08,2.08,0,0,1,1.7-2c.58-.1,1.24-.24,1.86-.41a.86.86,0,0,0,0-1.64c-1-.32-2.24-.45-2.81-1.31A3,3,0,0,1,68,74.68a16,16,0,0,1,.68-5.41,57.7,57.7,0,0,1,6-13.15c1-1.69,2.69-3.55,4.61-3.07,1.13.29,2.42,1.31,3.24.48a3.33,3.33,0,0,1-1.14-3.76,9.05,9.05,0,0,1,2.33-3.49,77.94,77.94,0,0,1,9.45-8.52,2.55,2.55,0,0,1,1.27-.63,2.66,2.66,0,0,1,1.13.28L100,39.26l.26.11a2.12,2.12,0,0,0-.11-.21l-2.73-5a1.7,1.7,0,0,1-.3-1.31A1.65,1.65,0,0,1,98,32a45.12,45.12,0,0,1,27.18-4.82,3.22,3.22,0,0,1,2,.82A2.27,2.27,0,0,1,127.1,30.76Z"/><path class="cls-3" d="M113.78,32.23a63.69,63.69,0,0,0-14,7.16A.57.57,0,0,0,99,40a62.67,62.67,0,0,0-9.63,8.34,10.31,10.31,0,0,1-2.11-3.47c-.24-.67-1.31-.39-1.07.28a11.58,11.58,0,0,0,2.42,4,60,60,0,0,0-8.91,12.83q-1.23,2.41-2.27,4.92a3,3,0,0,0-2.34-.3.55.55,0,0,0,.28,1.07,1.91,1.91,0,0,1,1.55.21.61.61,0,0,0,.12,0c-.25.64-.5,1.28-.73,1.94a.43.43,0,0,0-.15-.15,17.43,17.43,0,0,0-4.13-2c-.67-.22-1,.85-.29,1.07a17,17,0,0,1,3.87,1.91.47.47,0,0,0,.4.08,62.33,62.33,0,0,0-2.7,11.61c-.16,1.29-.29,2.58-.39,3.89a4.26,4.26,0,0,0-3.71-.64c-.68.21-.4,1.28.28,1.08a3.15,3.15,0,0,1,3,.64.51.51,0,0,0,.31.14c-.17,2.55-.25,5.1-.23,7.63,0,3.86.53,7.62,2.87,10.8.42.57,1.38,0,1-.56-2.52-3.43-2.79-7.52-2.71-11.64a102.09,102.09,0,0,1,.7-11.33A60.92,60.92,0,0,1,81,61.72l.21-.37a7,7,0,0,1,4.31,1,.56.56,0,0,0,.56-1,8.17,8.17,0,0,0-4.24-1.15,60.38,60.38,0,0,1,17.8-19.41c1.23,1.18,2.39,2.42,3.5,3.72.46.55,1.24-.24.78-.78q-1.59-1.87-3.34-3.58a61.78,61.78,0,0,1,13.46-6.84C114.72,33.06,114.45,32,113.78,32.23Z"/><path class="cls-5" d="M103,48.7c-.27.25-.53.51-.79.77a18.38,18.38,0,0,1-2.49-3.79c-.31-.64.65-1.2,1-.56A18,18,0,0,0,103,48.7Z"/><path class="cls-5" d="M82.33,80.83a58.16,58.16,0,0,1-6.76-2c-.67-.24-1,.83-.29,1.07a58.58,58.58,0,0,0,6.75,2C82.72,82.06,83,81,82.33,80.83Z"/><path class="cls-3" d="M77.84,83.77a.56.56,0,0,0,0,1.11,7.25,7.25,0,0,1,3.85,1.2c.6.39,1.15-.57.56-1A8.29,8.29,0,0,0,77.84,83.77Z"/></g></g></svg>