<svg xmlns="http://www.w3.org/2000/svg" xmlns:xlink="http://www.w3.org/1999/xlink" viewBox="0 0 396.66 398.01"><defs><style>.cls-1{isolation:isolate;}.cls-2{fill:#8fcfef;}.cls-3,.cls-4{fill:#f4f4f4;}.cls-3{opacity:0.62;}.cls-5{fill:#e6e6e6;}.cls-6{fill:none;stroke:#e6e6e6;stroke-miterlimit:10;}.cls-7{fill:#ddd;}.cls-8{fill:#ededed;}.cls-9{fill:url(#Безымянный_градиент_32);}.cls-10{fill:url(#Безымянный_градиент_15);}.cls-11{fill:url(#Безымянный_градиент_26);}.cls-12,.cls-36{fill:#252344;}.cls-13{fill:#ffe1bd;}.cls-14{fill:#f7d7b5;}.cls-15{fill:#f6a091;}.cls-16{fill:#ea978c;}.cls-17{fill:url(#Безымянный_градиент_13);}.cls-18{fill:url(#Безымянный_градиент_15-2);}.cls-19,.cls-34{opacity:0.3;mix-blend-mode:multiply;}.cls-20{fill:#eda694;}.cls-21{fill:url(#Безымянный_градиент_15-3);}.cls-22{fill:url(#Безымянный_градиент_8);}.cls-23{fill:url(#Безымянный_градиент_12);}.cls-24{fill:url(#Безымянный_градиент_12-2);}.cls-25{fill:#e8a87e;}.cls-26{fill:url(#Безымянный_градиент_12-3);}.cls-27{fill:url(#Безымянный_градиент_12-4);}.cls-28{fill:url(#Безымянный_градиент_27);}.cls-29{fill:url(#Безымянный_градиент_32-2);}.cls-30{fill:#20264c;}.cls-31{fill:#0a344c;}.cls-32{fill:#491b55;}.cls-33{fill:#623372;}.cls-34{fill:#34133f;}.cls-35{fill:url(#Безымянный_градиент_15-4);}.cls-36{opacity:0.09;}.cls-37{fill:#3a3a3a;}.cls-38{fill:url(#Безымянный_градиент_15-5);}.cls-39{fill:url(#Безымянный_градиент_12-5);}.cls-40{fill:url(#Безымянный_градиент_32-3);}.cls-41{fill:#ea9d49;}.cls-42,.cls-43,.cls-44{fill:#fff;}.cls-42{opacity:0.22;}.cls-43{font-size:21.19px;}.cls-43,.cls-44{font-family:BradleyHandITCTT-Bold, Bradley Hand;font-weight:700;}.cls-44{font-size:19.29px;}</style><linearGradient id="Безымянный_градиент_32" x1="223.71" y1="101.74" x2="299.09" y2="101.74" gradientUnits="userSpaceOnUse"><stop offset="0" stop-color="#e6813b"/><stop offset="1" stop-color="#febb2d"/></linearGradient><linearGradient id="Безымянный_градиент_15" x1="133.24" y1="146.05" x2="216.52" y2="146.05" gradientUnits="userSpaceOnUse"><stop offset="0.1" stop-color="#487cff"/><stop offset="0.48" stop-color="#2742ff"/><stop offset="0.83" stop-color="#0b12ff"/><stop offset="1" stop-color="blue"/></linearGradient><linearGradient id="Безымянный_градиент_26" x1="77.43" y1="304.01" x2="146.96" y2="304.01" gradientUnits="userSpaceOnUse"><stop offset="0" stop-color="#3053ff"/><stop offset="0.61" stop-color="blue"/><stop offset="1" stop-color="#487cff"/></linearGradient><linearGradient id="Безымянный_градиент_13" x1="57.04" y1="260.98" x2="112.33" y2="260.98" gradientUnits="userSpaceOnUse"><stop offset="0" stop-color="#d18b00"/><stop offset="0.63" stop-color="#df8429"/><stop offset="1" stop-color="#e6813b"/></linearGradient><linearGradient id="Безымянный_градиент_15-2" x1="60.1" y1="287.23" x2="146.97" y2="287.23" xlink:href="#Безымянный_градиент_15"/><linearGradient id="Безымянный_градиент_15-3" x1="60.1" y1="293.56" x2="80.37" y2="293.56" xlink:href="#Безымянный_градиент_15"/><linearGradient id="Безымянный_градиент_8" x1="81.99" y1="195.15" x2="67.81" y2="203.33" gradientUnits="userSpaceOnUse"><stop offset="0" stop-color="#f2b143"/><stop offset="0.56" stop-color="#eb933e"/><stop offset="1" stop-color="#e6813b"/></linearGradient><linearGradient id="Безымянный_градиент_12" x1="43.47" y1="233.97" x2="112.33" y2="233.97" gradientUnits="userSpaceOnUse"><stop offset="0.39" stop-color="#f2b143"/><stop offset="0.73" stop-color="#eb933e"/><stop offset="1" stop-color="#e6813b"/></linearGradient><linearGradient id="Безымянный_градиент_12-2" x1="56.99" y1="244.23" x2="76.33" y2="244.23" xlink:href="#Безымянный_градиент_12"/><linearGradient id="Безымянный_градиент_12-3" x1="93.72" y1="205.87" x2="108.96" y2="205.87" xlink:href="#Безымянный_градиент_12"/><linearGradient id="Безымянный_градиент_12-4" x1="353.87" y1="179.93" x2="388.31" y2="179.93" xlink:href="#Безымянный_градиент_12"/><linearGradient id="Безымянный_градиент_27" x1="355.13" y1="229.29" x2="396.66" y2="229.29" gradientUnits="userSpaceOnUse"><stop offset="0.39" stop-color="#ffbe2c"/><stop offset="0.78" stop-color="#ee9336"/><stop offset="1" stop-color="#e6813b"/></linearGradient><linearGradient id="Безымянный_градиент_32-2" x1="355.13" y1="222.23" x2="392.17" y2="222.23" xlink:href="#Безымянный_градиент_32"/><linearGradient id="Безымянный_градиент_15-4" x1="314.65" y1="176.88" x2="386.4" y2="176.88" xlink:href="#Безымянный_градиент_15"/><linearGradient id="Безымянный_градиент_15-5" x1="323.14" y1="152.93" x2="340" y2="152.93" xlink:href="#Безымянный_градиент_15"/><linearGradient id="Безымянный_градиент_12-5" x1="339.12" y1="179.78" x2="354.02" y2="179.78" xlink:href="#Безымянный_градиент_12"/><linearGradient id="Безымянный_градиент_32-3" x1="346.34" y1="236.12" x2="363.57" y2="236.12" xlink:href="#Безымянный_градиент_32"/></defs><title>Ресурс 1</title><g class="cls-1"><g id="Слой_2" data-name="Слой 2"><g id="OBJECTS"><path class="cls-2" d="M215.61,11.27c-14.53,5-39,23.15-61.73,21.88C74.59,28.7,49.21,55.6,52.8,103.3c5,65.79,15.53,118.22-15.42,159.34C-13,329.52,16.76,384.08,56,395.32c45.62,13.05,89.48-41.55,172.77-36.62S356.48,408,377.61,382.3s-58.69-136-18.29-217.83C397.91,86.36,358-38.15,215.61,11.27Z"/><path class="cls-3" d="M70.86,106.72s-80.72,126.87-36,196.86,106.56,66.95,173.54,78.72,153.07,34.46,157.42-14S350,230,365.85,181.53,275.06,4.38,205.32,2.52,70.86,106.72,70.86,106.72Z"/><path class="cls-4" d="M215.61,11.27c-14.53,5-39,23.15-61.73,21.88C74.59,28.7,49.21,55.6,52.8,103.3c5,65.79,15.53,118.22-15.42,159.34C-13,329.52,16.76,384.08,56,395.32c45.62,13.05,89.48-41.55,172.77-36.62S356.48,408,377.61,382.3s-58.69-136-18.29-217.83C397.91,86.36,358-38.15,215.61,11.27Z"/><circle class="cls-5" cx="26.92" cy="155.07" r="2.46"/><path class="cls-5" d="M371.42,253.9a2.46,2.46,0,1,1-2.46-2.46A2.46,2.46,0,0,1,371.42,253.9Z"/><path class="cls-5" d="M132,13.91a2.46,2.46,0,1,1-2.46-2.46A2.46,2.46,0,0,1,132,13.91Z"/><circle class="cls-5" cx="183.98" cy="110.57" r="3.85"/><circle class="cls-5" cx="336.38" cy="49.2" r="3.85"/><circle class="cls-5" cx="304.77" cy="17.76" r="5.49"/><path class="cls-5" d="M376.91,324a5.49,5.49,0,1,1-5.49-5.5A5.49,5.49,0,0,1,376.91,324Z"/><path class="cls-5" d="M343.71,331.07a3.48,3.48,0,1,1-3.48-3.48A3.48,3.48,0,0,1,343.71,331.07Z"/><circle class="cls-5" cx="56.03" cy="362.29" r="2.46"/><circle class="cls-5" cx="109.74" cy="158.12" r="2.46"/><circle class="cls-5" cx="45.39" cy="97.33" r="2.46"/><circle class="cls-5" cx="163.93" cy="373.15" r="2.46"/><circle class="cls-5" cx="166.09" cy="276.56" r="2.46"/><path class="cls-5" d="M8.26,287.68a2.46,2.46,0,1,1-2.46-2.46A2.46,2.46,0,0,1,8.26,287.68Z"/><circle class="cls-5" cx="366.5" cy="187.87" r="2.46"/><circle class="cls-5" cx="317.43" cy="362.29" r="2.46"/><path class="cls-5" d="M371.42,373.15a2.46,2.46,0,1,1-2.46-2.46A2.46,2.46,0,0,1,371.42,373.15Z"/><path class="cls-5" d="M176.86,281.7c0-.31,9.07,4.32,8.11,17.82-1,12.59-9.79,15.37-10.58,31.28,10.83,4.94,22.45,8.15,33.64,8a248,248,0,0,0,8.67-25.61c4-13.68-.47-29.17-7-37.75C198.84,274.78,187.53,277.31,176.86,281.7Z"/><path class="cls-4" d="M184,284a.4.4,0,0,1-.46-.38.59.59,0,0,1,.4-.62,82,82,0,0,1,24.19-3.39.58.58,0,0,1,.52.52.43.43,0,0,1-.41.51A85.4,85.4,0,0,0,184,284Z"/><path class="cls-4" d="M185.68,288.72a.43.43,0,0,1-.46-.43.56.56,0,0,1,.43-.59,100.94,100.94,0,0,1,25.27-1.33.58.58,0,0,1,.49.54.4.4,0,0,1-.43.46,106.34,106.34,0,0,0-25.26,1.35Z"/><path class="cls-4" d="M203.89,293.89a162,162,0,0,0-17.35.12.44.44,0,0,1-.46-.48.54.54,0,0,1,.46-.55,149.88,149.88,0,0,1,17.35-.13.52.52,0,0,1,.47.55A.46.46,0,0,1,203.89,293.89Z"/><path class="cls-4" d="M213.57,302.82h0c-8.82-1.17-18-2.27-27-2.85a.48.48,0,0,1-.42-.54.51.51,0,0,1,.51-.49c9,.54,18.2,1.66,27,2.91a.51.51,0,0,1,.42.54A.46.46,0,0,1,213.57,302.82Z"/><path class="cls-4" d="M213.57,310.82h-.07c-9.1-1.07-18.62-2.74-27.88-4.18a.5.5,0,0,1-.4-.58.49.49,0,0,1,.53-.44c9.27,1.39,18.78,3.08,27.88,4.22a.48.48,0,0,1,.39.55A.49.49,0,0,1,213.57,310.82Z"/><path class="cls-4" d="M198.35,316.25h-.08c-4.81-.83-9.63-1.83-14.37-2.87a.52.52,0,0,1-.39-.59.44.44,0,0,1,.54-.4c4.74,1,9.56,2,14.37,2.82a.52.52,0,0,1,.39.6A.49.49,0,0,1,198.35,316.25Z"/><path class="cls-4" d="M208.7,326.34h-.09c-9.22-.94-18.73-3.47-27.87-6.4a.56.56,0,0,1-.36-.62.42.42,0,0,1,.55-.34c9.14,2.86,18.65,5.36,27.86,6.34a.45.45,0,0,1,.37.56A.57.57,0,0,1,208.7,326.34Z"/><path class="cls-4" d="M206.36,332.9h-.07a96.86,96.86,0,0,1-27.6-5.73.61.61,0,0,1-.39-.63.38.38,0,0,1,.53-.31,101,101,0,0,0,27.6,5.63.44.44,0,0,1,.39.54A.56.56,0,0,1,206.36,332.9Z"/><path class="cls-5" d="M172.13,55.91c.16-.1,1.74,6.65-6,12.36-7,5-14.26,4.5-22.19,11.78a37.31,37.31,0,0,1,16.92,12.09,92.14,92.14,0,0,0,14.68-3c8.51-2.29,17.34-12.06,19.09-19.39A52,52,0,0,0,172.13,55.91Z"/><path class="cls-4" d="M174.48,60.39a.24.24,0,0,1,0-.4.62.62,0,0,1,.62-.13A50.59,50.59,0,0,1,190.8,70.61a.36.36,0,0,1,0,.52.44.44,0,0,1-.57,0,50.08,50.08,0,0,0-15.67-10.71Z"/><path class="cls-4" d="M172.57,63.47a.24.24,0,0,1,0-.41.56.56,0,0,1,.6-.1A48.39,48.39,0,0,1,188,75.08a.35.35,0,0,1-.07.51.39.39,0,0,1-.53,0,48,48,0,0,0-14.84-12.06Z"/><path class="cls-4" d="M179.73,74.28a45.46,45.46,0,0,0-9.71-8,.23.23,0,0,1,0-.41.52.52,0,0,1,.58-.07,45.81,45.81,0,0,1,9.72,8,.31.31,0,0,1,0,.48A.44.44,0,0,1,179.73,74.28Z"/><path class="cls-4" d="M179.64,83.28l0,0A46.62,46.62,0,0,0,166.74,69c-.14-.1-.12-.28,0-.4a.54.54,0,0,1,.56,0A47,47,0,0,1,180.2,82.92a.33.33,0,1,1-.56.36Z"/><path class="cls-4" d="M175.4,86.29l0,0a46.13,46.13,0,0,0-12.6-14.57c-.13-.1-.11-.27,0-.38a.5.5,0,0,1,.55,0A46.75,46.75,0,0,1,175.93,86a.31.31,0,0,1-.11.44A.35.35,0,0,1,175.4,86.29Z"/><path class="cls-4" d="M165.51,80.27l0,0a41.22,41.22,0,0,0-7.06-6.17c-.13-.09-.11-.25.05-.36a.49.49,0,0,1,.53,0,41.88,41.88,0,0,1,7,6.23.24.24,0,0,1-.07.39A.41.41,0,0,1,165.51,80.27Z"/><path class="cls-4" d="M166.11,88.76a.1.1,0,0,1,0-.05A42.3,42.3,0,0,0,153.3,76.13c-.13-.09-.12-.23,0-.34a.51.51,0,0,1,.52,0,42.38,42.38,0,0,1,12.72,12.73.25.25,0,0,1-.08.38A.38.38,0,0,1,166.11,88.76Z"/><path class="cls-4" d="M162.38,89.56l0,0a38.85,38.85,0,0,0-13.69-10.71c-.14-.06-.14-.2,0-.3a.59.59,0,0,1,.51-.07,39.1,39.1,0,0,1,13.66,10.84.23.23,0,0,1,0,.37A.38.38,0,0,1,162.38,89.56Z"/><rect class="cls-5" x="125.21" y="228.36" width="14.98" height="27.1" rx="1.68" transform="translate(211.71 -22.45) rotate(45.39)"/><rect class="cls-4" x="127.28" y="230.27" width="12.47" height="21.67" rx="0.67" transform="translate(211.38 -23.28) rotate(45.39)"/><path class="cls-4" d="M125.53,250.68a1.2,1.2,0,1,1,0-1.7A1.2,1.2,0,0,1,125.53,250.68Z"/><rect class="cls-5" x="210.14" y="231.42" width="2.33" height="25.9" transform="translate(-86.76 119.76) rotate(-26.46)"/><path class="cls-5" d="M216,256.49l1.59,1.37a.38.38,0,0,0,.62-.31l-.13-2.1Z"/><path class="cls-5" d="M206.85,232.13a1.46,1.46,0,0,1-.66,2,1.47,1.47,0,0,1-1.31-2.63A1.46,1.46,0,0,1,206.85,232.13Z"/><path class="cls-6" d="M206.27,232.42s1.13-.86,2.59,1.28c1.24,1.82.91,5.57,1.65,6.46a.75.75,0,0,0,1.33-.66"/><path class="cls-5" d="M213.2,245.55a29.44,29.44,0,0,1,4.8,9.65"/><path class="cls-5" d="M211.11,246.59a29.39,29.39,0,0,0,4.8,9.65"/><path class="cls-5" d="M291,41.43h18a1.4,1.4,0,0,1,1.4,1.4V65.37a1.4,1.4,0,0,1-1.4,1.4H291a0,0,0,0,1,0,0V41.43A0,0,0,0,1,291,41.43Z" transform="translate(17.46 168.65) rotate(-32.22)"/><rect class="cls-7" x="292.46" y="46.44" width="0.62" height="25.33" transform="translate(13.56 165.16) rotate(-32.21)"/><rect class="cls-4" x="288.89" y="44.89" width="15.85" height="6.01" transform="translate(20.16 165.61) rotate(-32.22)"/><polygon class="cls-8" points="248.98 180.34 237.33 199.73 215.8 204.42 215.96 205.67 234.69 200.82 216.41 208.35 217.05 212.31 239.28 202 252.8 181.56 248.98 180.34"/><path class="cls-5" d="M254.12,180.37h0a.83.83,0,0,0-1.14.22l-14.08,21-22.83,10.78a.82.82,0,0,0-.39,1.1h0a.82.82,0,0,0,1.09.39l22.29-10.53.33.38,1.55-1.33-.33-.38,13.73-20.46A.81.81,0,0,0,254.12,180.37Z"/><path class="cls-9" d="M259.86,133a17.61,17.61,0,0,0,.52-6l19.23,4.3,4.12-18.41a30,30,0,0,0,3.38,1A10.13,10.13,0,0,0,291.53,94a21.2,21.2,0,0,0-3.47-.52L292.19,75,236.28,62.53l-4.42,19.76c1.15,0,2.63-.41,4.23-.05a9.52,9.52,0,1,1-4.16,18.57,26.08,26.08,0,0,1-4-1.18l-4.27,19.09L242.78,123a22.26,22.26,0,0,0-1.95,5.72,9.76,9.76,0,1,0,19,4.26Z"/><path class="cls-10" d="M203.1,129.42a18.15,18.15,0,0,0-5.86,2.52l-5.63-20.75-19.12,5.19a33.35,33.35,0,0,0-.8-3.75,10.64,10.64,0,1,0-20.53,5.57,25.49,25.49,0,0,0,1.26,3.62L133.24,127l16.35,60.3,19.29-5.23a23,23,0,0,1-1.54-4.23,10.63,10.63,0,1,1,20.52-5.57,27.53,27.53,0,0,1,.88,4.41L208,171.49l-5.58-20.57a22.52,22.52,0,0,0,6.28-1,10.63,10.63,0,1,0-5.56-20.53Z"/><path class="cls-11" d="M77.69,329.4s10.93,4.78,25.84-4.3c34-20.74,43.43-47.25,43.43-47.25s-23.26-3.23-45,6.86S76.24,316.06,77.69,329.4Z"/><path class="cls-12" d="M139.19,372.22a36,36,0,0,1,3.86,6c1.39,3,4.53,10.39,3.93,13.35s-4.41,2.17-7.79-2.42-5.44-8.33-6-11.17,2.18-5.8,2.18-5.8"/><path class="cls-12" d="M106.1,354.54a5.55,5.55,0,0,0-3.46,2c-1.68,1.91.27,4,1.74,6.57s5.25,8.26,6.88,9.31,1.12-2.45.88-5.08c-.21-2.29-1.69-8.69-1.69-8.69"/><path class="cls-13" d="M140.49,373.11c-.09-.24-.14-.42-.18-.54l0,.05C140.4,372.79,140.45,373,140.49,373.11Z"/><path class="cls-13" d="M134.81,301.91c-.92,6.87-23.15,51.44-24.36,56.76a4.44,4.44,0,0,1-2.84-1.11,4.86,4.86,0,0,1-1.21-1.81,5.35,5.35,0,0,1-.3-1.21,5.37,5.37,0,0,0,2.45-3.85q0-.12,0-.21l0-.29c0-.48.09-1,.12-1.48.88-13.33,3.1-30.92,5.39-36.7,1.47-3.69,6.27-10.38,3.54-14.22-2.17-3.06-9.17-9.39-13.7-13.35-2.34-2.06-4-3.47-4-3.47l20.79-6.28c1,.87,2,1.71,2.85,2.53a54,54,0,0,1,9,10C136.66,293.56,135.41,297.4,134.81,301.91Z"/><path class="cls-14" d="M122.8,299.92c-.76,4.44-5,6.58-8.26,17.52s-3.82,26.91-4.13,29.59-.45,6.62-4,8.72a5.35,5.35,0,0,1-.3-1.21,5.37,5.37,0,0,0,2.45-3.85q0-.12,0-.21l0-.29c0-.48.09-1,.12-1.48.88-13.33,3.1-30.92,5.39-36.7,1.47-3.69,6.27-10.38,3.54-14.22-2.17-3.06-9.17-9.39-13.7-13.35l0,0c1.69-1.3,16.11-7.06,16.74-7.06.23,0,1.43-.06,2.85-.13a54,54,0,0,1,9,10,79.21,79.21,0,0,0-14.12,3.9S123.57,295.49,122.8,299.92Z"/><path class="cls-15" d="M134.81,301.91c-.92,6.87-23.15,51.44-24.36,56.76a4.44,4.44,0,0,1-2.84-1.11,4.86,4.86,0,0,1-1.21-1.81,5.35,5.35,0,0,1-.3-1.21,5.37,5.37,0,0,0,2.45-3.85q0-.12,0-.21l0-.29c0-.48.09-1,.12-1.48.88-13.33,3.1-30.92,5.39-36.7,1.47-3.69,6.27-10.38,3.54-14.22-2.17-3.06-9.17-9.39-13.7-13.35-2.34-2.06-4-3.47-4-3.47l20.79-6.28c1,.87,2,1.71,2.85,2.53a54,54,0,0,1,9,10C136.66,293.56,135.41,297.4,134.81,301.91Z"/><path class="cls-15" d="M139.74,379.1a5.07,5.07,0,0,1-4.06-2.49l-.81-1.41a5.2,5.2,0,0,0-.56-1.12c0-.07-.09-.13-.12-.19l0-.05h0l-.59-.86-.08-.14c-.07-.12-.16-.24-.23-.36-3.67-5.82-7.07-12.3-13.3-19.34s-11.3-12.07-16.8-29.2c-4.38-13.62-19.58-23.66-25.62-27.2-1.56-.92-2.52-1.4-2.52-1.4l4.11-1.25,22.7-6.86s1.35,2.57,4.58,8.78l8.53,16.46c9.47,18.35,25.86,61.1,26.18,64.75A1.63,1.63,0,0,1,139.74,379.1Z"/><path class="cls-16" d="M138.2,378.76a4.88,4.88,0,0,1-2.52-2.15l-.81-1.41a5.2,5.2,0,0,0-.56-1.12c0-.07-.09-.13-.12-.19l0-.05h0l-.59-.86-.08-.14c-.07-.12-.16-.24-.23-.36-3.67-5.82-7.07-12.3-13.3-19.34s-11.3-12.07-16.8-29.2c-4.38-13.62-19.58-23.66-25.62-27.2.48-.84,1-1.74,1.59-2.65l22.7-6.86s1.35,2.57,4.58,8.78A47.79,47.79,0,0,0,95,304.44s6.24,7.74,8.2,11.87,3.61,11.12,6.14,17.66,11.52,17.84,14.33,20.93S134,371.65,134,371.65,136.52,377.84,138.2,378.76Z"/><path class="cls-12" d="M91.38,139.21s9-.92,4.13,23.95c-2.83,14.55-20.8,26.67-28.14,29.26s-20.38.83-20.38.83l-.72-23.92s19.95-18.83,21.1-20.49S91.38,139.21,91.38,139.21Z"/><path class="cls-17" d="M57,274.7s1,6.07,7.5,4.39c43.31-11.16,47.79-36.51,47.79-36.51L76,249.12s-9.94,5.12-10.32,5.2-7.57,8.79-7.57,8.79Z"/><path class="cls-18" d="M147,277.85a16,16,0,0,1-2.62,2.83L144,281c-3.46,2.73-7.76,3.5-13.79,4.71h0l-.9.19a121,121,0,0,0-12.94,3.26l-.9.3c-3.09,1-6.49,2.27-10.22,3.9-1.24.54-2.43,1.1-3.56,1.67l-.77.39A51.71,51.71,0,0,0,88.71,304c-.23.21-.45.43-.66.65a37.13,37.13,0,0,0-7.66,11l0,.05-.43,1a28.35,28.35,0,0,0-2.25,12.62C59,316.93,59.79,269.29,60.28,257.71c.06-1.63.13-2.55.13-2.55l43.9-10.1C120.61,269.89,147,277.85,147,277.85Z"/><g class="cls-19"><path class="cls-20" d="M144.35,280.68l-2.49-.9-3.44-1.55c-.64-.28-1.31-.55-2-.89l-2-1.07-2.17-1.12c-.73-.39-1.44-.85-2.19-1.28l-2.27-1.32c-.76-.47-1.49-1-2.25-1.5s-1.53-1-2.28-1.51L121,267.9a49.51,49.51,0,0,1-4.29-3.46c-1.38-1.19-2.62-2.49-3.82-3.73s-2.3-2.51-3.32-3.73-2.06-2.31-2.94-3.37-1.67-2.06-2.41-2.91-1.3-1.65-1.8-2.29-.89-1.14-1.15-1.49l-.39-.54-.08.05s.43.83,1.3,2.2c.42.7,1,1.5,1.64,2.44s1.41,2,2.3,3c.44.55.9,1.11,1.38,1.69l1.55,1.74c.28.29.55.58.83.89l.9.86c.59.59,1.21,1.18,1.84,1.79l4,3.59,2.07,1.84c.67.64,1.39,1.21,2.11,1.81l2.14,1.79c.73.56,1.49,1.09,2.23,1.63s1.48,1.07,2.22,1.57l2.27,1.39c.74.46,1.47.93,2.21,1.33l2.2,1.11,2.1,1c.67.32,1.37.56,2,.82,1.31.5,2.49,1,3.56,1.36.88.24,1.66.46,2.33.66Z"/><path class="cls-20" d="M130.18,285.7l-.9.19c-.7-.4-1.44-.85-2.23-1.32-1.14-.65-2.26-1.51-3.5-2.37a17.8,17.8,0,0,1-1.83-1.4l-1.85-1.54c-1.27-1-2.45-2.25-3.7-3.41s-2.4-2.49-3.58-3.75l-6.73-7.68c-1.06-1.24-2.11-2.43-3-3.62s-1.71-2.35-2.46-3.41-1.39-2.08-2-3-1-1.69-1.4-2.36c-.75-1.33-1.11-2.12-1.11-2.12l.08-.05s.49.72,1.36,2c.44.62,1,1.37,1.57,2.24L101,257l2.48,3.37c.44.6.89,1.22,1.34,1.86s.93,1.27,1.42,1.92c.93,1.33,2,2.6,3.13,3.9s2.34,2.53,3.57,3.75l1.89,1.77c.62.59,1.22,1.2,1.88,1.74,1.29,1.11,2.47,2.29,3.77,3.28s2.43,2,3.64,2.9l1.72,1.29c.56.42,1.09.84,1.64,1.18C128.46,284.56,129.37,285.15,130.18,285.7Z"/><path class="cls-20" d="M116.34,289.15l-.9.3c-1-.81-2-1.83-3.14-2.84s-2.21-2.27-3.35-3.49-2.18-2.62-3.3-4-2.08-2.86-3.12-4.32l-2.93-4.43c-.92-1.5-1.94-2.9-2.83-4.31s-1.8-2.76-2.54-4.1-1.42-2.64-2-3.83-1.12-2.3-1.55-3.3-.82-1.87-1.09-2.61c-.57-1.45-.84-2.3-.84-2.3l.09,0,1.1,2.19c.35.69.78,1.54,1.28,2.5l1.68,3.22c1.27,2.34,2.73,5.08,4.31,8,.77,1.49,1.71,2.93,2.64,4.41s2,2.89,3.11,4.3c.55.7,1.11,1.38,1.67,2.07s1.09,1.39,1.67,2c1.16,1.31,2.21,2.67,3.38,3.84s2.19,2.43,3.31,3.45l1.58,1.56a19.78,19.78,0,0,0,1.51,1.42Z"/><path class="cls-20" d="M101.66,295l-.77.39-.54-.69c-.43-.61-.86-1.25-1.32-1.91a47.1,47.1,0,0,1-2.69-4.22c-.86-1.5-1.79-3-2.58-4.68q-.62-1.21-1.23-2.46c-.38-.83-.74-1.69-1.11-2.54-.75-1.69-1.44-3.4-2.13-5.08s-1.33-3.34-2-4.93-1.24-3.17-1.73-4.69-.9-2.95-1.23-4.3-.63-2.59-.85-3.69-.41-2.07-.52-2.87c-.24-1.6-.31-2.52-.31-2.52l.09,0s.21.9.6,2.47l.72,2.81c.32,1.07.61,2.3,1,3.62s.82,2.74,1.26,4.27.94,3.1,1.43,4.75,1.09,3.34,1.84,5c.36.82.72,1.66,1.08,2.5s.83,1.65,1.24,2.47.82,1.64,1.27,2.44l1.33,2.39c.83,1.6,1.78,3.11,2.67,4.58.46.72.86,1.47,1.34,2.15l1.33,2c.44.66.85,1.3,1.25,1.93Z"/><path class="cls-20" d="M88.71,304c-.23.21-.45.43-.66.65-.45-.75-.9-1.53-1.32-2.34l-.65-1.21c-.2-.43-.41-.85-.61-1.28-.43-.84-.83-1.72-1.22-2.64-.78-1.81-1.51-3.71-2.19-5.66-.36-1-.65-2-1-3s-.58-2-.86-3c-.53-2-1.06-4.07-1.53-6.07s-.94-4-1.4-5.9-.85-3.77-1.13-5.55-.51-3.48-.68-5-.31-3-.37-4.27-.14-2.4-.15-3.31c0-1.84,0-2.88,0-2.88h.09l.28,2.86c.19,1.81.49,4.41.89,7.51.22,1.55.45,3.23.7,5s.52,3.65.84,5.59.71,3.92,1.2,5.92c.24,1,.53,2,.8,3s.62,2,.92,3c.69,2,1.38,4,2.11,5.86s1.5,3.78,2.32,5.55c.4.89.79,1.77,1.22,2.61s.8,1.67,1.23,2.46S88.34,303.33,88.71,304Z"/><path class="cls-20" d="M80.39,315.71l0,.05-.43,1q-.64-1.08-1.23-2.28l-1.47-2.85a30.13,30.13,0,0,1-1.46-3c-.44-1-.89-2.12-1.35-3.19s-1-2.17-1.31-3.3-.77-2.28-1.16-3.43L71.38,297l-.47-1.76c-.63-2.34-1.31-4.67-1.79-7-.26-1.16-.59-2.3-.83-3.45s-.46-2.27-.69-3.39-.45-2.21-.6-3.29-.34-2.14-.48-3.18c-.19-2.07-.42-4-.44-5.86,0-.91-.07-1.78-.09-2.62s0-1.61,0-2.35c0-1.48.11-2.77.2-3.83s.18-1.88.27-2.45.13-.86.13-.86l.09,0s-.08,1.2-.11,3.31c0,1.06,0,2.34,0,3.81,0,.74,0,1.52.06,2.34s.1,1.68.15,2.59.1,1.84.21,2.81.17,2,.26,3c.3,2.05.39,4.24.79,6.47.17,1.12.34,2.25.54,3.4s.49,2.3.76,3.46.52,2.33.9,3.47.73,2.3,1.1,3.45l.56,1.72.65,1.68c.43,1.12.86,2.24,1.28,3.35s.9,2.19,1.36,3.25.94,2.11,1.4,3.15,1,2,1.46,3,1,1.92,1.44,2.83C79.81,314.63,80.1,315.18,80.39,315.71Z"/></g><path class="cls-21" d="M77.69,329.4C59,316.93,59.79,269.29,60.28,257.71l3.27.17S62.42,275.15,66.34,284s1.17,14.38,4,21.41c2.07,5.12,7.32,8.74,10,10.33A28.83,28.83,0,0,0,77.69,329.4Z"/><path class="cls-16" d="M61.25,201.22s-23,9.29-27.75,14.68c8,1.45.8,5.81,5.5,4.89s14.45-7.42,14.45-7.42"/><path class="cls-15" d="M93.25,198.12s13.65-4.37,19.92-8.29,17.57-15.44,20.86-19l3.57.9a4.69,4.69,0,0,0-.87.85c-2,3.1-10.88,16.85-16.91,22.1A45.6,45.6,0,0,1,99,204.81"/><path class="cls-22" d="M68.25,197.43a9.94,9.94,0,0,1,3.84,0c2.29.4,5.73.92,6.77.58s3.67-.69,4.7-.06-3.63,4-3.63,4-12.54.8-12.56.59S68.25,197.43,68.25,197.43Z"/><path class="cls-15" d="M79.76,190.15a22.51,22.51,0,0,0,.68,6.71c1,1.67,3.92,1.75,5.56,2.38,1.09.42,1.63,1.08.71,2.62-2.29,3.86-11.81,5.66-17.35,3.26s-5.58-6.08-1.91-6.65a5.44,5.44,0,0,0,4.47-3.8,45.41,45.41,0,0,0,.4-8.91c-.74-.53-1.18-.87-1.18-.87-4.82-4.34-8.46-11.85-5.29-18.38s21-14.27,22.77-10.32c3.67,8,3.26,33.49-1.93,35.16C84.82,192,82.26,191.26,79.76,190.15Z"/><path class="cls-16" d="M86,199.24a2.52,2.52,0,0,1-2.29.3c-4.31-1.07-4.41-3.07-4.87-6.3-.43-3-3.4-5.6-3.78-5.91,1.76,1.22,4.7,2.82,4.7,2.82a22.51,22.51,0,0,0,.68,6.71C81.49,198.53,84.36,198.61,86,199.24Z"/><path class="cls-23" d="M112.33,242.58c0,.18-.11,5.69-13.07,9.4-6,1.71-14.72,1.64-22.73,3.22l-.2,0c-9.7,2-18.25,6.41-19.29,19.45,0,0-.83-22,4.37-60.1a24.05,24.05,0,0,0-9.1,6.93s-7.22-6-8.84-14.22c0,0,9.07-4.29,13.88-6.5a55,55,0,0,1,10.89-3.37s7.23,5.57,15.32.52a1.71,1.71,0,0,0,.76.32c2.41.47,5.68-.15,9.73-1.48s10.1-3.55,10.1-3.55a42.92,42.92,0,0,1,4.12,9.75,22.25,22.25,0,0,1,.69,3.66,32.92,32.92,0,0,1-14,2,71.61,71.61,0,0,1,1.71,8.64c1.15,7.68,3.58,16.54,10.33,22A19,19,0,0,0,112.33,242.58Z"/><path class="cls-24" d="M76.33,255.24c-9.7,2-18.25,6.41-19.29,19.45,0,0-.83-22,4.37-60.1a5.92,5.92,0,0,1,2.37-.83s-2,19,.88,25.84S66,252.33,66.34,254C66.66,255.47,66.13,257.25,76.33,255.24Z"/><path class="cls-15" d="M35.76,213.92s-4.08,2.59-3.09,5.16c.73,1.88,20.34,7.51,33.17,7.25,0,0,.41-2.5.51-4.23-6.78-.95-12.85-1.67-18.74-4.49C37.08,212.58,35.76,213.92,35.76,213.92Z"/><path class="cls-15" d="M66.35,222.1a16.56,16.56,0,0,0,2-.24c1.44-.23,2.87-1.2,4.3-1.37s5.65.81,7.14,1.43,0,1-2,.62-3.61-.49-4.57,0-3.35,4.67-7.37,3.81S66.35,222.1,66.35,222.1Z"/><path class="cls-25" d="M70.48,227a.72.72,0,0,0,0,.84c.32.43,3.45-.52,3.45-.52l-1-1.75Z"/><path class="cls-15" d="M73.93,221.44s2.46,5,0,5.87c0,0-4.61.19-7.58-1S71,222.66,71,222.66Z"/><path class="cls-12" d="M93.47,132.41c.83,4.92,2.8,24.36-15.08,34.21a11.77,11.77,0,0,0-5.6,6.89c-1.53,5.09-4.85,13-11.54,17.08-10.4,6.42-19.88.31-25.38.76s-12.08,7.34-22.48,4.13S-2.36,186.31,1,179.89s11.62-4.59,17.28-6.43,2.91-16.67,15.22-23.85,20.91,3.51,30.68.15,5-10.55,16.23-20.34c3.7-3.23,9.4-3.67,12,.21A6.91,6.91,0,0,1,93.47,132.41Z"/><path class="cls-12" d="M15.21,173h0c4.32-.76,5.4-5.49,8.06-14.25l.08-.26C26.49,148.19,32.58,143,42,142.7a31.07,31.07,0,0,1,11.8,2c3.18,1,5.92,2,9.84,1.44,7.75-1,13.9-12.76,14-12.87l.66.34c-.25.5-6.39,12.23-14.52,13.27-4.09.53-7-.44-10.17-1.47a30.3,30.3,0,0,0-11.54-2c-9,.31-14.9,5.31-17.93,15.3L24,159C21.24,168.06,20,172.19,15.21,173Z"/><path class="cls-15" d="M72.87,176.44s0-2.86-3.15-2-1.45,6.8,1.2,6.61"/><path class="cls-26" d="M109,206.65a32.92,32.92,0,0,1-14,2s-.54-1.14-1.26-2.41a6.12,6.12,0,0,0,3.21.27c2.15-.21,7.9-3.06,11.34-3.5A22.25,22.25,0,0,1,109,206.65Z"/><path class="cls-15" d="M141.9,160.93s2.83-2.52,3.25-2.75.51.26.2,1-2.13,1.95-2.13,1.95Z"/><path class="cls-15" d="M139.45,162.09s3.94-3.29,4.36-3.53.51.26.2,1a19,19,0,0,1-2.77,2.91Z"/><path class="cls-15" d="M135.85,172.54a7.25,7.25,0,0,1,2.74-1.1,14.57,14.57,0,0,0,3.47-.62,26.67,26.67,0,0,0,2.81-1.42c.62-.39,2-.86,1.71-1.38s-1.9-.06-2.8.25a3.33,3.33,0,0,1-1,.26,1,1,0,0,1-.9-.44,1.3,1.3,0,0,1-.12-.73,9.19,9.19,0,0,1,1.48-4.22,34,34,0,0,1,2.74-3.59c.16-.2.43-.29.58-.79.07-.24.14-.78-.11-.81a12.53,12.53,0,0,0-1.88,1.44l-1.49,1.4a.68.68,0,0,1-.43.23,2,2,0,0,1-.4-.11,1,1,0,0,0-.71.2,11.64,11.64,0,0,0-1.08.76c-.49.38-.75-.06-1.19.37s-1.17,1.83-1.64,2.32a8.44,8.44,0,0,0-1.06,1.25,10.94,10.94,0,0,0-.84,1.76,22.68,22.68,0,0,1-2.67,4.66"/><path class="cls-12" d="M91.57,150.74A23.51,23.51,0,0,1,79.3,167.58c-4,2.22-5.68,2.7-6.43,5.1"/><path class="cls-27" d="M356.78,147.48a343.37,343.37,0,0,1,31.53,63.64l-2.64,1.27S372.9,177,353.87,150.08"/><path class="cls-28" d="M396.36,236.7l-32.79,11.36s-2.91-7.43-5.36-15a91.39,91.39,0,0,1-3.08-11.59l33.44-10.88a.43.43,0,0,1,.55.29l3.05,10.24,4.47,15.06A.45.45,0,0,1,396.36,236.7Z"/><path class="cls-29" d="M392.17,221.08c-1.68,2.06-9.52,11.44-13.91,12.45s-17.4-.24-20.05-.51a91.39,91.39,0,0,1-3.08-11.59l33.44-10.88a.43.43,0,0,1,.55.29Z"/><path class="cls-30" d="M350.05,136.06a8.07,8.07,0,0,1,3.52.31,61.54,61.54,0,0,0,8.64,1.77,11.54,11.54,0,0,1,3.72.32c1.32.43-1.09,6.65-1.09,6.65s-7.08.78-8.28.23-4.16-1.58-5.31-2.26-3-1.41-3.07-2.13S350.05,136.06,350.05,136.06Z"/><path class="cls-30" d="M373,174.47s0,1.23,1.75,1,12.1-5.72,11.66-7-8-.69-8.25-.61a20.87,20.87,0,0,0-2.45.53c-.31.19-2.48,1.88-2.48,1.88Z"/><path class="cls-15" d="M349,147.72s-13.37,3.75-21.69,5.28l-1,.2c-4.09.9-11.32,3-15.38.78-2-1.09-7.18-8.58-11.7-16l0,0c-3.7-6.09-6.94-12.14-7.65-14.63a7.07,7.07,0,0,1,1.89-2.41c1.11-.82,19.76,20.25,23,24.42,6.92-2.88,20.51-5.76,24.92-6.27C347.3,138.32,353.43,142.22,349,147.72Z"/><path class="cls-16" d="M326.28,153.2c-4.09.9-11.32,3-15.38.78-2-1.09-7.18-8.58-11.7-16,.5.71,8.7,12.27,12.62,14.12s13.61-1.22,13.61-1.22Z"/><path class="cls-31" d="M326.87,104.82a12.6,12.6,0,0,0,10.66,8.94s.12.69-.83.59C334.79,114.13,327.83,111.33,326.87,104.82Z"/><polyline class="cls-15" points="327.72 273.33 332.6 277.62 336.72 271.74 332.62 267.45"/><polyline class="cls-15" points="276.18 304.09 274.93 309.2 278.29 311.38 281.97 311.03 283.75 305.26"/><path class="cls-31" d="M338.07,114.36s-11.7-3.22-10.46-13.26c0-.34.43-4.33,6.78-2.5a18.42,18.42,0,0,0,10.3-.26c7.89-2.38,15.81-4.2,19.45,6l-11.38,3.82Z"/><path class="cls-15" d="M366.05,139.59s-5.48,3.42-9.88,3.07c-2.54-.2-4.19-2.13-5.11-3.72a11.18,11.18,0,0,1-1-2.18s.53-.15,1.41-.3a1.51,1.51,0,0,0,1.27-1.49,1.27,1.27,0,0,0,0-.28c-.17-1-.28-1.9-2-1.74a4.44,4.44,0,0,0-.8.12,9,9,0,0,1-5.72-1.21,2.89,2.89,0,0,1-.44-.27h0a13,13,0,0,1-3.44-4.15,26.63,26.63,0,0,1-2.74-6.83l-1.76-10.3,2.16-1.48a13.38,13.38,0,0,1,3.36-4.88c9.45-8.71,22.49-1.26,22.67,7.56.13,6.16-1.12,12-1.62,16.35-.09.81-.41,4.45-.62,7a3.33,3.33,0,0,0,1.86,3.28A14.09,14.09,0,0,1,366.05,139.59Z"/><path class="cls-16" d="M354.94,133.61s0,.11,0,.28a3.61,3.61,0,0,1-1.81,3.19c-1.05,0-2.08.11-3,.18a2.58,2.58,0,0,1-.08-.5s.53-.15,1.41-.3a1.51,1.51,0,0,0,1.27-1.49,1.27,1.27,0,0,0,0-.28c-.17-1-.28-1.9-2-1.74a7.91,7.91,0,0,0,5.33-3.51A9.64,9.64,0,0,0,354.94,133.61Z"/><path class="cls-31" d="M334.83,110.3a8.12,8.12,0,0,0,3.62-.59c3.65-1.34,11.37-4.79,14.15.06l6.35-6.92s-2.87-1.66-3.25-1.76-2.84-1.48-4.06-1.56-6.2,0-6.81.15a13.28,13.28,0,0,0-3.58,1.26,9.4,9.4,0,0,0-2.48,1.92c-.6.6-2.22,2.63-2.22,2.63Z"/><path class="cls-31" d="M352.6,109.77s1.46,4.59,3.93,6.31l8.21.78s.78-8.85-.6-12.57c-3.09-8.38-9.71-3.78-9.71-3.78l-1.8,3.78Z"/><path class="cls-15" d="M359,119.67s.18-4.25,2.66-5.14,3.43,1.75,3.23,4.41c-.36,4.85-2.22,5.33-2.22,5.33"/><path class="cls-30" d="M314.59,188.8s-2.54,2.9,1.28,7.18,34.4,33,43.77,22.15A20,20,0,0,0,360,199.7c-4.27-8.88-32.73-16.3-38-15.1A16.24,16.24,0,0,0,314.59,188.8Z"/><path class="cls-32" d="M315.51,243c-4-6.05-10-11-15.59-15q-1.46-1-2.85-2s1.2-.63,3.48-1.65h0c2.7-1.21,6.94-3,12.48-4.84,1.39-.47,7.62-5.06,14.21-10.09,8.56-6.54,17.74-13.84,17.74-13.84l-6.25-10.5-17.87.76s-36.37,22-42.66,33.45a11.84,11.84,0,0,0-1.56,5.74,9.57,9.57,0,0,0,1.57,5.32h0c.73,1.16,1.48,2.24,2.24,3.25,1.15,1.53,4.61,4.75,9.17,8.75,4.74,4.15,10.67,9.14,16.46,13.93,11.36,9.42,22.14,18.05,22.14,18.05s3.48-.6,5.87-6.16c0,0-9.69-12.05-17.45-23.55Z"/><path class="cls-33" d="M332.89,270.49a.75.75,0,0,1-.09.15l-1.55-1.35c-1-.91-2.25-2.06-3.63-3.4s-2.9-2.87-4.48-4.61a69,69,0,0,1-4.91-5.85c-.8-1.09-1.64-2.23-2.4-3.42s-1.53-2.4-2.43-3.55a57.26,57.26,0,0,0-6.14-6.59c-2.25-2.12-4.64-4.15-7-6.18s-4.85-4-7.13-6.1c-.56-.53-1.12-1.07-1.64-1.64a6.83,6.83,0,0,1-1.34-1.89,1.91,1.91,0,0,1-.15-.58,1.2,1.2,0,0,1,.06-.62,3.36,3.36,0,0,1,.67-1,11.77,11.77,0,0,1,1.76-1.42,51.21,51.21,0,0,1,7.53-4c2.47-1.12,4.84-2.07,7.05-2.91s4.22-1.59,6-2.21,3.39-1.18,4.7-1.59l4.12-1.3,0,.07-4.06,1.49c-2.58,1-6.25,2.34-10.63,4.07-2.19.87-4.54,1.84-7,2.91a62.48,62.48,0,0,0-7.56,3.76,10.29,10.29,0,0,0-1.75,1.32,2.85,2.85,0,0,0-.63.85,1.39,1.39,0,0,0,.06,1,7.09,7.09,0,0,0,1.28,1.84,22.5,22.5,0,0,0,1.61,1.63c2.29,2.08,4.77,4,7.23,6,4.89,3.92,9.79,7.93,13.5,12.61a38.44,38.44,0,0,1,2.47,3.6c.75,1.21,1.56,2.31,2.35,3.39,1.6,2.16,3.24,4.1,4.78,5.88,3.09,3.55,5.9,6.29,7.86,8.2C332,269.63,332.47,270.1,332.89,270.49Z"/><path class="cls-12" d="M316.63,244.67c7.76,11.5,17.45,23.55,17.45,23.55a14.89,14.89,0,0,1-1.19,2.27.75.75,0,0,1-.09.15c-2.18,3.32-4.59,3.74-4.59,3.74s-10.78-8.63-22.14-18.05c-5.79-4.79-11.72-9.78-16.46-13.93-4.56-4-8-7.22-9.17-8.75-.76-1-1.51-2.09-2.24-3.25h0a9.57,9.57,0,0,1-1.57-5.32,11.84,11.84,0,0,1,1.56-5.74c6.29-11.46,42.66-33.45,42.66-33.45l17.87-.76,6.25,10.5s-9.18,7.3-17.74,13.84c-6.59,5-12.82,9.62-14.21,10.09-5.54,1.88-9.78,3.63-12.48,4.84h0c-2.28,1-3.48,1.65-3.48,1.65q1.4.94,2.85,2c5.57,3.95,11.57,8.92,15.59,15Z"/><path class="cls-34" d="M327.25,209.46c-6.59,5-12.82,9.62-14.21,10.09-5.54,1.88-9.78,3.63-12.48,4.84.43-.42,15-12.44,27.06-21.07Z"/><path class="cls-25" d="M367.78,220.25a8.28,8.28,0,0,1-.37,2.26l.11-4.53a11.53,11.53,0,0,1-1.92,5.6c-1,1.72-2.8,4-2.94,5.21-.1.77,1.48-.62,2.85-2.37-1,1.61-2.46,3.52-2.59,4.63-.1.83,1.71-.84,3.14-2.76l-.2.4c-.93,1.77-2.59,4.1-2.67,5.36s3.9-3.39,4.44-5.86l-.07-2.48c0-.09.07-.19.09-.27Z"/><path class="cls-12" d="M360.88,205.27s-.58,12-14.06,15.77a17.41,17.41,0,0,0-6,3c-6.33,4.89-21.32,16.21-31,21.38a10.36,10.36,0,0,0-5.38,8c-.88,7.91-2.32,18.46-7,26.79-7,12.49-13.77,27.17-13.77,27.17a8.38,8.38,0,0,1-2.18.09l-.55-.05h-.09a12.85,12.85,0,0,1-1.62-.28,17.78,17.78,0,0,1-4-1.34s11.17-54.05,14.57-61.06c8.61-17.79,37.82-41.43,37.82-41.43l15.85-11.11,13.79,10.35Z"/><path class="cls-12" d="M360.88,205.27s-.58,12-14.06,15.77a17.41,17.41,0,0,0-6,3c-6.33,4.89-21.32,16.21-31,21.38a10.36,10.36,0,0,0-5.38,8c-.88,7.91-2.32,18.46-7,26.79-7,12.49-13.77,27.17-13.77,27.17a8.38,8.38,0,0,1-2.18.09c4.28-8.23,12.23-29.09,15.72-34,3.66-5.21,4.47-20.41,5.62-25.39s9.74-8,16.05-12.75,14.45-13.47,21.22-16.11,7.46-2.86,12-6.82a15,15,0,0,0,4.82-9.86l.33,0Z"/><path class="cls-15" d="M375.2,213.81a5.18,5.18,0,0,0,.41-.55c5.2-7.19,13-20.81,12.36-31.9,0,0,0,0,0,0s0-.14,0-.14c-.14-.92-.37-2.3-.63-3.84s-.58-3.2-.91-4.7c-1.83-8.26-5.95-20.19-5.95-20.19-5.66-4.27-10.6,2.75-9.68,8.72a31.76,31.76,0,0,0,1.86,5.65c2.43,6.11,6.28,14.67,6.16,19.42-.72,4.22-3.26,11.82-5.61,18.49l0,0c-1,2.91-2,5.64-2.8,7.82h0a10,10,0,0,1-2.5,3.85c-3.45,1.4-6.05,9.56-5.79,10,.53.82,1.65-.72,1.85-1.28.45-1.21,1.56-2.63,2-2.24,1.45,1.29,1.12,4.42,1,5-.68,3.32-3.32,6.95-2.26,7.4.57.25,2.49-2.61,3.9-6a41.53,41.53,0,0,0,2.18-7.5h0a21.45,21.45,0,0,1,3.12-6.27c.42-.52.87-1.11,1.35-1.75Z"/><path class="cls-16" d="M380.79,186.06c-.78,6.43-7.21,18-7.61,18.67,2.35-6.67,4.89-14.27,5.61-18.49.12-4.75-3.73-13.31-6.16-19.42l2-2.21,1.82,3.44S381.59,179.4,380.79,186.06Z"/><path class="cls-35" d="M386.4,168.51a1.81,1.81,0,0,0-1.08-.16c-2.77.35-11.72,2.17-12.33,6.12a67,67,0,0,0-2.37-11.42s-.61,36-10.75,54.65a10.09,10.09,0,0,0-.84-10.6,14.32,14.32,0,0,0-4.31-3.67,26.66,26.66,0,0,0-4.67-2.12L349,200.9c-13.78-5.46-24.22-21.08-34.31-12.16,1.22-1.4,21-24.2,24.09-36.06.07-.28.14-.55.22-.81-5.88,3.89-14,6-14,6a39.71,39.71,0,0,1-1.85-6.4c0-.12-.06-.24-.08-.36a.31.31,0,0,1,0-.09,34.16,34.16,0,0,1-.65-8.31l12.28-3.44a118.49,118.49,0,0,1,13.88-3h.05l.48-.08c.63-.09,1-.12,1-.12s1.37,5.25,5.61,5.95a11.86,11.86,0,0,0,10.27-3.55s10.5,4.7,14.05,11.58S386.4,168.51,386.4,168.51Z"/><path class="cls-36" d="M354.72,203.43a26.66,26.66,0,0,0-4.67-2.12L349,200.9a90,90,0,0,1-4.65-20.12c-2.41-20.35,2.55-44.06,2.55-44.06l1.7-.45h.05l.48-.08C348.66,137.93,339.77,174.56,354.72,203.43Z"/><path class="cls-15" d="M294.75,122l-4.5,1.29a4.33,4.33,0,0,0-.67-.68l-2,.57,1.18,1.14-1,.28c-2.09-.44-4.83-.93-6-1.32a7.91,7.91,0,0,1-2.52-1.41.38.38,0,0,1-.09-.08l-.69-.73c-2.45-2.7-4.23-5.66-3.77-6.07s.84.09,1.5.79c-1.15-1.63-1.8-3-1.5-3.24.86-.76,3,3.17,5.75,5.19l.43.27c-.41-.39-.81-.81-1.19-1.23-2.44-2.7-4.22-5.65-3.76-6.06.86-.76,3,3.16,5.75,5.18a6.59,6.59,0,0,0,.63.39c-2.22-2.55-3.76-5.18-3.32-5.57.86-.76,3,3.16,5.75,5.19.48.36,3.18,2,5,1.22.53-.24-.29-1.84-1.19-2.76-.42-.42-1.34-2.08-.38-2.22.34,0,3.78,3,5.55,6.13,0,0,0,0,0,0h0a8.22,8.22,0,0,1,1,2.37A3.53,3.53,0,0,1,294.75,122Z"/><path class="cls-15" d="M294.81,128.29s-3.56-2.54-4.6-3a14.58,14.58,0,0,0-2.42-.64c-2.09-.44-4.83-.93-6-1.32a7.91,7.91,0,0,1-2.52-1.41.38.38,0,0,1-.09-.08l5.53-2.7,9-.82h0a0,0,0,0,0,0,0h0a18.72,18.72,0,0,0,1,2.37,10.29,10.29,0,0,0,2,3C298.71,125.46,294.81,128.29,294.81,128.29Z"/><path class="cls-16" d="M290.53,125.41a27.72,27.72,0,0,1,5,6.23c2.09,3.66,2.51-2.33,2.51-2.33l-4.82-4.71-2.12-.82Z"/><path class="cls-37" d="M336,271A8,8,0,0,1,333,276c-.39.3-1.49,0-2,.22s-.34,3.3-.5,5.3-2.6,7.34-1.69,8.89,3.21-1.2,4.82-3.33c2-2.64,8.38-10.27,8.66-11.08s.08-3.43-4.69-4.79A3,3,0,0,0,336,271Z"/><path class="cls-37" d="M282.21,310.26a8,8,0,0,1-5.58-.67c-.49-.25-.88-1.33-1.37-1.73-.34-.27-3,1-4.87,1.64s-7.76.63-8.8,2.11,2.41,2.43,5,3c3.23.73,12.81,3.42,13.67,3.34s3.16-1.33,2.43-6.24A2.92,2.92,0,0,0,282.21,310.26Z"/><path class="cls-36" d="M359.87,217.7a10.09,10.09,0,0,0-.84-10.6c1.6-3.23,1-7.26,2.18-11.45,1.69-5.93,4.44-11.38,5.74-17.28a128.91,128.91,0,0,0,2.71-20.64l1,5.32S370,199.06,359.87,217.7Z"/><path class="cls-38" d="M340,148a16.09,16.09,0,0,0-1,3.91c-5.88,3.89-14,6-14,6a39.71,39.71,0,0,1-1.85-6.4,1.8,1.8,0,0,0,.05.19,3.3,3.3,0,0,0,4.41,2.12c3-1.15,5.81-.91,8.2-2.16A10.79,10.79,0,0,0,340,148Z"/><path class="cls-39" d="M349,136.06s-17,37.38,5,87.65l-5.63-.21s-8.63-26.27-9.24-47.59a108.56,108.56,0,0,1,6.71-39.37A3.31,3.31,0,0,1,349,136.06Z"/><path class="cls-40" d="M346.76,224.09a61.46,61.46,0,0,1,8.37-2.65l8.44,26.62a60.86,60.86,0,0,1-8.3,2.74.4.4,0,0,1-.48-.26c-1-2.65-7.33-20.2-8.43-25.72A.63.63,0,0,1,346.76,224.09Z"/><path class="cls-16" d="M362.06,116.9a1.53,1.53,0,0,1,1.21,1.26c.17,1.18.2,3.22-.81,3.53-.52.15-1.54-.81-1.09-2s1.35-.44,1.49-.67a1.71,1.71,0,0,0-.1-1.35C362.39,117.13,361.57,116.88,362.06,116.9Z"/><path class="cls-41" d="M354.34,221.62a.84.84,0,0,1,1.05.61l.38-.64-.5-.2Z"/><path class="cls-42" d="M376.54,233.24a.54.54,0,0,0-.32.66,5,5,0,0,0,.65,1.63,22.15,22.15,0,0,0,4.68-1.6,2.61,2.61,0,0,0-.57-2.15A25.83,25.83,0,0,0,376.54,233.24Z"/><text class="cls-43" transform="translate(150.17 157.73) rotate(-16.26)">Cuba</text><text class="cls-44" transform="matrix(0.99, 0.17, -0.17, 0.99, 244.55, 98.96)">Haus</text></g></g></g></svg>