<svg xmlns="http://www.w3.org/2000/svg" xmlns:xlink="http://www.w3.org/1999/xlink" viewBox="0 0 468.22 312.3"><defs><style>.cls-1{fill:#dedae8;}.cls-2{fill:url(#Безымянный_градиент_11);}.cls-3{opacity:0.18;}.cls-4{fill:#9ba7ae;}.cls-5{fill:#eef6f7;}.cls-6{opacity:0.1;}.cls-7{fill:url(#Безымянный_градиент_11-2);}.cls-8{fill:#f2957c;}.cls-9{fill:#242449;}.cls-10{fill:url(#Безымянный_градиент_11-3);}.cls-11{fill:#fbf9ff;}.cls-12{fill:url(#Безымянный_градиент_7);}.cls-13{fill:url(#Безымянный_градиент_7-2);}.cls-14{fill:url(#Безымянный_градиент_7-3);}.cls-15{fill:url(#Безымянный_градиент_7-4);}.cls-16{fill:#0e0e22;}.cls-17{fill:url(#Безымянный_градиент_7-5);}.cls-18{opacity:0.06;}.cls-19{fill:#5bb5dc;}.cls-20{fill:#f5ceb0;}.cls-21{fill:url(#Безымянный_градиент_7-6);}.cls-22{fill:url(#Безымянный_градиент_7-7);}.cls-23{fill:url(#Безымянный_градиент_7-8);}.cls-24{fill:url(#Безымянный_градиент_7-9);}.cls-25{fill:url(#Безымянный_градиент_7-10);}.cls-26{fill:url(#Безымянный_градиент_7-11);}.cls-27{fill:url(#Безымянный_градиент_7-12);}.cls-28{fill:url(#Безымянный_градиент_7-13);}.cls-29{fill:url(#Безымянный_градиент_7-14);}.cls-30{fill:url(#Безымянный_градиент_7-15);}.cls-31{fill:#5966d6;}.cls-32{fill:url(#Безымянный_градиент_11-4);}.cls-33{opacity:0.05;}.cls-34{fill:#fff;}.cls-35{fill:url(#Безымянный_градиент_11-5);}.cls-36{fill:url(#Безымянный_градиент_11-6);}.cls-37{fill:url(#Безымянный_градиент_11-7);}.cls-38{fill:url(#Безымянный_градиент_11-8);}.cls-39{fill:url(#Безымянный_градиент_11-9);}</style><linearGradient id="Безымянный_градиент_11" x1="357.57" y1="85.6" x2="373.82" y2="85.6" gradientUnits="userSpaceOnUse"><stop offset="0.08" stop-color="#f2b143"/><stop offset="0.6" stop-color="#eb933e"/><stop offset="1" stop-color="#e6813b"/></linearGradient><linearGradient id="Безымянный_градиент_11-2" x1="1.13" y1="41.97" x2="17.38" y2="41.97" xlink:href="#Безымянный_градиент_11"/><linearGradient id="Безымянный_градиент_11-3" x1="224.58" y1="254.15" x2="365.7" y2="254.15" xlink:href="#Безымянный_градиент_11"/><linearGradient id="Безымянный_градиент_7" x1="418.17" y1="92.57" x2="435.13" y2="92.57" gradientUnits="userSpaceOnUse"><stop offset="0.1" stop-color="#487cff"/><stop offset="0.48" stop-color="#2742ff"/><stop offset="0.83" stop-color="#0b12ff"/><stop offset="1" stop-color="blue"/></linearGradient><linearGradient id="Безымянный_градиент_7-2" x1="426.51" y1="78.16" x2="432.27" y2="78.16" xlink:href="#Безымянный_градиент_7"/><linearGradient id="Безымянный_градиент_7-3" x1="421.76" y1="85.62" x2="433.61" y2="85.62" xlink:href="#Безымянный_градиент_7"/><linearGradient id="Безымянный_градиент_7-4" x1="424.64" y1="97.14" x2="436.22" y2="97.14" xlink:href="#Безымянный_градиент_7"/><linearGradient id="Безымянный_градиент_7-5" x1="65.37" y1="30.52" x2="149.82" y2="30.52" xlink:href="#Безымянный_градиент_7"/><linearGradient id="Безымянный_градиент_7-6" x1="241.42" y1="76.21" x2="252.84" y2="76.21" xlink:href="#Безымянный_градиент_7"/><linearGradient id="Безымянный_градиент_7-7" x1="277.46" y1="79.44" x2="291.24" y2="79.44" xlink:href="#Безымянный_градиент_7"/><linearGradient id="Безымянный_градиент_7-8" x1="226.58" y1="74.54" x2="234.85" y2="74.54" xlink:href="#Безымянный_градиент_7"/><linearGradient id="Безымянный_градиент_7-9" x1="219.24" y1="50.22" x2="236.55" y2="50.22" xlink:href="#Безымянный_градиент_7"/><linearGradient id="Безымянный_градиент_7-10" x1="254.01" y1="87.43" x2="257.96" y2="87.43" gradientTransform="translate(323.49 -174.51) rotate(85.59)" xlink:href="#Безымянный_градиент_7"/><linearGradient id="Безымянный_градиент_7-11" x1="266.64" y1="76.85" x2="275.04" y2="76.85" gradientTransform="translate(140.66 -172.78) rotate(46.62)" xlink:href="#Безымянный_градиент_7"/><linearGradient id="Безымянный_градиент_7-12" x1="213.68" y1="82.5" x2="222.44" y2="82.5" gradientTransform="translate(136.84 -136.04) rotate(48.89)" xlink:href="#Безымянный_градиент_7"/><linearGradient id="Безымянный_градиент_7-13" x1="261.84" y1="49.31" x2="274.73" y2="49.31" xlink:href="#Безымянный_градиент_7"/><linearGradient id="Безымянный_градиент_7-14" x1="275.97" y1="60.43" x2="309.23" y2="60.43" xlink:href="#Безымянный_градиент_7"/><linearGradient id="Безымянный_градиент_7-15" x1="223.42" y1="147.47" x2="250.87" y2="147.47" xlink:href="#Безымянный_градиент_7"/><linearGradient id="Безымянный_градиент_11-4" x1="242.92" y1="120.94" x2="250.26" y2="120.94" gradientTransform="translate(306.77 -147.04) rotate(76.53)" xlink:href="#Безымянный_градиент_11"/><linearGradient id="Безымянный_градиент_11-5" x1="225.03" y1="161" x2="247.68" y2="161" xlink:href="#Безымянный_градиент_11"/><linearGradient id="Безымянный_градиент_11-6" x1="23.55" y1="114.99" x2="56.63" y2="114.99" xlink:href="#Безымянный_градиент_11"/><linearGradient id="Безымянный_градиент_11-7" x1="34.09" y1="153.15" x2="61.92" y2="153.15" xlink:href="#Безымянный_градиент_11"/><linearGradient id="Безымянный_градиент_11-8" x1="63.28" y1="153.24" x2="93.59" y2="153.24" xlink:href="#Безымянный_градиент_11"/><linearGradient id="Безымянный_градиент_11-9" x1="55.23" y1="133.34" x2="87.67" y2="133.34" xlink:href="#Безымянный_градиент_11"/></defs><title>Ресурс 6</title><g id="Слой_2" data-name="Слой 2"><g id="OBJECTS"><path class="cls-1" d="M366.53,92.79A9.47,9.47,0,0,0,375,83.26a10.4,10.4,0,0,0-.23-2.18l-2.79-13.47h-1.14l-5.1,0-5,0h-1.13L356.69,81a9.78,9.78,0,0,0-.25,2.18,9.51,9.51,0,0,0,8.21,9.59l0,9.06a25.58,25.58,0,0,0-5.72,1.25v.78l6.71,0,6.72,0v-.78a25.53,25.53,0,0,0-5.83-1.32Z"/><path class="cls-2" d="M373.41,80,358,79.92l-.22,1a9.34,9.34,0,0,0-.22,1.92,8.13,8.13,0,1,0,16.25.07,8.13,8.13,0,0,0-.2-1.92Z"/><g class="cls-3"><path class="cls-4" d="M375,83.26a10.4,10.4,0,0,0-.23-2.18l-1.55-7.48s.94,15.5-14.84,15.43h0a9.18,9.18,0,0,0,6.32,3.74l0,9.06a25.58,25.58,0,0,0-5.72,1.25v.78l6.71,0,6.72,0v-.78a25.53,25.53,0,0,0-5.83-1.32l0-9A9.47,9.47,0,0,0,375,83.26Z"/></g><path class="cls-5" d="M358.85,76.58l1.4-6.2a2.14,2.14,0,0,1,2.08-1.7h1.76S360.82,69.38,358.85,76.58Z"/><g class="cls-6"><path d="M372.33,103.14a25.81,25.81,0,0,0-5.72-1.31s3.12.55,4.49,2.08h1.23Z"/></g><path class="cls-1" d="M10.09,49.15a9.47,9.47,0,0,0,8.42-9.52,10.57,10.57,0,0,0-.23-2.19L15.49,24H14.35l-5.1,0-5,0H3.15L.25,37.37A9.78,9.78,0,0,0,0,39.55a9.48,9.48,0,0,0,8.21,9.58l0,9.06a25.65,25.65,0,0,0-5.71,1.26v.78l6.72,0,6.72,0V59.5a25.4,25.4,0,0,0-5.83-1.31Z"/><path class="cls-7" d="M17,36.35l-15.4-.07-.22,1a8.67,8.67,0,0,0-.22,1.91,8.29,8.29,0,0,0,8.09,8.47,8.28,8.28,0,0,0,8.16-8.4,9.16,9.16,0,0,0-.2-1.91Z"/><g class="cls-3"><path class="cls-4" d="M18.51,39.63a10.57,10.57,0,0,0-.23-2.19L16.73,30S17.67,45.46,1.89,45.4h0a9.17,9.17,0,0,0,6.32,3.73l0,9.06a25.65,25.65,0,0,0-5.71,1.26v.78l6.72,0,6.72,0V59.5a25.4,25.4,0,0,0-5.83-1.31l0-9A9.47,9.47,0,0,0,18.51,39.63Z"/></g><path class="cls-5" d="M2.41,32.94l1.4-6.19A2.14,2.14,0,0,1,5.89,25H7.65S4.38,25.75,2.41,32.94Z"/><g class="cls-6"><path d="M15.89,59.5a25.67,25.67,0,0,0-5.72-1.3s3.12.55,4.49,2.08h1.23Z"/></g><path class="cls-8" d="M360.55,290.16a29.94,29.94,0,0,0,6.59,4.17,15,15,0,0,0,.8-4.67,1.14,1.14,0,0,0-.09-.56,1,1,0,0,0-.36-.31L358,283.32c-.12,1.14-.71,3.24-.29,4.35S359.72,289.43,360.55,290.16Z"/><path class="cls-9" d="M369.37,298c.71,2.07.32,4.33-.07,6.48,1.22,1.36,3.62.88,4.83-.48s1.55-3.28,1.82-5.09c.34-2.2,1.18-4.58.68-6.8-.62-2.75-2.36-3.09-4.81-3.53-1.25-.22-2.62-1.16-3.86-1.17-1.7,0-1.62.94-1.94,2.36-.37,1.67-1.22,3.22-1.48,4.91A5.11,5.11,0,0,1,369.37,298Z"/><polygon class="cls-8" points="249.64 283.5 253.67 294.13 247.4 296.53 242.93 284.74 249.64 283.5"/><path class="cls-9" d="M247.31,296.55l5.72-2.27,2.53.33,2.61,3.62-11.32,11.09h0a3.53,3.53,0,0,1-2.07-5.25l.41-.66Z"/><path class="cls-10" d="M365.69,284.22c-.28-4.18-4.93-4.56-8.81-6.3a235.33,235.33,0,0,1-26.24-13.85,17.9,17.9,0,0,1-5.63-4.68,18.39,18.39,0,0,1-2.05-4.51c-2.19-6.28-3.5-14.17-8.31-18.63a39.14,39.14,0,0,0-4-3.23c7.68-10.53-16.92-13.17-23.53-14.75a48.19,48.19,0,0,0-12.21-.94c-3.22,0-7-1.17-9.79-1.09-7,.22-2.7,2.45-8,7.06-3.48,3-7.78,1.75-12,1-6.56-1.12-13.46-2-18.09,3.91-4.11,5.23-2.21,12.78-.12,19.1L241.65,292c12.31.26,12.62-3.83,10.56-14.71-1.53-8.09-4.27-16-4.38-24.27,0-1.12.1-2.4,1-3.08a3.91,3.91,0,0,1,2-.57c7.63-.68,15-1.3,22.65-1.73l1.48-.11c.54.75,1.09,1.48,1.62,2.16,5.66,7.29,12.21,16,19.88,21.26,5.23,3.57,11.38,5.51,17.43,7.4l34,10.63,7.43,2.32a9.62,9.62,0,0,0,5,.63C363.07,291.27,365.88,287.08,365.69,284.22Z"/><path class="cls-8" d="M421,134.08a1.84,1.84,0,0,1-.47.45,4.55,4.55,0,0,1-2.66.72,11.43,11.43,0,0,1-3.52-.87c-1.53-.58-1.31-1.5-1.29-3,0-.81.07-1.62.15-2.43,0-.44.48-2,.25-2.32s-.93-.3-1.23-.54a3.69,3.69,0,0,1-1.08-1.51,10.54,10.54,0,0,1-.62-2.83c-.21-1.68-.41-3.35-.62-5a24.7,24.7,0,0,1-.29-5.15c.2-2.59,1.23-6.11,3.48-7.64,2-1.39,4.71-1.54,7.11-1.44a14.11,14.11,0,0,1,8.69,3.39,7.59,7.59,0,0,1,2.28,3.19c.67,2,.19,4.28-.28,6.39l-1.32,5.87c-.51,2.25-1.25,4.81-3.16,5.75-1,.49-2.22.43-3.14,1.13-1.15.88-1.36,2.47-1.63,3.79A4.85,4.85,0,0,1,421,134.08Z"/><path class="cls-9" d="M415.59,106.89a2.75,2.75,0,0,0-.36.53c-.55,1-.51,2.2-1,3.19-.85,1.56-3,2.23-3.56,3.91-.48,1.37.25,2.88.08,4.33s-1.44,2.88-1.55,4.45a10.44,10.44,0,0,0,1,4.62c-.19-.38-2.46-.65-3-1.11a2.37,2.37,0,0,1-.94-2c-.11-1,.26-1.84,0-2.86-.3-1.24-1.19-2.28-1.34-3.58-.2-1.77,1-3.4,1.24-5.17.36-2.68-1.5-5.59-.23-8,.75-1.4,2.35-2.1,3.4-3.29a20.92,20.92,0,0,0,1.84-3.1,4,4,0,0,1,2.74-2.15,16.76,16.76,0,0,1,2,.11,25,25,0,0,0,3.37-.81c1.63-.25,4.09,1.78,4.76,3.25s0,2.48-1.09,3.47C421.13,104.32,417.23,104.93,415.59,106.89Z"/><path class="cls-9" d="M437.76,102.64a31.52,31.52,0,0,1,2.57,2.47c1.38,1.83,1.26,4.36.93,6.63-.3,2,.27,4-.31,6a5.2,5.2,0,0,1-2.53,3.33c-1.6.79-3.87.57-4.8,2.1s.46,4.24-.93,5.6c-.77.74-2,.66-3,1.08a7.92,7.92,0,0,0-2.59,2.44,3.64,3.64,0,0,1-3,1.58,10,10,0,0,1,1.5-4.74c.62-.87,2.23-2.41,1.41-3.62-.49-1-1.94-1.51-1.8-2.58a2.6,2.6,0,0,1,.84-1.25,6.22,6.22,0,0,0,1.43-5.51,8.17,8.17,0,0,0-3.26-4.78c-1.88-1.34-1.46-1.79-1.71-3.85-.24-1.91-1.19-2.51-2.7-3.45a3.48,3.48,0,0,1-2.07-2.75c-.22-1.07-.49-2.35.27-3.37a6.88,6.88,0,0,1,2.44-1.77c1.87-1,4-2,6-1.46,1.14.28,2.13,1,3.27,1.28.77.17,1.56.14,2.34.24a6.29,6.29,0,0,1,3.56,1.79c.94,1,.76,1.8,1.17,3A3.92,3.92,0,0,0,437.76,102.64Z"/><path class="cls-9" d="M437,310.62a.8.8,0,0,0,.2.48.73.73,0,0,0,.48.15,19.22,19.22,0,0,0,3.79-.1,2.27,2.27,0,0,0,1.49-.58,2.47,2.47,0,0,0,.4-1.84c-.06-1.33-.13-2.67-.19-4a10,10,0,0,0-.25-2.11c-.37-1.42-1.7-7.19-2.62-7.94-1.45-1.18-3.4.14-4.15,1.37C433.87,299.84,436.35,306.74,437,310.62Z"/><path class="cls-9" d="M379.55,299.93a2,2,0,0,0,.38,1,19.66,19.66,0,0,1,2.41,6.13c.26,1.28.46,2.72,1.48,3.55,1.33,1.09,3.31.54,4.93,0a4.13,4.13,0,0,0,1.91-1.14,1.42,1.42,0,0,0-.12-2,4.4,4.4,0,0,0-1.08-.35,2.65,2.65,0,0,1-1.64-2.59c0-3.49,4.87-6.45-.28-9C385,294.18,379.55,296.77,379.55,299.93Z"/><path class="cls-9" d="M441.28,229.17a32.38,32.38,0,0,1,2.06,4.76c4,11.72,3,24.46,2.11,36.59q-1.15,15-2.3,30a24.18,24.18,0,0,1-8.79-.95q-4-14.74-6.87-29.75c-1.6-8.36-2-19.09-6.79-26.38-2.32-3.52-5.88-6-9-8.87-5.67-5.29-9.89-12.33-10.9-20s1.47-16,7.2-21.18a10.49,10.49,0,0,1,5.32-2.86c9.7-1.43,9.47,9.86,12.09,15.52C429.51,214.77,436.85,220.75,441.28,229.17Z"/><path class="cls-9" d="M379.07,233.92a31.93,31.93,0,0,0,7.87,5.79c6.21,3.62,12.46,7.26,19.18,9.36-2.41,8.88-6.75,16-10.52,24.1-2.11,4.53-4.35,9-6.73,13.34-1.55,2.83-4.25,5.46-5.32,8.57-1.31,3.82,2.47,7.71,5.53,6.47a11.82,11.82,0,0,0,3.58-2.72c12.91-12.65,24.3-26.64,31.49-43.39,1.48-3.47,2.81-7.17,2.42-10.92-.9-8.48-7.89-16.41-14.24-21.42-3.58-2.82-8-6.75-10.2-11.13-2.43-4.83-2.84-10.67-6.47-14.68-3.83-4.23-10-4-14.36-.6-4.63,3.66-6,11.69-6.49,17.77-.43,5.79-.4,12,2.3,16.75A15.9,15.9,0,0,0,379.07,233.92Z"/><path class="cls-11" d="M426,131.38c3.22,1.15,5.43,3.12,5.51,6.05.44,15.92-3,32-4.35,47.8-1.1,13.22,9.28,21.26,9.12,34.12-13.62,2.41-22.6-2.21-34.94-4.86a24.78,24.78,0,0,0-15.73,1.87c-3.32,1.53-8.77,9.17-11.18,9.66a15.36,15.36,0,0,1-5.77.21c-.87-.23-1.79-.77-1.92-1.65a3.05,3.05,0,0,1,.51-1.8c4.52-8.84,4.53-19.11,6.73-28.67a106,106,0,0,1,10.85-28.6c5.08-9,9.39-23,16-30.49C404.79,130.51,418.26,128.62,426,131.38Z"/><path class="cls-8" d="M449.09,94.72a1.35,1.35,0,0,0-1,1.09,3.34,3.34,0,0,0,.75,2.08c1.64,2.53,3.51,4.89,4.4,7.75.49,1.56.68,4.45,2.93,4.43a4.38,4.38,0,0,0,1.61-.21,3.9,3.9,0,0,0,1.12-.72c.26-.23.74-.52.77-.86.15-1.9-1.18-4.89-1.44-6.89-.15-1.22-2.21-15.78-2.86-15.65l-3,.56a.79.79,0,0,0-.8.86,18,18,0,0,0,.21,6.37,3.18,3.18,0,0,1,.09,1.67,1,1,0,0,1-1.31.7c-.4-.22-.51-.77-.88-1A.76.76,0,0,0,449.09,94.72Z"/><path class="cls-11" d="M466.77,129.66c-2.09-9.26-6-25.36-7.93-25.07a23.34,23.34,0,0,0-8.54,3.13c1.53,6.5,3.8,13.37,3.15,20.14-.53,5.53-6,6.62-10.57,7.26-2.35.33-5.21,1.14-7.51,1.17-3.48,0-6.93-2.07-10.41-1.15-2.55.68-4.37,3-5.24,5.52a34.68,34.68,0,0,0-1.24,7.81c-.52,4.89-.49,11.46,6.1,12.05,3.28.3,6.4-1.25,9.33-2.75,11.21-5.75,24.33-10.56,33.37-19.59a1.9,1.9,0,0,0,.84-2.31C468,135.32,467.5,132.91,466.77,129.66Z"/><path class="cls-8" d="M366.56,102.19l.77,0a1,1,0,0,1,.45.08,1.12,1.12,0,0,1,.35.3,18.54,18.54,0,0,1,2.62,4.21c.28.57.34.61.06,1.21s-.68,1.31-1,2c-.18,1-.39,2-.48,3-.24,2.51,1.94,8.06-1,9.36a4.89,4.89,0,0,1-1.75.52,4,4,0,0,1-1.45-.3c-.37-.13-1-.24-1.14-.61A6.5,6.5,0,0,1,364,120l.11-3.85c0-1.25,0-2.73-1-3.41a4.6,4.6,0,0,1-.63-.42,2.12,2.12,0,0,1-.45-.77,15.67,15.67,0,0,1-.95-3.24c-.17-1,.41-1.55.92-2.34s.54-1.85,1-2.71a2.22,2.22,0,0,1,2.2-1Z"/><path class="cls-11" d="M365.91,151.19c-2.56-10.35-4.89-20.23-4-31.55a23.37,23.37,0,0,1,10.08-.47s4.1,18.48,5,20.33c2.32,4.8,2.13,4.23,6.34,2.2,3.7-1.78,7.1-4.5,10.74-6.46,5.35-2.89,13.53-3.5,16,4,.67,2,.24,4.14-.21,6.18q-1.53,7-3.31,14a4.44,4.44,0,0,1-4.68,4.33q-12.52,1.51-25.13,2c-2.67.11-5.76,0-7.38-2.12a8.59,8.59,0,0,1-1.29-3.36C367.4,157.13,366.65,154.14,365.91,151.19Z"/><path class="cls-12" d="M434.89,92l-.62-2.88-.18-.84-14,3.76-1.62,2.66-.2.33a.6.6,0,0,0,.23.84c.66.35,1.42.72,2.29,1.08l14.35-3.85Z"/><path class="cls-13" d="M431.32,75.43a.6.6,0,0,0-1.1-.19l-.82,1.35-1.85,3.07-1,1.7,5.76-1.54Z"/><polygon class="cls-14" points="432.74 82.02 424.83 84.14 421.76 89.21 433.61 86.03 432.74 82.02"/><path class="cls-15" d="M436.17,97.83l-.56-2.58-11,2.94c.67.17,1.37.32,2.11.44a27.38,27.38,0,0,0,9,.07.6.6,0,0,0,.49-.72Z"/><polygon class="cls-9" points="432.27 79.82 426.51 81.36 424.83 84.14 432.74 82.02 432.27 79.82"/><polygon class="cls-9" points="433.61 86.03 421.76 89.21 420.3 91.61 420.08 91.99 434.09 88.23 433.61 86.03"/><path class="cls-9" d="M435.45,94.53l-.32-1.48L420.78,96.9a27.65,27.65,0,0,0,3.86,1.29l11-2.94Z"/><path class="cls-9" d="M434.16,73.22a.07.07,0,0,1,0,.12l-1.63,1.12a.09.09,0,0,0,0,.06v2a.06.06,0,0,1-.1.06l-1.57-1.2a.07.07,0,0,0-.06,0l-1.88.62a.06.06,0,0,1-.08-.08l.65-1.87a.07.07,0,0,0,0-.06l-1.17-1.59a.07.07,0,0,1,.05-.11l2,0a.05.05,0,0,0,.05,0l1.16-1.61a.06.06,0,0,1,.11,0l.57,1.9Z"/><path class="cls-9" d="M438.31,98.66a1.49,1.49,0,0,0-1.45-.59,35.46,35.46,0,0,1-10.52-.44,34.73,34.73,0,0,1-4.95-1.22c-.82-.28-1.61-.62-2.4-1a6.47,6.47,0,0,0-2.07-.81,1.23,1.23,0,0,0-.94.27,1.45,1.45,0,0,0-.34.92c-.06.51,1.43,1.17,1.93,1.46a16.59,16.59,0,0,0,2.73,1.28,33.9,33.9,0,0,0,5.63,1.52c3.86.74,7.87,1.17,11.64.19A1,1,0,0,0,438.31,98.66Z"/><path class="cls-8" d="M115.66,45.1a3.37,3.37,0,0,1,.37.29c1.07,1,.67,2.44,1.34,3.57.3.5,1.95,1.08,1.35,1.84-.22.28-.89,1.29-1.63,2.26-1.07,1.41-.9,3.3-.89,4.95l.06,6.65a35.86,35.86,0,0,0,.37,5.77c.8,4.58,3.32,8.18,5.57,12.08a104.1,104.1,0,0,1,6.72,12.86,10.2,10.2,0,0,1,.94,4.93c-.5,4.2-4.4,4.73-7.28,2.33a16.1,16.1,0,0,1-3-3.6,61.75,61.75,0,0,1-5.94-11.22c-.74-1.83-1.4-3.69-2.05-5.56a48.49,48.49,0,0,1-2.77-14.4c.1-2.38.45-4.75.75-7.12.19-1.44,1.24-4.6-.09-5.66a5.63,5.63,0,0,1-.67-.51,2.21,2.21,0,0,1-.44-.83,15.15,15.15,0,0,1-.77-3.39c-.2-2.07,2.32-4.12,3.64-5.37a3,3,0,0,1,1.11-.76,3.26,3.26,0,0,1,2.15.32A7.54,7.54,0,0,1,115.66,45.1Z"/><path class="cls-11" d="M118,95.79l10.15-8.57c-.21.18,13.91,14.56,14.73,15.45,3.09,3.38,6.28,6.9,7.68,11.26,3,9.32-6.84,17.64-15.37,12.19A54.54,54.54,0,0,1,114.35,100a1.33,1.33,0,0,1-.13-.7,1.39,1.39,0,0,1,.57-.77Z"/><path class="cls-8" d="M193,292.16a35.86,35.86,0,0,1-4,1.93c-8.21-12.09-15-25.89-22-38.75l9.94-5.31a130.45,130.45,0,0,0,7.73,23.51C185.1,274.74,193.12,292.05,193,292.16Z"/><path class="cls-9" d="M187.1,291.9a2.28,2.28,0,0,0-1.37,1.78,6.07,6.07,0,0,1-.35,1.41,3.53,3.53,0,0,1-1,1c-2.17,1.63-7.56,4.76-2.38,6.91,4.71,1.95,10.71-3.6,14.09-6.95a1.59,1.59,0,0,0,.54-.74,2.16,2.16,0,0,0-.08-1c-.55-1.92-1.18-4.36-3.63-3.82-1,.23-1.5,1.28-2.61,1.52C189.4,292.18,188,291.56,187.1,291.9Z"/><path class="cls-9" d="M196.5,205.07c-1.68,7.39-7.3,13.49-11.1,19.85a24.82,24.82,0,0,0-1.54,22.7,2.44,2.44,0,0,1,.27,1.53,2.29,2.29,0,0,1-1,1.16,87.51,87.51,0,0,1-14,7.9,76.15,76.15,0,0,1-8.29,3.31,73.09,73.09,0,0,1-8.79-42.24c.79-8.13,2.94-16.07,5.08-24,1.06-3.9,1.82-8.08,3.34-11.82,1-2.45,1.73-6.24,3.93-7.87,2-1.52,4.22-1.78,6.92-1.65,7.23.36,17.49-.45,22.57,5.68C199.44,186.36,198.23,197.51,196.5,205.07Z"/><path class="cls-8" d="M144.78,297.54a36,36,0,0,1-4.3,1.06c-5.54-13.53-9.28-28.43-13.56-42.47L137.74,253a131.22,131.22,0,0,0,2.7,24.6C140.71,278.86,145,297.46,144.78,297.54Z"/><path class="cls-9" d="M139.12,296.07a2.27,2.27,0,0,0-1.71,1.46,6.36,6.36,0,0,1-.64,1.31,3.43,3.43,0,0,1-1.18.76c-2.46,1.15-8.39,3.1-3.76,6.28,4.2,2.88,11.22-1.31,15.22-3.89a1.64,1.64,0,0,0,.69-.61,2.28,2.28,0,0,0,.14-1c-.14-2-.26-4.52-2.77-4.5-1.07,0-1.73.95-2.87.95C141.31,296.82,140,295.92,139.12,296.07Z"/><path class="cls-9" d="M166.29,213.07c-3.18,6.88-9.94,11.68-15,17.12a24.85,24.85,0,0,0-6.21,21.89,2.48,2.48,0,0,1-.05,1.55,2.35,2.35,0,0,1-1.25.92,87.34,87.34,0,0,1-15.29,4.84,74.57,74.57,0,0,1-8.8,1.52,73.18,73.18,0,0,1,.14-43.14c2.46-7.79,6.21-15.11,9.94-22.39,1.84-3.59,3.45-7.52,5.71-10.88,1.47-2.19,3-5.74,5.47-6.88,2.25-1.08,4.5-.87,7.11-.18,7,1.85,17.21,3.18,20.9,10.23C173,195.37,169.54,206,166.29,213.07Z"/><path class="cls-11" d="M174,110.08a54.64,54.64,0,0,1,15,20c5.91,13.35,7.09,28,8.21,42.32l1.11,14.32c.36,4.7,0,5.74-5.13,5.5-9.54-.44-19.52-1.66-28.41-5.22-4.23-1.7-8.23-3.94-12.62-5.2-6.4-1.83-12.7-.31-19-1.35,1.21-4.83,3.22-9.32,3.94-14.35a103.17,103.17,0,0,0,.81-15.22c-.06-8.89.39-17.77.4-26.63,0-6.34-1.22-11.45,5.19-16.09,3.48-2.53,9.84-6.88,15.08-6.22C164.19,102.68,170.34,107.09,174,110.08Z"/><path class="cls-8" d="M143.74,92.3c1.3,2.37,3.28,4.27,4.94,6.4a15.11,15.11,0,0,1,2.86,6.49c.41,1.8,1.17,3.18,3.39,3.33,4.18.28,2.75-3.06,3.5-5.62.86-2.92,3-5.34,4.4-8,4.09-7.68,1.68-22.09-8.17-24.47C143.88,67.83,139.79,85.13,143.74,92.3Z"/><path class="cls-16" d="M160,84a5.32,5.32,0,0,1,3.46.69c1,.74,1,2.5-.17,2.77s-2.51-.75-3.1.11c-.34.5,0,1.16.37,1.69A10.1,10.1,0,0,1,162,96c.47.37,1.12-.1,1.47-.55a22.27,22.27,0,0,0,3.83-7.49A4.36,4.36,0,0,0,169,89.37a5.08,5.08,0,0,1-.13-3.09c.62-3.78.91-8.17-1.91-11a9.73,9.73,0,0,0-5.84-2.54,28.92,28.92,0,0,0-6.44.28c-.91.11-2,.39-2.18,1.26a10.18,10.18,0,0,1,5.41,3.89C158.26,78.72,159.86,84,160,84Z"/><path class="cls-9" d="M155.08,75.35l.23.14a8.88,8.88,0,0,0,3,1.63c1.62.32,3.26-.57,4.87-.14,1.79.47,3.09,2.47,4.46,3.61a18.54,18.54,0,0,0,7.78,3.81,18.88,18.88,0,0,0,4.43.45,7.89,7.89,0,0,0,2.23-.17c.86-.31.8-.7-.16-.93-3-.73-4.23-4.78-4.22-7.54,0-2.17.59-4.48-.38-6.42-.74-1.49-2.15-2.18-3.52-3s-3.06-.49-4.73-.83-3.23-1.6-5-1.81-3.65.73-5.46,1.22a11.38,11.38,0,0,1-4.61.29,18.19,18.19,0,0,0-4.13-.53,6.69,6.69,0,0,0-4.9,3.33,13.69,13.69,0,0,0-1.48,9.63c-.12-.47,1.36-2.33,1.67-2.73a4.34,4.34,0,0,1,2.49-1.85C150.06,73.09,153,74.08,155.08,75.35Z"/><path class="cls-8" d="M201.12,46.89a3.38,3.38,0,0,0-.41.24c-1.19.87-1,2.33-1.77,3.37-.36.46-2.08.83-1.58,1.66.19.31.73,1.39,1.34,2.44.89,1.54.49,3.39.27,5q-.45,3.28-.89,6.59A35.37,35.37,0,0,1,197,71.9c-1.37,4.45-4.32,7.7-7,11.29a103.5,103.5,0,0,0-8.28,11.92,10.18,10.18,0,0,0-1.54,4.77c0,4.24,3.77,5.25,6.93,3.23a16.56,16.56,0,0,0,3.44-3.2,62.06,62.06,0,0,0,7.3-10.39c1-1.72,1.84-3.49,2.72-5.26a48.6,48.6,0,0,0,4.55-13.94c.2-2.38.15-4.77.14-7.16,0-1.45-.65-4.72.81-5.61a6.37,6.37,0,0,0,.72-.41,2.19,2.19,0,0,0,.54-.77,15.32,15.32,0,0,0,1.19-3.28c.45-2-1.79-4.37-2.94-5.78a3.07,3.07,0,0,0-1-.89,3.3,3.3,0,0,0-2.17,0A6.71,6.71,0,0,0,201.12,46.89Z"/><path class="cls-11" d="M192.47,96.89l-9-9.78c.19.21-15.62,12.72-16.54,13.49-3.49,3-7.09,6.07-9,10.22-4.14,8.87,4.59,18.35,13.73,14a54.56,54.56,0,0,0,23.95-23.34,1.39,1.39,0,0,0,.21-.68,1.41,1.41,0,0,0-.47-.83Z"/><path class="cls-17" d="M149.78,14.35a.91.91,0,0,0-.57-.59S112.31.47,111.45.14A1.55,1.55,0,0,0,111,0a.9.9,0,0,0-.79.37l-24,32.8a.83.83,0,0,1-1.24.11A14.15,14.15,0,0,0,78.88,30c-6.16-1.55-12.13,1-13.31,5.73a7.91,7.91,0,0,0,1.85,7,11.84,11.84,0,0,0,2.21,2.08,14.47,14.47,0,0,0,5,2.31c4.82,1.21,9.65-.05,12-3.14l.06-.07L105.66,18a.81.81,0,0,1,1-.29l25,9A.83.83,0,0,1,132,28l-13.66,18.7a.83.83,0,0,1-1.24.11A14.15,14.15,0,0,0,111,43.49a13.45,13.45,0,0,0-8.41.46,7.47,7.47,0,0,0-3.05,12.24,13.57,13.57,0,0,0,7.21,4.39c4.88,1.23,9.74-.07,12.11-3.23l0,0,30.8-42.16A.92.92,0,0,0,149.78,14.35Zm-11.73,5.33-1,1.34a.81.81,0,0,1-.95.29l-25-8.94a.83.83,0,0,1-.39-1.27l1-1.41a.81.81,0,0,1,1-.29l25,9A.84.84,0,0,1,138.05,19.68Z"/><g class="cls-18"><path class="cls-19" d="M65.65,39.42a9.22,9.22,0,0,0,1.77,3.29,11.84,11.84,0,0,0,2.21,2.08,14.47,14.47,0,0,0,5,2.31c4.82,1.21,9.65-.05,12-3.14l.06-.07L92,36.66C80.12,43,70.84,41.41,65.65,39.42Z"/></g><g class="cls-18"><path class="cls-19" d="M106.7,60.58c4.88,1.23,9.74-.07,12.11-3.23l0,0,4.2-5.75c-11.78,5.49-20.77,3.22-25.36,1.17a9.17,9.17,0,0,0,1.81,3.46A13.57,13.57,0,0,0,106.7,60.58Z"/></g><path class="cls-9" d="M296.38,153.38a25.76,25.76,0,0,1,2.87,2.76l2.44,2.6c2.82,3,4.21,7.46,5.42,11.3,2.31,7.34,3.17,15,4.45,22.62,1.33,7.81,4.75,15.34,7.78,22.63,1.26,3,2.56,6.11,4.81,8.48s5.71,3.9,8.84,3l-.47,5.95a3.54,3.54,0,0,1-.61,2.05,3.34,3.34,0,0,1-2.43.83c-3.53.16-7.09-.27-10.59.16-4.61.57-9.05,2.62-13.68,2.39-4.3-.21-8-2.36-12-3.59-3.35-1-5.81-.46-9-.76-8-.74-16.63-5.89-24.09-8.89a2.56,2.56,0,0,1-1.34-.92,2.5,2.5,0,0,1-.15-1.51c1.18-11.28,2.38-22.57,4.62-33.69a144.57,144.57,0,0,1,4.27-16.52c1.88-5.72,4-11.9,8.38-16.23,4.69-4.63,13.68-6.92,19.56-3.3A11.11,11.11,0,0,1,296.38,153.38Z"/><path class="cls-8" d="M294.67,156.2c.28-1.82.57-3.65.85-5.47a8.46,8.46,0,0,0,1.07-.6c6.53-4.17,17.49-26.55.08-31.56-15.8-4.55-15,17.19-11.9,26.25a13.63,13.63,0,0,0,2.28,4.29c.72.87.88.71.77,1.71s-1.07,2.08-1.29,3.11a3.76,3.76,0,0,0,2.06,4.54,4.88,4.88,0,0,0,3.16.59A4,4,0,0,0,294.67,156.2Z"/><path class="cls-16" d="M281.06,136.61a34.62,34.62,0,0,0,4,8.19A58.77,58.77,0,0,1,287,128.91a1.53,1.53,0,0,0,0-1.19,1.44,1.44,0,0,0-1-.52C279.36,125.76,279.38,131.57,281.06,136.61Z"/><path class="cls-9" d="M298.55,144.67c1.07,1.51,3.4,1.1,5.05.27a17.91,17.91,0,0,0,9.25-19c-1.26-6.21-9.09-10.87-10.67-3.18-.56,2.73,1.1,6.51.72,9.54C302.36,136.62,300.34,140.76,298.55,144.67Z"/><path class="cls-9" d="M281.13,112.87l-2.34.93c-1.68.66-2.9.88-4.63-.11-.5-.28-3.82-3.42-3-4.07-5.3,4.32-.94,10.64,1,15.1,1.34,3,1.62,7.27,4.63,9.24,3.31,2.16,5.59-.58,8.6-1.8,2.65-1.09,5.52-1.67,8.22-2.63,4.48-1.6,11.14-4.41,9.66-10.36-1.73-7-8.78-8.69-15.1-8.16A23.56,23.56,0,0,0,281.13,112.87Z"/><path class="cls-20" d="M242.51,170.36l-1,3.47a19.5,19.5,0,0,1-3-.64c-1.27-.4-2.81-.69-3.67-1.82a9,9,0,0,1-.67-1.16c-.55-1-1.66-1.82-1.81-3-.21-1.62.77-2.32,2.23-1.82a3.36,3.36,0,0,1,1.22.69,14.76,14.76,0,0,1,1.08,1.51c.27.34,2.47,1.46,1.93.47l-.48-.85.85-.46Z"/><path class="cls-9" d="M251.78,171.28c-.91-.27-9.67-3.4-10-2.78L239.17,173a2.1,2.1,0,0,0-.39,1.17c.14,1.54,4.49,3.76,5.73,4.4a39.77,39.77,0,0,0,7.33,2.7q2.86.81,5.78,1.47a7.06,7.06,0,0,0,2.23.26,7.16,7.16,0,0,0,2.46-.9,69.87,69.87,0,0,0,6.29-3.48c3.2-2.08,6-4.69,9.24-6.74,2.37-1.51,5.15-2.95,6-5.63a6.74,6.74,0,0,0-1.19-5.87,16,16,0,0,0-4.7-4,2,2,0,0,0-.9-.37,2.15,2.15,0,0,0-1.33.57q-8.26,6.19-16.05,13a6.52,6.52,0,0,1-7.92,1.72Z"/><path class="cls-21" d="M246.29,96.67c-3-2.54-7.41-9.35-3-17,1.22-2.16,2.34-3.83,3.24-5.17,2.64-3.94,3.35-5,1.4-9.72-1.26-3-1.28-5.41,0-7.05,1.64-2.21,4.67-2,5-1.93l-.33,3.27c-.38,0-1.59,0-2,.63s-.29,2,.46,3.82c2.63,6.35,1.09,8.64-1.7,12.81-.91,1.37-1.95,2.91-3.12,5-4.09,7.19,2.07,12.66,2.33,12.89Z"/><path class="cls-22" d="M280.82,86.44l-3.26.48c0-.19-.65-4.65,1.73-7.75a7.33,7.33,0,0,1,5.17-2.81c1.68-.2,2.84-.7,3.26-1.41a2.19,2.19,0,0,0,.08-1.71l3-1.27a5.47,5.47,0,0,1-.26,4.61c-1,1.69-2.9,2.71-5.73,3a4.09,4.09,0,0,0-2.94,1.54C280.39,83.15,280.81,86.41,280.82,86.44Z"/><path class="cls-23" d="M226.58,68.22l1.15-3.09c.17.07,4.38,1.66,6,5.23a7.33,7.33,0,0,1,0,5.88c-.63,1.57-.74,2.83-.32,3.54a2.19,2.19,0,0,0,1.47.89l-.34,3.27a5.41,5.41,0,0,1-3.93-2.42c-1-1.67-1-3.85.06-6.5a4.13,4.13,0,0,0,.05-3.32C229.68,69.42,226.61,68.23,226.58,68.22Z"/><path class="cls-24" d="M220.36,48.18l-1.12-3.09c.18-.07,4.42-1.57,7.94.14a7.32,7.32,0,0,1,3.78,4.5c.54,1.61,1.26,2.64,2,2.91a2.21,2.21,0,0,0,1.69-.26l1.85,2.72a5.46,5.46,0,0,1-4.57.68c-1.85-.62-3.24-2.3-4.14-5a4.09,4.09,0,0,0-2.1-2.57C223.49,47.11,220.39,48.17,220.36,48.18Z"/><rect class="cls-25" x="251.61" y="85.78" width="8.75" height="3.29" transform="translate(149.15 335.94) rotate(-85.59)"/><rect class="cls-26" x="266.46" y="75.2" width="8.75" height="3.29" transform="translate(28.96 220.9) rotate(-46.62)"/><rect class="cls-27" x="216.41" y="78.12" width="3.29" height="8.75" transform="translate(12.53 192.55) rotate(-48.89)"/><path class="cls-28" d="M265.15,58.28l-3.25.52c0-.29-1-7.16,6.94-10.92,3-1.41,2.77-2,2.34-3.4-.36-1.17-.91-2.93.59-4.67L274.26,42c-.25.29-.27.44.07,1.52.71,2.3,1.05,4.94-4.09,7.37C264.47,53.58,265.14,58.23,265.15,58.28Z"/><path class="cls-29" d="M309.23,63.67l-3.05,1.25c-.69-1.67-2-3.33-2.58-3.34-.18,0-.83.37-1.66,2.12-.59,1.24-1.57,2.9-3.27,3.07-1.95.2-3.28-1.58-4.81-3.63-1.95-2.6-4.36-5.83-8.1-5.77a5.91,5.91,0,0,0-4.56,1.84c-2.31,2.59-1.9,7.14-1.9,7.19l-3.28.33c0-.25-.57-6,2.71-9.7a9.09,9.09,0,0,1,7-3c5.43-.09,8.66,4.22,10.79,7.08a16.7,16.7,0,0,0,1.84,2.21,5.93,5.93,0,0,0,.63-1.08c1.29-2.71,2.88-4,4.73-4C306.89,58.37,308.86,62.78,309.23,63.67Z"/><path class="cls-30" d="M248.44,140.13a29.7,29.7,0,0,1-.32-13.45l2.75-11.45-2.76-.66-2.75-.66-2.74,11.45a29.66,29.66,0,0,1-6.38,11.85c-5.05,5.8-6.39,9.81-8,16.43l-4.73,19.77a3.7,3.7,0,0,0,2.72,4.47l6.34,1.52,6.34,1.52a3.72,3.72,0,0,0,4.46-2.76l4.73-19.76C249.71,151.77,250.33,147.59,248.44,140.13Z"/><rect class="cls-31" x="244.25" y="114.52" width="7.01" height="2.6" transform="translate(33.79 -54.52) rotate(13.47)"/><rect class="cls-31" x="245.37" y="113.82" width="5.54" height="0.74" transform="translate(33.42 -54.66) rotate(13.47)"/><rect class="cls-32" x="242.65" y="118.11" width="7.89" height="5.66" transform="translate(71.54 332.58) rotate(-76.53)"/><g class="cls-6"><path d="M249.26,152.82s-6.09,26.5-22.65,25.15l6,1.43,6.34,1.52a3.72,3.72,0,0,0,4.46-2.76l4.73-19.76c.49-2,.88-3.84,1.14-5.58Z"/></g><g class="cls-33"><path class="cls-34" d="M241.82,129.24s-2.17,8,.56,10.84-7.46-.51-12.57,10.24c0,0,1.65-6.87,5.73-11.24C239.81,134.51,240.71,132.29,241.82,129.24Z"/></g><g class="cls-6"><polygon points="244.76 116.44 249.86 119.45 250.26 117.76 244.76 116.44"/></g><polygon class="cls-35" points="247.68 160.22 234.44 143.84 229.11 150.32 225.03 167.13 243.39 178.16 247.68 160.22"/><path class="cls-8" d="M352.85,185.15l-.41-3.66a19.75,19.75,0,0,1,3.09-.42c1.36-.07,3-.33,4.22.46a9.14,9.14,0,0,1,1.1.87,8.3,8.3,0,0,0,2.78,1.52,1.13,1.13,0,0,1,.51.26,1,1,0,0,1,.19.39,2.29,2.29,0,0,1,0,1.63,2.18,2.18,0,0,1-2,.92,3.51,3.51,0,0,1-1.44-.22,15.86,15.86,0,0,1-1.63-1.08c-.39-.23-2.93-.53-2,.23l.79.65-.63.73Z"/><path class="cls-9" d="M328.66,183.6c-1.36-2.61-1.89-5.63-3.92-7.66-3.55-3.54-8.67-1.23-12.89.34-6.83,2.55-18,3.86-21.7-4.44-1.39-3.15-.25-7,2.21-9.43a12.37,12.37,0,0,1,12.38-2.89c8.9,3.21,21.25,2.41,27.7,10.54,2.25,2.83,3.39,6.51,6.22,8.8,4.81,3.89,11,1.38,16.09,1.7a40.48,40.48,0,0,1-1.86,6.59c-2.36,6.21-18.39,2.19-21.77-.47A9.11,9.11,0,0,1,328.66,183.6Z"/><path class="cls-8" d="M50.31,120.54a8.06,8.06,0,0,0-2.79-8.86L32.66,100.35c-2.78-2.13-6.82-4.18-8.69-7.06-3.32-5.08-5.21-12-7.35-17.71-1.09-2.87-3.17-6.58-3.28-9.66,0-.58,1.39-5.79,1.25-5.85l-1.16-.69-.67,1.17-.91.24.91-3.88L8.31,56.1,4.8,60C6,63.1,8,65.94,8.51,69.27c.19,1.41.16,2.84.24,4.26.13,2.45.58,4.85.94,7.26s.23,4.75.6,7C11.12,93,12,98.06,12.83,103.17l24.55,21A8.07,8.07,0,0,0,50.31,120.54Z"/><path class="cls-36" d="M54.86,126.15c2.5-3.46,2.26-9.68-.2-13.05q-1.86-2.53-3.9-4.92c-1.91-2.24-5.2-3.36-7.79-4.69-.71-.36-8.52-4.27-8.57-4.16q-5.28,10.58-10.55,21.17a1.52,1.52,0,0,0,.44,2.22c3.19,3.18,6.66,6.43,11,7.49a25.76,25.76,0,0,0,7.65.31C47.34,130.26,52.3,129.69,54.86,126.15Z"/><path class="cls-8" d="M49.39,250.32l-.34,20.47c.14,5.68-.37,11.34-.72,17-.32,5.26.74,10.68-1.75,15.55-.78,1.53-2.45,2.59-3.72.83-1-1.36-.52-3.72-.76-5.3-1.82-11.86-5.19-23.44-6.87-35.32C33.47,251.09,38.28,251.42,49.39,250.32Z"/><polygon class="cls-9" points="48.23 299.84 49.54 303.25 43.07 308.95 37.13 309.2 35.22 306.07 43.19 299.13 48.23 299.84"/><path class="cls-8" d="M63.89,250.52l3.73,20.13c1.3,9,4.24,17.77,5.53,26.78.3,2.07.15,4.33,1,6.28s2.5,2,4,.69c2-1.73,1.06-4.84,1-7.21-.24-15.8,1-31.38,1.3-47.21a.69.69,0,0,0-.16-.58.74.74,0,0,0-.49-.09C78.27,249.41,64,251,63.89,250.52Z"/><polygon class="cls-9" points="79.2 300.68 81.25 303.71 76.23 310.72 70.5 312.3 67.93 309.69 74.14 301.13 79.2 300.68"/><polygon class="cls-9" points="91.64 200.92 61.41 195.74 36.96 199.53 32.43 215.06 31.09 234.08 28.29 263.34 54.21 263.34 54.02 250.48 58.51 229.51 58.12 263.34 87.27 261.16 93.09 206.79 91.64 200.92"/><path class="cls-34" d="M86.33,137.3c0,1,.07,2,.09,3,.35,20.08-.75,40.4-.88,60.64a225.39,225.39,0,0,0-31.34-2.67c-2.42,0-13.46,1.67-15,.22-2.09-2,.21-1.6,0-4.16-.19-3.32,1.4-6,.8-10-.71-4.61-2.12-9.18-2.93-13.8-2.22-12.64-1.69-24.42,0-37.12,1-7.38,2.24-15.4,6.27-21.82,2.89-4.59,8.79-6.55,14-7.11C68.14,103.33,78.85,109,83,119.14,85.27,124.88,86.08,131.09,86.33,137.3Z"/><path class="cls-37" d="M54.18,111.25l7.74,14.11q-.6,21.38-1.21,42.74l-.56,19.7c-.07,2.28-.12,4.56-.2,6.84,0,1,.25,2.74-.33,3.58-1.27,1.81-5.9,1.25-7.92,1.41a34.35,34.35,0,0,0-9.31,1.59c-2,.72-3.85,1.81-5.94,2.11a1.78,1.78,0,0,1-1.36-.23,2,2,0,0,1-.52-1.44c-1-12.93-.08-26-.36-39-.29-13.39-.34-27,3.22-40a39.79,39.79,0,0,1,6.41-13.9c3.77-4.9,6.65-5.55,12.59-5.77,1.72-.06,3.55-.36,2.87,2.15C58.75,107.13,55.54,109.64,54.18,111.25Z"/><path class="cls-38" d="M71,112.58l-7.74,14.1c.16,0,1,34.58,1,36.91l.75,26.62c.07,2.47-.26,5.36.22,7.78.68,3.39,4.24,2.72,7.28,3,6.64.6,13.63,1.73,20.29,1.39,1.92-.09-.6-40.19-.6-43.93,0-13.46,2.79-28.39-4-40.59-2-3.55-5.49-9.24-9.36-11-3.61-1.63-8.77-1.91-12.69-2.82l-.2,2.53Z"/><path class="cls-9" d="M61.06,78.87a15.75,15.75,0,0,0-3.19,6.57c-.15.64-.33,1.37-.92,1.65s-.31,1.28-.63.66S54.92,85,55,84.28a26.56,26.56,0,0,1,.92-4.83A7,7,0,0,1,58,75.79a8.06,8.06,0,0,1,2.25-1.13,10.36,10.36,0,0,1,3.56-.85c2.11,0,3.23,1,1.16,2.06A12.65,12.65,0,0,0,61.06,78.87Z"/><path class="cls-8" d="M68.64,108.66c-.2,1-.19,2-1.21,2.65a3.09,3.09,0,0,1-1.65.31,9.89,9.89,0,0,1-4.22-1.11,4,4,0,0,1-1.4-1.12,2,2,0,0,1-.26-1.69c.11-.75.11-1.53.15-2.31a50.18,50.18,0,0,1,.59-5c-2.37-.88-5.1-2.22-5.45-4.94a8.79,8.79,0,0,1,.2-2.6q1-5.32,1.94-10.66a10.28,10.28,0,0,1,1.1-3.55c1.11-1.86,3.21-2.7,5.19-3.1a16.25,16.25,0,0,1,14.32,3.62,8,8,0,0,1,2.35,3.47c.66,2.15.07,4.53-.51,6.75l-1.62,6.15c-.62,2.35-1.5,5-3.59,5.94-1.11.49-2.41.37-3.42,1.08-1.77,1.23-1.49,3.62-2.28,5.37A3.5,3.5,0,0,0,68.64,108.66Z"/><path class="cls-9" d="M54.37,94.76A8.89,8.89,0,0,0,56.62,101c1.77,1.79,4.31,2.37,6.72,2.89l4,.84c3.34.71,6.75.91,9.14-2.29a10.94,10.94,0,0,0,1.94-5.17,3.38,3.38,0,0,0-.06-1.52,1.22,1.22,0,0,0-1-.92c-.61,0-1.08.54-1.56,1a3,3,0,0,1-3.71.45,5.27,5.27,0,0,1-.83-.87c-.1-.14-.21-.27-.31-.39a8.71,8.71,0,0,0-4-2.5c-1.3-.43-3.17-1.29-4.38-.34l-2.11,1.66a3.53,3.53,0,0,1-.92.57,2.5,2.5,0,0,1-3-1.68,4.64,4.64,0,0,1,.1-1.28,2,2,0,0,0-.11-1.25c-.76-1.4-1.41.48-1.58,1.13A14,14,0,0,0,54.37,94.76Zm9,2.34a3.82,3.82,0,0,0,3.28,1c.64-.07.71,1,.07,1.06a4.71,4.71,0,0,1-4-1.25C62.25,97.45,62.91,96.64,63.37,97.1Z"/><path class="cls-9" d="M57.93,71.91a20.59,20.59,0,0,1,0-2.72,5.26,5.26,0,0,0,2.53.7c.1-.51.2-1,.29-1.53s5.89.37,6.36.42c4.44.47,8.5.88,12,4a12.09,12.09,0,0,1,4.38,10A18.53,18.53,0,0,1,78.39,93.9c.2-1,1.21-3.21,1.15-4.2a8.39,8.39,0,0,0-.4-2.86A11.32,11.32,0,0,0,76,82a22.07,22.07,0,0,0-8-4.48c-2.65-.89-5.91-1.87-8.74-1.66-1.35.1-1.63.39-2.17-1.07a22.65,22.65,0,0,1-.57-3.13Z"/><path class="cls-8" d="M78.74,123.32a8.05,8.05,0,0,0-9.19,1.32L56,137.45c-2.54,2.4-5.23,6.05-8.37,7.44-5.55,2.45-12.73,3.18-18.66,4.37-3,.61-7,2.06-10.07,1.67-.58-.07-5.48-2.31-5.58-2.18l-.86,1,1.05.85.09.94L9.86,150,8.34,154.3l3.29,4.1c3.25-.7,6.38-2.24,9.74-2.16,1.43,0,2.83.3,4.25.46,2.42.27,4.87.21,7.31.25s4.72.54,7,.54c5.19,0,10.37,0,15.56,0l24.74-20.81A8.06,8.06,0,0,0,78.74,123.32Z"/><path class="cls-39" d="M85,119.74c-3-3-9.19-3.81-12.91-1.92-1.86,1-3.7,2-5.49,3.05-2.52,1.52-4.16,4.58-5.89,6.92-.47.64-5.59,7.72-5.5,7.79l19.18,13.84a2,2,0,0,0,1,.46,2.07,2.07,0,0,0,1.3-.53c3.66-2.63,7.42-5.53,9.19-9.67a25.75,25.75,0,0,0,1.54-7.5C87.85,127.83,88.1,122.84,85,119.74Z"/></g></g></svg>