<svg xmlns="http://www.w3.org/2000/svg" xmlns:xlink="http://www.w3.org/1999/xlink" viewBox="0 0 292.27 266.97"><defs><style>.cls-1{fill:#fdc3b6;}.cls-2{fill:url(#Безымянный_градиент_11);}.cls-3{fill:#215770;}.cls-4{fill:url(#Безымянный_градиент_7);}.cls-5{fill:#242449;}.cls-6{fill:url(#Безымянный_градиент_7-2);}.cls-7{fill:#181833;}.cls-8{fill:url(#Безымянный_градиент_7-3);}.cls-9{fill:#4579ab;}.cls-10{fill:url(#Безымянный_градиент_7-4);}.cls-11{fill:url(#Безымянный_градиент_11-2);}</style><linearGradient id="Безымянный_градиент_11" x1="211.07" y1="20.32" x2="259.82" y2="20.32" gradientUnits="userSpaceOnUse"><stop offset="0.08" stop-color="#f2b143"/><stop offset="0.6" stop-color="#eb933e"/><stop offset="1" stop-color="#e6813b"/></linearGradient><linearGradient id="Безымянный_градиент_7" x1="173.3" y1="170.1" x2="231.37" y2="170.1" gradientUnits="userSpaceOnUse"><stop offset="0.1" stop-color="#487cff"/><stop offset="0.48" stop-color="#2742ff"/><stop offset="0.83" stop-color="#0b12ff"/><stop offset="1" stop-color="blue"/></linearGradient><linearGradient id="Безымянный_градиент_7-2" x1="212.6" y1="181.68" x2="265.03" y2="181.68" xlink:href="#Безымянный_градиент_7"/><linearGradient id="Безымянный_градиент_7-3" x1="113.47" y1="159.45" x2="141" y2="159.45" xlink:href="#Безымянный_градиент_7"/><linearGradient id="Безымянный_градиент_7-4" x1="104.41" y1="145.3" x2="152.52" y2="145.3" xlink:href="#Безымянный_градиент_7"/><linearGradient id="Безымянный_градиент_11-2" x1="102.91" y1="106.21" x2="152.39" y2="106.21" xlink:href="#Безымянный_градиент_11"/></defs><title>Ресурс 7</title><g id="Слой_2" data-name="Слой 2"><g id="OBJECTS"><path class="cls-1" d="M291.92,79.55c-2.26-6.15-8-1-10.05,2.31l-27.11,7.68-2.69,9,32.56-12.07S294.18,85.71,291.92,79.55Z"/><path class="cls-2" d="M239.2,38.11l1.21-3.26-2.08-4.16c-2.08-4.15,2.34-3.37,4.68-2.59s6.23-9.35,11.43-9.61A6.62,6.62,0,0,0,259.82,15c-.06-.15-.12-.3-.19-.44s.26-19.74-27.27-7.27c0,0-5.2-11.43-16.37-5.72s.52,27.8-1.82,33.77c0,0,7,.52,5.46-12.21S227.42,13,227.42,13s-7.53,22.34,10.39,27.54l.11.07c-.07-1.57-.11-2.81-.11-3.19Z"/><path class="cls-3" d="M237.92,40.64c0,.27,0,.54,0,.83l.23-.63Z"/><path class="cls-1" d="M259.82,15a6.62,6.62,0,0,1-5.38,3.46c-5.2.26-9.1,10.39-11.43,9.61s-6.76-1.56-4.68,2.59l2.08,4.16-1.21,3.26-1,2.73-.23.63c.15,3.75.38,8.71.38,8.71s7.27,8.57,13,4.67l-2.69-10c1.57-.07,5.56,2.34,7.1.86C261.57,40.18,262.45,21.47,259.82,15Z"/><path class="cls-3" d="M239.2,38.11l-1.39-.66c0,.38,0,1.62.11,3.19l.26.2Z"/><path class="cls-4" d="M212.61,169.15c0,9.36-3.11,26.24-35.85,1l-.08-.13a10.62,10.62,0,0,0-3.38,4.46c2.33,2.21,30.24,28.36,42.43,21.39,9.23-5.27,13.82-22.71,15.64-31.89-5.27-6.82-10.44-14-14-20.9C215.57,149.76,212.61,162.27,212.61,169.15Z"/><path class="cls-5" d="M176.68,170.06l-2.25-3.5S159.36,177,163,178s10.13-3.64,10.13-3.64l.17.17A10.62,10.62,0,0,1,176.68,170.06Z"/><path class="cls-6" d="M245.08,121.88l-21.58-7.45c-.52.78-16.86,2.77-8.55,23.55.68,1.69,1.49,3.41,2.38,5.14,3.6,6.91,8.77,14.08,14,20.9,9.63,12.47,19.54,23.75,20.47,30.07,1.39,9.52,6.52,46.44,7.59,54.17a26.29,26.29,0,0,0,4.71.67l-.87-.28S273.4,171.75,245.08,121.88Z"/><path class="cls-5" d="M259.63,249.68l.26,5.72s14,.26,14.81-1.3c.65-1.3-7.78-4.24-10.56-5.17a26.29,26.29,0,0,1-4.71-.67C259.56,249.17,259.63,249.68,259.63,249.68Z"/><path class="cls-5" d="M260.15,77.19c-1.82-5.19-8.83-22.34-8.83-22.34-5.72,3.9-13-4.67-13-4.67S231.47,52,219.79,62.44a24.17,24.17,0,0,1,6.38,8.15l1.13-1-.92,1.63,3.38,26.24-.91,2.46,7.14,5.59c3.9-.26,11.43,1.3,7.8,6.75s-9.88-1.81-9.88-1.81l-7.18-4.76-3.23,8.74,21.58,7.45,7-23.36,2.69-9,1-3.25S262,82.39,260.15,77.19Z"/><path class="cls-1" d="M236,105.51l-7.14-5.59L212.45,87.1a2.84,2.84,0,0,1-.12-4.37l13.84-12.14a24.17,24.17,0,0,0-6.38-8.15c-1,.87-2,1.8-3,2.8-5.65,5.44-10.17,9.87-13.51,13.19A8.13,8.13,0,0,0,204.51,91l22.22,14.71,7.18,4.76s6.24,7.27,9.88,1.81S239.89,105.25,236,105.51Z"/><line class="cls-7" x1="125.91" y1="243.75" x2="114.48" y2="244"/><line class="cls-7" x1="115.64" y1="243.91" x2="108.02" y2="236.63"/><path class="cls-8" d="M119.14,153.22c6.19-6.4,21.86-4.86,21.86-4.86a163,163,0,0,0-12.77,22.34c-3.47-2.36-8.94-5.32-14.76-5.28C115,160.08,117,155.44,119.14,153.22Z"/><path class="cls-1" d="M128.23,170.7c-3.55,7.76-6.22,16.06-5.33,22.26,2.2,15.46,2.43,45.71,2.43,45.71l-3.76.22s-6.84-42.17-10.15-47.47c-2.17-3.46-.85-16,2-26C119.29,165.38,124.76,168.34,128.23,170.7Z"/><path class="cls-5" d="M125.33,238.67s.58,4.09.24,3.84-10.43.08-10.43.08l6.43-3.7Z"/><path class="cls-7" d="M0,229.21a37.76,37.76,0,1,0,37.76-37.75A37.8,37.8,0,0,0,0,229.21Zm4,0a33.8,33.8,0,0,1,2.58-12.94l30.16,13.57.54.53H4C4,230,4,229.6,4,229.21Zm33.25,2.72.37-.37V263a33.52,33.52,0,0,1-13.11-2.72Zm-13,28.2a33.58,33.58,0,0,1-9.17-6l21.56-21.56Zm47.34-29.76H39l30.85-11.71a33.5,33.5,0,0,1,1.7,10.55C71.54,229.6,71.52,230,71.51,230.37Zm-33.92-.13,0,0h0Zm0-1-12-31.56a33.57,33.57,0,0,1,12-2.27Zm.33-33.83a33.75,33.75,0,0,1,14,3.1l-14,31ZM71.5,230.7a33.42,33.42,0,0,1-3.22,13l-28.83-13ZM49.27,261a33.62,33.62,0,0,1-11.35,2V231.23l0,0ZM38.48,231.6l22.3,22.3a33.77,33.77,0,0,1-11.2,7Zm-1.29-.9L6.62,242.31A33.57,33.57,0,0,1,4,230.7ZM13.07,206.19l23,23L6.68,216A34,34,0,0,1,13.07,206.19Zm12.23-8.37,12.14,32-.53-.24L13.3,206A33.83,33.83,0,0,1,25.3,197.82Zm37.17,8.39-24,24-.06,0-.35-.16,14.12-31.41A34,34,0,0,1,62.47,206.21Zm7.27,12.14L39.23,229.93,62.7,206.45A33.93,33.93,0,0,1,69.74,218.35ZM61,253.67,38.25,230.9l.2-.2h.19L68.14,244A34,34,0,0,1,61,253.67ZM6.75,242.61,37.27,231l-.32.71L14.76,253.92A33.86,33.86,0,0,1,6.75,242.61Z"/><path class="cls-7" d="M124.28,229.21A37.76,37.76,0,1,0,162,191.46,37.8,37.8,0,0,0,124.28,229.21Zm4,0a33.61,33.61,0,0,1,2.58-12.94L161,229.84l.53.53H128.28C128.27,230,128.25,229.6,128.25,229.21Zm33.25,2.72.37-.37V263a33.57,33.57,0,0,1-13.12-2.72Zm-13.05,28.2a33.58,33.58,0,0,1-9.17-6l21.56-21.56Zm47.34-29.76H163.27l30.85-11.71a33.79,33.79,0,0,1,1.7,10.55C195.82,229.6,195.8,230,195.79,230.37Zm-33.92-.13,0,0h0Zm0-1-12-31.56a33.57,33.57,0,0,1,12-2.27Zm.33-33.83a33.79,33.79,0,0,1,14,3.1l-14,31Zm33.58,35.27a33.6,33.6,0,0,1-3.22,13l-28.84-13ZM173.55,261a33.66,33.66,0,0,1-11.35,2V231.23l0,0ZM162.76,231.6l22.3,22.3a33.87,33.87,0,0,1-11.2,7Zm-1.3-.9-30.57,11.61a33.79,33.79,0,0,1-2.6-11.61Zm-24.12-24.51,23,23L131,216A34,34,0,0,1,137.34,206.19Zm12.24-8.37,12.14,32-.54-.24L137.57,206A34,34,0,0,1,149.58,197.82Zm37.17,8.39-24,24-.05,0-.36-.16,14.13-31.41A34.13,34.13,0,0,1,186.75,206.21ZM194,218.35,163.5,229.93,187,206.45A33.91,33.91,0,0,1,194,218.35Zm-8.71,35.32L162.53,230.9l.2-.2h.18L192.42,244A34.17,34.17,0,0,1,185.3,253.67ZM131,242.61,161.54,231l-.32.71L139,253.92A33.84,33.84,0,0,1,131,242.61Z"/><path class="cls-7" d="M40.08,230.06,67,159.52a1.87,1.87,0,0,0-1.1-2.41h0a1.88,1.88,0,0,0-2.42,1.1L36.57,228.75a1.87,1.87,0,0,0,1.1,2.41h0A1.86,1.86,0,0,0,40.08,230.06Z"/><path class="cls-7" d="M163.07,228.64l-32-46.07a1.87,1.87,0,0,0-2.62-.42h0a1.88,1.88,0,0,0-.43,2.62l32,46.07a1.87,1.87,0,0,0,2.62.42h0A1.87,1.87,0,0,0,163.07,228.64Z"/><path class="cls-7" d="M160.69,228.2,108,235.53a1.87,1.87,0,0,0-1.39,2.26h0a1.87,1.87,0,0,0,2.26,1.39l52.74-7.32A1.87,1.87,0,0,0,163,229.6h0A1.88,1.88,0,0,0,160.69,228.2Z"/><path class="cls-7" d="M61.4,171.25l66.2,13.66a1.87,1.87,0,0,0,2.23-1.45h0a1.88,1.88,0,0,0-1.45-2.22l-66.2-13.67A1.89,1.89,0,0,0,60,169h0A1.89,1.89,0,0,0,61.4,171.25Z"/><path class="cls-7" d="M54.84,187.25l60.64,29.88a1.87,1.87,0,0,0,2.51-.85h0c.47-.93,1.24-4.72.31-5.18L59.09,176.85c-.93-.47-4.63,7-5.09,7.88h0A1.88,1.88,0,0,0,54.84,187.25Z"/><path class="cls-7" d="M109.86,237.79l30.65-79.59a1.89,1.89,0,0,0-1.1-2.42h0a1.88,1.88,0,0,0-2.42,1.1l-30.65,79.6a1.87,1.87,0,0,0,1.1,2.41h0A1.89,1.89,0,0,0,109.86,237.79Z"/><path class="cls-9" d="M122.46,152.67c0,2.86,6.17,5.19,13.8,5.19s13.8-2.33,13.8-5.19-6.18-5.19-13.8-5.19S122.46,149.8,122.46,152.67Z"/><path class="cls-5" d="M67,159.52c.39.1,7.59-15.05-.52-18.11s-1.58,3.39-1.33,3.48,2.46,3.87-1.67,13.32Z"/><path class="cls-7" d="M98.92,238.89a9.19,9.19,0,1,1,9.18,9.18A9.19,9.19,0,0,1,98.92,238.89Zm2.83,0a6.36,6.36,0,1,0,6.35-6.36A6.36,6.36,0,0,0,101.75,238.89Z"/><path class="cls-7" d="M107.61,237.12h0a1.4,1.4,0,0,0,1.17-1.61l-2.51-16-2.79.44L106,236A1.41,1.41,0,0,0,107.61,237.12Z"/><rect class="cls-7" x="92.27" y="218.57" width="18" height="2.82" transform="translate(-11.99 5.93) rotate(-3.17)"/><path class="cls-5" d="M84.92,34.21c13.25-4.19,29.59,2.87,26.94,7.07,0,0,9.49,9.93-2.21,25l-4.2-3.32s3.09-5.74.45-6.4l-2.65-.66-2.43,4.41s-4.42-18.54-21-12.14C79.84,48.12,71.67,38.41,84.92,34.21Z"/><path class="cls-1" d="M100.82,60.26l2.43-4.41,2.65.66c2.64.66-.45,6.4-.45,6.4l4.2,3.32s0,7.06,2.43,8.61l1.1,6.18-9.71,5.74L96.59,76.19a34.44,34.44,0,0,0,3.34-4.89,34.44,34.44,0,0,1-3.34,4.89l-2.18-3.34,2.18,3.34c-2.76,3.31-7.06,6.87-12.33,5.71-9.06-2-7.73-27.38-4.42-33.78C96.4,41.72,100.82,60.26,100.82,60.26Z"/><path class="cls-10" d="M152.39,135.34c.66,6.16-1.19,9.77-5.21,12.14-5,2.94-20.34,5.88-32.76,8.82-1-4.94-3.52-11.46-10-14.82a152.07,152.07,0,0,1,17-7.18C137.17,139.53,147.16,137.54,152.39,135.34Z"/><path class="cls-5" d="M108.27,211.86l1.82,6.28s-19.43,1.54-18.77,1.32,9.57-5.63,12.26-7.26A23.23,23.23,0,0,0,108.27,211.86Z"/><path class="cls-1" d="M114.42,156.3c-9,2.14-16.52,4.28-17.36,6.42-2,5.07,11,48.57,11,48.57l.17.57a23.23,23.23,0,0,1-4.69.34l.77-.47s-24.51-47.25-17-57.85c3.29-4.64,10.26-9,17.06-12.4C110.9,144.84,113.41,151.36,114.42,156.3Z"/><path class="cls-11" d="M112.74,84.55c-5.13-2-8.11.35-9.83,3.36a10.47,10.47,0,0,1,.56-1.15l8.61-11.92s12.8-2,27.6,27.38c7.89,15.67,11.95,26.06,12.71,33.12-5.23,2.2-15.22,4.19-31-1l.2-.07s-3.66-16.61-10.82-26.2C121.18,90.58,113.45,84.82,112.74,84.55Z"/><path class="cls-1" d="M55.55,137.1c2.21-3.09,8.17.67,8.17.67s33.56-20.54,36.88-42a21.1,21.1,0,0,1,2.31-7.9c-1.18,2.75-3.2,10,4.31,16.29a22.92,22.92,0,0,1,3.53,3.83c-.55.9-1.12,1.83-1.76,2.8-13,19.65-32.24,28-42.62,29.58,0,0-7.5-2.87-8,3.1C58.42,143.51,53.35,140.19,55.55,137.1Z"/><path class="cls-1" d="M107.22,104.2c-7.51-6.28-5.49-13.54-4.31-16.29,1.72-3,4.7-5.31,9.83-3.36.71.27,8.44,6-2,23.48A22.92,22.92,0,0,0,107.22,104.2Z"/><path class="cls-7" d="M58,144.55a4.64,4.64,0,1,0,2.53-6.06A4.65,4.65,0,0,0,58,144.55Z"/></g></g></svg>