<svg xmlns="http://www.w3.org/2000/svg" xmlns:xlink="http://www.w3.org/1999/xlink" viewBox="0 0 209.17 280.4"><defs><style>.cls-1{fill:#242449;}.cls-2{fill:#303066;}.cls-3{fill:url(#Безымянный_градиент_12);}.cls-4{fill:url(#Безымянный_градиент_12-2);}.cls-5{fill:#fff;}.cls-6{fill:url(#Безымянный_градиент_7);}.cls-7{fill:url(#Безымянный_градиент_12-3);}.cls-8{fill:url(#Безымянный_градиент_12-4);}.cls-9{fill:url(#Безымянный_градиент_12-5);}.cls-10{fill:url(#Безымянный_градиент_12-6);}</style><linearGradient id="Безымянный_градиент_12" x1="53.86" y1="126.91" x2="86.08" y2="126.91" gradientUnits="userSpaceOnUse"><stop offset="0.39" stop-color="#f2b143"/><stop offset="0.73" stop-color="#eb933e"/><stop offset="1" stop-color="#e6813b"/></linearGradient><linearGradient id="Безымянный_градиент_12-2" x1="58.33" y1="209.83" x2="114.12" y2="209.83" xlink:href="#Безымянный_градиент_12"/><linearGradient id="Безымянный_градиент_7" x1="128.59" y1="110.96" x2="209.17" y2="110.96" gradientUnits="userSpaceOnUse"><stop offset="0.1" stop-color="#487cff"/><stop offset="0.48" stop-color="#2742ff"/><stop offset="0.83" stop-color="#0b12ff"/><stop offset="1" stop-color="blue"/></linearGradient><linearGradient id="Безымянный_градиент_12-3" x1="136.25" y1="20.42" x2="175.27" y2="20.42" xlink:href="#Безымянный_градиент_12"/><linearGradient id="Безымянный_градиент_12-4" x1="106.07" y1="90.05" x2="124.42" y2="90.05" xlink:href="#Безымянный_градиент_12"/><linearGradient id="Безымянный_градиент_12-5" x1="92.59" y1="52.62" x2="123.78" y2="52.62" xlink:href="#Безымянный_градиент_12"/><linearGradient id="Безымянный_градиент_12-6" x1="91.8" y1="29.64" x2="124.74" y2="29.64" xlink:href="#Безымянный_градиент_12"/></defs><title>Ресурс 8</title><g id="Слой_2" data-name="Слой 2"><g id="OBJECTS"><path class="cls-1" d="M158.58,252.3a4.88,4.88,0,0,1-3.83,5.7L41,280.31a4.87,4.87,0,0,1-5.69-3.83L.09,97.05a4.86,4.86,0,0,1,3.82-5.69L117.7,69.05a4.86,4.86,0,0,1,5.69,3.83Z"/><path class="cls-2" d="M97.92,121.43A28.49,28.49,0,1,1,64.49,99,28.49,28.49,0,0,1,97.92,121.43Z"/><path class="cls-1" d="M90.55,122.87a21,21,0,1,1-24.62-16.55A21,21,0,0,1,90.55,122.87Z"/><path class="cls-3" d="M85.77,123.81a16.11,16.11,0,1,1-18.9-12.71A16.11,16.11,0,0,1,85.77,123.81Z"/><path class="cls-2" d="M130.12,201.23a44.73,44.73,0,1,1-52.5-35.29A44.72,44.72,0,0,1,130.12,201.23Z"/><path class="cls-1" d="M122.77,202.67a37.24,37.24,0,1,1-43.71-29.38A37.24,37.24,0,0,1,122.77,202.67Z"/><path class="cls-4" d="M113.59,204.47a27.89,27.89,0,1,1-32.73-22A27.87,27.87,0,0,1,113.59,204.47Z"/><path class="cls-1" d="M100.51,207a14.56,14.56,0,1,1-17.09-11.48A14.57,14.57,0,0,1,100.51,207Z"/><path class="cls-5" d="M81.15,199.33c.92.63.14,3.4-1.75,6.21s-4.17,4.59-5.09,4-.15-3.4,1.75-6.21S80.22,198.71,81.15,199.33Z"/><path class="cls-1" d="M78.83,125.17A9,9,0,1,1,68.23,118,9,9,0,0,1,78.83,125.17Z"/><path class="cls-5" d="M66.81,120.39c.58.38.09,2.11-1.08,3.85s-2.59,2.85-3.16,2.47-.1-2.12,1.08-3.86S66.24,120,66.81,120.39Z"/><path class="cls-2" d="M51.67,181.33a3.77,3.77,0,1,1-4.43-3A3.77,3.77,0,0,1,51.67,181.33Z"/><path class="cls-2" d="M107.46,170.39a3.77,3.77,0,1,0,3-4.42A3.77,3.77,0,0,0,107.46,170.39Z"/><path class="cls-2" d="M120.78,238.34a3.77,3.77,0,1,1,4.43,3A3.77,3.77,0,0,1,120.78,238.34Z"/><path class="cls-2" d="M65,249.28a3.78,3.78,0,1,0-3,4.42A3.79,3.79,0,0,0,65,249.28Z"/><path class="cls-6" d="M209.16,77.29a2.42,2.42,0,0,0-2.22-2.66L162,71.09a2.42,2.42,0,0,0-2.6,2.18L154,129.55a20.3,20.3,0,0,0-12.52-.54c-8.21,2-13.9,7.59-12.71,12.45s8.81,7.14,17,5.13,13.9-7.59,12.71-12.44c0-.06-.06-.1-.07-.16l3.86-40.14L202.36,97l-3.54,36.14c-3.24-1.48-7.88-1.83-12.75-.63-8.22,2-13.91,7.59-12.71,12.44s8.81,7.16,17,5.13c7.78-1.9,13.23-7,12.77-11.66Zm-5.43,5.8-.52,5.31-40.1-3.17.51-5.31Z"/><path class="cls-7" d="M175.27,1.27a1.34,1.34,0,0,0-.37-.9A1.35,1.35,0,0,0,174,0L150.48.2a1.28,1.28,0,0,0-1.25,1.26L149,30.94a10.61,10.61,0,0,0-6.54.28c-4.17,1.43-6.88,4.58-6,7.05s4.9,3.3,9.07,1.89,6.88-4.57,6-7l0-.08.24-28.32,21-.18-.29,26.23a10.47,10.47,0,0,0-6.64.25c-4.18,1.43-6.88,4.58-6,7.05s4.9,3.31,9.07,1.89c3.94-1.34,6.53-4.21,6.11-6.6Z"/><path class="cls-8" d="M122.83,81.33c2.85,2.47,1.76,8.39-2.43,13.21s-9.89,6.71-12.74,4.23-1.76-8.39,2.44-13.21S120,78.86,122.83,81.33Z"/><path class="cls-9" d="M123.78,82.62l-4,2.29L92.59,36.43l.37-1c.16-.44,1.77-4.46,7.37-7.55,2.67-1.49,7.1-2.26,11-2.94a11.49,11.49,0,0,0,6-2.93l1.57-1.66,3.38,3.1-1.55,1.7a16.1,16.1,0,0,1-8.65,4.35c-3.36.59-7.55,1.31-9.55,2.41a13.24,13.24,0,0,0-4.81,4.27Z"/><path class="cls-10" d="M120.13,28a18.38,18.38,0,0,1-7.71,3.24c-3.07.53-7.27,1.26-9,2.23-3.48,1.92-4.48,4.19-4.52,4.28l-1.55,3.62L92.93,37l-1.13-2c.19-.52,1.54-5.32,7.68-8.73,2.94-1.63,7.52-2.43,11.56-3.13a9.66,9.66,0,0,0,5.08-2.42L118.9,18l5.84,5.42-2.69,2.94A12.94,12.94,0,0,1,120.13,28Z"/></g></g></svg>