<svg xmlns="http://www.w3.org/2000/svg" xmlns:xlink="http://www.w3.org/1999/xlink" viewBox="0 0 369.85 326.94"><defs><style>.cls-1{fill:#e2e2e2;opacity:0.34;}.cls-2{fill:url(#Безымянный_градиент_7);}.cls-3{fill:#17211d;}.cls-4{fill:#242449;}.cls-5{fill:url(#Безымянный_градиент_7-2);}.cls-6{fill:url(#Безымянный_градиент_7-3);}.cls-7{fill:url(#Безымянный_градиент_12);}.cls-8{fill:#edad9f;}.cls-9{fill:url(#Безымянный_градиент_7-4);}.cls-10{fill:url(#Безымянный_градиент_7-5);}.cls-11{fill:url(#Безымянный_градиент_7-6);}.cls-12{fill:#f7f7f7;}</style><linearGradient id="Безымянный_градиент_7" x1="119.65" y1="281.46" x2="131.52" y2="281.46" gradientUnits="userSpaceOnUse"><stop offset="0.1" stop-color="#487cff"/><stop offset="0.48" stop-color="#2742ff"/><stop offset="0.83" stop-color="#0b12ff"/><stop offset="1" stop-color="blue"/></linearGradient><linearGradient id="Безымянный_градиент_7-2" x1="131.34" y1="278.77" x2="164.52" y2="278.77" xlink:href="#Безымянный_градиент_7"/><linearGradient id="Безымянный_градиент_7-3" x1="162.77" y1="251.9" x2="192.34" y2="251.9" xlink:href="#Безымянный_градиент_7"/><linearGradient id="Безымянный_градиент_12" x1="116.84" y1="247.53" x2="171.11" y2="247.53" gradientUnits="userSpaceOnUse"><stop offset="0.39" stop-color="#f2b143"/><stop offset="0.73" stop-color="#eb933e"/><stop offset="1" stop-color="#e6813b"/></linearGradient><linearGradient id="Безымянный_градиент_7-4" x1="229.24" y1="292.29" x2="369.85" y2="292.29" xlink:href="#Безымянный_градиент_7"/><linearGradient id="Безымянный_градиент_7-5" x1="211.53" y1="298.78" x2="318.38" y2="298.78" xlink:href="#Безымянный_градиент_7"/><linearGradient id="Безымянный_градиент_7-6" x1="11.16" y1="307.83" x2="70.92" y2="307.83" xlink:href="#Безымянный_градиент_7"/></defs><title>Ресурс 10</title><g id="Слой_2" data-name="Слой 2"><g id="OBJECTS"><path class="cls-1" d="M147.93,306.61H104.26s-16.67-.38-14,5.31,18.67,2.11,17.67,5.73,1,9.29,19.66,9.29,25.67-1,24.67-3.33,22-4,27.67-1.67,25.83-1.17,27.33-7.1c1.15-4.54-11.33-8.24-18.5-8.24Z"/><path class="cls-2" d="M123.14,270.64a39.22,39.22,0,0,0-3.47,17.5l7.71,4.13s-1.44-13.16,4.14-19.33Z"/><path class="cls-3" d="M132.34,312.27s-7.91,4.59-12.41,1.5,6.21-4.78,6.21-4.78Z"/><path class="cls-3" d="M164.52,312.27s7.92,4.59,12.42,1.5-6.21-4.78-6.21-4.78Z"/><path class="cls-4" d="M135.47,314.84s-14.5-6.25-22.25-17.5,5-11.75,8.75-10.25,14.5,7.75,14.5,7.75Z"/><path class="cls-4" d="M162.73,316.07s14.5-6.25,22.25-17.5-5-11.75-8.75-10.25-14.5,7.75-14.5,7.75Z"/><path class="cls-4" d="M133.34,292.27s-5.75,11.38-1,20c4.24,7.7,27,5.25,30.25,4s4.75-6.75,3.5-15-3.5-9-3.5-9Z"/><path class="cls-5" d="M133.34,292.27s-4.5-9.75,0-27h29.43s3.93,13.25,0,27Z"/><path class="cls-6" d="M192.34,228.27s-7.39,32.25-27.82,50.5l-1.75-13.5S181.86,243,188.48,225C188.48,225,190.59,225,192.34,228.27Z"/><path class="cls-7" d="M154.09,215.52s-12-3.5-19.25,5.25-2,20.25-3.5,23.75-14.75,5.75-14.5,17.25S128.59,274,135.47,273s5.87,8.75,22.87,7,11.61-20,4.43-24.25c-3.43-2.75,4.9-3.73,6.86-8.24s2.5-11.13-1.75-18.63S164,217.15,154.09,215.52Z"/><path class="cls-8" d="M188.48,225s3.11-11.62,3.86-14.62,2.38-2,2.75-1.38.5,2.88,0,5.25,1.63,2,2.13,4.38-4.88,9.62-4.88,9.62S191.24,225,188.48,225Z"/><path class="cls-9" d="M237.38,307.55c.31,0,.62,0,.92,0a7,7,0,0,1-.12-1.3,7.14,7.14,0,0,1,12.16-5.09,7.71,7.71,0,0,1,12.42-.22,4.64,4.64,0,0,1,3.3-1.37h.15A7.33,7.33,0,0,1,278,293a6.13,6.13,0,0,1,6-4.8,6.06,6.06,0,0,1,2.85.73c0-.42-.07-.83-.07-1.26a11.5,11.5,0,0,1,16.57-10.33,13.68,13.68,0,0,1,27.27,1.24c.29,0,.58,0,.88,0a11,11,0,0,1,10.29,7.17,7.93,7.93,0,0,1,7.51,7.91,8,8,0,0,1-.33,2.26,8.9,8.9,0,0,1,2.84-.47,9,9,0,0,1,9,9,8.81,8.81,0,0,1-.61,3.21,12.16,12.16,0,0,1,1.49-.1c4.49,0,8.14,2.63,8.14,5.88,0,2.88-2.86,5.27-6.64,5.78v.1H237.38c-4.49,0-8.14-2.63-8.14-5.88S232.89,307.55,237.38,307.55Z"/><path class="cls-10" d="M312.2,310.37c-.24,0-.47,0-.7,0a5.36,5.36,0,0,0,.1-1,5.42,5.42,0,0,0-9.24-3.86,5.88,5.88,0,0,0-9.45-.17,3.5,3.5,0,0,0-2.5-1h-.12a4.21,4.21,0,0,0,0-.62,5.58,5.58,0,0,0-9-4.39,4.64,4.64,0,0,0-6.72-3.1c0-.31.05-.63.05-.95a8.73,8.73,0,0,0-12.59-7.85,10.4,10.4,0,0,0-20.73.94l-.66,0a8.34,8.34,0,0,0-7.82,5.45,6,6,0,0,0-5.46,7.72,7,7,0,0,0-2.16-.35,6.82,6.82,0,0,0-6.38,9.28,8.2,8.2,0,0,0-1.12-.08c-3.42,0-6.19,2-6.19,4.47,0,2.19,2.18,4,5,4.39v.08H312.2c3.42,0,6.18-2,6.18-4.47S315.62,310.37,312.2,310.37Z"/><path class="cls-11" d="M67.46,314.31l-.39,0a3.31,3.31,0,0,0,.05-.55A3,3,0,0,0,62,311.61a3.29,3.29,0,0,0-5.29-.09,2,2,0,0,0-1.4-.58h-.06c0-.11,0-.23,0-.34a3.12,3.12,0,0,0-5-2.46,2.62,2.62,0,0,0-2.55-2,2.59,2.59,0,0,0-1.21.31,4.71,4.71,0,0,0,0-.53,4.88,4.88,0,0,0-7.05-4.39,5.81,5.81,0,0,0-11.59.52h-.37a4.65,4.65,0,0,0-4.37,3,3.37,3.37,0,0,0-3.19,3.37,3.31,3.31,0,0,0,.14.95,4,4,0,0,0-1.21-.19A3.83,3.83,0,0,0,15,313a3.92,3.92,0,0,0,.26,1.37,4.46,4.46,0,0,0-.63-.05c-1.91,0-3.46,1.12-3.46,2.5,0,1.22,1.22,2.24,2.82,2.46v0H67.46c1.91,0,3.46-1.12,3.46-2.5S69.37,314.31,67.46,314.31Z"/><path class="cls-12" d="M300.86,13.3C255.74,8.38,144.34,0,42.55,22.37A16.92,16.92,0,0,0,30.36,44.84L77.25,170.36a17,17,0,0,0,15.87,11h60.95s6,7.74-3.79,19.11a2.94,2.94,0,0,0,2.41,4.86c9.06-.63,25.28-4.73,39.57-24H255a16.94,16.94,0,0,0,16.09-11.66L315.12,35.42A16.94,16.94,0,0,0,300.86,13.3Z"/><path class="cls-12" d="M30.22,22c-2.8-1.91-8.65-5.13-18.77-7.53C.18,10.82,3.18,2.54,7.69.51c5.73-2.57,19.51,4.6,24,20.39A.94.94,0,0,1,30.22,22Z"/><path class="cls-12" d="M20.3,27.77c-2.16.13-6.39.8-12.44,3.57C.74,34-1,28.58.49,25.78c1.88-3.55,11.66-5.34,20.12.89A.61.61,0,0,1,20.3,27.77Z"/><path class="cls-12" d="M262.48,186.77c2.49,2.3,7.8,6.35,17.45,10.21,10.62,5.22,6.44,13,1.68,14.32-6,1.7-18.62-7.42-20.71-23.69A1,1,0,0,1,262.48,186.77Z"/><path class="cls-12" d="M273.14,182.49c2.16.18,6.44.14,12.83-1.71,7.42-1.53,8.35,4,6.48,6.58-2.39,3.24-12.33,3.57-19.78-3.83A.6.6,0,0,1,273.14,182.49Z"/></g></g></svg>