<svg xmlns="http://www.w3.org/2000/svg" xmlns:xlink="http://www.w3.org/1999/xlink" viewBox="0 0 637.37 318.26"><defs><style>.cls-1{isolation:isolate;}.cls-2{fill:#fcfcfc;}.cls-3{fill:#c5cad8;}.cls-4{opacity:0.31;}.cls-23,.cls-25,.cls-31,.cls-5{fill:#fff;}.cls-6{fill:#f6c5b0;}.cls-7{fill:url(#Безымянный_градиент_7);}.cls-8{fill:#242449;}.cls-9{fill:url(#Безымянный_градиент_12);}.cls-10{fill:url(#Безымянный_градиент_12-2);}.cls-11{fill:url(#Безымянный_градиент_7-2);}.cls-12{fill:url(#Безымянный_градиент_7-3);}.cls-13{fill:#ececec;}.cls-14{fill:#ca7956;}.cls-15{fill:url(#Безымянный_градиент_12-3);}.cls-16{fill:#0031e5;}.cls-17{fill:url(#Безымянный_градиент_12-4);}.cls-18{fill:url(#Безымянный_градиент_7-4);}.cls-19{fill:#f3f9ff;}.cls-20{fill:#e9eff4;}.cls-21{fill:#dfe5ea;}.cls-22{fill:url(#Безымянный_градиент_12-5);}.cls-23,.cls-35{opacity:0.28;}.cls-24{fill:url(#Безымянный_градиент_7-5);}.cls-25{opacity:0.32;}.cls-26{fill:url(#Безымянный_градиент_12-6);}.cls-27{fill:url(#Безымянный_градиент_7-6);}.cls-28{fill:url(#Безымянный_градиент_7-7);}.cls-29{fill:#a0d2d2;}.cls-29,.cls-31{opacity:0.34;}.cls-30{fill:url(#Безымянный_градиент_12-7);}.cls-32{fill:url(#Безымянный_градиент_7-8);}.cls-33{fill:#ffc74c;}.cls-34{opacity:0.22;}.cls-34,.cls-36{mix-blend-mode:multiply;}.cls-35,.cls-37{fill:#ff8a64;}.cls-36{opacity:0.06;}.cls-38{fill:url(#Безымянный_градиент_7-9);}.cls-39{fill:url(#Безымянный_градиент_11);}.cls-40{fill:url(#Безымянный_градиент_7-10);}.cls-41{fill:url(#Безымянный_градиент_16);}.cls-42{fill:url(#Безымянный_градиент_16-2);}.cls-43{fill:url(#Безымянный_градиент_16-3);}.cls-44{fill:url(#Безымянный_градиент_16-4);}.cls-45{fill:url(#Безымянный_градиент_16-5);}.cls-46{fill:url(#Безымянный_градиент_7-11);}</style><linearGradient id="Безымянный_градиент_7" x1="437.13" y1="98.51" x2="498.84" y2="98.51" gradientUnits="userSpaceOnUse"><stop offset="0.1" stop-color="#487cff"/><stop offset="0.48" stop-color="#2742ff"/><stop offset="0.83" stop-color="#0b12ff"/><stop offset="1" stop-color="blue"/></linearGradient><linearGradient id="Безымянный_градиент_12" x1="485.26" y1="245.7" x2="519.83" y2="245.7" gradientUnits="userSpaceOnUse"><stop offset="0.39" stop-color="#f2b143"/><stop offset="0.73" stop-color="#eb933e"/><stop offset="1" stop-color="#e6813b"/></linearGradient><linearGradient id="Безымянный_градиент_12-2" x1="455.26" y1="245.29" x2="502.54" y2="245.29" xlink:href="#Безымянный_градиент_12"/><linearGradient id="Безымянный_градиент_7-2" x1="457.66" y1="151.88" x2="529.08" y2="151.88" xlink:href="#Безымянный_градиент_7"/><linearGradient id="Безымянный_градиент_7-3" x1="496.27" y1="162.62" x2="521.47" y2="80.77" xlink:href="#Безымянный_градиент_7"/><linearGradient id="Безымянный_градиент_12-3" x1="349.07" y1="221.33" x2="381.63" y2="221.33" xlink:href="#Безымянный_градиент_12"/><linearGradient id="Безымянный_градиент_12-4" x1="355.93" y1="226.33" x2="427.38" y2="226.33" xlink:href="#Безымянный_градиент_12"/><linearGradient id="Безымянный_градиент_7-4" x1="335.06" y1="278.87" x2="437.45" y2="278.87" xlink:href="#Безымянный_градиент_7"/><linearGradient id="Безымянный_градиент_12-5" x1="403.2" y1="206.2" x2="441.36" y2="206.2" xlink:href="#Безымянный_градиент_12"/><linearGradient id="Безымянный_градиент_7-5" x1="0" y1="249.71" x2="40.08" y2="249.71" xlink:href="#Безымянный_градиент_7"/><linearGradient id="Безымянный_градиент_12-6" x1="16.72" y1="224.67" x2="91.08" y2="224.67" xlink:href="#Безымянный_градиент_12"/><linearGradient id="Безымянный_градиент_7-6" x1="19.14" y1="285.82" x2="76.69" y2="285.82" xlink:href="#Безымянный_градиент_7"/><linearGradient id="Безымянный_градиент_7-7" x1="538.88" y1="249.04" x2="567.2" y2="249.04" xlink:href="#Безымянный_градиент_7"/><linearGradient id="Безымянный_градиент_12-7" x1="553.04" y1="258.77" x2="605.72" y2="258.77" xlink:href="#Безымянный_градиент_12"/><linearGradient id="Безымянный_градиент_7-8" x1="562.77" y1="287.92" x2="620.32" y2="287.92" xlink:href="#Безымянный_градиент_7"/><linearGradient id="Безымянный_градиент_7-9" x1="-1523.67" y1="206.65" x2="-1471.98" y2="206.65" gradientTransform="matrix(-1, 0, 0, 1, -1367.3, 0)" xlink:href="#Безымянный_градиент_7"/><linearGradient id="Безымянный_градиент_11" x1="-1515.64" y1="153.24" x2="-1477.88" y2="153.24" gradientTransform="matrix(-1, 0, 0, 1, -1367.3, 0)" gradientUnits="userSpaceOnUse"><stop offset="0.08" stop-color="#f2b143"/><stop offset="0.6" stop-color="#eb933e"/><stop offset="1" stop-color="#e6813b"/></linearGradient><linearGradient id="Безымянный_градиент_7-10" x1="-1537.77" y1="159.26" x2="-1501.61" y2="159.26" gradientTransform="matrix(-1, 0, 0, 1, -1367.3, 0)" xlink:href="#Безымянный_градиент_7"/><linearGradient id="Безымянный_градиент_16" x1="-1525.7" y1="126.97" x2="-1516.27" y2="126.97" gradientTransform="matrix(-1, 0, 0, 1, -1367.3, 0)" gradientUnits="userSpaceOnUse"><stop offset="0.08" stop-color="#f2b143"/><stop offset="0.45" stop-color="#f8b334"/><stop offset="1" stop-color="#ffb522"/></linearGradient><linearGradient id="Безымянный_градиент_16-2" x1="-1536.02" y1="130.6" x2="-1522.06" y2="130.6" xlink:href="#Безымянный_градиент_16"/><linearGradient id="Безымянный_градиент_16-3" x1="-1543.99" y1="135.92" x2="-1526.74" y2="135.92" xlink:href="#Безымянный_градиент_16"/><linearGradient id="Безымянный_градиент_16-4" x1="-1519.3" y1="130.6" x2="-1505.35" y2="130.6" xlink:href="#Безымянный_градиент_16"/><linearGradient id="Безымянный_градиент_16-5" x1="-1515.36" y1="135.92" x2="-1498.11" y2="135.92" xlink:href="#Безымянный_градиент_16"/><linearGradient id="Безымянный_градиент_7-11" x1="-1539.53" y1="144.11" x2="-1499.85" y2="144.11" gradientTransform="matrix(-1, 0, 0, 1, -1367.3, 0)" xlink:href="#Безымянный_градиент_7"/></defs><title>Ресурс 13</title><g class="cls-1"><g id="Слой_2" data-name="Слой 2"><g id="OBJECTS"><path class="cls-2" d="M135.21,148.64c-.33,0-.6-.43-.6-1v-8.63c0-.53.27-1,.6-1s.59.42.59,1v8.63C135.8,148.21,135.54,148.64,135.21,148.64Z"/><path class="cls-2" d="M137.9,144.32h-5.38c-.33,0-.6-.42-.6-.95s.27-1,.6-1h5.38c.33,0,.59.43.59,1S138.23,144.32,137.9,144.32Z"/><path class="cls-3" d="M111.14,84a1.66,1.66,0,0,1-1.66-1.66V74.92a1.66,1.66,0,0,1,3.32,0v7.45A1.67,1.67,0,0,1,111.14,84Z"/><path class="cls-3" d="M114.87,80.3h-7.46a1.66,1.66,0,0,1,0-3.31h7.46a1.66,1.66,0,0,1,0,3.31Z"/><circle class="cls-3" cx="116.52" cy="270.23" r="3.71"/><g class="cls-4"><path class="cls-5" d="M135.34,202.12H121.78a7.8,7.8,0,0,1,0-15.6h13.56a7.8,7.8,0,1,1,0,15.6Z"/></g><g class="cls-4"><path class="cls-5" d="M367.73,274.32H354.17a7.8,7.8,0,1,1,0-15.6h13.56a7.8,7.8,0,1,1,0,15.6Z"/></g><path class="cls-6" d="M446,57.63a17.16,17.16,0,0,0-1.57-4.4,7.23,7.23,0,0,0-3.72-3.53,2.55,2.55,0,0,1-1-.47,2.45,2.45,0,0,1-.5-.76A9.07,9.07,0,0,0,437.14,46a4.36,4.36,0,0,0-2.87-1.34c-1.09,0-2.14,1.17-1.73,2.18s1.58,1.11,2.25,1.84c.94,1,.51,2.66,0,4-1.31,3.41.72,3.84,2.63,6.24,1.34,1.68,2.62,4.48,4.87,5.1,1.84.51,4.14-2.08,4-4.17A15.19,15.19,0,0,0,446,57.63Z"/><path class="cls-7" d="M462.41,83.21c-.55-1.07-1.1-2.14-1.63-3.21a114.68,114.68,0,0,0-6.47-10.3c-1.79-2.79-2.84-6.78-5.25-9.08-3-2.9-6.37.08-9.58,1.45s-2.58,2.54-1.13,5.82C449.16,92.25,456.51,115.66,475,135a8.63,8.63,0,0,0,2.42,2c11.43,5.38,21.25-22.71,21.43-29.46a2.57,2.57,0,0,0-.27-1.48,2.5,2.5,0,0,0-1.17-.81c-7.82-3.37-17-3.46-24.06-8.23C468.27,93.54,465.15,88.45,462.41,83.21Z"/><path class="cls-8" d="M516.51,302.87a3.31,3.31,0,0,0-.87-1.6c-.23-.22-.5-.4-.73-.63-1-1.08-.88-2.06-2.52-1.92-1.86.17-3.72.42-5.58.62a.38.38,0,0,0-.21.07.41.41,0,0,0-.13.29l-.33,1.91c-.29,1.72-1.86,2.15-3.16,2.77l-1,.48c-1.48.7-5.92,2.18-3.88,4.54.84,1,2.39,1.05,3.57,1.23a14.18,14.18,0,0,0,3.44-.15,34.9,34.9,0,0,0,10.41-3c1.21-.57,1.22-2.34,1.17-3.61A4.16,4.16,0,0,0,516.51,302.87Z"/><polygon class="cls-9" points="516.85 190.18 519.83 204.81 513.72 245.8 515.84 300.84 504.98 301.22 493.51 248.11 485.26 190.22 516.85 190.18"/><path class="cls-8" d="M466.06,304.78a3.36,3.36,0,0,0-.46-1.76c-.17-.27-.39-.51-.56-.78-.76-1.31-.35-2.22-2-2.47-1.85-.29-3.72-.5-5.57-.74a.41.41,0,0,0-.22,0c-.1,0-.15.15-.2.25l-.77,1.78c-.7,1.59-2.33,1.63-3.74,1.92l-1.12.22c-1.6.32-6.28.69-4.86,3.47.58,1.15,2.06,1.6,3.16,2.06a14.38,14.38,0,0,0,3.38.68A35.17,35.17,0,0,0,464,309c1.31-.26,1.74-2,2-3.22A4.87,4.87,0,0,0,466.06,304.78Z"/><polygon class="cls-10" points="493.51 195.49 502.55 197.06 477.08 248.72 465.89 302.65 455.26 300.41 456.92 246.1 462.84 187.92 493.51 195.49"/><path class="cls-11" d="M528.74,191.6c-.21-2.68-.48-4.93-.54-5.73A208.29,208.29,0,0,0,525.27,164c-1.2-6.59-2.65-13.19-4.19-19.81-2.42-10.39-4.61-19.54-8.94-29.32-1.54-3.47-3.11-7-5.62-9.84a18.6,18.6,0,0,0-9-5.26,49.18,49.18,0,0,0-4.83-1.07c-1.74-.31-2.57.51-4.19,1.3-1.09.53-2.39.71-3.53,1.17-6.73,2.73-10.41,7.75-12.4,14.72q-2.42,8.41-4.81,16.82c-1.32,4.61-2.64,9.22-3.75,13.88a235.51,235.51,0,0,0-5.29,37.21c-.46,6.27-.78,12.55-1.08,18.84-.2,4,1.76,2.23,4.1.9,4-2.3,8-4.72,12.64-5.69a37.89,37.89,0,0,1,6.81-.68,124.23,124.23,0,0,1,41.18,5.1,7.26,7.26,0,0,1,2.25,1c.87.67,2.09,2.22,3.27,1.32.74-.56.84-2.35.94-3.15A49.24,49.24,0,0,0,528.74,191.6Z"/><path class="cls-8" d="M489.82,71.86a16.73,16.73,0,0,0-3.28,7c-.15.68-.34,1.46-1,1.76s-.32,1.36-.66.71-1.47-2.92-1.41-3.66a27.79,27.79,0,0,1,.93-5.12,7.57,7.57,0,0,1,2.13-3.91,8.61,8.61,0,0,1,2.35-1.22,10.83,10.83,0,0,1,3.7-1c2.21,0,3.38,1,1.22,2.16A13.58,13.58,0,0,0,489.82,71.86Z"/><path class="cls-6" d="M497.85,103.28l-9-.73a55.8,55.8,0,0,1,.63-8c-2.48-.9-5.33-2.27-5.72-5.15a9.15,9.15,0,0,1,.2-2.75Q485,81,486,75.39a11.5,11.5,0,0,1,1.12-3.78c1.15-2,3.34-2.9,5.4-3.36a16.71,16.71,0,0,1,15,3.63,8.42,8.42,0,0,1,2.47,3.64c.7,2.26.1,4.79-.49,7.14l-1.65,6.53c-.63,2.51-1.53,5.36-3.7,6.35-1.16.53-2.51.43-3.56,1.19C498.64,98.07,498.84,101.09,497.85,103.28Z"/><path class="cls-8" d="M483,88.78a9.4,9.4,0,0,0,2.39,6.51c1.86,1.87,4.51,2.45,7,3l4.12.84c3.49.7,7.05.86,9.52-2.56A11.76,11.76,0,0,0,508,91a3.9,3.9,0,0,0-.07-1.6,1.28,1.28,0,0,0-1.08-1c-.63,0-1.13.59-1.62,1a3.11,3.11,0,0,1-3.86.53,4.69,4.69,0,0,1-.87-.91l-.33-.41A9.05,9.05,0,0,0,496,86.12c-1.36-.43-3.32-1.32-4.57-.29l-2.19,1.78a3.32,3.32,0,0,1-1,.63,2.27,2.27,0,0,1-1.13.07A2.33,2.33,0,0,1,485,86.5a5.16,5.16,0,0,1,.1-1.35,2.11,2.11,0,0,0-.12-1.32c-.81-1.47-1.47.52-1.64,1.21A14.71,14.71,0,0,0,483,88.78Zm9.41,2.34a3.89,3.89,0,0,0,3.42,1c.67-.08.74,1,.08,1.12A4.86,4.86,0,0,1,491.67,92C491.18,91.51,491.87,90.64,492.36,91.12Z"/><path class="cls-8" d="M486.51,64.53a21.13,21.13,0,0,1,0-2.87,5.58,5.58,0,0,0,2.64.71l.3-1.63c.09-.45,6.14.3,6.63.35,4.63.43,8.87.81,12.54,4a12.78,12.78,0,0,1,4.63,10.55A19.92,19.92,0,0,1,508,87.52c.2-1,1.24-3.42,1.18-4.47a9.11,9.11,0,0,0-.45-3A11.91,11.91,0,0,0,505.44,75a22.6,22.6,0,0,0-8.34-4.62c-2.77-.91-6.17-1.9-9.12-1.63-1.42.13-1.7.43-2.27-1.1a24.32,24.32,0,0,1-.62-3.31Z"/><path class="cls-6" d="M482.05,180.87a5.13,5.13,0,0,1-1.66,1.32,4.22,4.22,0,0,1-2.87-.24,12.39,12.39,0,0,1-4.1-2.07,5.38,5.38,0,0,1-2.09-4,32.19,32.19,0,0,1,4.51-2c.3-.3-.07-.79-.42-1s-.76-.67-.52-1a.79.79,0,0,1,.33-.23,14.43,14.43,0,0,1,4.53-1l6.12-.62a2.15,2.15,0,0,1,1.13.09,2,2,0,0,1,.74.72c.89,1.19,1.83,2.36,2.62,3.61C488.17,177.2,484.51,178.37,482.05,180.87Z"/><path class="cls-12" d="M509.39,112.49a6,6,0,0,1,.71.62c2.5,2.63,2.34,13.5,2.91,17,.43,2.6,6.57,29,4.92,30l-30.84,19L481.37,169l19.93-17.74c-3.44-6.88-6.91-13.75-10.33-20.64-2.84-5.73-5-7.6-1-13C493.31,113.1,504.5,108.9,509.39,112.49Z"/><path class="cls-13" d="M146.28,25.38l11.31,3.42a20.66,20.66,0,0,1-3.59,8,15.61,15.61,0,0,1-6.08,4.82,22.78,22.78,0,0,1-9.24,1.62,26.86,26.86,0,0,1-11.13-2,17.64,17.64,0,0,1-7.45-7Q117,29.27,117,21.5q0-10.36,5.51-15.93T138.08,0q7.89,0,12.4,3.19t6.71,9.8L145.8,15.53a9.59,9.59,0,0,0-1.26-2.79,7.33,7.33,0,0,0-2.65-2.28,8.13,8.13,0,0,0-10.22,2.73q-1.77,2.61-1.77,8.22,0,6.94,2.11,9.52a8.32,8.32,0,0,0,11.52.49A12.77,12.77,0,0,0,146.28,25.38Z"/><path class="cls-13" d="M195,42.48H184.15v-4.9a16,16,0,0,1-4.89,4.3,13,13,0,0,1-6,1.28,9.84,9.84,0,0,1-7.51-2.86c-1.82-1.91-2.72-4.85-2.72-8.82V12.22h11.65V28.86a6.15,6.15,0,0,0,1.05,4,3.78,3.78,0,0,0,3,1.19,4.23,4.23,0,0,0,3.4-1.59c.88-1.07,1.33-3,1.33-5.73V12.22H195Z"/><path class="cls-13" d="M202.07.71h11.7V15.19a11.49,11.49,0,0,1,3.95-2.74,12.64,12.64,0,0,1,4.89-.91,11.82,11.82,0,0,1,9.14,4q3.62,4,3.62,11.41a21.66,21.66,0,0,1-1.65,8.74,12.35,12.35,0,0,1-4.58,5.64,12.36,12.36,0,0,1-12.06.55A14.61,14.61,0,0,1,212.92,38v4.47H202.07Zm11.62,26.56q0,3.9,1.47,5.65a4.61,4.61,0,0,0,3.71,1.75A4.33,4.33,0,0,0,222.36,33q1.41-1.73,1.41-5.8,0-3.58-1.38-5.27A4.18,4.18,0,0,0,219,20.2,4.85,4.85,0,0,0,215.18,22,8.08,8.08,0,0,0,213.69,27.27Z"/><path class="cls-13" d="M251.49,22l-11.08-1.17a12.48,12.48,0,0,1,1.81-4.57,10,10,0,0,1,3.41-2.89A14.33,14.33,0,0,1,250,12a35.73,35.73,0,0,1,6-.48,48,48,0,0,1,8.38.58,10.74,10.74,0,0,1,5.27,2.44A8.47,8.47,0,0,1,272,18.19a13.11,13.11,0,0,1,.85,4.49V36a16.24,16.24,0,0,0,.27,3.35,15.51,15.51,0,0,0,1.18,3.09H263.46a10.46,10.46,0,0,1-.85-1.78,12,12,0,0,1-.4-1.92,15.11,15.11,0,0,1-4.53,3.13,19,19,0,0,1-7.15,1.25q-5.42,0-8.22-2.5a8,8,0,0,1-2.81-6.19,8.1,8.1,0,0,1,2-5.67q2-2.22,7.47-3.3c4.35-.87,7.17-1.49,8.46-1.84a38.81,38.81,0,0,0,4.1-1.38,4.06,4.06,0,0,0-.88-3,4.45,4.45,0,0,0-3.11-.86,8.09,8.09,0,0,0-4.27.91A5.05,5.05,0,0,0,251.49,22Zm10.06,6.1c-1.59.57-3.26,1.07-5,1.51-2.36.63-3.85,1.24-4.48,1.85a2.94,2.94,0,0,0-1,2.14,2.85,2.85,0,0,0,1,2.23,4,4,0,0,0,2.81.87,7.17,7.17,0,0,0,3.6-.94,5.62,5.62,0,0,0,2.36-2.29,7.6,7.6,0,0,0,.7-3.52Z"/><path class="cls-13" d="M280.67.71h12.9V15.33h14.11V.71h13V42.48h-13V25.58H293.57v16.9h-12.9Z"/><path class="cls-13" d="M339,22l-11.09-1.17a12.48,12.48,0,0,1,1.81-4.57,10,10,0,0,1,3.41-2.89A14.33,14.33,0,0,1,337.53,12a35.81,35.81,0,0,1,6-.48,48,48,0,0,1,8.38.58,10.74,10.74,0,0,1,5.27,2.44,8.47,8.47,0,0,1,2.34,3.63,13.11,13.11,0,0,1,.85,4.49V36a16.24,16.24,0,0,0,.27,3.35,15.51,15.51,0,0,0,1.18,3.09H351a10.46,10.46,0,0,1-.85-1.78,12,12,0,0,1-.4-1.92,15.11,15.11,0,0,1-4.53,3.13,19,19,0,0,1-7.15,1.25q-5.42,0-8.22-2.5A8,8,0,0,1,327,34.47a8.15,8.15,0,0,1,2-5.67q2-2.22,7.47-3.3c4.35-.87,7.17-1.49,8.46-1.84a38.81,38.81,0,0,0,4.1-1.38,4.06,4.06,0,0,0-.88-3,4.43,4.43,0,0,0-3.11-.86,8.09,8.09,0,0,0-4.27.91A5,5,0,0,0,339,22Zm10.05,6.1c-1.59.57-3.26,1.07-5,1.51-2.36.63-3.85,1.24-4.48,1.85a2.94,2.94,0,0,0-1,2.14,2.85,2.85,0,0,0,1,2.23,4,4,0,0,0,2.81.87,7.17,7.17,0,0,0,3.6-.94,5.62,5.62,0,0,0,2.36-2.29,7.6,7.6,0,0,0,.7-3.52Z"/><path class="cls-13" d="M399.24,42.48H388.42v-4.9a16,16,0,0,1-4.89,4.3,13,13,0,0,1-6,1.28A9.86,9.86,0,0,1,370,40.3q-2.72-2.86-2.72-8.82V12.22H378.9V28.86a6.09,6.09,0,0,0,1.06,4,3.76,3.76,0,0,0,3,1.19,4.23,4.23,0,0,0,3.4-1.59q1.33-1.6,1.33-5.73V12.22h11.59Z"/><path class="cls-13" d="M404.23,34.07,415.74,33a5.68,5.68,0,0,0,2,2.94,6,6,0,0,0,3.42.88,5.75,5.75,0,0,0,3.62-1,2.24,2.24,0,0,0,1-1.85A2.12,2.12,0,0,0,424.46,32a24.41,24.41,0,0,0-5-1.2,52.93,52.93,0,0,1-8.39-1.94,8.81,8.81,0,0,1-4-3A7.87,7.87,0,0,1,405.51,21a8,8,0,0,1,1.74-5.15A10.27,10.27,0,0,1,412,12.61a25.24,25.24,0,0,1,8.18-1.07,28.36,28.36,0,0,1,8,.82,10.44,10.44,0,0,1,4.3,2.57,13.38,13.38,0,0,1,2.87,4.7l-11,1.08A3.71,3.71,0,0,0,423,18.58a5.85,5.85,0,0,0-3.31-.92,4.71,4.71,0,0,0-2.86.7,2.09,2.09,0,0,0-.9,1.69A1.81,1.81,0,0,0,417,21.73a18.56,18.56,0,0,0,5,1,33.62,33.62,0,0,1,8.6,1.82,9.54,9.54,0,0,1,4.32,3.33,8.13,8.13,0,0,1,1.49,4.75,9.33,9.33,0,0,1-1.58,5.1,10.68,10.68,0,0,1-5,3.94,24.11,24.11,0,0,1-9.28,1.46q-8.28,0-11.81-2.36A10.64,10.64,0,0,1,404.23,34.07Z"/><path class="cls-13" d="M169.47,297.74l13-63H152.81v-31H188l11.11-51.85H152.81v-31h52.31l13.42-63H250l-13,63h50.46L300,58H332l-13,63h32.4v31H312.51l-9.72,51.85H351.4v31H296.31l-13,63H251.41l13-63H213.91l-12.5,63Zm50.92-94h50L281,151.92H230.58Z"/><path class="cls-14" d="M436.29,181.48a4,4,0,0,1,.62-2,1.27,1.27,0,0,1,1.81-.29c1.19,1.19.68,1.31,2.31,1,2.39-.43,4.34-3.18,6.28-1s.36,3-1.6,3.86c-1.53.72-3.25,1.35-4.41,2.64-.77.84-3,4.5-3,5.49a.85.85,0,0,1-1.45.27C432.78,188.88,435.74,185.27,436.29,181.48Z"/><path class="cls-15" d="M358.17,225.29c-3.61,6.28-7.93,12.47-8.94,19.64-.38,2.65-.17,5.65,1.69,7.58s4.76,2.25,7.42,2.46q6-17.25,12.1-34.48l6-17.09c1.51-4.29,5.53-11.29,5.18-15.71-5.34-.06-10.22,12-12.27,15.84C365.53,210.75,362.23,218.22,358.17,225.29Z"/><path class="cls-16" d="M425.65,278.56c-.68-5.91-3.64-10.6-9.11-13.17-4.44-2.08-9.43-2.57-14.29-3.19-10.82-1.39-21.16-2.78-32.09-2.35-8.74.34-14.13,7.8-18.22,15.16-2.58,4.63-1.86,6.81,1.38,10.69A39.41,39.41,0,0,0,364,294.63c8,4.56,20.37,3.44,29.22,2.45a68.24,68.24,0,0,0,24-7.31C422,287.26,426.31,284.31,425.65,278.56Z"/><path class="cls-8" d="M371.44,296.52a103.38,103.38,0,0,0-3.8,10.4,17.71,17.71,0,0,0-1,5.74c.17,4.57,5.26,7.88,8.58,3.66a22.92,22.92,0,0,0,3.45-6.14c1.22-3.25-1.35-1.36-3.53-2.36-2.5-1.15-2.44-2-1.38-4.39,1.37-3,3-5,2.8-8.47a2.69,2.69,0,0,0-1.21-2.45,1.93,1.93,0,0,0-2,.49,5.34,5.34,0,0,0-1.15,1.84C371.92,295.4,371.67,296,371.44,296.52Z"/><path class="cls-17" d="M395.93,184.2c4.12-.55,8.3-1.3,11.75.21,2.92,1.27,2.87,5,3.52,7.75,2.16,9.22,3.78,18.56,5.06,28,.6,4.49,1.65,9.29,1.63,13.82,0,3.64-.93,7.18-.65,10.88.21,2.85,1.42,5.93,4,7.09,1.31.59,2.82.62,4.14,1.2s2.44,2.12,1.78,3.4a3.53,3.53,0,0,1-1.55,1.3l-9.75,5.45a53.1,53.1,0,0,1-7.66,3.73,41.19,41.19,0,0,1-11.88,2,98,98,0,0,1-30.91-3.4c-5.4-1.49-10.62-4.13-9.31-10.24a82.23,82.23,0,0,1,6.77-18.33c3.41-7,4.42-15.38,6.83-22.74,2.24-6.83,4.5-13.67,7-20.42a14.65,14.65,0,0,1,6.55-8.09C387.2,183.73,391.66,184.77,395.93,184.2Z"/><path class="cls-14" d="M406,298.36l2.81.15a4,4,0,0,0,2.91-.61,2.6,2.6,0,0,0,.07-3.4,6.13,6.13,0,0,0-3.14-1.9,33.26,33.26,0,0,0-8.89-1.32,2.22,2.22,0,0,0-.89.09,1.85,1.85,0,0,0-.92,1.21C396.28,297.75,402.4,298.16,406,298.36Z"/><path class="cls-14" d="M370,307.16a2.26,2.26,0,0,0,.08,1.24,1.66,1.66,0,0,0,.63.66c1.93,1.23,4.53-.1,6-1.85s2.48-4,4.36-5.26c4.32-3,.37-8.43-4.14-7.18C371.65,296.23,370.54,302.56,370,307.16Z"/><path class="cls-18" d="M431.65,254.85c-5.87-3.25-11.63.74-15.82,4.51-8.29,7.45-17.3,14.07-26.15,20.87-2.92-1.65-6.12-3.44-7.59-4.21-8.95-4.69-18.09-9.09-26.53-14.58-4.12-2.69-9.75-5.19-15.27-.42-4.52,3.91-6.16,10.94-4.72,15.21s5.12,6.41,8.77,8.19c9.56,4.65,20.6,9.41,32.13,11.67,1.74,3.61,4.52,8.25,5.51,8,16.66-4.41,32.86-15.17,46.21-25,3.73-2.74,7.47-5.85,8.83-10.46S436.46,257.51,431.65,254.85Z"/><path class="cls-8" d="M399.76,300.62A103.55,103.55,0,0,0,410.07,305a17.69,17.69,0,0,0,5.75,1.32c4.62.06,8.22-4.91,4.11-8.48a22.74,22.74,0,0,0-6-3.79c-3.22-1.39-1.44,1.3-2.55,3.45-1.29,2.47-2.19,2.36-4.51,1.17-3-1.53-4.89-3.27-8.41-3.24a2.69,2.69,0,0,0-2.54,1.1,2,2,0,0,0,.4,2.05,5.4,5.4,0,0,0,1.8,1.25Z"/><path class="cls-14" d="M389.7,189.62a2.59,2.59,0,0,0,.51.48,7.2,7.2,0,0,0,2.84,1,8.33,8.33,0,0,0,3.9.15c4.11-1.2,2.25-8.22,1.8-11.14,2.67-1,5.74-2.48,6.15-5.59a10.37,10.37,0,0,0-.22-3l-2.13-12.24a12.36,12.36,0,0,0-1.22-4.09c-1.24-2.14-3.6-3.13-5.82-3.62a18,18,0,0,0-16.12,4,9.07,9.07,0,0,0-2.65,3.94c-.75,2.45-.1,5.19.55,7.74.59,2.35,1.19,4.71,1.79,7.06.69,2.71,1.66,5.8,4,6.87,1.25.57,2.71.45,3.84,1.27C389.31,184.17,388.14,187.75,389.7,189.62Z"/><path class="cls-8" d="M397,155.79a3.18,3.18,0,0,1,.46.63c.69,1.17.69,2.65,1.37,3.83,1.08,1.87,3.66,2.6,4.43,4.62.64,1.65-.2,3.5.05,5.25.27,1.91,1.84,3.45,2,5.35a12.69,12.69,0,0,1-1.11,5.63c.22-.46,3-.87,3.57-1.44a2.87,2.87,0,0,0,1.08-2.5c.09-1.18-.37-2.22-.11-3.47.33-1.52,1.37-2.8,1.51-4.38.18-2.16-1.34-4.09-1.68-6.23-.52-3.24,1.65-6.82,0-9.67-.95-1.67-2.92-2.46-4.22-3.88a25,25,0,0,1-2.34-3.69,4.85,4.85,0,0,0-3.39-2.52,21.93,21.93,0,0,0-2.42.2c-1.41,0-2.72-.69-4.11-.87-2-.25-4.9,2.3-5.67,4.09s.05,3,1.44,4.17C390.2,152.85,395,153.47,397,155.79Z"/><path class="cls-8" d="M368.55,151.89a33.88,33.88,0,0,0-3,3.08c-1.62,2.26-1.39,5.32-.91,8.06.42,2.44-.21,4.81.57,7.29a6.29,6.29,0,0,0,3.17,4c2,.9,4.72.56,5.88,2.39,1.27,2-.41,5.15,1.32,6.75,1,.88,2.45.74,3.66,1.22s2.24,1.79,3.22,2.86,2.31,2.08,3.74,1.82c-.38-2.17-.66-3.9-2-5.69-.77-1-2.78-2.85-1.82-4.34.56-1.19,2.3-1.9,2.09-3.2a3,3,0,0,0-1.06-1.47,7.56,7.56,0,0,1-1.91-6.64,9.88,9.88,0,0,1,3.79-5.9c2.23-1.69,1.71-2.22,2-4.73.22-2.31,1.35-3.07,3.15-4.26,1.62-1.07,2.1-1.63,2.41-3.41.24-1.3.53-2.86-.43-4.07a8.21,8.21,0,0,0-3-2.06c-2.3-1.12-4.87-2.27-7.34-1.59-1.37.39-2.55,1.3-3.92,1.66-.92.24-1.89.22-2.82.38a7.61,7.61,0,0,0-4.27,2.29c-1.1,1.21-.86,2.2-1.31,3.7A5,5,0,0,1,368.55,151.89Z"/><path class="cls-8" d="M375.23,141.87c-.06-1.56-.61-3.49-2.15-3.71-.85-.12-1.67.36-2.52.36-1.82,0-2.84-2-4.07-3.34a1.33,1.33,0,0,0-.66-.46,2.17,2.17,0,0,0-1.12.26c-1.69.56-3.36-.89-5.12-1.18a4.2,4.2,0,0,0-4.67,3.62c-.07.91.15,1.81.09,2.72-.25,3.67-5.05,6.18-4.45,9.81.41,2.45,3.26,4.31,2.79,6.75-.3,1.56-2,2.92-1.44,4.42a2.2,2.2,0,0,0,2.54,1.21,4.4,4.4,0,0,0,2.43-1.76c1-1.29,1.62-2.82,2.54-4.16a5.55,5.55,0,0,1,3.88-2.66c1.56-.12,3.19.79,4.66.23,1.17-.45,1.86-1.72,3-2.26s2.31-.31,3.48-.47,2.46-1.05,2.25-2.21a3.45,3.45,0,0,1-.15-.84c.1-.79,1.38-1,1.47-1.8-.79-.8-1.57-.3-2.25-1.42A6.86,6.86,0,0,1,375.23,141.87Z"/><polygon class="cls-19" points="327.45 268.87 374.18 252.22 432.77 253.03 400.23 268.87 327.45 268.87"/><polygon class="cls-20" points="327.45 264.77 323.96 218.92 396.3 218.01 400.23 267.04 327.45 264.77"/><path class="cls-21" d="M431.76,253l-31.42,14a.6.6,0,0,0-.11.06v-2.27H327.45v4.1h72.07a1.06,1.06,0,0,0,1.52.84l31.42-14C434,255.05,433.33,252.3,431.76,253Z"/><path class="cls-22" d="M422.05,205.21a134.64,134.64,0,0,1,7.8-13.34c.86-1.31,2.67-5.22,4.19-5.69,1.73-.53,5.72,1.47,7.32,2.13A251.7,251.7,0,0,1,431,220.69a11.31,11.31,0,0,1-2.49,4.24c-2.52,2.31-6.68,1.85-9.48-.11s-4.54-5-6.2-8c-2.9-5.23-6.24-10.77-7.59-16.66-.83-3.65-3.8-9.83-.38-12.88s6.36-.33,8.37,2.64c1.66,2.44,3.18,5,4.66,7.53C418.39,198.37,422.5,204.32,422.05,205.21Z"/><ellipse class="cls-23" cx="48.48" cy="297.25" rx="46.67" ry="4.75"/><path class="cls-24" d="M12.44,208.48s-5.17-5.78-10-3.3-1.51,13,1,19.35-4.32,6.56.2,17.53,31.36,49,35.63,52.79C39.34,294.85,47.1,244,12.44,208.48Z"/><path class="cls-25" d="M34.56,269.66l3.33-11.77a.25.25,0,0,0-.16-.29.23.23,0,0,0-.28.16l-3.13,11.07a190.65,190.65,0,0,0-6.69-18.78,59.09,59.09,0,0,0,1.93-17.39.22.22,0,0,0-.25-.21.22.22,0,0,0-.21.24,58,58,0,0,1-1.77,16.67A231.91,231.91,0,0,0,17,228L18.1,214.6a.23.23,0,0,0-.21-.25.24.24,0,0,0-.24.21l-1,12.72A209,209,0,0,0,2.64,205a.23.23,0,0,0-.32,0,.24.24,0,0,0,0,.32,209.22,209.22,0,0,1,14,22.29l-12.72-3.3a.23.23,0,0,0-.28.16.24.24,0,0,0,.17.28l13.13,3.42A229.11,229.11,0,0,1,27,249.68L5.27,245a.25.25,0,0,0-.28.18.23.23,0,0,0,.18.27l22,4.76A187,187,0,0,1,34,269.26l-14.71-1.84a.21.21,0,0,0-.25.2.23.23,0,0,0,.2.26l14.9,1.86a141.39,141.39,0,0,1,5,25.13.23.23,0,0,0,.23.21h0a.23.23,0,0,0,.21-.25A141.65,141.65,0,0,0,34.56,269.66Z"/><path class="cls-26" d="M75.08,294.63s24.12-5.83,13.13-68.52C83.08,195.68,76.15,188.35,65.15,188s-17.37-33.36-33.33-33.36S11.25,181,24.37,207.78,50.81,236,53.9,245.17,45.65,296.79,75.08,294.63Z"/><path class="cls-25" d="M76.43,264.25h0A146.14,146.14,0,0,0,82.84,232l-.61,0a146.91,146.91,0,0,1-6,30.79,149.58,149.58,0,0,0-3.63-20.45h0a.35.35,0,0,1-.05-.08c-1.24-5-2.69-9.82-4.28-14.49h0c.78-15.13-3.23-30-3.28-30.16l-.59.16a110.27,110.27,0,0,1,3.32,28.46A219.83,219.83,0,0,0,56.1,199a254,254,0,0,0-28.34-43.84l-.47.39a253.83,253.83,0,0,1,28.27,43.73c1.37,2.68,2.75,5.52,4.11,8.48-18.73-17-32-16-32.17-16l.06.61c.13,0,13.67-1,32.77,16.85a197.57,197.57,0,0,1,11.29,31.6c-8.55-11.69-27.24-19.45-27.44-19.53l-.23.57c.2.08,20.2,8.38,28.11,20.68a138.18,138.18,0,0,1,4.29,34.36c-4.48-11.4-13.37-19.91-13.47-20l-.42.44c.1.09,9.66,9.25,13.87,21.24a106.71,106.71,0,0,1-1.55,16.05l.61.1A109.23,109.23,0,0,0,77,278.44h0A126.12,126.12,0,0,0,76.43,264.25Z"/><path class="cls-27" d="M19.4,296.16s-2.83-16.54,10.29-20,17.38,7.74,17.38,7.74,25.56-9.32,29.62,12.28Z"/><ellipse class="cls-23" cx="590.71" cy="297.25" rx="46.67" ry="4.75"/><path class="cls-28" d="M557.34,206.87s-3.19-7.15-8.51-6.33-5.32,11.9-4.79,18.74S538,224.13,539,236s15.16,56.65,18.09,61.59C557.08,297.6,579.69,251.69,557.34,206.87Z"/><path class="cls-29" d="M566.69,261.67a.23.23,0,0,0-.32.07l-6.28,9.51a189,189,0,0,0-.75-20,58.06,58.06,0,0,0,7-15.93.22.22,0,0,0-.16-.27.23.23,0,0,0-.28.16,56.78,56.78,0,0,1-6.67,15.29,232.48,232.48,0,0,0-3.42-23.61l5-12.4a.24.24,0,0,0-.13-.3.23.23,0,0,0-.3.13l-4.78,11.75a212.72,212.72,0,0,0-6.64-25.61.23.23,0,0,0-.3-.14.23.23,0,0,0-.14.29,211.07,211.07,0,0,1,6.65,25.67l-11.09-7.21a.23.23,0,0,0-.25.39l11.47,7.45a234.66,234.66,0,0,1,3.44,23.78L539.6,239.3a.23.23,0,0,0-.24.4l19.52,11.56a186.81,186.81,0,0,1,.74,20.29l-13.43-6.45a.23.23,0,0,0-.31.11.22.22,0,0,0,.11.3l13.62,6.54a141,141,0,0,1-2.76,25.51.24.24,0,0,0,.18.27h.05a.22.22,0,0,0,.22-.18,142.22,142.22,0,0,0,2.77-25.53L566.76,262A.23.23,0,0,0,566.69,261.67Z"/><path class="cls-30" d="M556.9,297.6s-7.71-17.32-1.33-28.32,12.24-11.82,20.75-28.87,14.9-24.74,26.33-19.52-13,39.05-9.31,41.8,9.56,35.57-24,35.57C567.23,298.26,556.9,297.6,556.9,297.6Z"/><path class="cls-31" d="M567,297.83h0a.22.22,0,0,1-.18-.27c.11-.59,11.77-59,35.75-76.85a.23.23,0,0,1,.32,0,.25.25,0,0,1-.05.33c-23.84,17.7-35.46,76-35.57,76.57A.23.23,0,0,1,567,297.83Z"/><path class="cls-31" d="M578.22,259.48h0a.24.24,0,0,1-.22-.24l.82-16.21a.24.24,0,0,1,.24-.22.23.23,0,0,1,.21.25l-.81,16.2A.23.23,0,0,1,578.22,259.48Z"/><path class="cls-31" d="M572.74,275.46l-.11,0a.23.23,0,0,1-.09-.31c4.93-8.75,15-16,15.07-16.06a.24.24,0,0,1,.32.05.23.23,0,0,1-.06.32c-.1.08-10,7.25-14.92,15.91A.24.24,0,0,1,572.74,275.46Z"/><path class="cls-31" d="M569.12,288.53a.23.23,0,0,1-.23-.22c0-9.13-6-18.08-6.08-18.17a.24.24,0,0,1,.06-.32.23.23,0,0,1,.32.07c.06.09,6.15,9.15,6.16,18.41a.23.23,0,0,1-.23.23Z"/><path class="cls-32" d="M563,298.26s-2.84-16.54,10.29-20S590.69,286,590.69,286s25.57-9.32,29.63,12.28Z"/><ellipse class="cls-8" cx="111.52" cy="79.17" rx="11.17" ry="11.99" transform="translate(-11.21 139.53) rotate(-61.56)"/><path class="cls-33" d="M119.75,83a18.36,18.36,0,0,0,2.53-6.36,12.85,12.85,0,0,0,.14-4.33c-.19-1.29-1.42-3.23-2.5-1.48-.84,1.37-.86,3.33-.94,4.87a29.6,29.6,0,0,0,.76,8.07c.08.37-.49.53-.58.16a30.75,30.75,0,0,1-.58-10.6c.17-1.33.57-3.44,2.07-3.86,2.29-.64,2.5,3.54,2.48,4.78a17.81,17.81,0,0,1-2.86,9c-.21.33-.73,0-.52-.3Z"/><path class="cls-33" d="M119.88,82.82c1.44-2,3-4.31,5.42-5.21,1.24-.46,5-1.64,5.83.16,2.15,4.49-8.64,5.69-11,5.66a.3.3,0,0,1,0-.6,19.69,19.69,0,0,0,5.61-.72c1.54-.42,4.26-1.23,4.91-2.9.73-1.84-1.55-1.75-2.44-1.68a9.24,9.24,0,0,0-3.6,1c-1.81,1-3.09,2.92-4.25,4.54-.22.31-.74,0-.52-.3Z"/><path class="cls-6" d="M129.21,118.58l-1.09,7.36s7.38-.61,10.32,2.33,14.07,20.64,14.07,20.64l-7.14,5.9,2.29,25.06s-24.83,2.42-34.86-1c2.37-13.6,2.37-19.43,2.37-19.43s-10.11-24-6.16-30.91c1.41-2.49,6.61-2.79,11.68-2.79.82-4.78,1.24-11.92,1.24-11.92"/><path class="cls-6" d="M126.81,230.19s-5.37,43.21-9,61.24c1.88,1.89,10.67,7.22,10.67,7.22l-17.57-4.1,2.3-66.17"/><path class="cls-6" d="M151.24,233.43S150,275.14,147.8,290.9l11.35,6.28-18.06-2.8s-1.92-46.25-4.93-64.19"/><g class="cls-34"><path class="cls-35" d="M113.18,228.38l13.63,1.81s-.48,3.84-1.25,9.71c-4.26-.06-8.51-.23-12.76-.48Z"/></g><g class="cls-36"><path class="cls-37" d="M151.06,238.83c-4.53.49-9.08.8-13.63,1-.4-3.66-.82-6.94-1.27-9.6l15.08,3.24S151.18,235.47,151.06,238.83Z"/></g><path class="cls-38" d="M147.66,179.87s8.71,34.1,8.71,54.25c-41.2,1.2-51.69-1.39-51.69-1.39l8.12-53.86"/><path class="cls-39" d="M115.93,143.88c.1-1,.19-1.92.25-2.89a24.74,24.74,0,0,0-.9-15l3-.2h0s1.39,11.11,8.46,12.27S132.2,126,132.2,126l1.18.16a38.14,38.14,0,0,0,5.06,9.57c4,5.79,9.36,13.37,9.36,13.37l.54,3.26-3,2.45,2.29,25.06s-24.83,2.42-34.86-1c2.37-13.6,2.37-19.43,2.37-19.43s-2.55-6.05-4.59-12.95A3.57,3.57,0,0,0,115.93,143.88Z"/><path class="cls-8" d="M146.17,293.11c-.19-.17,3.18-1.51,3.42-1.57a2,2,0,0,1,.77-.1c1,.11,2.28,1.26,3.18,1.74q2.16,1.14,4.29,2.34c.54.31,2.94,1.5,2.15,1.8-1.9.73-19.54-2.6-19.09-2.13.06.07-.19,0-.25-.1a.42.42,0,0,1-.07-.27l-.09-4A8.51,8.51,0,0,1,146.17,293.11Z"/><path class="cls-8" d="M127.41,299.1c-1.11-.15-2.34-.5-3.33-.67-1.76-.29-3.52-.63-5.28-1a43.8,43.8,0,0,1-8.07-2.13.51.51,0,0,1-.39-.64c.06-.65.1-3.19.85-3.32.37-.07,1.4.92,1.76,1.1s2.61,1.49,2.67,1.45a11.72,11.72,0,0,1,3.95-1.44,2.37,2.37,0,0,1,1,0,2.64,2.64,0,0,1,.73.37,37.15,37.15,0,0,1,3.77,2.72c1.17,1,2.54,1.66,3.68,2.77a.69.69,0,0,1,.25.4c0,.25-.23.46-.49.47A5.84,5.84,0,0,1,127.41,299.1Z"/><path class="cls-40" d="M150.53,139.65h19.94l-3.65,35.14a4.54,4.54,0,0,1-4.52,4.08H142.48a4.54,4.54,0,0,1-4.52-4.08l-3.65-35.14Z"/><g class="cls-34"><path class="cls-6" d="M121.75,116.38a74.71,74.71,0,0,0,7.44,2.36l-.65,4.35a50.32,50.32,0,0,1-7.33-1C121.45,120,121.63,117.93,121.75,116.38Z"/></g><path class="cls-8" d="M141.38,85.22s11.31,6.49,3.91,19.71-11.23-8-11.23-8Z"/><path class="cls-6" d="M113.46,103.68l-.91-8.59a13.64,13.64,0,0,1,14.93-12.15l5.49.54c7.54.75,9.86,10.16,10.51,14.47h0c-.18,10.76-5.61,21-14.55,22.54l-4.93-.76C120.74,119.73,112.66,111.21,113.46,103.68Z"/><path class="cls-8" d="M141.38,85.22s-2.66,12.47-19.84,11.28c-1.69,3.12-3.83,8.34-10.43,7.37,0-4.22-1.69-14,5.06-19C118.86,82.2,130.88,77.93,141.38,85.22Z"/><ellipse class="cls-6" cx="110.58" cy="104.44" rx="3.68" ry="4.93" transform="translate(-41.5 101.54) rotate(-42.27)"/><path class="cls-6" d="M112.69,126.81a26.49,26.49,0,0,1,3.61,8.29c.08,5.86,1.63,32.71,23.56,39.68-.06,1.35,0,2.72,0,4.08-6.81.07-37.6-2-33-44.9C106.9,132,108.13,127.16,112.69,126.81Z"/><path class="cls-6" d="M163.11,166.28a20.34,20.34,0,0,0,5,1.3c1.56.19,2.18-.44,2.42-2a11.8,11.8,0,0,0-.68-5.12c-.6-1.85-1.82-4.35-3.71-5.21a1.2,1.2,0,0,0-.62-.13c-1.29.14,1.5,4.4,1.81,5a8.9,8.9,0,0,0-4.09-2.77c-.52-.17-1.27-.2-1.44.29a1,1,0,0,0,.23.83,16,16,0,0,0,4,4.07,14.24,14.24,0,0,0-3.42-1.6,2,2,0,0,0-1-.13.71.71,0,0,0-.63.61.92.92,0,0,0,.21.5,6.94,6.94,0,0,0,3.57,2.58,11,11,0,0,0-1.61-.12c-.54.06-1.1.46-1,1S162.67,166.1,163.11,166.28Z"/><path class="cls-41" d="M154.71,144a51.13,51.13,0,0,0,1.75-33c-.31-1.07-1.13-2.39-2.17-2a2,2,0,0,0-1,1A36.63,36.63,0,0,0,149,127.25,70.67,70.67,0,0,0,151.24,145"/><path class="cls-42" d="M154.76,143.46a53.76,53.76,0,0,1,11.11-25.82c.54-.68,1.53-1.4,2.18-.82a1.59,1.59,0,0,1,.4.87,17.89,17.89,0,0,1-.21,7.1,33.47,33.47,0,0,1-12.36,19.8"/><path class="cls-43" d="M160.16,141.24a26.42,26.42,0,0,1,7-8.38c1.52-1.16,11-6.91,9.36-1.64-.84,2.7-4.15,5.32-6.36,6.93a28.39,28.39,0,0,1-10.7,4.65"/><path class="cls-44" d="M152,143.46a53.76,53.76,0,0,0-11.11-25.82c-.54-.68-1.53-1.4-2.18-.82a1.59,1.59,0,0,0-.4.87,17.89,17.89,0,0,0,.21,7.1,33.47,33.47,0,0,0,12.36,19.8"/><path class="cls-45" d="M147.35,141.24a26.58,26.58,0,0,0-7-8.38c-1.52-1.16-11-6.91-9.36-1.64.85,2.7,4.15,5.32,6.36,6.93a28.44,28.44,0,0,0,10.71,4.65"/><path class="cls-46" d="M135.24,139h34.3a2.63,2.63,0,0,1,2.68,2.86l-.51,5A2.66,2.66,0,0,1,169,149.2H135.89a2.65,2.65,0,0,1-2.67-2.27l-.65-5A2.64,2.64,0,0,1,135.24,139Z"/><path class="cls-6" d="M138.64,174.36c1.44.54,2.93-.42,4-1.1a47.65,47.65,0,0,0,4.12-3,.94.94,0,0,1,.52-.25.6.6,0,0,1,.51.66,1.65,1.65,0,0,1-.41.81,9.79,9.79,0,0,1-2.23,2,16.71,16.71,0,0,1,5.09,0c.45.07,1,.35.93.8a15.84,15.84,0,0,1-4.95.4c2.11.25,4.38.77,5.73,2.41-1.94.51-4-.08-5.88-.68,1.74.75,3.56,1.58,4.64,3.13.2.28.37.65.19.94s-.85.26-1.27.06a37.12,37.12,0,0,1-4.33-2.38,7.68,7.68,0,0,1,2.25,3,.63.63,0,0,1,.07.38.47.47,0,0,1-.54.3,1.42,1.42,0,0,1-.6-.33c-2.64-2-5.79-2.59-9.12-2.76"/><path class="cls-33" d="M140,230.53h1v.2h-1Zm-1.92.18v-.19h1v.19Zm3.84-.19h1v.19h-1Zm-5.77.18v-.19h1l0,.19Zm7.7-.2h1v.19h-1Zm-9.62.17v-.19h1l0,.2Zm11.54-.2,1,0v.2h-1Zm-13.42.16h-.05v-.19h0l.92,0v.19Zm15.34-.2,1,0v.19l-1,0Zm-17.31.15v-.19l1,0v.2Zm19.24-.2,1,0v.19l-1,0Zm-21.16.13v-.19l1,0v.19Zm23.08-.19,1,0v.19l-1,0Zm-24.08.15-.92,0v-.2l.92,0h0v.2Zm26-.23,1,0v.19l-1,0Zm-28.85.1v-.19l1,0v.19Zm30.77-.19,1-.06,0,.2-1,.05Zm-32.69.09,0-.19,1,0v.19Zm-1.91-.12v-.19l1,.06v.19Zm-1.88-.14h0l0-.19h0l.92.07v.19Zm-1.91-.15h0v-.19h0l.92.07,0,.2Zm-2-.17,0-.19,1,.08v.19Zm-1.92-.19,0-.19,1,.09,0,.2Zm-1.91-.21,0-.19,1,.11,0,.19Zm-1.91-.23,0-.19,1,.12,0,.19Zm-1.92-.25,0-.19,1,.13,0,.19Zm-1.9-.28,0-.19,1,.14,0,.19Z"/></g></g></g></svg>