<svg xmlns="http://www.w3.org/2000/svg" xmlns:xlink="http://www.w3.org/1999/xlink" viewBox="0 0 252.96 228.44"><defs><style>.cls-1{fill:none;}.cls-2{fill:#f4f2f1;}.cls-3{clip-path:url(#clip-path);}.cls-4{fill:url(#Безымянный_градиент_7);}.cls-5{fill:url(#Безымянный_градиент_105);}.cls-6{fill:url(#Безымянный_градиент_7-2);}.cls-7{fill:#ffb222;}.cls-8{fill:url(#Безымянный_градиент_105-2);}.cls-9{fill:url(#Безымянный_градиент_7-3);}.cls-10{fill:url(#Безымянный_градиент_105-3);}.cls-11{fill:#f6c5b0;}.cls-12{fill:#1a245a;}.cls-13{fill:url(#Безымянный_градиент_11);}.cls-14{fill:url(#Безымянный_градиент_109);}.cls-15{fill:url(#Безымянный_градиент_11-2);}.cls-16{fill:#0c173e;}.cls-17{fill:url(#Безымянный_градиент_11-3);}.cls-18{fill:url(#Безымянный_градиент_11-4);}.cls-19{fill:url(#Безымянный_градиент_11-5);}.cls-20{fill:#fff;}</style><clipPath id="clip-path"><path class="cls-1" d="M244,121.54a51.78,51.78,0,0,1-9.16-27.67c-.54-18.52,9.26-35.5,5.15-54.23C236.59,24,225.71,9.69,210.8,3.35A38.83,38.83,0,0,0,187.41.79c-8.76,1.87-16.51,6.59-24.32,10.76a116.48,116.48,0,0,1-58.47,13.87c-17.62-.55-36-7.35-51.09,5.35-12.35,10.43-14.12,25-10.62,39.94,2.17,9.29,5.8,19.39,1.86,28.73-3.43,8.12-10.83,13.8-16.9,19.87A97.76,97.76,0,0,0,3.16,161.62C.63,170.55-1.17,179.68.91,188.8c3.94,17.25,16.27,32.31,34.79,33.81a54.71,54.71,0,0,0,19-2.25,2.42,2.42,0,0,0,1.37-.9c7.58-.83,13.85-3.9,20-8.89,14.75-12,31.77-19.39,51.15-18.06,10.37.71,20.35,4,30.52,5.88a117.94,117.94,0,0,0,27.49,2.12c31-1.44,66.66-21.92,67.76-56.51C253.23,135,248.87,128.68,244,121.54Z"/></clipPath><linearGradient id="Безымянный_градиент_7" x1="27.67" y1="182.6" x2="76.83" y2="182.6" gradientUnits="userSpaceOnUse"><stop offset="0.1" stop-color="#487cff"/><stop offset="0.48" stop-color="#2742ff"/><stop offset="0.83" stop-color="#0b12ff"/><stop offset="1" stop-color="blue"/></linearGradient><linearGradient id="Безымянный_градиент_105" x1="36.64" y1="183.11" x2="75.74" y2="182.31" gradientUnits="userSpaceOnUse"><stop offset="0.33" stop-color="#487cff"/><stop offset="0.61" stop-color="#2742ff"/><stop offset="0.87" stop-color="#0b12ff"/><stop offset="1" stop-color="blue"/></linearGradient><linearGradient id="Безымянный_градиент_7-2" x1="162.2" y1="156.06" x2="219.37" y2="156.06" xlink:href="#Безымянный_градиент_7"/><linearGradient id="Безымянный_градиент_105-2" x1="176.77" y1="155.61" x2="212.3" y2="155.61" xlink:href="#Безымянный_градиент_105"/><linearGradient id="Безымянный_градиент_7-3" x1="107.51" y1="148.4" x2="148.9" y2="148.4" xlink:href="#Безымянный_градиент_7"/><linearGradient id="Безымянный_градиент_105-3" x1="115.24" y1="148.73" x2="137.95" y2="148.73" xlink:href="#Безымянный_градиент_105"/><linearGradient id="Безымянный_градиент_11" x1="58.2" y1="132.13" x2="122.65" y2="132.13" gradientUnits="userSpaceOnUse"><stop offset="0.08" stop-color="#f2b143"/><stop offset="0.6" stop-color="#eb933e"/><stop offset="1" stop-color="#e6813b"/></linearGradient><linearGradient id="Безымянный_градиент_109" x1="72.95" y1="133.65" x2="122.66" y2="133.65" gradientUnits="userSpaceOnUse"><stop offset="0.4" stop-color="#e8b7a6"/><stop offset="1" stop-color="#f6c5b0"/></linearGradient><linearGradient id="Безымянный_градиент_11-2" x1="58.2" y1="125.04" x2="122.65" y2="125.04" xlink:href="#Безымянный_градиент_11"/><linearGradient id="Безымянный_градиент_11-3" x1="136.7" y1="178.17" x2="193.47" y2="178.17" xlink:href="#Безымянный_градиент_11"/><linearGradient id="Безымянный_градиент_11-4" x1="117.91" y1="117.09" x2="200.87" y2="117.09" xlink:href="#Безымянный_градиент_11"/><linearGradient id="Безымянный_градиент_11-5" x1="113.96" y1="33.17" x2="166.63" y2="33.17" xlink:href="#Безымянный_градиент_11"/></defs><title>Ресурс 14</title><g id="Слой_2" data-name="Слой 2"><g id="OBJECTS"><path class="cls-2" d="M244,121.54a51.78,51.78,0,0,1-9.16-27.67c-.54-18.52,9.26-35.5,5.15-54.23C236.59,24,225.71,9.69,210.8,3.35A38.83,38.83,0,0,0,187.41.79c-8.76,1.87-16.51,6.59-24.32,10.76a116.48,116.48,0,0,1-58.47,13.87c-17.62-.55-36-7.35-51.09,5.35-12.35,10.43-14.12,25-10.62,39.94,2.17,9.29,5.8,19.39,1.86,28.73-3.43,8.12-10.83,13.8-16.9,19.87A97.76,97.76,0,0,0,3.16,161.62C.63,170.55-1.17,179.68.91,188.8c3.94,17.25,16.27,32.31,34.79,33.81a54.71,54.71,0,0,0,19-2.25,2.42,2.42,0,0,0,1.37-.9c7.58-.83,13.85-3.9,20-8.89,14.75-12,31.77-19.39,51.15-18.06,10.37.71,20.35,4,30.52,5.88a117.94,117.94,0,0,0,27.49,2.12c31-1.44,66.66-21.92,67.76-56.51C253.23,135,248.87,128.68,244,121.54Z"/><g class="cls-3"><path class="cls-4" d="M36.45,137.08C29,139,28.31,148,29.81,154.15,31,158.93,33.36,164,32,169c-1.08,4.07-4.79,7.16-4.32,11.67.31,3,2.39,5.31,4.48,7.35,3.34,3.27,5.82,5.78,4.5,10.8-1.17,4.48-2.47,8.44-1.71,13.15a20.92,20.92,0,0,0,5,10.75c6.81,7.52,17.27,6.27,26.14,3.92,1.73-.46,1.24-2.67-.14-3.15,6.29-2.86,13.28-7.94,10.09-15.72C73.25,201,64.73,198.42,65.66,190c.67-6,4.32-12.71,1-18.57-2.11-3.72-6.22-5-9.6-7.27-4.55-3-5.69-8.25-6.8-13.26C48.84,144.5,44.91,134.89,36.45,137.08Z"/><path class="cls-5" d="M65.63,201.2c.45-.67-.63-1.3-1.08-.63-2.43,3.56-5.16,6.89-7.89,10.22-1.06-4.74-2.11-9.49-3.18-14.23a108.84,108.84,0,0,0,9.17-10.26c.49-.62-.39-1.51-.88-.88a108.64,108.64,0,0,1-8.62,9.69c-1.07-4.76-2.16-9.52-3.3-14.26a30.79,30.79,0,0,0,6.38-9.21c.32-.72-.75-1.36-1.08-.63a30,30,0,0,1-5.64,8.41c-1.09-4.51-2.21-9-3.4-13.49a38.48,38.48,0,0,0,4.64-7.59c.33-.73-.75-1.36-1.08-.63a36.72,36.72,0,0,1-4,6.7c-1.8-6.7-3.75-13.36-5.91-19.95-.25-.76-1.46-.44-1.21.33,2.24,6.81,4.24,13.7,6.1,20.64a42.61,42.61,0,0,1-7.39-3.94c-.68-.44-1.3.64-.64,1.08A44.47,44.47,0,0,0,45,166.93h0q1.72,6.56,3.31,13.16a31.41,31.41,0,0,1-10.93-5.4c-.64-.48-1.26.6-.63,1.08a32.33,32.33,0,0,0,11.89,5.7q1.7,7.14,3.3,14.29a47.86,47.86,0,0,1-10.1-6.63c-.61-.52-1.49.36-.88.88a49.15,49.15,0,0,0,11,7.17.53.53,0,0,0,.3,0c1.06,4.72,2.1,9.43,3.16,14.14a50.8,50.8,0,0,1-9.77-8c-.56-.58-1.44.3-.89.89a52.82,52.82,0,0,0,11,8.87q.91,4.08,1.84,8.14c.18.78,1.39.45,1.21-.33-.64-2.76-1.26-5.53-1.88-8.3a.64.64,0,0,1,0-.07l0-.22C60,208.7,63,205.08,65.63,201.2Z"/><path class="cls-6" d="M214.38,112.56c-7-3.31-13.24,3.16-16,8.85-2.17,4.42-3.59,9.84-7.8,12.82-3.44,2.43-8.27,2.43-10.8,6.18-1.7,2.54-1.56,5.62-1.27,8.52.47,4.65.77,8.17-3.45,11.18-3.78,2.69-7.31,4.9-9.75,9a21,21,0,0,0-3.06,11.43c.41,10.15,9.24,15.89,17.56,19.77,1.62.75,2.66-1.26,1.91-2.52,6.66,1.84,15.28,2.41,17.81-5.6,2.22-7-2.69-14.42,3.41-20.28,4.37-4.2,11.46-7,12.66-13.62.76-4.21-1.56-7.84-2.72-11.73-1.56-5.23.92-10,3.28-14.54C219.15,126.19,222.28,116.29,214.38,112.56Z"/><path class="cls-7" d="M181.89,183.3a52.41,52.41,0,0,1-2.83-13.85c-.05-.8-1.3-.8-1.25,0a53.68,53.68,0,0,0,2.88,14.18c.26.76,1.47.43,1.2-.33Z"/><path class="cls-7" d="M196.55,154a31.66,31.66,0,0,1-5.47-11.88c-.18-.78-1.38-.45-1.2.34a32.31,32.31,0,0,0,5.59,12.17c.47.64,1.56,0,1.08-.63Z"/><path class="cls-8" d="M211.05,119.93c-2.64,6.64-5.5,13.18-8.5,19.67a43.13,43.13,0,0,1-3.15-7.72.63.63,0,0,0-1.21.34,45.18,45.18,0,0,0,3.64,8.71l.06.08q-3,6.31-6.07,12.58a.65.65,0,0,0-.44.91q-3.27,6.57-6.63,13.09a48.4,48.4,0,0,1-3.53-11.67c-.13-.79-1.34-.46-1.2.33a49.79,49.79,0,0,0,3.89,12.55.76.76,0,0,0,.13.17q-3.47,6.74-6.93,13.46a.52.52,0,0,0-.3.57q-2,3.88-4,7.77c-.36.71.72,1.35,1.08.63q2-3.94,4-7.89c4.6-.89,9.2-1.74,13.71-3a.62.62,0,0,0-.33-1.2c-4.17,1.18-8.41,2-12.66,2.81,2.22-4.32,4.46-8.64,6.68-13a113.41,113.41,0,0,0,13.72-2c.79-.17.45-1.38-.33-1.21A109.33,109.33,0,0,1,190,167.82q3.34-6.52,6.61-13.07a31.73,31.73,0,0,0,10.89-3c.73-.35.09-1.43-.63-1.08a29.56,29.56,0,0,1-9.61,2.79q3.08-6.23,6-12.53a37.85,37.85,0,0,0,8.53-2.91c.73-.35.1-1.43-.63-1.08a36,36,0,0,1-7.24,2.56c2.93-6.33,5.71-12.73,8.28-19.21C212.55,119.52,211.34,119.19,211.05,119.93Z"/><path class="cls-9" d="M128.36,101.34c7.73,0,10.64,8.48,10.75,14.82.09,4.92-.93,10.44,1.62,14.92,2.08,3.66,6.45,5.71,7.14,10.18.47,3-1,5.75-2.46,8.26-2.41,4-4.17,7.06-1.62,11.58,2.27,4,4.53,7.54,5,12.29A20.83,20.83,0,0,1,146.7,185c-4.68,9-15.12,10.45-24.29,10.43-1.79,0-1.88-2.26-.67-3.08-6.8-1.16-14.85-4.31-13.74-12.64,1-7.28,8.57-11.91,5.54-19.81-2.18-5.66-7.41-11.2-5.68-17.71,1.1-4.13,4.74-6.44,7.44-9.46,3.63-4.07,3.41-9.43,3.21-14.55C118.26,111.65,119.62,101.36,128.36,101.34Z"/><path class="cls-10" d="M137.81,138.86c.48-.63-.39-1.52-.89-.88a31.37,31.37,0,0,1-9.19,8q-.15-6.78-.14-13.56l0,0a44.31,44.31,0,0,0,7-6.33c.53-.6-.35-1.49-.88-.89a42.93,42.93,0,0,1-6.15,5.68c0-7.18.22-14.35.65-21.52.05-.8-1.2-.8-1.25,0-.42,6.93-.61,13.86-.65,20.8a35.88,35.88,0,0,1-5.54-5.48c-.51-.62-1.39.27-.88.88a36.7,36.7,0,0,0,6.41,6.17q0,6.93.13,13.87a30,30,0,0,1-7.59-6.66c-.5-.63-1.38.26-.88.88a30.77,30.77,0,0,0,8.5,7.29q.16,7.32.43,14.63a106.44,106.44,0,0,1-10.79-7.19c-.64-.48-1.27.6-.63,1.08A106.85,106.85,0,0,0,127,163.18c.17,4.87.36,9.72.54,14.58-3.49-2.53-7-5.06-10.23-7.89-.61-.53-1.49.36-.89.88,3.55,3.09,7.37,5.83,11.17,8.59v.3c.11,2.83.2,5.67.29,8.5,0,.81,1.28.81,1.25,0-.08-2.77-.18-5.55-.28-8.33a52.71,52.71,0,0,0,8.43-11.38c.39-.71-.69-1.34-1.08-.63A51.83,51.83,0,0,1,128.78,178c-.18-4.82-.37-9.65-.54-14.48a.65.65,0,0,0,.28-.13,49.13,49.13,0,0,0,8.83-9.72c.46-.66-.62-1.29-1.08-.63a47.52,47.52,0,0,1-8.08,9q-.25-7.32-.43-14.65A32.22,32.22,0,0,0,137.81,138.86Z"/></g><g class="cls-3"><polygon class="cls-11" points="68.94 192.59 68.41 221.7 79 222.5 86.49 193.74 68.94 192.59"/><path class="cls-11" d="M80.35,71.68a3.76,3.76,0,0,0-.48-.59,3.3,3.3,0,0,0-4-2.21,3.34,3.34,0,0,0-2.29,4l.66,2.6A3.22,3.22,0,0,0,77,77.84a2.4,2.4,0,0,0,.92.14,3.34,3.34,0,0,0,3.27-3.27A5.3,5.3,0,0,0,80.35,71.68Z"/><path class="cls-11" d="M100.49,71.68a3.83,3.83,0,0,1,.49-.59,3.3,3.3,0,0,1,4-2.21,3.35,3.35,0,0,1,2.28,4l-.66,2.6a3.2,3.2,0,0,1-2.72,2.33A2.43,2.43,0,0,1,103,78a3.35,3.35,0,0,1-3.28-3.27A5.46,5.46,0,0,1,100.49,71.68Z"/><path class="cls-12" d="M69.52,158.83,65.6,195.69l22.81,2.53,5.07-18.43L99,198.45l22.35-4.14-6.92-29S72.52,165.05,69.52,158.83Z"/><path class="cls-11" d="M101.41,57.83a48.21,48.21,0,0,0-11-1.14h0a48.35,48.35,0,0,0-11,1.14c-1.85,3.25-3.06,15.35-1.52,24.08A13.16,13.16,0,0,0,90.42,93.13h0c5.72-.65,8.64-1.91,12.51-11.22C106.34,73.72,103.26,61.08,101.41,57.83Z"/><path class="cls-13" d="M77.33,96.53s11.19-1.9,14.48-1.73,17,2.6,22.87,6.41,8,20.84,8,27.08l-11.3-.33,5.06,40.37s-34.88,4.16-48.74-3.46l2-37.75-11.46-.23S61.57,98.27,77.33,96.53Z"/><path class="cls-11" d="M94.73,95.14c0-1.8-.22-9.22-1.77-12.32-1.78-3.56-8.14,3.4-8.14,3.4s.44,5,.44,9.18l0,0-4.7.9.37,0s6,9.36,19.28-.08Z"/><path class="cls-12" d="M106,56.63a5.53,5.53,0,0,0-3.33-5,23.28,23.28,0,0,1-2.58-1.87C99,48.63,98.62,47,97.58,45.86a4.85,4.85,0,0,0-3.25-1.78c-2.77-.24-5.54,3.26-8.52,2a7.28,7.28,0,0,0-2.22-.43,7.55,7.55,0,0,0-5.21,2A8,8,0,0,0,76,56,1.47,1.47,0,0,1,75.88,57c-1.48,3.15-.94,7.39,0,10.93A2.29,2.29,0,0,0,78,69.68h0a.83.83,0,0,0,.79-1c-.47-2.62,1-4.75,2.38-6.87a14.07,14.07,0,0,0,1.32.55c5,2.62,12,3.37,16.73,1.17a1.46,1.46,0,0,1,1.9.66,6.83,6.83,0,0,1,.9,4.49.83.83,0,0,0,.79,1h0A2.27,2.27,0,0,0,105,68a21.51,21.51,0,0,0,.71-8.46,1.29,1.29,0,0,1,0-.48A12.48,12.48,0,0,0,106,56.63Z"/><path class="cls-14" d="M121.36,121.43S128.81,151.21,108,145c-12.45-3.72-19.6-6.34-33.85-4.59-5.87.72,11.3-8.1,7-7.86,0,0,10.25-2.93,26.37.55,7.09,1.52,4.75-4.64,2.13-8.52"/><path class="cls-11" d="M60.11,121.32s-8.86,33.05,11.68,26.1c6.82-2.31,20.55-15.91,28.41-15.48,0,0-10.71-2.3-26.83,1.18-7.09,1.52-4.75-4.64-2.13-8.52"/><path class="cls-15" d="M121.94,119.69H59.59a65.1,65.1,0,0,0-1.39,7.2l11.41,1.89-.13,1.61h42.17l-.28-1,11.28-1.14A66.08,66.08,0,0,0,121.94,119.69Z"/><path class="cls-16" d="M155.26,60.24c-2.32,1.57-6.57,10.64-6.95,13.41s-.2,5.6-.62,8.37c-.52,3.43-2,6.65-2.56,10.06-.46,2.61-.42,5.28-.72,7.91-1,8.93-6.07,17-7.44,25.85a18,18,0,0,0,.32,8c2.66,8.66,13.68,12.13,17.49,20.34.82,1.77,1.28,3.72,2.36,5.34,1.55,2.34,4.21,3.71,6.89,4.54,2.95.91,6.36,1.22,8.95-.46a13.15,13.15,0,0,0,3-2.94c5.55-6.81,11.1-13.78,14.53-21.86a18,18,0,0,0,1.75-7.31c-.13-6.37-5.71-12.06-4.57-18.33.24-1.3.76-2.52,1.11-3.8,1.21-4.46.25-9.19-.72-13.72L182.8,71.12a19.37,19.37,0,0,0-2.15-6.33c-2.24-3.57-6.64-5.31-10.84-5.43s-8.32,1.12-12.35,2.36"/><path class="cls-16" d="M154.68,59.66c-3.61,3.17-6.34,9.31-7.19,14-.62,3.4-.24,6.77-1,10.19-.53,2.37-1.43,4.64-1.93,7-1.09,5.14-.87,10.38-2.35,15.48-2.56,8.78-8.88,19.06-5.44,28.43,2.53,6.88,9.65,10.21,14.28,15.42,2.8,3.15,3.42,7.38,6,10.53,2.27,2.75,6,4.24,9.47,4.7,8,1.05,12-6.5,16.23-12.15,4.7-6.34,11.41-15.35,10.05-23.8-.79-5-4.52-9.32-4.51-14.46,0-5.3,2.21-9.49,1.39-15-.94-6.46-2.66-12.88-4-19.27-1.16-5.42-1.46-12.47-4.88-17-5.62-7.5-16-5-23.56-2.73-1,.31-.58,1.89.43,1.58,5.86-1.78,12.91-4,18.67-.61,6.09,3.53,6.41,13,7.76,19.24,1.21,5.64,2.59,11.29,3.62,17a26.35,26.35,0,0,1,0,12,19.87,19.87,0,0,0-1,4.94c0,4,2.26,7.42,3.49,11.09,2.24,6.69,0,12.19-3.34,18.13a105,105,0,0,1-9.39,13.27c-3.1,3.87-4.82,6.93-11.39,6.21-3.94-.43-6.51-2.62-8.52-5.73-1.79-2.76-2.63-5.8-4.79-8.36-2.46-2.91-5.61-5.1-8.43-7.63-10.21-9.15-5.86-19.72-1.95-30.95a54.42,54.42,0,0,0,3-13c.52-5.47,2.22-10.4,3.08-15.77,1.2-7.48,1-15.87,7.35-21.42.8-.7-.36-1.85-1.15-1.16Z"/><path class="cls-11" d="M128.78,62.32a1,1,0,0,0-1.42.19l-1,1.25L125.53,56s0-.69-.55-.75-.68.71-.68.71L123.81,62l-.88-6.5s-.19-.78-.9-.68-.56,1-.56,1l.52,6.72-1.66-5.63s-.26-.69-.86-.51-.41.95-.41.95l1,6-1.45-4.58a.71.71,0,0,0-.93-.3c-.41.15-.32.76-.32.76l1,5.89h0a25.22,25.22,0,0,0,1.07,5.51l1,3.29L127,71.56a15.61,15.61,0,0,1,.39-5.14c.06-.2,1.05-1.74,1.65-2.73A1,1,0,0,0,128.78,62.32Z"/><path class="cls-17" d="M148.06,155.5c-8.22,5.85-11.36,40-11.36,40s19.3,5.35,26.28,6.39c25.93,3.88,30.49-5.52,30.49-5.52s-4.05-33.3-13.85-39.52C174.61,153.63,152.89,152.05,148.06,155.5Z"/><path class="cls-11" d="M155.88,73.59a3,3,0,0,0-.48-.59,3.27,3.27,0,0,0-6.29,1.81l.66,2.6a3.23,3.23,0,0,0,2.72,2.34,2.65,2.65,0,0,0,.93.13,3.34,3.34,0,0,0,3.27-3.27A5.29,5.29,0,0,0,155.88,73.59Z"/><path class="cls-11" d="M176,73.59a3.44,3.44,0,0,1,.48-.59,3.27,3.27,0,0,1,6.29,1.81l-.66,2.6a3.21,3.21,0,0,1-2.72,2.34,2.63,2.63,0,0,1-.92.13,3.35,3.35,0,0,1-3.28-3.27A5.29,5.29,0,0,1,176,73.59Z"/><path class="cls-11" d="M176.94,59.73a48.21,48.21,0,0,0-11-1.14h0a48.31,48.31,0,0,0-11,1.14C153.11,63,151,75.28,153.44,83.81,154.91,89,156.9,94.88,165.94,95h0c9-.15,11.71-6.52,12.5-11.22C179.94,75.07,178.79,63,176.94,59.73Z"/><path class="cls-16" d="M151.7,69.77s-.09,7.08.72,6.93.5-5.23,1-5.69.7-2.2.7-2.2Z"/><path class="cls-16" d="M179.92,69.77s.09,7.08-.72,6.93-.5-5.23-1-5.69-.7-2.2-.7-2.2Z"/><path class="cls-12" d="M182.71,64.49c-.42-3.69-2.81-6.68-5.75-8.84-4.15-3.06-14.63-4.92-22.82,1.44-2.34,1.81-3.31,3.57-4.59,6.27-.74,1.58-1.87,4.33-.66,6,2.1,2.84,5.22,1.25,7.74-1-.47,2.44.08,4.71,3.24,5a7.32,7.32,0,0,0,7.18-4.3,5,5,0,0,0,.55,1.49,3.86,3.86,0,0,0,3.87,2,3.33,3.33,0,0,0,2.89-3.15c.09.13.16.26.25.38,1.28,1.72,4,4.41,6.29,3S183,66.63,182.71,64.49Z"/><path class="cls-11" d="M163.88,160.35a1,1,0,0,0,.68,1.26l1.52.49-7,3.54s-.65.25-.51.78.91.39.91.39l5.86-1.7-5.78,3.13a.85.85,0,0,0-.31,1.08c.3.53,1.12.17,1.12.17l6.1-2.86-4.67,3.55s-.56.48-.18,1,1,0,1,0l5.29-3-3.77,3a.7.7,0,0,0,.05,1c.28.34.83,0,.83,0l5.13-3h0a25.05,25.05,0,0,0,4.78-3l2.71-2.12-4.52-5.31a15.57,15.57,0,0,1-5,1.45c-.21,0-2-.36-3.14-.57A1,1,0,0,0,163.88,160.35Z"/><path class="cls-18" d="M188.5,104c-2.94-3.87-12.88-5.82-12.88-5.82s-.71-.16-1.49-.32a.81.81,0,0,0-1.49-.31l-.52-.1s0,4-5.21,4.92c-2.25-1.23-4.13-2.24-5.16-2.71a34.93,34.93,0,0,0-3.31-1.21,4.38,4.38,0,0,1-.18-.57l-.22,0a.76.76,0,0,0-1.36,0c-8.73-2.74-24.74-7.12-26.13-8.13-1.76-1.29-3.27-21.37-3.27-21.37l-8.43,1.35s-3.38,27.09,2.69,31.55c4.22,3.1,12.39,7.39,21.15,11,0,3.9.15,8.42.48,13.06C144.27,140.54,147,157,147,157s12.67,2.48,21.07,2l3.19-.2-1.23.8,5.9,6.24s24.4-10.43,24.87-17C201.51,139.2,195.39,113,188.5,104Zm-2.25,43.46c0,.43-.91,1.32-2.24,2.41.17-3.18.39-7.07.61-11.21A81,81,0,0,1,186.25,147.43Z"/><path class="cls-11" d="M173.6,97.74l-3.34-.69c0-1.81-.22-9.22-1.77-12.33-1.78-3.55-8.14,3.4-8.14,3.4s.44,5,.44,9.18l0,0a8.94,8.94,0,0,1-2.33.5c-1.3,0-4,13,5.39,13.51C174.69,111.9,173.53,98,173.6,97.74Z"/><polygon class="cls-12" points="65.23 192.5 89.85 196.12 88.7 200.44 64.44 198.15 65.23 192.5"/></g><path class="cls-19" d="M159.47,14.83H121.12A7.16,7.16,0,0,0,114,22V40.9a7.16,7.16,0,0,0,7.16,7.16H135.6l6.19,3.45,1.31-3.45h16.37a7.16,7.16,0,0,0,7.16-7.16V22A7.16,7.16,0,0,0,159.47,14.83Z"/><path class="cls-20" d="M133.63,32.63A2.6,2.6,0,1,1,131,30,2.6,2.6,0,0,1,133.63,32.63Z"/><path class="cls-20" d="M142.9,32.63a2.6,2.6,0,1,1-2.6-2.6A2.6,2.6,0,0,1,142.9,32.63Z"/><path class="cls-20" d="M152.16,32.63a2.6,2.6,0,1,1-2.6-2.6A2.59,2.59,0,0,1,152.16,32.63Z"/></g></g></svg>