<svg xmlns="http://www.w3.org/2000/svg" xmlns:xlink="http://www.w3.org/1999/xlink" viewBox="0 0 325.88 195.43"><defs><style>.cls-1{fill:url(#Безымянный_градиент_7);}.cls-2{fill:#297bff;}.cls-3{fill:#111;}.cls-4{fill:url(#Безымянный_градиент_12);}.cls-5{fill:#fff;opacity:0.37;}.cls-6{fill:#ed8b7e;}.cls-7{fill:url(#Безымянный_градиент_14);}.cls-8{fill:#fef2eb;}.cls-9{fill:#f6a091;}.cls-10{fill:#ff4e00;}.cls-11{fill:url(#Безымянный_градиент_12-2);}.cls-12{fill:#5955b7;}.cls-13{fill:url(#Безымянный_градиент_7-2);}.cls-14{fill:url(#Безымянный_градиент_7-3);}.cls-15{fill:url(#Безымянный_градиент_12-3);}.cls-16{fill:url(#Безымянный_градиент_12-4);}.cls-17{fill:url(#Безымянный_градиент_12-5);}.cls-18{fill:url(#Безымянный_градиент_11);}.cls-19{fill:url(#Безымянный_градиент_7-4);}.cls-20{fill:url(#Безымянный_градиент_12-6);}.cls-21{fill:url(#Безымянный_градиент_7-5);}.cls-22{fill:#0332e0;}.cls-23{fill:url(#Безымянный_градиент_7-6);}.cls-24{fill:url(#Безымянный_градиент_7-7);}</style><linearGradient id="Безымянный_градиент_7" x1="252.07" y1="51.12" x2="320.08" y2="51.12" gradientUnits="userSpaceOnUse"><stop offset="0.1" stop-color="#487cff"/><stop offset="0.48" stop-color="#2742ff"/><stop offset="0.83" stop-color="#0b12ff"/><stop offset="1" stop-color="blue"/></linearGradient><linearGradient id="Безымянный_градиент_12" x1="158.68" y1="103.38" x2="307.72" y2="103.38" gradientUnits="userSpaceOnUse"><stop offset="0.39" stop-color="#f2b143"/><stop offset="0.73" stop-color="#eb933e"/><stop offset="1" stop-color="#e6813b"/></linearGradient><linearGradient id="Безымянный_градиент_14" x1="227.24" y1="78.52" x2="227.12" y2="122.61" gradientUnits="userSpaceOnUse"><stop offset="0.03" stop-color="#f2b143"/><stop offset="0.29" stop-color="#eb933e"/><stop offset="0.49" stop-color="#e6813b"/></linearGradient><linearGradient id="Безымянный_градиент_12-2" x1="154.47" y1="124.94" x2="315.76" y2="124.94" xlink:href="#Безымянный_градиент_12"/><linearGradient id="Безымянный_градиент_7-2" x1="217.66" y1="132.6" x2="231.96" y2="132.6" xlink:href="#Безымянный_градиент_7"/><linearGradient id="Безымянный_градиент_7-3" x1="206.92" y1="119.45" x2="245.28" y2="119.45" xlink:href="#Безымянный_градиент_7"/><linearGradient id="Безымянный_градиент_12-3" x1="300.56" y1="168.31" x2="325.88" y2="168.31" xlink:href="#Безымянный_градиент_12"/><linearGradient id="Безымянный_градиент_12-4" x1="160.74" y1="156.65" x2="187.15" y2="156.65" xlink:href="#Безымянный_градиент_12"/><linearGradient id="Безымянный_градиент_12-5" x1="281.45" y1="159.08" x2="307.87" y2="159.08" xlink:href="#Безымянный_градиент_12"/><linearGradient id="Безымянный_градиент_11" x1="108.78" y1="135.95" x2="138.08" y2="135.95" gradientUnits="userSpaceOnUse"><stop offset="0.08" stop-color="#f2b143"/><stop offset="0.6" stop-color="#eb933e"/><stop offset="1" stop-color="#e6813b"/></linearGradient><linearGradient id="Безымянный_градиент_7-4" x1="98.54" y1="37.96" x2="124.24" y2="37.96" xlink:href="#Безымянный_градиент_7"/><linearGradient id="Безымянный_градиент_12-6" x1="91.22" y1="92.04" x2="166.3" y2="165.26" xlink:href="#Безымянный_градиент_12"/><linearGradient id="Безымянный_градиент_7-5" x1="98.81" y1="65.94" x2="138.08" y2="65.94" xlink:href="#Безымянный_градиент_7"/><linearGradient id="Безымянный_градиент_7-6" x1="0" y1="101.64" x2="72.02" y2="101.64" xlink:href="#Безымянный_градиент_7"/><linearGradient id="Безымянный_градиент_7-7" x1="-2.68" y1="68.27" x2="117.95" y2="195.42" xlink:href="#Безымянный_градиент_7"/></defs><title>Ресурс 2</title><g id="Слой_2" data-name="Слой 2"><g id="OBJECTS"><path class="cls-1" d="M309.62,83.71c-.36-4.37-2.82-8.52-2.28-12.87,1-8.51,12.71-13.1,12.74-21.68,0-6.58-6.84-10.88-9.7-16.81-3.26-6.76-1.1-15.3-4.79-21.83-3.53-6.26-11.23-8.69-18.31-10C283-.2,278.12-.6,274.75,2.15c-4.5,3.68-3.78,10.58-5.08,16.25-1.68,7.28-7.06,13-11.41,19.07S250.35,51.29,253,58.29c1.8,4.86,6.21,8.26,8.7,12.81s2.93,10.2,4.4,15.32c1.6,5.56,4.74,10.92,9.69,13.93C285.61,106.36,310.77,97.25,309.62,83.71Z"/><path class="cls-2" d="M287.82,157.47a.87.87,0,0,1-.87-.87l-.29-135.76a.87.87,0,0,1,.87-.87h0a.87.87,0,0,1,.87.87l.29,135.76a.86.86,0,0,1-.87.87Z"/><path class="cls-2" d="M287.31,53.72,269.82,39.25a.87.87,0,0,1-.11-1.23.88.88,0,0,1,1.23-.12l16.24,13.44L304.06,33.9a.86.86,0,0,1,1.23,0,.87.87,0,0,1,0,1.23Z"/><path class="cls-2" d="M287.34,79.91,268.66,64.24a.87.87,0,1,1,1.12-1.33l17.37,14.56,19.2-22a.87.87,0,0,1,1.23-.08.88.88,0,0,1,.09,1.23Z"/><path class="cls-3" d="M234,129.37l-2.19-.06,0-2-58.09-1.9,1.21-33,2.19.08-1.13,30.83,55.87,1.83.81-32.92h56.9l1.54,37.06-57.11-1.88Zm.1-4.17,54.77,1.8-1.35-32.6H234.87Z"/><polygon class="cls-4" points="161.44 88.99 306.19 91.44 307.73 117.77 158.68 114.71 161.44 88.99"/><rect class="cls-5" x="233.25" y="23.18" width="0.53" height="146.01" transform="translate(132.93 327.84) rotate(-88.92)"/><rect class="cls-5" x="232.63" y="30.53" width="0.53" height="146.01" transform="translate(124.98 334.44) rotate(-88.92)"/><rect class="cls-5" x="232.63" y="37.88" width="0.53" height="146.01" transform="translate(117.64 341.65) rotate(-88.92)"/><path class="cls-6" d="M224,69.69s.73,6.57.54,7.15a21.27,21.27,0,0,1-3.57,0s2.21,10.27,5.51,10.82,9-1.28,9.17-2.57.64-7.7.64-7.7a22.45,22.45,0,0,1-2.75-.55c-.37-.09-1.19-10.82-1.19-10.82Z"/><path class="cls-7" d="M218.65,76.52c-1.73-.06-3.45-.44-5.06.18-2.78,1.09-4.46,4-5.27,6.85s-1,5.9-1.83,8.76c-.54,1.73-1.33,3.37-2,5.07a30.06,30.06,0,0,0-1.9,9.47,6.67,6.67,0,0,0,.85,4.11,3.75,3.75,0,0,0,2.38,1.53c1.88.34,3.68-.78,5.32-1.76,3.13-1.87,6.58-3.45,10.22-3.55s7.35,1.35,10.82,2.79c3.67,1.52,7.62,3.31,9.42,6.85.82-.73.76-2,.51-3.1a5.69,5.69,0,0,1-.24-3.25,5,5,0,0,0,9.64-.14c.56-2.17-.37-4.39-.85-6.57-1.05-4.74,0-9.65,0-14.5a27.4,27.4,0,0,0-.4-3.49,8.54,8.54,0,0,0-6.23-6.94c-3.12-.84-6.89-1.83-9.49-1.75a15.05,15.05,0,0,1-2,4c-1.09,1.48-3.31,3.93-5,3.15a12,12,0,0,1-2.23-2.16c-1.18-1.44-2.05-5.25-2.22-5.29A40.8,40.8,0,0,0,218.65,76.52Z"/><path class="cls-3" d="M236.48,63.71A9,9,0,1,1,230,52.8,9,9,0,0,1,236.48,63.71Z"/><path class="cls-3" d="M233.12,53a5.57,5.57,0,1,1-4-6.77A5.57,5.57,0,0,1,233.12,53Z"/><path class="cls-8" d="M211.75,89s9.15,1.24,10.54,1.32,4.65.62,5,1.86A24.34,24.34,0,0,1,233.92,90a57.81,57.81,0,0,0,7.91-1.86l1.1,1.34L229.81,95l-2.25,1.24s-3.18-1.09-3.41-1.09-14-2.94-14-2.94L210.12,91Z"/><path class="cls-9" d="M220,62.53a15,15,0,0,0,.53,6.2c.48,1.78,4.24,9.64,9.34,8.42s6.5-11.49,5.79-14.91-3.76-7.69-7.53-7.58C224.13,54.76,220.56,58.9,220,62.53Z"/><path class="cls-9" d="M219.62,63.86a1,1,0,0,0-1,0,1.45,1.45,0,0,0-.42,1.28,8.84,8.84,0,0,0,1.1,4c.3.53.77,1.1,1.38,1s1-.84,1.05-1.48C221.92,67,221.25,64.69,219.62,63.86Z"/><path class="cls-10" d="M210.44,90.37l13.86,3a.93.93,0,0,1,.66.52A1.93,1.93,0,0,0,227,95a2.33,2.33,0,0,0,2.19-1.39,1,1,0,0,1,.6-.53l13.12-3.64a.94.94,0,0,1,1.17.94l-.77,17.27a.92.92,0,0,1-.69.85c-2.69.7-12.78,3.32-13,3.32s-15.33-2.79-18.83-3.44a.9.9,0,0,1-.74-.86l-.77-16.21A.93.93,0,0,1,210.44,90.37Z"/><path class="cls-3" d="M227.83,64.69a30.66,30.66,0,0,1-9.24,3l.41-3.4a11.77,11.77,0,0,1,1.24-4.65,8.68,8.68,0,0,1,1.84-2.08c1.72-1.49,3.8-3.5,6.07-3.67,1.95-.15,6.1,1.8,5.93,4.32S229.79,63.61,227.83,64.69Z"/><path class="cls-9" d="M208.23,95.59a.76.76,0,0,0-.4,0,.63.63,0,0,0-.25.41,3.1,3.1,0,0,0-.11.85.66.66,0,0,0,.1.42.71.71,0,0,0,.3.18,9.41,9.41,0,0,0,3.31.33,1.47,1.47,0,0,0,.55-.08.9.9,0,0,0,.5-1C211.92,95.45,209.21,95.67,208.23,95.59Z"/><path class="cls-6" d="M204.67,104.5a3.13,3.13,0,0,0-.59,2.22,6,6,0,0,0,.75,2.21,1.68,1.68,0,0,0,.55.66,1.81,1.81,0,0,0,.76.18,4.22,4.22,0,0,0,2.09-.17,3,3,0,0,0,1.36-1.47,5.57,5.57,0,0,0-.25-5.27,1.52,1.52,0,0,0-.61-.62C207.57,101.7,205.31,103.68,204.67,104.5Z"/><path class="cls-9" d="M207.22,97.59a1.24,1.24,0,0,0-.83,1.22,4.27,4.27,0,0,1,.15.71c0,.35-.3.68-.23,1a2.81,2.81,0,0,0,.26.52,2.34,2.34,0,0,1-.07,1.14,2.09,2.09,0,0,0,2.52,2.33c.73-.16,1.34-.7,2.08-.83a5.72,5.72,0,0,1,1.37.06A6.16,6.16,0,0,0,216,103c.27-.15.57-.39.55-.71s-.41-.55-.75-.66a23.38,23.38,0,0,0-5.84-1.17c-.16-.18,0-.48.18-.59a1.11,1.11,0,0,1,.7,0l2.81.39c.54.08,1.25.07,1.45-.45a.84.84,0,0,0-.36-.92,2.38,2.38,0,0,0-1-.34l-3.61-.67c-.48-.09-1-.27-1.45-.34A8.87,8.87,0,0,0,207.22,97.59Z"/><path class="cls-9" d="M242.22,94.67a1.33,1.33,0,0,0-.76.39,1,1,0,0,0,.45,1.36,2.88,2.88,0,0,0,1.6.12,9.28,9.28,0,0,0,1.56-.28c.45-.13.94-.42,1-.89C246.07,93.75,243,94.49,242.22,94.67Z"/><path class="cls-3" d="M247.56,151.93a13.3,13.3,0,0,0,1.84,2.4c1.68,1.75,3.22,1.59,5.65,1.54a8.73,8.73,0,0,0,2.79-.35,3.2,3.2,0,0,0,2-1.83,3.38,3.38,0,0,0-1.16-3.45,17,17,0,0,0-3.27-2c-1.77-1-3.72-2-5-3.58-1.07-1.34-2.45-3.29-4.16-3.44a3.09,3.09,0,0,0-3.13,3.58c.28,1,1.75,2.22,2.24,3.22C246,149.28,246.89,150.66,247.56,151.93Z"/><polygon class="cls-3" points="295.95 160.8 290.04 128.13 172.47 125.86 167.13 156.75 165.06 156.39 170.7 123.71 291.8 126.06 298.02 160.43 295.95 160.8"/><polygon class="cls-3" points="314.79 173.26 307.89 130.2 160.23 128.47 151.63 166.65 149.57 166.19 158.55 126.34 309.7 128.12 316.87 172.93 314.79 173.26"/><path class="cls-9" d="M240.32,97.64a2.5,2.5,0,0,0-1,.22.88.88,0,0,0-.49.88.86.86,0,0,0,.59.61,2.59,2.59,0,0,0,.88.08c1.47-.05,2.94-.17,4.4-.35a1.1,1.1,0,0,0,.73-.3c.65-.79-.77-1.35-1.33-1.4A22.28,22.28,0,0,0,240.32,97.64Z"/><path class="cls-11" d="M154.47,119.67v9.49l158.19,1.06s4.22-8.09,2.81-8.09S154.47,119.67,154.47,119.67Z"/><path class="cls-9" d="M237.77,100.16c-.45,0-1,.14-1.14.58s.35.82.78,1a5.47,5.47,0,0,0,1.61.2c1.6,0,3.2,0,4.8-.07a3.06,3.06,0,0,0,1-.15,1,1,0,0,0,.63-.69c.32-1.63-2.4-1.11-3.19-1.07Z"/><path class="cls-6" d="M243.93,106.79a7.33,7.33,0,0,0-.16,2.59,2.51,2.51,0,0,0,1.52,2,3.08,3.08,0,0,0,2.06-.23,3.84,3.84,0,0,0,2.25-1.94,3.79,3.79,0,0,0-.46-3.11c-.53-1-1.24-1.78-1.7-2.77a6.68,6.68,0,0,0-.89-1.72,1.33,1.33,0,0,0-1.73-.35,1.58,1.58,0,0,0-.46,1.28A22.82,22.82,0,0,1,243.93,106.79Z"/><path class="cls-9" d="M240.54,102.51c-.47,0-1.06.15-1.19.61a.79.79,0,0,0,.44.84,2.08,2.08,0,0,0,1,.18,17.67,17.67,0,0,0,3.33-.26,1,1,0,0,0,.79-.42.68.68,0,0,0-.27-.83C243.7,102,241.58,102.44,240.54,102.51Z"/><path class="cls-12" d="M241.63,116.82s2.09,4.35-.61,5.28-7.11-2.62-7.11-2.62-6.17-8.57-5.86-8.73S231,110,231,110l5.1,1.39S240,110.78,241.63,116.82Z"/><path class="cls-9" d="M221.81,152.08,222,165s.82,2.06,2.33,1.64,3.43-15.5,3.43-15.5Z"/><path class="cls-13" d="M219.06,113.25s-1.64,3.15-1.37,10.42c.3,7.79,3,30.94,3,30.94l7.2,1.59S232,121.93,232,117.36,228.89,103.59,219.06,113.25Z"/><path class="cls-9" d="M246.21,147.67a13.81,13.81,0,0,0,3.28,4.07,5.27,5.27,0,0,0,4.94,1,2,2,0,0,0,1-.67,2,2,0,0,0-.12-2.19,6.8,6.8,0,0,0-1.74-1.55,24.55,24.55,0,0,1-8.86-12.42,6.33,6.33,0,0,0-.72-1.76,1.78,1.78,0,0,0-1.62-.82,1.8,1.8,0,0,0-.84.39c-2.36,1.82-.44,4.07.51,6.08A85.25,85.25,0,0,0,246.21,147.67Z"/><path class="cls-9" d="M245.74,98.31a3.76,3.76,0,0,1,.89,1.44,14.51,14.51,0,0,1,1,4.21,2.51,2.51,0,0,1-.1,1.22,1.76,1.76,0,0,1-2,.93,2.64,2.64,0,0,1-1.71-1.63,5.59,5.59,0,0,1-.31-2.41c0-.81.14-1.63.12-2.45a4.27,4.27,0,0,1,0-1C243.88,97.54,245.08,97.71,245.74,98.31Z"/><path class="cls-14" d="M213.44,105.52s-6.5,4.39-6.5,7-.43,9.89,2.73,10.56a36.38,36.38,0,0,0,8.16.33s-.53-6,1.93-7.38a39.62,39.62,0,0,1,4.74-2.28l15.83,24.16,4.95-3s-4.45-15.36-5.67-18.52-5.1-13.34-7.91-14.22S224.33,98.67,213.44,105.52Z"/><path class="cls-9" d="M243.89,97.63a1.76,1.76,0,0,0,1.26,1,.65.65,0,0,0,.31,0c.22-.09.27-.38.28-.62,0-.86.09-1.73.11-2.6a.42.42,0,0,0,0-.22c-.07-.21-.34-.28-.57-.27-.46,0-1.53.3-1.64.84a2.91,2.91,0,0,0,.1.77A3.36,3.36,0,0,0,243.89,97.63Z"/><path class="cls-3" d="M233.13,61.74a8.23,8.23,0,0,0,2.62,4.17,15.79,15.79,0,0,0,1.5-3.84,5.86,5.86,0,0,0-.48-4,5.93,5.93,0,0,0-1.14-1.41,8.35,8.35,0,0,0-2.36-1.58c-1.67-.74-2,1-1.57,2.22C232.28,58.74,232.62,60.25,233.13,61.74Z"/><path class="cls-3" d="M218.63,60.72a6.15,6.15,0,0,0-.36,2.08,8.79,8.79,0,0,0,.88,3.1c.2.47.49,1,1,1.08a1.49,1.49,0,0,0,.83-.25,15.92,15.92,0,0,0,4.5-3.71,8.18,8.18,0,0,0,2.18-5c0-2.47-1.94-5-4.33-3.36A11.69,11.69,0,0,0,218.63,60.72Z"/><path class="cls-9" d="M236.42,63.58a1,1,0,0,1,1,0,1.47,1.47,0,0,1,.42,1.28,8.88,8.88,0,0,1-1.1,4c-.29.53-.77,1.09-1.37,1s-1-.84-1.05-1.49C234.11,66.73,234.78,64.42,236.42,63.58Z"/><path class="cls-9" d="M220.52,170.58a7.61,7.61,0,0,0-.48,3.32,1.72,1.72,0,0,0,.73,1.22,2.3,2.3,0,0,0,1,.23l1.89.15a4.39,4.39,0,0,0,3.08-.51,3,3,0,0,0,1-2.5,10.26,10.26,0,0,0-.63-2.71,39.41,39.41,0,0,1-1.62-7.43,5.27,5.27,0,0,0-.93-2.95c-2.41-2.74-2.53,1.71-2.6,2.92A38.07,38.07,0,0,1,220.52,170.58Z"/><path class="cls-3" d="M225.76,174.51a2.45,2.45,0,0,0,.9-.65,3.45,3.45,0,0,0,.32-2.81c-.19-1.13-.39-2.26-.58-3.39,1.85,2.33,2.13,5.54,2,8.52a2.83,2.83,0,0,1-.6,1.95,3,3,0,0,1-2,.57,14.33,14.33,0,0,1-3.76-.19,4.93,4.93,0,0,1-3.1-2,4.74,4.74,0,0,1-.59-3.16,10.06,10.06,0,0,1,1.06-3.08,16.14,16.14,0,0,1,1.89-3.15c.37,1.93-1.69,3.84-1.06,5.73S224.07,175.27,225.76,174.51Z"/><path class="cls-15" d="M305.13,169.46a14.8,14.8,0,0,0-.42-3.9,4.52,4.52,0,0,1,.77-3.74,1.62,1.62,0,0,1,1.69-.54,2.24,2.24,0,0,1,1.11,1.42c.56,1.33,1.11,2.67,1.66,4,.83-.49.61-1.77,1.12-2.58.69-1.08,2.49-.82,3.31.17a6.2,6.2,0,0,1,1,3.65,7.45,7.45,0,0,1,3.84-3.35,7.25,7.25,0,0,1,1.87,5.71c.29-1.35,2.29-1.67,3.37-.8a4.89,4.89,0,0,1,1.41,3.75.89.89,0,0,1-1.08,1.08c-6.26.21-14.17,1.82-20.31.67-2.08-.4-4.32-1.32-3.87-3.94C301.13,168.12,305.32,169,305.13,169.46Z"/><path class="cls-16" d="M162.49,154.39a2.86,2.86,0,0,1,3.33.66,2,2,0,0,1,2.53-1.7,4.15,4.15,0,0,1,2.51,2.3,1.69,1.69,0,0,0,.73.88,1.32,1.32,0,0,0,1-.11c1.79-.77,3.57-2.68,5.29-1.75,1,.52,1.41,1.83,2.48,2.1a3.59,3.59,0,0,0,1.79-.23,5,5,0,0,1,3.21.11,2.81,2.81,0,0,1,1.75,2.53,10.5,10.5,0,0,1-5.31.8c-5.58-.14-11.14-.37-16.71-.69C162.62,159.14,158.29,156.47,162.49,154.39Z"/><path class="cls-17" d="M283.21,156.82a2.86,2.86,0,0,1,3.32.66,2,2,0,0,1,2.54-1.7,4.17,4.17,0,0,1,2.51,2.31,1.7,1.7,0,0,0,.73.87,1.31,1.31,0,0,0,1-.1c1.78-.77,3.57-2.69,5.28-1.76,1,.52,1.42,1.84,2.49,2.11a3.83,3.83,0,0,0,1.79-.23,4.9,4.9,0,0,1,3.21.11,2.82,2.82,0,0,1,1.75,2.53,10.63,10.63,0,0,1-5.32.8q-8.35-.21-16.7-.7C283.34,161.58,279,158.91,283.21,156.82Z"/><path class="cls-3" d="M116.12,183.4s-6.72,3-8.23,3.37-7.86.8-8,2.13,1.68,2.37,1.68,2.37l21.75-.87-.83-6Z"/><polygon class="cls-18" points="112.12 96.83 108.78 136.53 111.95 182.4 123.29 187.57 125.46 128.53 138.08 98.96 125.46 85.33 117.29 84.33 112.12 96.83"/><path class="cls-19" d="M106.13,26.56a3.9,3.9,0,0,0-1.42.54,19.12,19.12,0,0,0-4,2.61,6.5,6.5,0,0,0-2.2,4.09A6.77,6.77,0,0,0,100.88,39a32.59,32.59,0,0,0,4.79,3.43c2.07,1.37,4,3,6.08,4.29a15.43,15.43,0,0,0,6.89,2.59,5.33,5.33,0,0,0,2.48-.29,4.83,4.83,0,0,0,2.55-3,14,14,0,0,0,.52-4c.1-2.85.16-5.84-1.12-8.39A14,14,0,0,0,121.31,31,6.88,6.88,0,0,0,120,29.7a7.62,7.62,0,0,0-1.43-.71,26.42,26.42,0,0,0-6.4-1.81,20,20,0,0,0-3.28,0C107.89,27.2,107.14,26.46,106.13,26.56Z"/><path class="cls-9" d="M120.12,37.21l-1-1.28a11.85,11.85,0,0,1-1.92,1.14,4.2,4.2,0,0,1-3.3,0,10.89,10.89,0,0,1-4.55-3,10.11,10.11,0,0,1-1.71-3.54,19.68,19.68,0,0,1-.42-9.09,5.15,5.15,0,0,1,1.5-3.19,3.06,3.06,0,0,1,2.92-.83,19.86,19.86,0,0,1,.26,4.62A16,16,0,0,1,115.93,24c.31-1.74,1.11-3.83,3-3.81a2.56,2.56,0,0,1,2.38,2.3c.19,1.48.43,2-.32,3.15,3-.89,5.79,1.7,7.07,4.6C125.38,32.13,122.79,35.32,120.12,37.21Z"/><path class="cls-3" d="M146.55,186.53S140,190.8,139.28,191s-5.82,1.54-6.45,2.54,1.36,1.91,1.36,1.91l21.45-.45L155,189.9l-1.7-2.74Z"/><path class="cls-3" d="M98.83,26.48l-7.52.91.14,1.06h-1L90,26.9l-5,.49,1.26,8L91,34.92,91,33.16,92,33l.14,1,6.54-1.47s.84,2.53,1.12,2.39S108,33.23,108,33.23l-2.4-10.48a3.22,3.22,0,0,0-3.74-2.44l-1,.19a3.21,3.21,0,0,0-2.52,3.94Z"/><path class="cls-3" d="M107.85,15.41a66.94,66.94,0,0,1-7.22,4.33,9,9,0,0,0,9.47-.38c.1,1,.19,2,.29,3.06l5.45,2a7,7,0,0,1,1.53-2.81,2.46,2.46,0,0,1,2.94-.49,2.43,2.43,0,0,1,.85,2.43,7.18,7.18,0,0,1-1.11,2.46A10.83,10.83,0,0,1,128,30.31c-1.34-2.75.2-6.08-.41-9.08a10.05,10.05,0,0,0-1.46-3.32,16.22,16.22,0,0,0-5-5.31,9.56,9.56,0,0,0-7-1.42C111.73,11.72,109.86,14,107.85,15.41Z"/><polygon class="cls-20" points="113.28 97.33 128.63 147.04 143.47 186.57 154.98 189.9 149.48 153.54 138.08 98.96 127.13 83.49 121.46 83.33 113.28 97.33"/><path class="cls-9" d="M102.59,31.43a17.88,17.88,0,0,0-4.65-2.51,2,2,0,0,0-.68-.14.68.68,0,0,0-.59.31.94.94,0,0,0,.19.95,8.59,8.59,0,0,0,2.56,2.15,27.2,27.2,0,0,0-3.37.29c-.56.07-1.22.24-1.4.78a1,1,0,0,0,.22.93,2.17,2.17,0,0,0,.82.57,5.37,5.37,0,0,0,2.09.45,4.35,4.35,0,0,0,1.79,2.47,12.53,12.53,0,0,0,2.74,1.43,5.8,5.8,0,0,0,1.15.4,34.28,34.28,0,0,1-1.37,7.5,7.5,7.5,0,0,0-.38,2,19.5,19.5,0,0,0,6.05.33,5.44,5.44,0,0,0,.86-1.8c.46-1.67-.3-3.54-.21-5.27.12-2.35.53-4.86-.56-7C106.87,33.48,104.28,32.71,102.59,31.43Z"/><path class="cls-21" d="M101.86,48.21a16.17,16.17,0,0,1,6.75-1c.07,1.18.08,2.35.15,3.53l6.92-3.8a4.82,4.82,0,0,0,1.75-1.34,6.71,6.71,0,0,0,.72-3.07c.57-4.26,4.1-7.42,7.4-10.17a4.18,4.18,0,0,1,1.8-1.05,3.63,3.63,0,0,1,2.35.59c5.1,2.84,7.58,8.95,8,14.77s-.71,11.65-1,17.48a118.88,118.88,0,0,0,.21,12.52q.57,11.13,1.15,22.27a14.76,14.76,0,0,1-16.62-6.79c-.77,2.3-1.6,4.68-3.28,6.43s-4.5,2.65-6.6,1.44c-2.84-1.65-2.7-5.71-2.3-9a165.7,165.7,0,0,0,1.19-25.29c-3.4-.93-7.68.52-10.13-2-1.28-1.32-1.53-3.31-1.53-5.15C98.81,55.32,100.68,51.28,101.86,48.21Z"/><path class="cls-22" d="M128,28.73c-.21.07-9,8.16-9,8.16s.47,5.26.42,4.92c-.33-2.29,11.11-3.73,11.11-3.73s1.05-2.88.77-3.37Z"/><path class="cls-9" d="M98.15,22.5a1,1,0,0,0-1.23-.34,1.53,1.53,0,0,0-.81,1.08,3.48,3.48,0,0,0,0,1.4,8.92,8.92,0,0,0,.93,2.51c.26.48.75,1,1.26.8s.51-.86.46-1.37a.61.61,0,0,0,.76.2,1.3,1.3,0,0,0,.58-.62,5.67,5.67,0,0,0,.35-3.27,1.4,1.4,0,0,1,0-.61c.16-.45.75-.61,1-1,.59-1-1.12-1.95-2-1.88C98.13,19.47,98.06,21.45,98.15,22.5Z"/><path class="cls-9" d="M94.23,25.34a6.55,6.55,0,0,0,0,1.17,2.25,2.25,0,0,0,.31,1.17,1,1,0,0,0,1.05.42c.46-.15.64-.7.7-1.18a3,3,0,0,0-.65-2.41C94.87,23.89,94.34,24.56,94.23,25.34Z"/><path class="cls-23" d="M11.53,96c-2.42-2.56-5-6.08-3.11-9.3a5.25,5.25,0,0,1,5.82-2.18c4.18,1,6.26,4.77,8.13,8.27A230.38,230.38,0,0,1,6.13,72.55,42.13,42.13,0,0,1,.38,61.83c-2.14-6.51,5.16-12.15,10.85-8.33,6,4,10.92,10.45,15.26,16.5-2.41-12.63-4.81-25.8-1.35-38.18.92-3.28,2.4-6.66,5.7-8.09a5.41,5.41,0,0,1,4.44,0c2.54,1.22,2.71,3.61,2.8,5.82q.42,10.67.1,21.33a16.7,16.7,0,0,1,7.56-12.15,7.47,7.47,0,0,1,3.79-1.35c2.67-.06,5,2.15,5.86,4.66s.71,5.26.46,7.92A226.25,226.25,0,0,1,46.4,96.62,37.82,37.82,0,0,1,60.93,74a7.09,7.09,0,0,1,3.86-1.69,5.8,5.8,0,0,1,4.28,2.2c5.81,6.51,1.78,16.59-1.36,24.73A92.92,92.92,0,0,0,65,157.53c1.49,5.23,3.44,27.28-9.32,21.55-5.47-2.46-4.13-15-4.68-19.74C48.09,134.06,28.21,113.71,11.53,96Z"/><path class="cls-24" d="M39.22,183.57a94.74,94.74,0,0,0-24.09-30.41c-2.54-2.11-5.25-4.15-7-6.95s-2.32-6.64-.41-9.34c13.65.65,23.68,12.56,31.9,23.46a401.9,401.9,0,0,0-30.94-56.2C5.33,99,2.2,91.33,7.11,87.69c3.05-2.26,7.47-1.12,10.66,1,6.72,4.38,10.52,11.95,14,19.17l13.93,28.83c-7.49-26.14-15-52.37-19-79.27-1-6.64-1.06-14.84,4.63-18.38,6.42-4,14.89,1.57,18.41,8.27C53,53.5,54.06,60.64,54.9,67.63a550.56,550.56,0,0,1,3.91,65.44,238.84,238.84,0,0,1,10-24c1.37-2.83,3.31-6,6.44-6.28,2.46-.22,4.71,1.54,6,3.62,4.72,7.44.47,17.1-3.79,24.81L63.27,156.94l11.07-7.6c1.83-1.26,4-2.58,6.15-1.83,3.93,1.41,2.47,7.3.29,10.87L60.26,192.07a181.86,181.86,0,0,0-18.38.49C39.72,190,40.7,186.54,39.22,183.57Z"/></g></g></svg>