<svg xmlns="http://www.w3.org/2000/svg" xmlns:xlink="http://www.w3.org/1999/xlink" viewBox="0 0 269.53 204.99"><defs><style>.cls-1{isolation:isolate;}.cls-2{fill:url(#Безымянный_градиент_7);}.cls-3{fill:url(#Безымянный_градиент_12);}.cls-4{fill:#ffba4d;}.cls-5{fill:#fff;}.cls-6{fill:url(#Безымянный_градиент_7-2);}.cls-7{mix-blend-mode:multiply;}.cls-8{fill:#bfeef2;}.cls-9{fill:url(#Безымянный_градиент_12-2);}.cls-10{fill:url(#Безымянный_градиент_7-3);}.cls-11{fill:#00c9d1;}.cls-12{fill:url(#Безымянный_градиент_12-3);}.cls-13{fill:#ffd57e;}.cls-14{fill:url(#Безымянный_градиент_12-4);}.cls-15{fill:url(#Безымянный_градиент_7-4);}.cls-16{fill:url(#Безымянный_градиент_7-5);}.cls-17{fill:url(#Безымянный_градиент_12-5);}.cls-18{fill:url(#Безымянный_градиент_12-6);}.cls-19{fill:url(#Безымянный_градиент_12-7);}.cls-20{fill:url(#Безымянный_градиент_12-8);}.cls-21{fill:url(#Безымянный_градиент_12-9);}.cls-22{fill:url(#Безымянный_градиент_12-10);}.cls-23{fill:url(#Безымянный_градиент_12-11);}.cls-24{fill:url(#Безымянный_градиент_12-12);}.cls-25{fill:url(#Безымянный_градиент_12-13);}.cls-26{fill:url(#Безымянный_градиент_12-14);}.cls-27{fill:url(#Безымянный_градиент_12-15);}.cls-28{fill:url(#Безымянный_градиент_12-16);}.cls-29{fill:url(#Безымянный_градиент_12-17);}.cls-30{fill:url(#Безымянный_градиент_12-18);}.cls-31{fill:url(#Безымянный_градиент_12-19);}.cls-32{fill:url(#Безымянный_градиент_12-20);}.cls-33{fill:url(#Безымянный_градиент_12-21);}.cls-34{fill:url(#Безымянный_градиент_12-22);}.cls-35{fill:#ff4e00;}.cls-36{fill:url(#Безымянный_градиент_12-23);}.cls-37{fill:url(#Безымянный_градиент_7-6);}.cls-38{fill:url(#Безымянный_градиент_7-7);}.cls-39{fill:#0a0a3f;}</style><linearGradient id="Безымянный_градиент_7" x1="118.62" y1="139.22" x2="156.03" y2="139.22" gradientUnits="userSpaceOnUse"><stop offset="0.1" stop-color="#487cff"/><stop offset="0.48" stop-color="#2742ff"/><stop offset="0.83" stop-color="#0b12ff"/><stop offset="1" stop-color="blue"/></linearGradient><linearGradient id="Безымянный_градиент_12" x1="122.99" y1="127.75" x2="154.21" y2="127.75" gradientUnits="userSpaceOnUse"><stop offset="0.39" stop-color="#f2b143"/><stop offset="0.73" stop-color="#eb933e"/><stop offset="1" stop-color="#e6813b"/></linearGradient><linearGradient id="Безымянный_градиент_7-2" x1="69.69" y1="149.33" x2="134.17" y2="149.33" xlink:href="#Безымянный_градиент_7"/><linearGradient id="Безымянный_градиент_12-2" x1="74.77" y1="135.6" x2="112.48" y2="135.6" xlink:href="#Безымянный_градиент_12"/><linearGradient id="Безымянный_градиент_7-3" x1="153.19" y1="143.02" x2="222.79" y2="143.02" xlink:href="#Безымянный_градиент_7"/><linearGradient id="Безымянный_градиент_12-3" x1="212.07" y1="74.96" x2="233.75" y2="74.96" xlink:href="#Безымянный_градиент_12"/><linearGradient id="Безымянный_градиент_12-4" x1="181.93" y1="103.15" x2="222.79" y2="103.15" xlink:href="#Безымянный_градиент_12"/><linearGradient id="Безымянный_градиент_7-4" x1="151.94" y1="164.21" x2="191.67" y2="164.21" xlink:href="#Безымянный_градиент_7"/><linearGradient id="Безымянный_градиент_7-5" x1="135.59" y1="137.91" x2="217.18" y2="137.91" xlink:href="#Безымянный_градиент_7"/><linearGradient id="Безымянный_градиент_12-5" x1="210.47" y1="74.17" x2="228.6" y2="74.17" xlink:href="#Безымянный_градиент_12"/><linearGradient id="Безымянный_градиент_12-6" x1="228.62" y1="39.57" x2="266.59" y2="39.57" xlink:href="#Безымянный_градиент_12"/><linearGradient id="Безымянный_градиент_12-7" x1="234.69" y1="50.09" x2="266.03" y2="50.09" xlink:href="#Безымянный_градиент_12"/><linearGradient id="Безымянный_градиент_12-8" x1="221.9" y1="39.38" x2="229.23" y2="39.38" xlink:href="#Безымянный_градиент_12"/><linearGradient id="Безымянный_градиент_12-9" x1="228.53" y1="33.28" x2="249.68" y2="33.28" xlink:href="#Безымянный_градиент_12"/><linearGradient id="Безымянный_градиент_12-10" x1="256.99" y1="48.67" x2="259.37" y2="48.67" xlink:href="#Безымянный_градиент_12"/><linearGradient id="Безымянный_градиент_12-11" x1="219.76" y1="32.15" x2="222.15" y2="32.15" xlink:href="#Безымянный_градиент_12"/><linearGradient id="Безымянный_градиент_12-12" x1="247.91" y1="51.92" x2="249.51" y2="51.92" xlink:href="#Безымянный_градиент_12"/><linearGradient id="Безымянный_градиент_12-13" x1="266.87" y1="30.29" x2="269.53" y2="30.29" xlink:href="#Безымянный_градиент_12"/><linearGradient id="Безымянный_градиент_12-14" x1="252.59" y1="18.85" x2="254.19" y2="18.85" xlink:href="#Безымянный_градиент_12"/><linearGradient id="Безымянный_градиент_12-15" x1="224.07" y1="52.44" x2="225.59" y2="52.44" xlink:href="#Безымянный_градиент_12"/><linearGradient id="Безымянный_градиент_12-16" x1="243.96" y1="30.45" x2="247.09" y2="30.45" xlink:href="#Безымянный_градиент_12"/><linearGradient id="Безымянный_градиент_12-17" x1="220.47" y1="43.95" x2="222.78" y2="43.95" xlink:href="#Безымянный_градиент_12"/><linearGradient id="Безымянный_градиент_12-18" x1="236.58" y1="12.16" x2="238.88" y2="12.16" xlink:href="#Безымянный_градиент_12"/><linearGradient id="Безымянный_градиент_12-19" x1="252.75" y1="6.82" x2="255.06" y2="6.82" xlink:href="#Безымянный_градиент_12"/><linearGradient id="Безымянный_градиент_12-20" x1="233.06" y1="24.6" x2="236.56" y2="24.6" xlink:href="#Безымянный_градиент_12"/><linearGradient id="Безымянный_градиент_12-21" x1="255.52" y1="37.75" x2="256.81" y2="37.75" xlink:href="#Безымянный_градиент_12"/><linearGradient id="Безымянный_градиент_12-22" x1="227.08" y1="16.45" x2="229.36" y2="16.45" xlink:href="#Безымянный_градиент_12"/><linearGradient id="Безымянный_градиент_12-23" x1="99.13" y1="42.05" x2="119.4" y2="42.05" xlink:href="#Безымянный_градиент_12"/><linearGradient id="Безымянный_градиент_7-6" x1="42.04" y1="75.91" x2="62.4" y2="75.91" xlink:href="#Безымянный_градиент_7"/><linearGradient id="Безымянный_градиент_7-7" x1="42.04" y1="78.14" x2="59.96" y2="78.14" xlink:href="#Безымянный_градиент_7"/></defs><title>Ресурс 9</title><g class="cls-1"><g id="Слой_2" data-name="Слой 2"><g id="OBJECTS"><path class="cls-2" d="M121.31,132c-2.49-6.92,9.34-34,9.34-34L142,99.39l11.36,1.34s5.16,29.1,1.12,35.25-10.27,8.38-13.68,12-4.44,12.39-4.85,18.64.78,8.7,4.38,9.79,6.38,2.74,6.23,4l-14-1.66-14-1.66c.15-1.31,3.24-2.26,7-2.48s5.5-2.33,6.56-8.5,2.11-15-.36-19.25S123.81,139,121.31,132Z"/><path class="cls-3" d="M127.34,111.58l13,1.55,13,1.55s1.77,12.89,0,18.38-9.11,11.64-16.71,10.77S123.44,135.2,123,129.45,127.34,111.58,127.34,111.58Z"/><path class="cls-4" d="M145.13,120.23a2,2,0,1,0,2.19-1.73A2,2,0,0,0,145.13,120.23Z"/><path class="cls-4" d="M142,124.72a.77.77,0,1,0,.86-.67A.77.77,0,0,0,142,124.72Z"/><path class="cls-4" d="M141.1,132.49a2.82,2.82,0,1,0,3.13-2.48A2.81,2.81,0,0,0,141.1,132.49Z"/><path class="cls-4" d="M136.59,138.29a1.89,1.89,0,1,0,2.1-1.65A1.89,1.89,0,0,0,136.59,138.29Z"/><path class="cls-4" d="M136.75,116.64a2.14,2.14,0,1,0,2.38-1.88A2.13,2.13,0,0,0,136.75,116.64Z"/><path class="cls-4" d="M134.6,128.87a1.72,1.72,0,1,0,1.91-1.5A1.73,1.73,0,0,0,134.6,128.87Z"/><path class="cls-5" d="M152,114.69c.42,5.85,1.22,10.55,1.79,10.51s.68-4.81.25-10.65S152.78,104,152.21,104,151.52,108.85,152,114.69Z"/><path class="cls-6" d="M81.48,151.77c-6.49-5-11.79-37.32-11.79-37.32l11.41-5.59,11.4-5.59s22.35,24,22.28,32.18-4.52,14-5.54,19.38,3.31,14.24,6.69,20.3,6,7.65,10,6.49,7.6-1.28,8.25,0l-14,6.87-14,6.88c-.64-1.32,1.67-4.07,5-6.53s3.72-5.49,1-11.88-7.06-15.24-11.94-17.73S88,156.72,81.48,151.77Z"/><g class="cls-7"><path class="cls-8" d="M106.11,195.4c-.64-1.32,1.67-4.07,5-6.53s3.72-5.49,1-11.88-7.06-15.24-11.94-17.73S88,156.72,81.48,151.77s-11.79-37.32-11.79-37.32l11.41-5.59,39,79.66Z"/></g><path class="cls-9" d="M74.77,129.06l13.09-6.41,13.08-6.41s9.43,11,11.1,17.12-1.48,16.36-9.08,20.11-17.59,0-21.45-5.14S74.77,129.06,74.77,129.06Z"/><path class="cls-4" d="M96.56,126.41a2.19,2.19,0,1,0,1-2.93A2.19,2.19,0,0,0,96.56,126.41Z"/><path class="cls-4" d="M96.36,132.49a.86.86,0,1,0,.39-1.15A.86.86,0,0,0,96.36,132.49Z"/><path class="cls-4" d="M100.19,140.26a3.13,3.13,0,1,0,1.43-4.19A3.13,3.13,0,0,0,100.19,140.26Z"/><path class="cls-4" d="M99.49,148.39a2.09,2.09,0,1,0,1-2.8A2.09,2.09,0,0,0,99.49,148.39Z"/><path class="cls-4" d="M86.58,128.11a2.38,2.38,0,1,0,1.1-3.18A2.38,2.38,0,0,0,86.58,128.11Z"/><path class="cls-4" d="M92,140.81a1.91,1.91,0,1,0,.87-2.54A1.89,1.89,0,0,0,92,140.81Z"/><path class="cls-5" d="M99.58,117.14c3.92,5.19,7.5,9.1,8,8.72s-2.26-4.89-6.17-10.08-7.49-9.1-8-8.73S95.67,112,99.58,117.14Z"/><path class="cls-10" d="M207,99.75l-53.79,98.59s21.1,10.76,24.24,4.91,23.23-42.57,23.23-42.57,7.12-12.4,6.42-19.28.82-30.89,15.71-57.3L217.18,81Z"/><path class="cls-11" d="M207,99.75l-53.79,98.59s-20.48-11.92-17.25-17.73S159.16,138,159.16,138s6.58-12.7,12.73-15.84,24.61-17.91,38.76-44.72L217.18,81Z"/><path class="cls-12" d="M220.16,86.36c3.57-2.24,6.25-2,10.13-9.14,5.66-10.37,3.87-14.37-1.69-17.41l-16.53,30.3Z"/><path class="cls-13" d="M210.85,81.28c0-4.22-1.68-6.36,2.2-13.46,5.66-10.38,10-11,15.55-8l-16.53,30.3Z"/><path class="cls-14" d="M207.62,128.83s-4.41,0-13.75-5.07-11.94-8.94-11.94-8.94a133.7,133.7,0,0,0,28.72-37.34L217.18,81l5.61,3.06A124,124,0,0,0,207.62,128.83Z"/><path class="cls-15" d="M152.59,176.61c-1.17,2.16-.71,4.69,1,5.62l13.17,7.09c1.72.94,4.08-.08,5.25-2.24l19-35.27c1.16-2.16.71-4.69-1-5.62l-13.17-7.09c-1.72-.93-4.08.08-5.25,2.24Z"/><path class="cls-16" d="M207,99.75l-53.79,98.59s-20.48-11.92-17.25-17.73S159.16,138,159.16,138s6.58-12.7,12.73-15.84,24.61-17.91,38.76-44.72L217.18,81Z"/><path class="cls-17" d="M210.85,81.28c0-4.22-1.68-6.36,2.2-13.46,5.66-10.38,10-11,15.55-8l-16.53,30.3Z"/><path class="cls-4" d="M217.06,81l-23.31,42.72c-9.31-5.1-11.82-8.87-11.82-8.87a133.7,133.7,0,0,0,28.72-37.34Z"/><path class="cls-5" d="M186.53,174.24c-6.22,11.41-10.73,20.95-10.07,21.32s6.25-8.6,12.47-20,10.73-21,10.07-21.31S192.76,162.84,186.53,174.24Z"/><path class="cls-18" d="M228.63,63.26c.19.31,3.89-6.83,9.2-13.08,4.48-5.29,9.93-11,13.51-14.89,7.57-8.3,17.11-17.18,14.94-19.19S255,25.94,249.52,32.64,228.14,62.5,228.63,63.26Z"/><path class="cls-19" d="M234.71,57.7c0,.2,3.09-4.07,7.36-6.7a43.06,43.06,0,0,1,10.78-4.73c6.2-2,13.14-1.39,13.18-2.9.12-1.71-8.35-.73-13.14,1.17C247.65,45.21,234.08,56.53,234.71,57.7Z"/><path class="cls-20" d="M225.86,58.85c-.23,0,2.13-4.93,2.3-10.47a50.91,50.91,0,0,0-1.41-13.18c-1.5-7.28-6.09-14.31-4.53-15.21,1.77-1,5.57,8.45,6.33,14.28C230.7,40.11,227.24,59,225.86,58.85Z"/><path class="cls-21" d="M228.53,57s15.63-39.11,17.24-44.25,4.76-3.06,3.7-.35S235,45.53,228.53,57Z"/><path class="cls-22" d="M259.21,49.26a1.19,1.19,0,1,1-.44-1.63A1.17,1.17,0,0,1,259.21,49.26Z"/><path class="cls-23" d="M222,32.75a1.19,1.19,0,1,1-.44-1.63A1.19,1.19,0,0,1,222,32.75Z"/><path class="cls-24" d="M249.4,52.31a.78.78,0,0,0-.29-1.08.8.8,0,1,0,.29,1.08Z"/><path class="cls-25" d="M269.35,31a1.32,1.32,0,1,0-1.81.49A1.32,1.32,0,0,0,269.35,31Z"/><path class="cls-26" d="M254.08,19.25a.8.8,0,1,0-1.09.29A.8.8,0,0,0,254.08,19.25Z"/><path class="cls-27" d="M225.49,52.82a.76.76,0,1,0-1.32-.76.76.76,0,0,0,.28,1A.76.76,0,0,0,225.49,52.82Z"/><path class="cls-28" d="M246.88,31.23a1.56,1.56,0,1,1-.57-2.14A1.56,1.56,0,0,1,246.88,31.23Z"/><path class="cls-29" d="M222.62,44.52a1.15,1.15,0,0,1-2-1.15,1.15,1.15,0,0,1,2,1.15Z"/><path class="cls-30" d="M238.72,12.73a1.13,1.13,0,0,1-1.56.42,1.15,1.15,0,1,1,1.56-.42Z"/><path class="cls-31" d="M254.9,7.39a1.15,1.15,0,1,1-.42-1.57A1.14,1.14,0,0,1,254.9,7.39Z"/><path class="cls-32" d="M236.32,25.47a1.75,1.75,0,1,1-.64-2.39A1.74,1.74,0,0,1,236.32,25.47Z"/><path class="cls-13" d="M235.32,61.13a.76.76,0,0,1-1,.28.75.75,0,1,1,1-.28Z"/><path class="cls-33" d="M256.72,38.07a.63.63,0,0,1-.88.24.64.64,0,0,1-.23-.88.64.64,0,1,1,1.11.64Z"/><path class="cls-34" d="M229.21,17a1.14,1.14,0,1,1-.42-1.56A1.14,1.14,0,0,1,229.21,17Z"/><polygon class="cls-35" points="90.7 71.84 90.7 71.84 71.51 60.6 90.83 49.59 90.7 71.84"/><polygon class="cls-35" points="90.7 71.84 90.83 49.59 81.17 55.1 90.7 71.84"/><polygon class="cls-36" points="119.4 53.12 119.4 53.12 99.13 43.94 117.22 30.98 119.4 53.12"/><polygon class="cls-13" points="119.4 53.12 117.22 30.98 108.18 37.46 119.4 53.12"/><polygon class="cls-35" points="146.11 29.82 146.11 29.82 124.63 24.04 140.37 8.32 146.11 29.82"/><polygon class="cls-35" points="146.11 29.82 140.37 8.32 132.5 16.18 146.11 29.82"/><polygon class="cls-37" points="59.96 86.96 59.96 86.96 62.41 64.85 42.04 73.79 59.96 86.96"/><polygon class="cls-38" points="59.96 86.96 42.04 73.79 52.22 69.32 59.96 86.96"/><polygon class="cls-35" points="26.29 98.05 26.29 98.05 32.28 76.62 10.73 82.15 26.29 98.05"/><polygon class="cls-35" points="26.29 98.05 10.73 82.15 21.51 79.38 26.29 98.05"/><path class="cls-39" d="M.22,84.87A251.25,251.25,0,0,0,147.81.83l-1-.83A250,250,0,0,1,0,83.61Z"/></g></g></g></svg>