<svg height="512pt" viewBox="0 -41 512 512" width="512pt" xmlns="http://www.w3.org/2000/svg"><path d="m138.796875 151.179688c12.269531 0 22.257813-9.984376 22.257813-22.257813 0-12.269531-9.984376-22.253906-22.257813-22.253906h-57.832031c-12.273438 0-22.257813 9.984375-22.257813 22.253906 0 12.273437 9.984375 22.257813 22.257813 22.257813zm-65.089844-22.257813c0-4 3.257813-7.253906 7.257813-7.253906h57.832031c4 0 7.257813 3.253906 7.257813 7.253906 0 4.003906-3.257813 7.257813-7.257813 7.257813h-57.832031c-4 0-7.257813-3.253907-7.257813-7.257813zm0 0"/><path d="m482 346.976562c4.140625 0 7.5-3.359374 7.5-7.5v-158.867187h5.578125c9.332031 0 16.921875-7.589844 16.921875-16.921875v-69.527344c0-9.332031-7.589844-16.921875-16.921875-16.921875h-5.484375c4.273438-18.890625-3.324219-39.097656-20.066406-50.257812l-1.539063-1.023438c.917969-7.234375-2.46875-14.660156-9.167969-18.527343l-8.546874-4.933594c-8.910157-5.140625-20.339844-2.082032-25.480469 6.828125-5.144531 8.90625-2.078125 20.335937 6.828125 25.476562l8.542968 4.9375c2.875 1.660157 6.066407 2.503907 9.296876 2.503907 1.621093 0 3.253906-.210938 4.859374-.640626 2.15625-.578124 4.144532-1.535156 5.914063-2.785156l.972656.644532c12.464844 8.3125 17.542969 23.9375 12.828125 37.777343h-142.375c-4.714844-13.839843.363282-29.464843 12.828125-37.777343l.972657-.644532c1.769531 1.25 3.757812 2.207032 5.914062 2.785156 1.605469.429688 3.238281.640626 4.859375.640626 3.230469 0 6.417969-.847657 9.292969-2.503907l8.546875-4.9375c8.90625-5.140625 11.96875-16.570312 6.828125-25.476562-5.144532-8.910157-16.574219-11.972657-25.480469-6.828125l-8.546875 4.933594c-4.3125 2.492187-7.398438 6.515624-8.6875 11.328124-.640625 2.386719-.796875 4.828126-.492188 7.207032l-1.527343 1.019531c-16.742188 11.160156-24.339844 31.363281-20.066407 50.257813h-6.773437c-9.332031 0-16.921875 7.589843-16.921875 16.917968v69.53125c0 9.328125 7.589844 16.917969 16.921875 16.917969h5.582031v25.804687h-117.730468v-25.804687h5.578124c9.328126 0 16.917969-7.589844 16.917969-16.917969v-69.53125c0-9.328125-7.589843-16.917968-16.917969-16.917968h-5.484374c4.269531-18.894532-3.328126-39.097657-20.070313-50.257813l-1.535156-1.027344c.917969-7.230469-2.472657-14.65625-9.171875-18.523437l-8.546875-4.9375c-8.90625-5.140625-20.335938-2.078125-25.480469 6.828125-5.140625 8.90625-2.078125 20.335937 6.828125 25.480469l8.546875 4.933593c2.875 1.660157 6.0625 2.507813 9.292969 2.507813 1.621093 0 3.253906-.214844 4.859375-.644532 2.15625-.578124 4.144531-1.535156 5.914062-2.785156l.972656.648438c12.464844 8.308594 17.542969 23.933594 12.828126 37.777344h-142.375c-4.714844-13.84375.363281-29.46875 12.828124-37.777344l.972657-.648438c1.769531 1.25 3.757812 2.207032 5.914062 2.785156 1.605469.429688 3.238281.644532 4.859375.644532 3.230469 0 6.417969-.847656 9.292969-2.507813l8.546875-4.933593c8.90625-5.144532 11.96875-16.574219 6.828125-25.480469-5.144531-8.90625-16.574219-11.96875-25.480469-6.828125l-8.546875 4.9375c-6.699219 3.867187-10.089843 11.292968-9.167969 18.527344l-1.539062 1.023437c-16.742188 11.160156-24.335938 31.367187-20.066406 50.257813h-6.773438c-9.328125 0-16.9179685 7.589843-16.9179685 16.917968v69.53125c0 9.328125 7.5898435 16.917969 16.9179685 16.917969h5.585938v210.101563c-12.84375 2.417968-22.589844 13.714843-22.589844 27.25v2.277343c0 5.042969 4.105469 9.148438 9.152344 9.148438h201.371094c5.046874 0 9.152343-4.105469 9.152343-9.148438v-2.277343c0-13.503907-9.699219-24.777344-22.496093-27.238282v-26.308594h117.730468v26.292969c-12.839844 2.421875-22.585937 13.71875-22.585937 27.253907v2.273437c0 5.046875 4.105469 9.152344 9.152343 9.152344h201.371094c5.046875 0 9.152344-4.105469 9.152344-9.152344v-2.273437c0-13.503907-9.703125-24.78125-22.5-27.238282v-16.246094c0-4.144531-3.359375-7.5-7.5-7.5s-7.5 3.355469-7.5 7.5v15.738282h-144.589844v-25.800782h26.5625c20.140625 0 36.527344-16.386718 36.527344-36.527343v-84.945313c0-20.140625-16.386719-36.527344-36.527344-36.527344h-26.5625v-25.804687h144.589844v158.867187c0 4.140626 3.359375 7.5 7.5 7.5zm-31.5625-319.867187c-.542969.148437-1.628906.292969-2.769531-.363281l-8.546875-4.933594c-1.140625-.660156-1.554688-1.675781-1.703125-2.21875-.144531-.546875-.292969-1.632812.367187-2.773438.675782-1.167968 1.90625-1.824218 3.167969-1.824218.617187 0 1.246094.15625 1.820313.488281l8.546874 4.933594c1.742188 1.007812 2.34375 3.246093 1.335938 4.992187-.660156 1.136719-1.671875 1.554688-2.21875 1.699219zm-96.0625-6.691406 8.546875-4.933594c.574219-.332031 1.199219-.488281 1.820313-.488281 1.261718 0 2.492187.65625 3.167968 1.824218.660156 1.140626.511719 2.226563.367188 2.773438-.148438.542969-.5625 1.558594-1.703125 2.21875l-8.546875 4.933594c-1.746094 1.007812-3.980469.40625-4.988282-1.335938-1.007812-1.746094-.40625-3.984375 1.335938-4.992187zm-199.03125 6.328125-8.546875-4.933594c-1.140625-.660156-1.554687-1.675781-1.699219-2.21875-.148437-.546875-.292968-1.632812.363282-2.773438.675781-1.167968 1.90625-1.824218 3.167968-1.824218.621094 0 1.25.15625 1.820313.488281l8.546875 4.933594c1.742187 1.007812 2.34375 3.246093 1.335937 4.992187-1.007812 1.742188-3.242187 2.34375-4.988281 1.335938zm-93.289062-6.328125 8.542968-4.933594c.574219-.332031 1.203125-.488281 1.820313-.488281 1.265625 0 2.492187.65625 3.171875 1.824218.65625 1.140626.507812 2.226563.363281 2.773438-.144531.542969-.5625 1.558594-1.703125 2.21875l-8.546875 4.933594c-1.742187 1.007812-3.980469.40625-4.988281-1.335938-1.003906-1.746094-.40625-3.984375 1.339844-4.992187zm434.433593 393.96875h-188.65625c1.550781-5.292969 6.445313-9.167969 12.230469-9.167969h164.195312c5.785157 0 10.683594 3.875 12.230469 9.167969zm-292.320312 0h-188.65625c1.546875-5.292969 6.445312-9.167969 12.230469-9.167969h164.191406c5.789062 0 10.683594 3.875 12.234375 9.167969zm-21.988281-24.171875h-144.589844v-209.605469h11.410156c4.140625 0 7.5-3.359375 7.5-7.5 0-4.144531-3.359375-7.5-7.5-7.5h-18.851562c-.019532 0-.039063-.003906-.058594-.003906-.019532 0-.039063.003906-.058594.003906h-13.027344c-1.058594 0-1.917968-.863281-1.917968-1.921875v-69.527344c0-1.058594.859374-1.921875 1.917968-1.921875h17.34375c.007813 0 .015625.003907.019532.003907.011718 0 .019531-.003907.027343-.003907h152.257813c.007812 0 .019531.003907.027344.003907.007812 0 .011718-.003907.019531-.003907h16.058593c1.058594 0 1.917969.863281 1.917969 1.921875v69.527344c0 1.058594-.859375 1.921875-1.917969 1.921875h-13.019531c-.019531 0-.039062-.003906-.058593-.003906-.019532 0-.039063.003906-.058594.003906h-103.289063c-4.140625 0-7.5 3.355469-7.5 7.5 0 4.140625 3.359375 7.5 7.5 7.5h95.847657v25.804687h-26.652344c-20.140625 0-36.527344 16.386719-36.527344 36.527344v84.945313c0 20.140625 16.386719 36.527343 36.527344 36.527343h26.652344zm195.820312-147.273438v84.945313c0 11.871093-9.65625 21.527343-21.527344 21.527343h-200.945312c-11.871094 0-21.527344-9.65625-21.527344-21.527343v-84.945313c0-11.871094 9.65625-21.527344 21.527344-21.527344h34.132812.019532.019531 132.691406.019531.019532 34.042968c11.871094 0 21.527344 9.65625 21.527344 21.527344zm-70.59375-79.253906v-69.527344c0-1.058594.863281-1.921875 1.921875-1.921875h17.34375c.007813 0 .015625.003907.019531.003907.011719 0 .019532-.003907.027344-.003907h152.257812c.007813 0 .015626.003907.027344.003907.007813 0 .011719-.003907.019532-.003907h16.054687c1.0625 0 1.921875.863281 1.921875 1.921875v69.527344c0 1.058594-.859375 1.921875-1.921875 1.921875h-13.019531c-.019532 0-.039063-.003906-.058594-.003906h-159.589844c-.019531 0-.039062.003906-.058594.003906h-13.023437c-1.058594 0-1.921875-.863281-1.921875-1.921875zm0 0"/><path d="m373.289062 151.179688h57.832032c12.269531 0 22.257812-9.984376 22.257812-22.257813 0-12.269531-9.984375-22.253906-22.257812-22.253906h-57.832032c-12.273437 0-22.257812 9.984375-22.257812 22.253906 0 12.273437 9.984375 22.257813 22.257812 22.257813zm0-29.511719h57.832032c4 0 7.257812 3.253906 7.257812 7.253906 0 4.003906-3.257812 7.257813-7.257812 7.257813h-57.832032c-4 0-7.257812-3.253907-7.257812-7.257813 0-4 3.253906-7.253906 7.257812-7.253906zm0 0"/><path d="m255.175781 251.824219c-2.101562-1.230469-4.285156-1.84375-6.546875-1.84375-2.785156 0-4.433594.9375-4.949218 2.8125l-13.488282 49.773437-13.582031-49.773437c-.515625-1.875-2.167969-2.8125-4.949219-2.8125-2.261718 0-4.445312.617187-6.546875 1.84375-2.101562 1.226562-3.152343 2.683593-3.152343 4.367187 0 .191406.0625.546875.191406 1.066406l18.144531 59.183594c.515625 1.617188 1.699219 2.859375 3.542969 3.734375 1.84375.871094 3.960937 1.308594 6.351562 1.308594 2.394532 0 4.511719-.4375 6.355469-1.308594 1.84375-.875 3.023437-2.117187 3.542969-3.734375l18.046875-59.183594c.128906-.519531.191406-.875.191406-1.066406 0-1.683594-1.050781-3.140625-3.152344-4.367187zm0 0"/><path d="m300.242188 283.597656c-2.265626-1.648437-4.738282-3.167968-7.421876-4.558594-2.683593-1.390624-5.160156-2.523437-7.421874-3.398437-2.265626-.871094-4.15625-1.921875-5.675782-3.152344-1.523437-1.226562-2.28125-2.585937-2.28125-4.074219 0-1.617187.808594-2.992187 2.425782-4.125 1.617187-1.128906 4.042968-1.699218 7.277343-1.699218 3.039063 0 5.820313.617187 8.34375 1.84375 2.523438 1.230468 4.171875 1.84375 4.949219 1.84375 1.875 0 3.34375-.917969 4.414062-2.757813 1.066407-1.84375 1.597657-3.617187 1.597657-5.324219 0-1.800781-.726563-3.332031-2.179688-4.601562-1.457031-1.265625-3.332031-2.179688-5.628906-2.746094s-4.367187-.953125-6.207031-1.152344c-1.84375-.199218-3.609375-.296874-5.289063-.296874-6.859375 0-12.710937 1.695312-17.5625 5.09375-4.851562 3.394531-7.273437 8.519531-7.273437 15.375 0 4.207031 1.046875 7.828124 3.152344 10.867187 2.101562 3.042969 4.671874 5.382813 7.710937 7.035156 3.042969 1.648438 6.066406 3.136719 9.074219 4.460938 3.007812 1.328125 5.5625 2.800781 7.664062 4.417969 2.101563 1.617187 3.152344 3.492187 3.152344 5.625 0 2.132812-.9375 3.734374-2.8125 4.800781-1.875 1.070312-4.074219 1.601562-6.597656 1.601562-2.003906 0-3.914063-.390625-5.722656-1.175781-1.8125-.785156-3.21875-1.652344-4.222657-2.605469-1.003906-.953125-2.101562-1.824219-3.296875-2.609375-1.199218-.78125-2.28125-1.175781-3.25-1.175781-1.75 0-3.285156.90625-4.609375 2.71875-1.328125 1.808594-1.988281 3.621094-1.988281 5.429687 0 3.238282 2.328125 6.148438 6.984375 8.734376 4.65625 2.585937 10.125 3.878906 16.398437 3.878906 7.242188 0 13.097657-1.855469 17.558594-5.570313 4.464844-3.714843 6.695313-8.910156 6.695313-15.578125 0-3.816406-.761719-7.210937-2.28125-10.1875-1.519531-2.972656-3.414063-5.289062-5.675781-6.9375zm0 0"/></svg>