<?xml version="1.0" encoding="iso-8859-1"?>
<!-- Generator: Adobe Illustrator 19.0.0, SVG Export Plug-In . SVG Version: 6.00 Build 0)  -->
<svg version="1.1" id="Layer_1" xmlns="http://www.w3.org/2000/svg" xmlns:xlink="http://www.w3.org/1999/xlink" x="0px" y="0px"
	 viewBox="0 0 512.001 512.001" style="enable-background:new 0 0 512.001 512.001;" xml:space="preserve">
<g>
	<g>
		<path d="M437.019,74.981C388.667,26.629,324.38,0,256.001,0c-68.381,0-132.667,26.629-181.02,74.981
			c-48.352,48.353-74.98,112.639-74.98,181.02s26.629,132.668,74.981,181.02c48.352,48.353,112.639,74.981,181.019,74.981
			s132.667-26.629,181.019-74.981C485.372,388.669,512,324.382,512,256.001S485.371,123.333,437.019,74.981z M86.289,86.289
			c2.31-2.311,4.67-4.555,7.057-6.758c2.634-0.915,5.341-1.772,8.226-2.593c0.195,0.494,0.392,1.032,0.551,1.467
			c1.461,3.987,3.906,10.659,11.434,13.088c9.362,3.02,22.463-2.043,45.224-17.468c9.827-6.66,14.83-12.926,18.852-17.96
			c6.531-8.178,10.129-12.684,35.605-13.784c35.168-1.525,39.899,11.984,44.071,23.899c2.626,7.495,6.592,18.816,20.193,17.614
			c8.629-0.768,16.356,1.397,22.567,3.134c7.183,2.011,13.968,3.912,19.589-0.192c5.312-3.876,5.559-10.551,5.64-12.744
			c0.354-9.566,3.036-16.647,7.756-20.476c4.095-3.322,8.637-3.42,10.044-3.179c2.638,0.454,5.105,4.487,7.717,8.758
			c4.172,6.821,9.885,16.163,21.611,16.896c8.58,0.536,17.56,6.332,22.875,14.764c8.225,13.047-2.765,25.913-19.187,42.664
			c-9.372,9.559-17.468,17.814-19.112,26.86c-1.028,5.651-6.336,12.297-11.472,18.724c-8.05,10.078-17.896,22.404-13.956,36.253
			c-7.369-11.798-19.346-27.697-37.358-27.697c-8.148,0-18.872,1.971-28.687,5.273c-8.107,2.727-19.044,7.506-25.125,14.791
			c-4.806,5.758-5.045,11.197-4.401,14.746c0.501,2.756,0.848,6.635,1.214,10.74c1.525,17.071,3.612,40.452,21.416,45.449
			c7.332,2.06,13.561,1.583,18.507-1.414c7.531-4.56,9.317-13.021,10.5-18.619c0.23-1.091,0.544-2.573,0.74-3.102
			c1.642-3.065,8.354-4.593,12.473-2.815c1.34,0.578,2.078,0.896,1.069,3.695c-6.576,18.247-2.589,37.004,4.743,49.43
			c-12.73-15.724-27.9-12.119-41.527-8.876c-8.7,2.069-17.695,4.21-27.499,2.261c-21.893-4.352-39.23-35.831-42.771-48.224
			c-3.285-11.5-14.965-21.206-24.515-20.342c-5.833,0.522-9.991,4.739-10.59,10.742c-0.704,7.035,5.075,28.131,10.045,44.589
			c0.349,1.155,0.559,2.087,0.681,2.827c-2.043-1.029-4.655-3.107-5.381-6.535c-0.885-4.177-1.615-8.459-2.388-12.991
			c-1.442-8.459-2.934-17.206-5.557-25.657c-3.352-10.802-9.03-17.666-14.04-23.721c-4.267-5.159-7.638-9.234-8.678-14.739
			c-1.826-9.66-23.82-35.865-41.687-40.956c-8.188-2.333-15.537-0.518-20.697,5.11c-11.377,12.411-33.543,24.815-46.765,20.261
			C36.37,150.868,57.099,115.478,86.289,86.289z M256.001,496.008c-64.108,0-124.38-24.966-169.711-70.297
			c-45.331-45.33-70.297-105.602-70.297-169.71c0-17.347,1.843-34.41,5.409-50.975c8.542,2.501,18.768,1.613,29.822-2.728
			c11.773-4.624,24.276-13.158,32.628-22.271c0.472-0.517,1.186-1.3,3.814-0.716c11.835,2.617,29.323,23.603,31.099,28.891
			c1.834,9.462,7.022,15.733,12.039,21.798c4.461,5.391,8.673,10.484,11.088,18.267c2.309,7.441,3.71,15.658,5.065,23.605
			c0.766,4.487,1.557,9.127,2.508,13.618c2.766,13.055,15.327,20.008,23.333,20.008c4.414,0,8.392-1.949,10.914-5.346
			c3.356-4.518,3.828-10.876,1.407-18.893c-4.001-13.25-6.777-23.938-8.239-30.741c1.122,1.348,2.1,2.969,2.614,4.768
			c2.92,10.219,21.89,52.929,55.031,59.516c13.229,2.63,24.923-0.152,34.319-2.388c14.546-3.46,21.492-5.114,29.266,9.28
			c-1.673,1.318-4.678,3.155-7.024,4.59c-11.765,7.194-31.456,19.235-37.787,45.959c-11.267,47.55,8.851,67.642,30.149,88.915
			c8.704,8.693,17.645,17.63,25.152,29.1C291.526,494.055,273.914,496.008,256.001,496.008z M425.711,425.712
			c-28.613,28.612-63.182,49.101-100.906,60.329c-9.014-15.166-20.123-26.279-30.057-36.2
			c-20.376-20.349-35.097-35.053-25.89-73.913c4.797-20.243,19.693-29.352,30.569-36.004c4.382-2.679,8.166-4.994,10.895-7.74
			c6.574-6.615,4.31-13.273,3.033-15.829c-0.862-1.726-1.743-3.326-2.639-4.81c0.135,0.164,0.27,0.335,0.406,0.495
			c6.309,7.412,13.766,10.748,20.984,9.394c1.325-0.248,2.854-0.576,4.575-0.946c14.97-3.218,46.127-9.916,83.402,11.729
			c6.644,3.857,15.352,5.87,24.575,8.001c10.827,2.502,22.879,5.301,31.623,11.361C464.419,378.9,447.404,404.019,425.711,425.712z
			 M448.259,324.639c-8.015-1.853-15.585-3.601-20.146-6.25c-42.622-24.749-77.86-17.174-94.794-13.535
			c-1.565,0.337-2.955,0.636-4.159,0.863c-0.807,0.147-3.11-0.812-5.858-4.041c-7.06-8.296-11.679-25.118-6.332-39.955
			c3.71-10.298-0.129-19.64-9.783-23.803c-10.822-4.667-27.085-1.562-33.114,10.357c-1.05,2.078-1.549,4.44-2.077,6.941
			c-0.575,2.722-1.536,7.276-3.137,8.244c-0.358,0.216-1.841,0.836-5.903-0.304c-7.177-2.015-8.823-20.457-9.807-31.475
			c-0.4-4.478-0.777-8.707-1.408-12.177c-0.019-0.111,0.166-0.706,0.945-1.639c5.268-6.312,25.879-14.319,41.534-14.319
			c11.849,0,21.61,16.413,26.853,25.23c0.693,1.165,1.322,2.223,1.887,3.133c4.885,7.894,14.215,11.078,21.239,7.241
			c4.122-2.251,6.667-6.55,6.983-11.796c0.26-4.322-0.961-9.35-3.63-14.943c-2.874-6.025,2.041-12.872,10.478-23.433
			c6.372-7.977,12.961-16.226,14.711-25.845c0.767-4.217,8.22-11.818,14.796-18.525c15.573-15.882,36.901-37.636,21.298-62.387
			c-8.089-12.832-21.656-21.337-35.406-22.196c-3.083-0.193-5.196-3.117-8.965-9.28c-3.949-6.456-8.863-14.489-18.646-16.173
			c-5.629-0.971-14.99,0.157-22.833,6.521c-5.805,4.708-12.847,14.026-13.642,31.739c-1.517-0.342-3.408-0.871-4.96-1.306
			c-7.072-1.979-16.758-4.689-28.294-3.664c-0.346,0.031-0.564,0.022-0.685,0.01c-0.879-0.924-2.148-4.55-2.999-6.978
			c-2.415-6.895-5.721-16.338-14.767-23.686c-10.107-8.212-24.854-11.776-45.089-10.904c-30.537,1.319-38.283,8.353-47.41,19.782
			c-3.692,4.623-7.511,9.403-15.328,14.702c-23.444,15.891-30.159,15.69-31.197,15.519c-0.448-0.607-1.082-2.337-1.471-3.402
			c-0.713-1.949-2.18-5.935-5.28-8.844c41.347-31.186,91.444-48.068,144.142-48.068c64.108,0,124.379,24.966,169.711,70.297
			c45.332,45.332,70.297,105.603,70.297,169.711c0,27.826-4.71,54.926-13.74,80.399C471.75,330.081,459.438,327.222,448.259,324.639
			z"/>
	</g>
</g>
<g>
</g>
<g>
</g>
<g>
</g>
<g>
</g>
<g>
</g>
<g>
</g>
<g>
</g>
<g>
</g>
<g>
</g>
<g>
</g>
<g>
</g>
<g>
</g>
<g>
</g>
<g>
</g>
<g>
</g>
</svg>
