<?xml version="1.0" encoding="utf-8"?>
<!-- Generator: Adobe Illustrator 19.2.1, SVG Export Plug-In . SVG Version: 6.00 Build 0)  -->
<svg version="1.1" id="layer" xmlns="http://www.w3.org/2000/svg" xmlns:xlink="http://www.w3.org/1999/xlink" x="0px" y="0px"
	 viewBox="0 0 652 652" style="enable-background:new 0 0 652 652;" xml:space="preserve">
<style type="text/css">
	.st0{fill-rule:evenodd;clip-rule:evenodd;fill:#E83525;}
	.st1{fill-rule:evenodd;clip-rule:evenodd;fill:#FFFFFF;}
</style>
<g>
	<path class="st0" d="M200.6,373.5c0-3.2,3-2,3-3.2c0-0.5-1.2-0.4-1.4-0.4c-1.4,0-2.8,0.2-4.3,0.2c-1.2,0-2.3-0.2-3.6-0.2
		c-0.2,0-0.9,0-0.9,0.4c0,1.4,3.6,0.4,3.6,3v15.1c0,6.9,2.3,13.7,14.1,13.7c13.2,0,12.6-11.2,12.6-13.4v-14.1c0-4.1,2.7-3.2,2.7-4.5
		c0-0.2-0.4-0.4-0.5-0.4c-0.9,0-1.8,0.2-2.5,0.2c-1.8,0-3.6-0.2-5.3-0.2c-0.2,0-0.5,0.2-0.5,0.4c0,1.8,4.3-0.2,4.3,4.5v14.6
		c0,5.3-2,10.9-10.3,10.9c-6.2,0-10.9-3.2-10.9-10.5V373.5L200.6,373.5z"/>
	<path class="st0" d="M250.1,395.4c0,6.2-3.9,4.3-3.9,5.9c0,0.2,0,0.5,0.5,0.5c0.4,0,2.7-0.2,4.3-0.2c2.1,0,3.6,0.2,4.6,0.2
		c0.4,0,0.4-0.4,0.4-0.7c0-1.1-3.9,0.4-3.9-3.6V379c0-0.9,0.2-1.1,0.4-1.1c0.4,0,0.9,0.9,0.9,0.9l19.4,21.9c0.9,1.1,1.4,1.2,1.8,1.2
		s0.4-0.7,0.4-2v-26.2c0-3.2,2.7-2.5,2.7-3.6c0-0.4-0.2-0.4-0.5-0.4c-1.1,0-3,0.2-4.5,0.2c-1.4,0-2.8-0.2-4.1-0.2
		c-0.4,0-0.5,0-0.5,0.4c0,1.4,5-0.2,5,5.7v18.9c0,0.4,0,0.5-0.2,0.5c0,0-0.2-0.2-0.5-0.5l-21.5-24c-0.2-0.2-0.5-0.9-1.1-0.9
		c-0.7,0-1.4,0.2-2.1,0.2c-0.7,0-1.4-0.2-2.1-0.2c-0.2,0-0.5,0.2-0.5,0.4c0,1.6,5.3-0.9,5.3,8.4V395.4L250.1,395.4z"/>
	<path class="st0" d="M302.4,396.8c0,4.5-3.6,3-3.6,4.3c0,0.4,0.2,0.7,1.1,0.7c0.5,0,1.4-0.2,4.3-0.2c2,0,3.9,0.2,4.8,0.2
		c0.9,0,1.1-0.2,1.1-0.5c0-1.2-4.1-0.4-4.1-3.4v-24.2c0-3.4,3.2-2.3,3.2-3.4c0-0.4-0.2-0.4-0.9-0.4c-1.2,0-2.7,0.2-4.1,0.2
		c-1.6,0-3.4-0.2-5-0.2c-0.4,0-0.4,0-0.4,0.4c0,1.1,3.6,0.2,3.6,3.4V396.8L302.4,396.8z"/>
	<path class="st0" d="M343.7,399.7c0.4,0.9,0.9,2.8,1.6,2.8c0.7,0,1.1-1.6,1.6-2.7l11.2-26.5c1.2-3,2.5-2,2.5-2.8
		c0-0.4-0.4-0.5-0.7-0.5c-0.7,0-1.4,0.2-3.6,0.2c-0.9,0-2-0.2-3-0.2c-0.4,0-0.5,0-0.5,0.5c0,1.1,2.8,0.2,2.8,2.1
		c0.2,1.1-0.4,2.5-0.7,3.2l-7.8,19.2c-0.2,0.5-0.4,1.2-0.7,1.2c-0.5,0-0.9-0.9-1.8-3.4l-8-18.5c-0.2-0.4-0.4-1.1-0.4-1.8
		c0-1.6,2-1.6,1.8-2.3c0-0.2-0.4-0.4-0.5-0.4c-0.7,0-2.3,0.2-3.6,0.2c-1.4,0-2.8-0.2-4.1-0.2c-0.5,0-0.7,0.2-0.7,0.5
		c0,1.1,2.3,0.2,3.6,2.8L343.7,399.7L343.7,399.7z"/>
	<path class="st0" d="M386.4,374.6c0-3-0.2-2.8,4.3-2.8c1.8,0,6.4-0.2,7.7,1.2c0.7,1.1,0,3.2,1.1,3.2c0.2,0,0.9-0.4,0.9-5.3
		c0-0.5-0.2-0.9-0.5-0.9c-1.2,0-5.5,0.2-6.4,0.2c-1.8,0-4.3-0.2-12.6-0.2c-1.4,0-1.6,0.2-1.6,0.5c0,0.5,0.9,0.5,1.2,0.7
		c2.5,0.4,2.5,2.5,2.5,4.5v20.7c0,2-0.2,3.4-1.2,3.9c-1.4,0.7-2,0.5-2,1.1c0,0.4,0.2,0.5,0.7,0.5c1.8,0,3.6-0.2,5.3-0.2
		c3.6-0.2,6.9,0.2,10.3,0.2c2,0,3,0,4.5-1.6c1.1-1.1,2.3-2.7,2.3-4.3c0-0.2-0.2-0.5-0.4-0.5c-0.7,0-2.1,4.6-12.6,4.6
		c-3.7,0-3.4-1.1-3.4-3.7v-8.4c0-0.7-0.2-1.4,0.9-1.4h6.6c3.7,0,2.3,3.9,3.6,3.9c0.4,0,0.5-0.2,0.5-0.5c0-1.2,0-2.3,0-3.6
		c0-1.4,0-3,0-4.6c0-0.4-0.2-0.7-0.5-0.7c-1.1,0,0.2,3.6-4.5,3.6h-4.8c-2,0-1.8,0-1.8-1.6V374.6L386.4,374.6z"/>
	<path class="st0" d="M437,385.4c3.2-1.2,5.7-4.3,5.7-7.8c0-8.7-10-7.7-10.7-7.7c-2.3,0-5,0.2-7.5,0.2c-2.3,0-2.1-0.2-2.8-0.2
		c-0.5,0-0.9,0.2-0.9,0.5c0,1.4,3.7-0.4,3.7,3.9v23c0,3.4-3.2,2.8-3.2,3.9c0,0.2,0.2,0.5,0.4,0.5c1.8,0,3.6-0.2,5.2-0.2
		c3.7,0,4.8,0.2,5.2,0.2s0.9,0,0.9-0.4c0-1.6-4.8-0.2-4.8-4.1v-9.4c0-0.5-0.2-1.2,1.2-1.2c5,0,4.3-0.2,6.1,2.3l5,7.8
		c1.6,2.7,3.4,5,6.8,5c0.4,0,2.8,0,2.8-0.5c0-1.1-2.1,0.5-5.5-4.5L437,385.4L437,385.4z M428.1,373c0-1.8,1.1-1.6,2.7-1.6
		c4.5,0,8.5,1.8,8.5,7.3c0,5.7-4.3,6.4-6.2,6.4c-2.1,0-5,0.2-5-0.5V373L428.1,373z"/>
	<path class="st0" d="M469.8,399.7c0.2,0.7,4.3,2.5,7.7,2.5c10.1,0,12.8-5.7,12.8-9.6c0-12.3-18.2-7.5-18.2-15.8
		c0-4.3,3.7-5.9,7.3-5.9c3.9,0,7.3,2,8.5,5.9c0.2,0.4,0.5,1.2,0.9,1.2c0.5,0,0.5-0.2,0.5-0.5l-0.7-6.2c0-0.5-0.2-0.5-0.5-0.5
		c-0.4,0-0.5,0.4-0.9,0.4c-0.5,0-2.1-1.6-7.5-1.6c-5.3,0-10.1,2.8-10.1,8.5c0,11.7,18.3,6.9,18.3,15.5c0,4.8-4.1,7.1-8.4,7.1
		c-6.2,0-9.1-4.6-9.6-6.8c-0.2-0.9-0.2-1.4-0.7-1.4c-0.5,0-0.7,0.5-0.5,1.4L469.8,399.7L469.8,399.7z"/>
	<path class="st0" d="M514.6,396.8c0,4.5-3.6,3-3.6,4.3c0,0.4,0.2,0.7,0.9,0.7c0.7,0,1.6-0.2,4.5-0.2c1.8,0,3.7,0.2,4.8,0.2
		c0.7,0,0.9-0.2,0.9-0.5c0-1.2-3.9-0.4-3.9-3.4v-24.2c0-3.4,3.2-2.3,3.2-3.4c0-0.4-0.2-0.4-0.9-0.4c-1.4,0-2.8,0.2-4.1,0.2
		c-1.8,0-3.4-0.2-5-0.2c-0.4,0-0.5,0-0.5,0.4c0,1.1,3.6,0.2,3.7,3.4V396.8L514.6,396.8z"/>
	<path class="st0" d="M554.2,397.9c0,2.7-3.6,2.1-3.6,3.2c0,0.5,0,0.7,0.5,0.7c0.2,0,1.1-0.2,6.1-0.2c1.4,0,2.7,0.2,3.7,0.2
		c0.4,0,0.4-0.5,0.4-0.5c0-1.4-3.6,0-3.6-3.7v-23c0-2.5-0.4-2.3,1.8-2.3h6.4c4.6,0,2.1,3.6,3.7,3.6c0.7,0,0.5-0.5,0.5-1.1l-0.2-3.6
		c0-1.1-0.4-1.2-1.2-1.2c-0.9,0-5.2,0.2-13.4,0.2c-5.7,0-9.3-0.2-12.6-0.2c-0.9,0-0.9,1.1-0.9,1.6l-0.5,4.5c0,0.2,0.2,0.5,0.5,0.5
		c0.5,0,0.5-0.5,0.7-1.1c0.9-2.5,0.9-3.2,3.7-3.2h7.3c0.7,0.2,0.5,1.8,0.5,2.1V397.9L554.2,397.9z"/>
	<path class="st0" d="M599.2,384.7c0.4,0.5,0.9,1.4,0.9,2.3v10.9c0,3.2-3.4,2.1-3.4,3.4c0,0.5,0.2,0.5,0.7,0.5c0.4,0,2-0.2,4.1-0.2
		c1.6,0,4.3,0.2,4.8,0.2c0.7,0,1.1,0,1.1-0.5c0-1.4-3.7-0.2-3.7-4.1v-11c0-0.5,0.4-0.9,1.2-2l6.2-9.8c0.7-1.1,1.2-2.5,2.5-3.2
		c0.4-0.2,1.1-0.4,1.1-0.7c0-0.4-0.2-0.5-0.5-0.5c-1.2,0-2.5,0.2-3.9,0.2c-1.1,0-2.1-0.2-3.2-0.2c-0.5,0-0.9,0-0.9,0.5
		c0,1.1,3.4,0.2,3.4,2.5c0,1.1-0.7,2-1.1,2.3l-4.6,7.7c-0.4,0.5-0.5,0.9-0.9,0.9c-0.2,0-0.5-0.4-0.9-0.9l-5.3-8.7
		c-0.4-0.4-0.9-1.1-0.9-1.8c0-1.2,2.1-1.4,2.1-2.1c0-0.4-0.5-0.4-0.9-0.4c-0.4,0-1.6,0.2-3,0.2c-3.2,0-3.9-0.2-5.2-0.2
		c-0.4,0-0.7,0.4-0.7,0.5c0,0.9,2.3,0.4,3.4,2.1L599.2,384.7L599.2,384.7z"/>
	<path class="st0" d="M514.5,249.1c4.5,0,8.2,3.7,8.2,8.2c0,4.6-3.7,8.4-8.2,8.4c-4.6,0-8.2-3.7-8.2-8.4
		C506.3,252.8,509.8,249.1,514.5,249.1L514.5,249.1z M592.8,336.8c-0.4,3.6-2.1,5.9-8.9,7.8c-5.3,1.8-4.6,4.6,0.7,4.8
		c14.6-2.1,19.2-1.8,32.4-0.4c5.2,0,4.3-3.4,1.1-4.8c-7.7-3-8.9-3-10.5-10.7l-0.5-76.9c0-4.5,1.6-9.6-3-8.4
		c-8.7,3.4-9.4,3.7-17.4,6.6c-4.3,1.8-2.7,3.7,0.4,4.8c4.3,1.8,4.6,4.3,5,7.5L592.8,336.8L592.8,336.8z M547.7,336.3
		c-0.4,3.7-2.1,6.1-8.9,8c-5.3,1.6-4.8,4.5,0.7,4.8c14.6-2.1,19.2-1.8,32.4-0.4c5-0.2,4.3-3.4,1.1-5c-7.8-3-8.9-3-10.5-10.7
		l-0.5-76.7c0-4.5,1.6-9.6-3-8.5c-8.9,3.6-9.6,3.9-17.4,6.6c-4.3,1.8-2.7,3.9,0.4,4.8c4.3,1.8,4.6,4.5,4.8,7.5L547.7,336.3
		L547.7,336.3z M506.6,306c-0.4-3.9-0.9-6.9-5.3-8.2c-3.2-0.4-4.8-3.2-0.2-5c9.1-2.8,10.3-3.4,17.4-9.1c2.1-1.2,4.6-0.2,3.4,3.7
		c-0.4,2.8-0.4,4.3-0.5,7.5v40.1c0.4,6.6,5.5,7.7,8.7,8.9c3.2,1.2,3.6,5.2-0.4,5.2c-14.1-2-17.3-2.1-31,0.7c-4.6,0-5.5-3.6,0.2-5.5
		c5.5-2,7.5-3,7.7-7.8V306L506.6,306z M380.8,298.7c3.2-34.2,25.1-48.4,55.9-50.9c32.6,0.2,37.2,2.3,36.7,20.5
		c0.2,6.6-4.1,8-7.1,0.7c-3.6-6.8-6.4-10.7-14.6-14.1c-28.1-6.2-48.8,11.7-50,42.4c-2,43.1,46.3,55.7,56.3,39.5
		c2.1-4.1,2.1-15.3,2-24.6c-1.8-6.1-7.7-5.3-13.2-5.7c-6.2,0.5-8.4-6.4-0.2-6.4c8,0,23.1,0.9,42.7-1.1c5.9,0.4,6.2,5.5-0.9,6.4
		c-3,0.5-9.4,0.5-10.3,5.5c-0.7,26.3,5.3,28.8-14.4,36c-25.3,5.9-52.5,3.2-67.8-11.6C388.8,329.2,380.2,315.3,380.8,298.7
		L380.8,298.7z M315.6,316.2c2.8-28.3,26.3-35.1,38.5-35.1c14.4,0.4,19,5.2,19.2,10c0,4.8-3.4,7.3-7.1,6.2c-7.8-2-6.2-10.3-16.7-11
		c-11.9,1.8-19.2,15.1-17.1,31.2c2,15.8,17.4,27.8,36.3,18c4.6-0.9,5,2.8,1.2,5.3C335.2,362.1,314.2,331.9,315.6,316.2L315.6,316.2z
		 M208.6,268.5c-0.7-9.6-3.7-6.8-11.2-9.6c-6.1-1.2-6.6-5.5-0.5-5.9c10.7,0.9,16,1.1,24.9-0.4c4.1,0.7,5.9,2.3,7.3,6.2
		c7.5,15.8,18.3,39.5,25.8,55.4c1.4,2.8,2.1,3.4,3.7-0.4l22.1-56.3c2.5-4.8,5.2-5.9,12.8-5.2c13.4,0.2,16.6-0.2,23.1-0.9
		c5.5,0.2,5.2,4.5-0.4,6.1c-8.5,0-13,3-14.4,9.4l1.2,64.6c1.4,9.6,6.4,10,15.5,12.3c3.9,1.8,3,4.6-0.4,5.5c-18.9-2.1-25.3-2-44-0.2
		c-5.3,0.5-5.7-4.1,0.2-5.3c6.8-1.6,8.5-2.8,10.1-6.4l-1.4-62.3c-0.2-2.5-1.8-2.5-2.7,0.4l-26.3,65.7c-2.5,5.7-3.6,5.7-6.2,1.2
		l-31.2-67.3c-0.9-2.3-2.1-1.6-2.1-0.2l0.2,59.5c0.9,6.9,5.7,7.3,15.5,10.3c2.7,0.9,2.8,3.2,0.5,4.6c-18.9-1.6-22.1-1.6-39.5,0.7
		c-2.8,0-4.1-4.1,0.2-4.6c9.3-2.7,11.9-2.8,13.2-8.2L208.6,268.5L208.6,268.5z"/>
	<path class="st0" d="M24,315.8c-5.7-20.5-2.3-39.5-2.3-62.7C42.3,243,62.6,242,84.7,242c19.2,0,46.3,2.5,62.7,11.2
		c1.6,21.7,2.5,40.8-3,65.5c-5.5,24.6-21.7,58.7-58.7,83.9C45.2,376.2,32,344.1,24,315.8L24,315.8z"/>
	<path class="st1" d="M43.4,285.7l-19.8,21.5c4.5,20.8,16.7,64.3,62,93.6c44.7-30.8,56.6-73,59.3-94l-19.2-21.4l-21.5,21.7
		l-19.6-21.5l-19.8,21.4L43.4,285.7L43.4,285.7z"/>
	<path class="st1" d="M52.5,263.8c-0.2,0-0.7-0.4,0-0.5c0.5,0,1.4,0,2.7,1.4c0.4-0.2,1.6-2,2.7-1.4c0,0.2-3.9,8.9-4.3,9.6
		c-1.8-0.9-11.9-1.6-10.9-1.6c0.9,0-9.3,0.4-10.7,1.6c-0.5-0.9-4.5-9.8-4.5-9.8c1.2-0.5,2.5,1.2,2.8,1.4c1.1-1.4,2.1-1.4,2.3-1.4
		c1.1,0.2,0.4,0.4,0.4,0.7c-5,3.9,2.1,8.4,3.7,3.9c6.2,0.7,4.5-4.5,3-5.2c-1.2-0.2-0.5-0.5,0-0.5c0.4-0.2,1.2-0.2,1.2,0.4
		c0-2.8,0.2-4.6,1.6-5.5c1.6,1.1,1.8,2.7,1.6,5.5c0.2-0.5,0.9-0.4,1.4-0.4c0.2,0.4,1.2,0.4,0.2,0.7c-1.6,0.5-3.2,5.9,3,5
		C50.3,272.2,57.8,267.2,52.5,263.8L52.5,263.8z M48.4,269l1.8,2.1l-3.6-0.5L48.4,269L48.4,269z M42.7,266.5l2.3,4.1h-4.5
		L42.7,266.5L42.7,266.5z M37.2,269l-1.8,2.1l3.6-0.5L37.2,269L37.2,269z"/>
	<path class="st1" d="M34.5,277.7c-0.7-1.1-1.4-3.2-2-3.7c1.8-1.4,8.2-1.6,10.5-1.6c3.4,0,8.2,0.5,9.8,1.6c0,0-0.7,2.5-1.4,4.1
		c-2.7-1.1-6.4-1.4-8.7-1.4C39.8,276.7,36.6,277,34.5,277.7L34.5,277.7z M50.5,274.4c0.5,0,1.1,0.7,1.1,1.1c0,0.7-0.5,1.2-1.1,1.2
		c-0.5,0-1.2-0.5-1.2-1.2C49.3,275.1,50,274.4,50.5,274.4L50.5,274.4z M46.8,273.6c0.5,0,1.1,0.5,1.1,1.1s-0.5,1.2-1.1,1.2
		c-0.5,0-1.2-0.7-1.2-1.2S46.2,273.6,46.8,273.6L46.8,273.6z M42.7,273.3c0.7,0,1.2,0.5,1.2,1.1c0,0.7-0.5,1.2-1.2,1.2
		c-0.4,0-1.1-0.5-1.1-1.2C41.6,273.8,42.3,273.3,42.7,273.3L42.7,273.3z M38.8,273.6c0.7,0,1.2,0.5,1.2,1.1s-0.5,1.2-1.2,1.2
		c-0.5,0-1.1-0.7-1.1-1.2S38.2,273.6,38.8,273.6L38.8,273.6z M35.2,274.4c0.5,0,1.2,0.7,1.2,1.1c0,0.7-0.7,1.2-1.2,1.2
		c-0.5,0-1.2-0.5-1.2-1.2C34,275.1,34.7,274.4,35.2,274.4L35.2,274.4z"/>
	<path class="st1" d="M42.9,277.4c4.5,0,8.5,0.9,8.5,1.4c0,0.4-3.6,0.7-8.2,0.7c-4.5,0-8.4-0.4-8.4-0.7
		C34.8,278.3,38.4,277.4,42.9,277.4L42.9,277.4z"/>
	<path class="st1" d="M137,263.8c-0.2,0-0.7-0.4,0-0.5c0.4,0,1.4,0,2.5,1.4c0.5-0.2,1.6-2,2.8-1.4c0,0.2-3.9,8.9-4.4,9.6
		c-1.6-0.9-11.8-1.6-10.9-1.6c0.9,0-9.1,0.4-10.7,1.6c-0.5-0.9-4.5-9.8-4.5-9.8c1.2-0.5,2.5,1.2,3,1.4c0.9-1.4,2-1.4,2.1-1.4
		c1.1,0.2,0.4,0.4,0.4,0.7c-4.8,3.9,2.1,8.4,3.7,3.9c6.2,0.7,4.5-4.5,3-5.2c-1.2-0.2-0.4-0.5,0-0.5c0.5-0.2,1.2-0.2,1.2,0.4
		c0-2.8,0.2-4.6,1.6-5.5c1.6,1.1,1.8,2.7,1.6,5.5c0.2-0.5,0.9-0.4,1.6-0.4c0.2,0.4,1.1,0.4,0.2,0.7c-1.8,0.5-3.4,5.9,2.8,5
		C134.7,272.2,142.2,267.2,137,263.8L137,263.8z M132.8,269l2,2.1l-3.6-0.5L132.8,269L132.8,269z M127.1,266.5l2.3,4.1h-4.3
		L127.1,266.5L127.1,266.5z M121.5,269l-1.8,2.1l3.6-0.5L121.5,269L121.5,269z"/>
	<path class="st1" d="M119,277.7c-0.7-1.1-1.6-3.2-2-3.7c1.6-1.4,8-1.6,10.3-1.6c3.6,0,8.2,0.5,9.8,1.6c0,0-0.7,2.5-1.2,4.1
		c-2.8-1.1-6.4-1.4-8.9-1.4C124.4,276.7,121.2,277,119,277.7L119,277.7z M134.9,274.4c0.5,0,1.2,0.7,1.2,1.1c0,0.7-0.7,1.2-1.2,1.2
		c-0.5,0-1.1-0.5-1.1-1.2C133.8,275.1,134.4,274.4,134.9,274.4L134.9,274.4z M131.2,273.6c0.5,0,1.2,0.5,1.2,1.1s-0.7,1.2-1.2,1.2
		c-0.5,0-1.1-0.7-1.1-1.2S130.6,273.6,131.2,273.6L131.2,273.6z M127.2,273.3c0.5,0,1.1,0.5,1.1,1.1c0,0.7-0.5,1.2-1.1,1.2
		c-0.5,0-1.2-0.5-1.2-1.2C126,273.8,126.7,273.3,127.2,273.3L127.2,273.3z M123.1,273.6c0.7,0,1.2,0.5,1.2,1.1s-0.5,1.2-1.2,1.2
		c-0.4,0-1.1-0.7-1.1-1.2S122.8,273.6,123.1,273.6L123.1,273.6z M119.6,274.4c0.5,0,1.2,0.7,1.2,1.1c0,0.7-0.7,1.2-1.2,1.2
		c-0.5,0-1.1-0.5-1.1-1.2C118.5,275.1,119,274.4,119.6,274.4L119.6,274.4z"/>
	<path class="st1" d="M127.2,277.4c4.5,0,8.5,0.9,8.5,1.4c0,0.4-3.6,0.7-8.2,0.7c-4.5,0-8.4-0.4-8.4-0.7
		C119.2,278.3,122.8,277.4,127.2,277.4L127.2,277.4z"/>
	<path class="st0" d="M40.7,325.6c0.4-0.7,0.9-2.7,1.2-3.2c-0.4-0.7-0.9-1.4-1.6-1.4c0.4-0.7,1.4-1.6,1.2-2.1
		c-0.2-0.7-0.7-0.5-2-1.1c0.4-0.9,1.4-1.4,1.8-1.4c0.7-0.2,0.7-1.1,2-1.6c1.1-0.7,2.3-0.7,3.6-0.7c2,0.2,6.9,1.6,5.7,7.7
		c2.8,6.1,13.5-2.1,17.1-2.1c-0.7,1.4-1.4,2.8-2.3,4.1c1.1,0.7,2.3,0,3.6,0c-1.2,3.4-3.2,4.8-4.8,6.1c1.6,5.5,7.8,3.4,13.5,2.7
		c-0.7,1.8-3,2.1-4.1,3.6c2,2,4.1,4.6,5.3,7.3c-2.5-1.6-7.7-3.4-9.4-4.1c-3.2-1.2-10.1-1.2-13.5,0c0.7,1.4,2,2,3,2.8
		c-1.6,3.2-5.2,1.2-7.1,0.7c-1.8,1.2-5,1.2-5.7,0.5c0,0,0-0.7,0.9-1.6c0.7-0.9-2-1.1-2.8-2.5c0-1.1,1.6,0,2.1-1.2
		C46.8,334.5,39.6,333.8,40.7,325.6L40.7,325.6z M45.5,316c0.4,0,0.5,0.4,0.5,0.7c0,0.4-0.2,0.7-0.5,0.7c-0.4,0-0.7-0.4-0.7-0.7
		C44.8,316.4,45.2,316,45.5,316L45.5,316z"/>
	<path class="st0" d="M88.6,326.5c0.2-0.5,0.9-2.5,1.4-3.2c-0.5-0.7-1.2-1.4-1.6-1.4c0.2-0.7,1.4-1.6,1.1-2.1
		c-0.2-0.5-0.7-0.4-1.8-1.1c0.4-0.9,1.1-1.4,1.8-1.4c0.7,0,0.7-1.1,1.6-1.8c1.2-0.4,2.5-0.4,3.9-0.5c1.8,0.2,6.9,1.6,5.5,7.7
		c3,6.1,13.5-2.1,17.3-2.1c-0.7,1.4-1.8,2.8-2.3,4.1c0.9,0.7,2.3,0,3.4,0c-1.1,3.4-3.2,4.8-4.8,6.2c1.6,5.2,8,3.2,13.5,2.5
		c-0.5,2-2.8,2.1-4.1,3.6c2,2,4.1,4.6,5.5,7.5c-2.5-1.8-7.8-3.6-9.4-4.3c-3.6-1.2-10.3-1.2-13.7,0c0.7,1.4,2.1,2.1,3,2.7
		c-1.8,3.6-5,1.6-6.9,0.9c-2,1.2-5,1.2-5.9,0.7c0,0,0-1.1,1.1-1.8c0.5-0.9-2-1.1-2.8-2.5c0-1.2,1.2,0,2.1-1.2
		C94.7,335.4,87.7,334.7,88.6,326.5L88.6,326.5z M93.2,317.1c0.5,0,0.7,0.2,0.7,0.5c0,0.4-0.2,0.7-0.7,0.7c-0.4,0-0.5-0.4-0.5-0.7
		C92.7,317.3,92.9,317.1,93.2,317.1L93.2,317.1z"/>
	<path class="st0" d="M65.6,360.7c0.4-0.7,0.9-2.7,1.4-3.4c-0.5-0.5-1.1-1.4-1.6-1.4c0.2-0.7,1.2-1.4,1.1-2c-0.2-0.7-0.5-0.5-2-1.2
		c0.5-0.7,1.4-1.2,2-1.4c0.7,0,0.7-0.9,1.8-1.6c1.1-0.5,2.5-0.5,3.7-0.7c1.8,0.2,6.8,1.6,5.5,7.8c2.8,5.9,13.7-2.1,17.3-2.1
		c-0.7,1.2-1.6,2.7-2.3,4.1c1.1,0.7,2.3,0,3.4,0c-1.1,3.2-3,4.6-4.6,6.1c1.6,5.3,7.8,3.4,13.5,2.7c-0.7,1.8-3,2-4.1,3.4
		c2,2.1,4.1,4.6,5.3,7.5c-2.5-1.6-7.7-3.4-9.4-4.1c-3.4-1.2-10.1-1.2-13.7,0c0.7,1.2,2,2,3.2,2.7c-1.8,3.4-5.2,1.4-7.3,0.7
		c-1.6,1.4-4.8,1.4-5.7,0.7c0,0,0-0.9,1.1-1.6c0.7-1.1-2-1.2-2.8-2.5c0-1.2,1.4,0,2.1-1.2C71.7,369.4,64.6,368.7,65.6,360.7
		L65.6,360.7z M70.6,351.1c0.2,0,0.5,0.2,0.5,0.7c0,0.2-0.4,0.5-0.5,0.5c-0.5,0-0.9-0.4-0.9-0.5C69.7,351.3,70.1,351.1,70.6,351.1
		L70.6,351.1z"/>
	<path class="st1" d="M70.4,250.9c0,0,3,1.2,5.7,0.2c3-1.2,5.9-2,8-0.9V276c-1.8-0.7-4.3-0.4-7.1,0.4c-2.7,0.5-4.3,0.7-6.6,0.2
		V250.9L70.4,250.9z M79,269.9c0-0.9,0.7-1.1,1.1-1.1c0.4,0,0.9,0.2,0.9,1.1c0,1.1-0.5,1.4-0.9,1.4C79.7,271.3,79,271,79,269.9
		L79,269.9z M78.3,269.9c0,1.8,1.2,2,1.8,2c0.4,0,1.6-0.2,1.6-2c0-1.6-1.2-1.8-1.6-1.8C79.5,268.1,78.3,268.3,78.3,269.9L78.3,269.9
		z M76.9,270.8L76.9,270.8l-1.2-2.5h-0.9v3.6h0.7v-2.5l1.4,2.5h0.7v-3.6h-0.7V270.8L76.9,270.8z M73.3,272.2H74v-3.6h-0.7V272.2
		L73.3,272.2z M82.2,260.6h-1.1l-0.5,2.7l-0.7-2.7h-1.1v3.6h0.7v-2.8l0.7,2.8H81l0.7-2.8v2.8h0.5V260.6L82.2,260.6z M75.8,262.8
		c0-1.1,0.5-1.2,0.9-1.2c0.4,0,0.9,0.2,0.9,1.2c0,0.9-0.5,1.2-0.9,1.2C76.3,264,75.8,263.7,75.8,262.8L75.8,262.8z M75.1,262.8
		c0,1.6,1.1,1.8,1.6,1.8c0.4,0,1.6-0.2,1.6-1.8c0-1.6-1.2-1.8-1.6-1.8C76.1,261,75.1,261.2,75.1,262.8L75.1,262.8z M72.4,261.9h0.7
		c0.4,0,0.7,0.2,0.7,1.2c0,0.5-0.2,1.1-0.7,1.1h-0.7V261.9L72.4,261.9z M71.7,264.9h1.4c1.2,0,1.4-1.2,1.4-1.8
		c0-0.7-0.2-1.8-1.2-1.8h-1.6V264.9L71.7,264.9z M78.3,256.5L78.3,256.5l-1.4-2.5h-0.7v3.4h0.5v-2.3l1.4,2.3h0.7v-3.4h-0.5V256.5
		L78.3,256.5z M74.4,257.6h0.7v-3.4h-0.7V257.6L74.4,257.6z"/>
	<polygon class="st1" points="69.7,250.9 67.2,252.8 67.2,278.8 69.7,276.5 69.7,250.9 	"/>
	<path class="st1" d="M68,279.2l2.5-2c1.8,0.5,5.5-0.2,7.3-0.5c3-0.4,4.3-1.1,6.4,0c-1.2,0.5-2,1.6-2,2.5H68L68,279.2z"/>
	<path class="st1" d="M100.9,279.2l-2.3-2c-2,0.5-5.5-0.2-7.3-0.5c-3.2-0.4-4.3-1.1-6.1,0c0.9,0.5,1.6,1.6,1.4,2.5H100.9
		L100.9,279.2z"/>
	<polygon class="st1" points="99.3,250.5 101.6,252.8 101.6,278.4 99.3,276.3 99.3,250.5 	"/>
	<path class="st1" d="M98.4,250.9c0,0-3,1.2-5.5,0.2c-3.2-1.2-5.9-2-7.7-0.9V276c1.6-0.7,3.7-0.4,6.6,0.4c2.8,0.5,4.5,0.7,6.6,0.2
		V250.9L98.4,250.9z M88.1,271.7h1.4c1.2,0,1.4-1.1,1.4-1.8c0-0.7-0.2-1.6-1.4-1.6h-1.4V271.7L88.1,271.7z M88.8,268.8h0.7
		c0.4,0,0.7,0.2,0.7,1.1c0,0.7-0.2,1.2-0.7,1.2h-0.7V268.8L88.8,268.8z M91.8,270.4c0,1.8,1.2,2,1.8,2c0.4,0,1.6-0.2,1.6-2
		c0-1.6-1.2-1.8-1.6-1.8C93.1,268.7,91.8,268.8,91.8,270.4L91.8,270.4z M92.7,270.4c0-0.9,0.4-1.1,0.9-1.1c0.4,0,0.9,0.2,0.9,1.1
		c0,1.1-0.5,1.2-0.9,1.2C93.1,271.7,92.7,271.5,92.7,270.4L92.7,270.4z M89.9,263.5h1.6v-0.7h-1.6v-0.7h1.8v-0.5h-2.5v3.4h0.7V263.5
		L89.9,263.5z M92.5,264.9h0.7v-3.4h-0.7V264.9L92.5,264.9z M89.3,255.3c0-0.5-0.5-1.2-1.4-1.2c-1.1,0-1.6,0.7-1.6,1.8
		c0,1.2,0.5,2,1.6,2c0.7,0,1.2-0.5,1.4-1.2h-0.7c-0.2,0.4-0.4,0.5-0.7,0.5c-0.7,0-0.9-0.5-0.9-1.2c0-0.9,0.5-1.1,0.9-1.1
		c0.5,0,0.5,0.4,0.7,0.5H89.3L89.3,255.3z M89.9,256.4c0,1.6,1.2,1.8,1.8,1.8c0.4,0,1.6-0.2,1.6-1.8c0-1.6-1.2-1.8-1.6-1.8
		C91.1,254.6,89.9,254.8,89.9,256.4L89.9,256.4z M90.7,256.4c0-1.1,0.5-1.2,0.9-1.2c0.4,0,0.9,0.2,0.9,1.2c0,0.9-0.5,1.2-0.9,1.2
		C91.3,257.6,90.7,257.3,90.7,256.4L90.7,256.4z M95.9,257.1L95.9,257.1l-1.2-2.5h-0.9v3.6h0.7v-2.5l1.4,2.5h0.7v-3.6h-0.7V257.1
		L95.9,257.1z"/>
	<path class="st1" d="M84.7,277.2c-1.1,1.1-1.6,1.1-1.2,2h2.1C85.8,278.3,85.6,277.7,84.7,277.2L84.7,277.2z"/>
</g>
</svg>
