<svg height="512pt" viewBox="0 -57 512.00001 512" width="512pt" xmlns="http://www.w3.org/2000/svg"><path d="m238.988281 361.441406c-.648437 0-1.308593-.070312-1.949219-.199218-.640624-.121094-1.269531-.320313-1.867187-.570313-.613281-.25-1.191406-.558594-1.730469-.917969-.550781-.359375-1.0625-.78125-1.519531-1.242187-1.863281-1.859375-2.933594-4.4375-2.933594-7.066407 0-.652343.070313-1.3125.199219-1.953124.132812-.636719.320312-1.269532.570312-1.867188.25-.609375.5625-1.191406.921876-1.730469.359374-.550781.78125-1.0625 1.238281-1.519531.460937-.460938.972656-.882812 1.519531-1.242188.542969-.359374 1.121094-.667968 1.730469-.917968.601562-.25 1.230469-.449219 1.871093-.582032 1.289063-.257812 2.621094-.257812 3.910157 0 .640625.132813 1.269531.332032 1.867187.582032.601563.25 1.183594.558594 1.730469.917968.542969.359376 1.0625.78125 1.519531 1.242188.460938.460938.871094.96875 1.242188 1.519531.359375.539063.667968 1.117188.917968 1.730469.25.597656.441407 1.230469.570313 1.867188.132813.640624.191406 1.300781.191406 1.953124 0 2.628907-1.0625 5.207032-2.921875 7.066407-.460937.460937-.980468.882812-1.519531 1.242187-.550781.359375-1.128906.667969-1.730469.917969-.597656.25-1.230468.449219-1.867187.570313-.648438.128906-1.300781.199218-1.960938.199218zm0 0"/><path d="m394.726562 211.214844c0-22.753906-18.511718-41.269532-41.269531-41.269532-6.917969 0-13.511719 1.6875-19.320312 4.753907v-42.558594c0-14.957031-12.167969-27.125-27.128907-27.125h-219.289062c-14.957031 0-27.125 12.167969-27.125 27.125v42.558594c-5.8125-3.066407-12.40625-4.753907-19.324219-4.753907-22.753906 0-41.269531 18.515626-41.269531 41.269532 0 16.449218 9.953125 31.21875 24.574219 37.734375v138.277343c0 5.519532 4.476562 10 10 10h51.988281c5.519531 0 10-4.480468 10-10v-25.785156h96.429688c5.523437 0 10-4.476562 10-10 0-5.519531-4.476563-10-10-10h-148.417969v-32.105468h305.578125v32.105468h-61.15625c-5.523438 0-10 4.480469-10 10 0 5.523438 4.476562 10 10 10h9.171875v25.785156c0 5.519532 4.476562 10 10 10h51.984375c5.523437 0 10-4.480468 10-10v-138.277343c14.621094-6.515625 24.574218-21.285157 24.574218-37.734375zm-314.132812-79.074219c0-3.929687 3.195312-7.125 7.125-7.125h219.289062c3.929688 0 7.128907 3.195313 7.128907 7.125v111.671875c-6.601563-4.167969-14.417969-6.585938-22.785157-6.585938h-187.972656c-8.371094 0-16.1875 2.417969-22.785156 6.585938zm-4.03125 229.300781v15.785156h-31.988281v-15.785156zm-39.855469-129.453125c-9.679687-2.109375-16.707031-10.847656-16.707031-20.773437 0-11.726563 9.539062-21.269532 21.269531-21.269532 8.394531 0 15.855469 4.820313 19.324219 12.378907v87.011719h-16.019531v-47.578126c0-4.699218-3.273438-8.765624-7.867188-9.769531zm43.886719 48.023438c0-12.5625 10.21875-22.785157 22.785156-22.785157h187.972656c12.5625 0 22.785157 10.222657 22.785157 22.785157v9.324219h-233.542969zm269.558594 97.214843h-31.984375v-15.785156h31.984375zm7.871094-145.238281c-4.59375 1.003907-7.871094 5.070313-7.871094 9.773438v47.574219h-16.015625v-87.007813c3.464843-7.5625 10.925781-12.382813 19.320312-12.382813 11.726563 0 21.269531 9.542969 21.269531 21.269532 0 9.925781-7.023437 18.664062-16.703124 20.773437zm0 0"/><path d="m511.953125 113.285156-10.003906-104.238281c-.492188-5.132813-4.804688-9.046875-9.957031-9.046875h-95.082032c-5.152344 0-9.464844 3.914062-9.957031 9.046875l-10.003906 104.238281c-.269531 2.804688.65625 5.59375 2.554687 7.679688 1.894532 2.085937 4.582032 3.273437 7.398438 3.273437h47.570312c-.011718.21875-.023437.4375-.023437.65625v217.453125c-20.703125 3.070313-39.128907 15.554688-49.554688 34.113282l-3.296875 5.867187c-1.742187 3.097656-1.707031 6.882813.085938 9.949219 1.792968 3.066406 5.078125 4.949218 8.632812 4.949218h108.269532c3.554687 0 6.839843-1.882812 8.632812-4.949218s1.828125-6.851563.085938-9.949219l-3.296876-5.867187c-10.425781-18.554688-28.851562-31.042969-49.558593-34.113282v-217.453125c0-.222656-.007813-.4375-.019531-.65625h8.671874l.398438 35.605469c.0625 5.484375 4.527344 9.886719 9.996094 9.886719h.113281c5.523437-.0625 9.953125-4.585938 9.890625-10.109375l-.398438-35.378906h18.898438c2.816406 0 5.507812-1.191407 7.402344-3.277344 1.894531-2.085938 2.820312-4.875 2.550781-7.679688zm-31.933594 263.941406h-71.132812c9.039062-9.820312 21.902343-15.617187 35.5625-15.617187 13.664062 0 26.527343 5.796875 35.570312 15.617187zm-82.109375-272.988281 8.085938-84.238281h76.910156l8.085938 84.238281zm0 0"/></svg>