<?xml version="1.0" encoding="utf-8"?>
<!-- Generator: Adobe Illustrator 21.1.0, SVG Export Plug-In . SVG Version: 6.00 Build 0)  -->
<svg version="1.1" id="Layer_1" xmlns="http://www.w3.org/2000/svg" xmlns:xlink="http://www.w3.org/1999/xlink" x="0px" y="0px"
	 viewBox="0 0 26 18" style="enable-background:new 0 0 26 18;" xml:space="preserve">
<style type="text/css">
	.st0{clip-path:url(#SVGID_2_);}
</style>
<g>
	<defs>
		<path id="SVGID_1_" d="M17.5,0.3c-0.4-0.4-0.9-0.4-1.3,0c-0.4,0.3-0.4,0.9,0,1.3l6.6,6.5H0.9C0.4,8.1,0,8.5,0,9
			c0,0.5,0.4,0.9,0.9,0.9h21.9l-6.6,6.5c-0.4,0.4-0.4,0.9,0,1.3c0.4,0.4,1,0.4,1.3,0l8.2-8.1c0.4-0.3,0.4-0.9,0-1.3L17.5,0.3z"/>
	</defs>
	<use xlink:href="#SVGID_1_"  style="overflow:visible;fill-rule:evenodd;clip-rule:evenodd;fill:#3053E4;"/>
	<clipPath id="SVGID_2_">
		<use xlink:href="#SVGID_1_"  style="overflow:visible;"/>
	</clipPath>
	<g class="st0">
		<defs>
			<rect id="SVGID_3_" x="-180.6" y="-634.1" width="387" height="677.8"/>
		</defs>
		<clipPath id="SVGID_4_">
			<use xlink:href="#SVGID_3_"  style="overflow:visible;"/>
		</clipPath>
	</g>
</g>
</svg>
