<?xml version="1.0" encoding="utf-8"?>
<!-- Generator: Adobe Illustrator 21.1.0, SVG Export Plug-In . SVG Version: 6.00 Build 0)  -->
<svg version="1.1" id="Layer_1" xmlns="http://www.w3.org/2000/svg" xmlns:xlink="http://www.w3.org/1999/xlink" x="0px" y="0px"
	 viewBox="0 0 20 95" style="enable-background:new 0 0 20 95;" xml:space="preserve">
<style type="text/css">
	.st0{fill:#FBAE17;}
</style>
<path class="st0" d="M9.9,66.3c3.1,0,7.6-1.7,7.6-5.7c0-15.3,1.8-37.4,1.8-52.7c0-5-4.3-7.9-9.4-7.9C4.6,0,0.4,2.8,0.4,7.9
	c0,15.3,1.8,37.4,1.8,52.7C2.2,64.6,5.8,66.3,9.9,66.3z"/>
<path class="st0" d="M10.1,75.1C4.3,75.1,0,79.7,0,85.1C0,90.4,4.3,95,10.1,95c5.4,0,9.9-4.6,9.9-9.9C20,79.7,15.4,75.1,10.1,75.1z"
	/>
</svg>
