<svg xmlns="http://www.w3.org/2000/svg" width="151" height="151" viewBox="0 0 151 151">
    <g fill="none" fill-rule="evenodd">
        <path fill="#BBC4E5" d="M81.413 80.117H70.378c-1.679 0-3.063-1.378-3.063-3.048 0-1.67 1.384-3.048 3.063-3.048h11.035c1.678 0 3.063 1.378 3.063 3.048 0 1.67-1.385 3.048-3.063 3.048M63.748 76.36c-1.049 0-2.098-.543-2.643-1.545l-5.497-9.519a3.057 3.057 0 0 1 1.133-4.175c1.469-.835 3.357-.334 4.196 1.127l5.497 9.52a3.057 3.057 0 0 1-1.133 4.174c-.504.25-1.007.418-1.553.418M81.413 45.966H70.378c-1.679 0-3.063-1.378-3.063-3.048 0-1.67 1.384-3.047 3.063-3.047h11.035c1.678 0 3.063 1.377 3.063 3.047 0 1.67-1.385 3.048-3.063 3.048"/>
        <path fill="#F1F1F5" d="M81.413 53.439H70.378c-1.679 0-3.063-1.378-3.063-3.048 0-1.67 1.384-3.047 3.063-3.047h11.035c1.678 0 3.063 1.377 3.063 3.047 0 1.67-1.385 3.048-3.063 3.048M81.413 72.644H70.378c-1.679 0-3.063-1.378-3.063-3.048 0-1.67 1.384-3.048 3.063-3.048h11.035c1.678 0 3.063 1.378 3.063 3.048 0 1.67-1.385 3.048-3.063 3.048"/>
        <path fill="#BBC4E5" d="M58.252 59.284a3.102 3.102 0 0 1-1.553-.418 3.057 3.057 0 0 1-1.133-4.175l5.497-9.518c.84-1.462 2.727-1.963 4.196-1.128a3.057 3.057 0 0 1 1.133 4.175l-5.497 9.52c-.545 1.001-1.594 1.544-2.643 1.544M93.497 59.284c-1.05 0-2.098-.543-2.644-1.545l-5.496-9.519a3.057 3.057 0 0 1 1.133-4.175c1.468-.835 3.356-.334 4.195 1.128l5.497 9.518a3.057 3.057 0 0 1-1.133 4.175 2.993 2.993 0 0 1-1.552.418M88 76.36a3.102 3.102 0 0 1-1.552-.418 3.057 3.057 0 0 1-1.133-4.175l5.496-9.519c.84-1.46 2.727-1.962 4.196-1.127a3.057 3.057 0 0 1 1.133 4.175l-5.496 9.519A3.088 3.088 0 0 1 88 76.36"/>
        <path fill="#366CB3" d="M75.874 91.514c7.786 0 14.098 6.28 14.098 14.028S83.66 119.57 75.874 119.57c-7.786 0-14.098-6.28-14.098-14.028 0-7.747 6.312-14.028 14.098-14.028"/>
        <path fill="#F37C20" d="M108.224 13.777c7.786 0 14.098 6.28 14.098 14.028 0 7.747-6.312 14.028-14.098 14.028-7.787 0-14.098-6.28-14.098-14.028 0-7.747 6.311-14.028 14.098-14.028"/>
        <path fill="#FFF" d="M75.874.417c7.786 0 14.098 6.28 14.098 14.028S83.66 28.473 75.874 28.473c-7.786 0-14.098-6.28-14.098-14.028 0-7.747 6.312-14.028 14.098-14.028M30.098 46.05c7.786 0 14.098 6.28 14.098 14.027 0 7.748-6.312 14.028-14.098 14.028-7.786 0-14.098-6.28-14.098-14.028 0-7.747 6.312-14.027 14.098-14.027M121.65 46.05c7.787 0 14.099 6.28 14.099 14.027 0 7.748-6.312 14.028-14.099 14.028-7.786 0-14.098-6.28-14.098-14.028 0-7.747 6.312-14.027 14.098-14.027M43.524 78.155c7.787 0 14.098 6.28 14.098 14.027 0 7.748-6.311 14.028-14.098 14.028-7.786 0-14.097-6.28-14.097-14.028 0-7.747 6.311-14.027 14.097-14.027M108.224 78.155c7.786 0 14.098 6.28 14.098 14.027 0 7.748-6.312 14.028-14.098 14.028-7.787 0-14.098-6.28-14.098-14.028 0-7.747 6.311-14.027 14.098-14.027"/>
        <path fill="#FBAE17" d="M43.524 13.777c7.787 0 14.098 6.28 14.098 14.028 0 7.747-6.311 14.028-14.098 14.028-7.786 0-14.097-6.28-14.097-14.028 0-7.747 6.311-14.028 14.097-14.028"/>
    </g>
</svg>
