<?xml version="1.0" encoding="utf-8"?>
<!-- Generator: Adobe Illustrator 21.1.0, SVG Export Plug-In . SVG Version: 6.00 Build 0)  -->
<svg version="1.1" id="Layer_1" xmlns="http://www.w3.org/2000/svg" xmlns:xlink="http://www.w3.org/1999/xlink" x="0px" y="0px"
	 viewBox="0 0 240 240" style="enable-background:new 0 0 240 240;" xml:space="preserve">
<style type="text/css">
	.st0{fill-rule:evenodd;clip-rule:evenodd;fill:#FFFFFF;}
	.st1{clip-path:url(#SVGID_2_);}
	.st2{clip-path:url(#SVGID_4_);fill:#5470E4;}
	.st3{clip-path:url(#SVGID_6_);}
	.st4{clip-path:url(#SVGID_8_);fill:#BBC4E5;}
	.st5{clip-path:url(#SVGID_10_);}
	.st6{clip-path:url(#SVGID_12_);fill:#F37C20;}
	.st7{clip-path:url(#SVGID_14_);}
	.st8{clip-path:url(#SVGID_16_);fill:#366CB3;}
	.st9{clip-path:url(#SVGID_18_);}
	.st10{clip-path:url(#SVGID_20_);fill:#F0B40B;}
</style>
<path class="st0" d="M120,0c66.3,0,120,53.7,120,120s-53.7,120-120,120S0,186.3,0,120S53.7,0,120,0"/>
<g>
	<defs>
		<path id="SVGID_1_" d="M212.2,115.9c-0.2-0.3-0.4-0.5-0.6-0.8c-1.6-1.6-3.5-2.5-5.8-2.6c-2.6-0.1-5.4,0.9-8.2,2.9
			c-0.3,0.2-0.6,0.4-0.8,0.6c-0.8,0.6-1.7,1.4-2.5,2.2c-0.5,0.5-1.1,1.1-1.6,1.7c-0.4,0.5-0.9,1-1.4,1.6c-2.3,2.5-5.4,5.8-7.8,8.2
			c0.2-1.4,0.4-3.1,0.6-5c0.1-0.5,0.1-1,0.2-1.4c0.2-1.5,0.4-3.1,0.6-4.7c0.1-0.6,0.1-1.1,0.2-1.7c0.4-3.4,0.9-7,1.3-10.7
			c0.1-1.2,0.3-2.4,0.4-3.7c0.4-3.6,0.8-7.2,1.2-10.6c0.1-0.6,0.1-1.1,0.2-1.6c0.2-1.6,0.3-3.1,0.5-4.5c0-0.5,0.1-0.9,0.1-1.4
			c0.2-1.8,0.3-3.4,0.4-4.6c0.3-4.6-0.1-8-0.9-10.7c-0.1-0.2-0.1-0.5-0.2-0.7c-0.9-2.7-2.3-4.4-3.9-5.5c-1-0.7-2.1-1.2-3.1-1.4
			c-0.5-0.1-0.9-0.2-1.4-0.2c-0.5,0-0.9,0-1.4,0.1c-0.9,0.2-1.8,0.6-2.7,1.1c-0.1,0.1-0.3,0.2-0.4,0.3c-0.1,0.1-0.3,0.2-0.4,0.3
			c-0.3,0.2-0.6,0.5-0.9,0.8c-0.3,0.3-0.6,0.7-0.9,1.1c-0.9,1.2-1.7,2.7-2.4,4.8c-0.1,0.3-0.2,0.7-0.3,1.1c-0.3,1.1-0.6,2.4-0.8,3.8
			c-0.7,4.7-2,12-3.1,18.5c0,0.1,0,0.2-0.1,0.3c-0.1,0.7-0.2,1.3-0.3,2c0,0.1,0,0.2-0.1,0.3c-0.1,0.6-0.2,1.3-0.3,1.9
			c-0.1,0.5-0.2,0.9-0.3,1.4c-0.1,0.6-0.2,1.2-0.3,1.8c-0.2,1-0.3,1.9-0.5,2.7c-0.1,0.5-0.2,1.1-0.3,1.5c-0.1,0.5-0.2,0.9-0.2,1.3
			c0,0.2-0.1,0.4-0.1,0.5c0,0.2-0.1,0.4-0.2,0.5c-0.1,0.1-0.2,0.2-0.2,0.2c-0.1,0-0.4-0.3-0.4-0.8V59.2c0-13.9-7.7-15-10-15
			c-0.5,0-1.1,0.1-1.6,0.2c-0.4,0.1-0.8,0.2-1.2,0.3c-4.3,1.6-7.2,7.1-7.2,14.1v48.2c0,0.5-0.3,0.8-0.3,0.8c-0.1,0-0.3-0.2-0.3-0.5
			c-0.4-2.1-1-5.7-1.7-9.9c-1.4-8.5-3.1-19.2-3.7-23.1c-1.3-8.8-3.4-13.8-6.7-16c-1.7-1.1-3.6-1.4-5.7-0.8
			c-7.8,2.1-6.6,11.1-5.3,20.8c0.1,0.8,0.2,1.5,0.3,2.4c1.1,8.2,2.8,18.7,3.8,25.2c0.3,1.9,0.5,3.5,0.7,4.6c0.1,0.5-0.2,0.9-0.3,0.9
			c0,0-0.2-0.1-0.3-0.4c-1.8-5.7-6.2-19.1-9.1-26.7c-0.2-0.4-0.3-0.8-0.5-1.2c-2-5-4.5-8-7.4-9c-1.3-0.4-2.6-0.4-3.9-0.1
			c-0.6,0.2-1.1,0.4-1.7,0.8c-6.1,3.6-4.6,10.8,0.3,26.2c1.1,3.3,2,6.5,2.9,9.6c0.9,3.2,1.8,6.2,2.5,9.2c5.8,22.4,7.4,37.3,7.5,38.5
			v81.5c1.9,0.1,3.9,0.1,5.8,0.1c4.4,0,8.8-0.2,13.1-0.7c5.9-0.6,11.6-1.7,17.2-3.2c11.3-2.9,22-7.5,31.8-13.4v-51.9
			c0-3.1,1.1-5.9,3-7.9c7-7.2,18.4-18.4,24-24.4C216.3,131,217.2,122.4,212.2,115.9"/>
	</defs>
	<clipPath id="SVGID_2_">
		<use xlink:href="#SVGID_1_"  style="overflow:visible;"/>
	</clipPath>
	<g class="st1">
		<defs>
			<rect id="SVGID_3_" x="-68" y="-206" width="375" height="667"/>
		</defs>
		<clipPath id="SVGID_4_">
			<use xlink:href="#SVGID_3_"  style="overflow:visible;"/>
		</clipPath>
		<rect x="91.9" y="39.3" class="st2" width="128.4" height="205.7"/>
	</g>
</g>
<g>
	<defs>
		<path id="SVGID_5_" d="M150.3,105.7c0-0.2,0-0.3,0-0.5c0-0.1,0-0.1,0-0.2c0-0.2,0-0.3,0-0.4c0-0.1,0-0.1,0-0.2
			c-0.1-0.5-0.1-1-0.3-1.4c0-0.1,0-0.1,0-0.2c0-0.1-0.1-0.2-0.1-0.3c0-0.1,0-0.2-0.1-0.2c0-0.1-0.1-0.2-0.1-0.3
			c0-0.1-0.1-0.2-0.1-0.2c0-0.1-0.1-0.2-0.1-0.3c0-0.1-0.1-0.2-0.1-0.2c0-0.1-0.1-0.2-0.1-0.3c0-0.1-0.1-0.2-0.1-0.2
			c-0.1-0.1-0.1-0.2-0.2-0.2c-0.1-0.1-0.1-0.1-0.2-0.2c-0.1-0.1-0.1-0.2-0.2-0.2c-0.1-0.1-0.1-0.1-0.2-0.2c-0.1-0.1-0.1-0.1-0.2-0.2
			c-0.1-0.1-0.1-0.1-0.2-0.2c-0.1-0.1-0.1-0.1-0.2-0.2c-0.1-0.1-0.2-0.1-0.2-0.2c-0.1-0.1-0.1-0.1-0.2-0.2c-0.1-0.1-0.2-0.1-0.3-0.2
			c-0.1,0-0.1-0.1-0.2-0.1c-0.2-0.1-0.3-0.2-0.5-0.3c-0.2-0.1-0.4-0.2-0.6-0.3c0,0,0,0-0.1,0c-0.2-0.1-0.4-0.2-0.6-0.3
			c0,0-0.1,0-0.1,0c-0.2-0.1-0.4-0.1-0.6-0.2c0,0-0.1,0-0.1,0c-0.2,0-0.3-0.1-0.5-0.1c-0.1,0-0.1,0-0.2,0c-0.1,0-0.3,0-0.4,0
			c0,0-0.1,0-0.1,0c-0.1,0-0.2,0-0.3,0c-0.1,0-0.2,0-0.4,0c-0.1,0-0.2,0-0.3,0c-0.2,0-0.3,0-0.4,0.1c-0.1,0-0.1,0-0.2,0
			c-0.2,0-0.4,0.1-0.6,0.2c0,0,0,0,0,0c0,0,0,0-0.1,0c-0.2,0.1-0.3,0.1-0.5,0.2c0,0,0,0-0.1,0c-0.2,0.1-0.3,0.1-0.5,0.2
			c0,0,0,0-0.1,0c-0.1,0.1-0.3,0.2-0.4,0.3c0,0-0.1,0-0.1,0.1c-0.1,0.1-0.3,0.2-0.4,0.3c0,0-0.1,0.1-0.1,0.1
			c-0.1,0.1-0.3,0.2-0.4,0.3c0,0-0.1,0.1-0.1,0.1c-0.1,0.1-0.2,0.2-0.4,0.3c0,0-0.1,0.1-0.1,0.1c-0.1,0.1-0.2,0.2-0.3,0.3
			c-0.1,0.1-0.1,0.1-0.2,0.2c-0.1,0.1-0.2,0.2-0.3,0.4c-0.1,0.1-0.1,0.2-0.2,0.2c-0.1,0.1-0.2,0.2-0.3,0.3c-0.1,0.1-0.1,0.2-0.2,0.3
			c-0.1,0.1-0.2,0.2-0.2,0.3c-0.1,0.1-0.2,0.2-0.2,0.4c-0.1,0.1-0.1,0.2-0.2,0.3c-0.1,0.1-0.2,0.3-0.2,0.4c-0.1,0.1-0.1,0.2-0.2,0.3
			c-0.1,0.2-0.2,0.3-0.3,0.5c0,0.1-0.1,0.2-0.1,0.3c-0.1,0.2-0.2,0.4-0.3,0.6c0,0.1-0.1,0.2-0.1,0.2c-0.1,0.2-0.2,0.5-0.3,0.7
			c0,0,0,0.1-0.1,0.1c-0.1,0.3-0.3,0.6-0.4,0.9c-2.9,7.2-7.6,21.9-9.5,27.8c-0.1,0.3-0.3,0.4-0.3,0.4c-0.1,0-0.3-0.3-0.3-0.8
			c0,0,0-0.1,0-0.1c0,0,0,0,0,0c0.2-1.2,0.4-2.8,0.7-4.6c0.1-0.7,0.2-1.4,0.3-2.1c0.2-1,0.3-2.1,0.5-3.2c0.1-0.6,0.2-1.1,0.3-1.7
			c0-0.3,0.1-0.6,0.1-0.9c0.2-1.5,0.5-3,0.7-4.5c0-0.3,0.1-0.6,0.1-0.9c0.2-1.2,0.4-2.5,0.6-3.7c0-0.3,0.1-0.6,0.1-0.9
			c0.5-3.1,0.9-6.1,1.2-8.8c0-0.3,0.1-0.5,0.1-0.8c0.5-3.6,0.9-7.1,0.9-10.2c0-4.9-1.3-8.8-5.5-10.3c-0.2-0.1-0.5-0.1-0.7-0.2
			c-0.3-0.1-0.5-0.1-0.8-0.2c-0.1,0-0.1,0-0.2,0c-0.2,0-0.4-0.1-0.6-0.1c-0.1,0-0.1,0-0.2,0c-0.2,0-0.4,0-0.6,0c-0.1,0-0.1,0-0.2,0
			c-0.2,0-0.4,0-0.6,0.1c0,0,0,0,0,0c-0.1,0-0.1,0-0.2,0c-0.1,0-0.3,0.1-0.4,0.1c-0.2,0-0.3,0.1-0.5,0.2c-0.1,0-0.1,0-0.2,0.1
			c-0.2,0.1-0.4,0.2-0.6,0.3c0,0,0,0,0,0c-0.2,0.1-0.4,0.2-0.6,0.4c0,0,0,0,0,0c-0.2,0.1-0.4,0.3-0.6,0.5c-0.1,0.1-0.2,0.1-0.2,0.2
			c-0.1,0.1-0.3,0.2-0.4,0.4c-0.1,0.1-0.2,0.2-0.2,0.3c-0.1,0.1-0.2,0.3-0.4,0.4c-0.1,0.1-0.2,0.2-0.2,0.3c-0.1,0.2-0.2,0.3-0.3,0.5
			c0,0.1-0.1,0.1-0.1,0.2c0,0.1-0.1,0.1-0.1,0.2c0,0.1-0.1,0.1-0.1,0.2c-0.1,0.2-0.3,0.4-0.4,0.7c0,0,0,0,0,0
			c-0.1,0.3-0.3,0.5-0.4,0.8c0,0,0,0.1,0,0.1c-0.1,0.3-0.3,0.5-0.4,0.8c0,0,0,0.1,0,0.1c-0.3,0.6-0.5,1.3-0.7,2c0,0.1,0,0.1-0.1,0.2
			c-0.2,0.7-0.4,1.5-0.6,2.3c0,0.1,0,0.2-0.1,0.2c-0.1,0.3-0.2,0.7-0.2,1c0,0.1,0,0.2-0.1,0.2c-0.1,0.4-0.2,0.8-0.3,1.3
			c0,0.1,0,0.2,0,0.2c-0.1,0.4-0.1,0.7-0.2,1.1c0,0.1,0,0.3-0.1,0.4c-0.1,0.5-0.2,0.9-0.2,1.4c0,0,0,0.1,0,0.1c0,0.1,0,0.2,0,0.3
			c-0.6,4.1-2.1,13.7-3.5,21.8c-0.7,4.5-1.4,8.6-1.9,10.8c0,0.2-0.1,0.3-0.2,0.4c0,0,0,0,0,0c0,0,0,0,0,0c-0.1,0.1-0.1,0.1-0.1,0.1
			c-0.1,0-0.3-0.2-0.3-0.8V82.2c0,0,0,0,0,0c0-0.4,0-0.8,0-1.2c0-0.1,0-0.3,0-0.4c0-0.3,0-0.5-0.1-0.8c0-0.2,0-0.3-0.1-0.5
			c0-0.2-0.1-0.5-0.1-0.7c0-0.2-0.1-0.3-0.1-0.5c0-0.2-0.1-0.4-0.1-0.6c0-0.2-0.1-0.3-0.1-0.5c0-0.2-0.1-0.4-0.1-0.6
			c0-0.2-0.1-0.3-0.1-0.5c0-0.2-0.1-0.3-0.2-0.5c-0.1-0.2-0.1-0.4-0.2-0.5l0,0c-0.2-0.5-0.4-0.9-0.5-1.3c-0.1-0.1-0.1-0.2-0.2-0.4
			c-0.1-0.1-0.2-0.3-0.2-0.4c-0.1-0.1-0.1-0.3-0.2-0.4c-0.1-0.1-0.2-0.3-0.2-0.4c-0.1-0.1-0.2-0.3-0.3-0.4c-0.1-0.2-0.2-0.3-0.3-0.5
			c-0.1-0.2-0.2-0.3-0.4-0.4c-0.1-0.1-0.2-0.2-0.2-0.3c-0.1-0.1-0.2-0.2-0.3-0.3c-0.1-0.1-0.2-0.2-0.3-0.3c-0.1-0.1-0.3-0.2-0.4-0.3
			c-0.1-0.1-0.1-0.1-0.2-0.2c-0.2-0.2-0.4-0.3-0.6-0.4c-0.1-0.1-0.2-0.1-0.2-0.1c-0.1-0.1-0.3-0.2-0.4-0.3c-0.1,0-0.2-0.1-0.3-0.1
			c-0.2-0.1-0.3-0.1-0.5-0.2c-0.1,0-0.1-0.1-0.2-0.1v0c-0.9-0.3-1.8-0.5-2.8-0.5c-2.3,0-10,1.1-10,15v47.6c0,0.5-0.3,0.8-0.4,0.8
			c-0.1,0-0.3-0.2-0.4-0.6c-1-5.3-4.2-23.4-5.6-32.3c-1.2-7.5-3.9-10.8-6.1-12.2c-1.7-1.1-3.6-1.5-5.5-1c-4.1,1-8.9,5.1-8.1,18.4
			c0.7,10.3,4.2,38.5,5.7,49.9c-3-3-7.1-7.3-9.2-9.8c-4.3-4.9-9-7.6-13.1-7.5c-2.6,0.1-4.8,1.2-6.4,3.4c-5,6.5-4.2,15,3,22.6
			c5.6,5.9,17.1,17.1,24,24.4c1.9,2,3,4.8,3,7.9v32.7c9.9,5.1,20.6,8.8,31.8,11c0.8,0.2,1.7,0.3,2.5,0.5c0.3,0,0.5,0.1,0.8,0.1
			c0.6,0.1,1.2,0.2,1.8,0.3c0.3,0,0.5,0.1,0.8,0.1c0.8,0.1,1.7,0.2,2.5,0.3c0,0,0,0,0,0c0.9,0.1,1.8,0.2,2.6,0.3
			c0.2,0,0.4,0,0.6,0.1c0.7,0.1,1.5,0.1,2.2,0.2c0.2,0,0.3,0,0.5,0c0.9,0.1,1.8,0.1,2.8,0.2c0.9,0,1.8,0.1,2.7,0.1
			c0.1,0,0.1,0,0.2,0c1,0,2,0,2.9,0c4.4,0,8.8-0.2,13.1-0.7v-57.7c0.1-1.5,2.6-24.8,12.9-57.3c0.3-0.9,0.5-1.7,0.8-2.5
			c0-0.1,0.1-0.2,0.1-0.3c0.1-0.3,0.2-0.7,0.3-1c0-0.1,0.1-0.3,0.1-0.4c0.1-0.3,0.2-0.6,0.3-0.9c0-0.2,0.1-0.3,0.1-0.5
			c0.1-0.3,0.1-0.5,0.2-0.8c0.1-0.2,0.1-0.4,0.2-0.5c0.1-0.2,0.1-0.5,0.2-0.7c0.1-0.2,0.1-0.4,0.2-0.6c0.1-0.2,0.1-0.4,0.2-0.6
			c0.1-0.2,0.1-0.4,0.2-0.6c0-0.2,0.1-0.3,0.1-0.5c0.1-0.2,0.1-0.4,0.2-0.7c0-0.1,0.1-0.3,0.1-0.4c0.1-0.2,0.1-0.5,0.2-0.7
			c0-0.1,0.1-0.2,0.1-0.3c0.1-0.3,0.1-0.5,0.2-0.8c0-0.1,0-0.2,0-0.2c0.1-0.3,0.1-0.7,0.2-1c0,0,0,0,0,0c0.2-1,0.3-1.9,0.4-2.8
			c0,0,0,0,0,0c0-0.3,0-0.5,0.1-0.8c0,0,0-0.1,0-0.1c0-0.2,0-0.4,0-0.7c0,0,0,0,0-0.1C150.3,105.8,150.3,105.7,150.3,105.7"/>
	</defs>
	<clipPath id="SVGID_6_">
		<use xlink:href="#SVGID_5_"  style="overflow:visible;"/>
	</clipPath>
	<g class="st3">
		<defs>
			<rect id="SVGID_7_" x="-68" y="-206" width="375" height="667"/>
		</defs>
		<clipPath id="SVGID_8_">
			<use xlink:href="#SVGID_7_"  style="overflow:visible;"/>
		</clipPath>
		<rect x="26.9" y="62.6" class="st4" width="128.4" height="182.4"/>
	</g>
</g>
<g>
	<defs>
		
			<rect id="SVGID_9_" x="78.1" y="30" transform="matrix(0.9405 -0.3398 0.3398 0.9405 -10.4501 30.9347)" width="10.1" height="30.6"/>
	</defs>
	<clipPath id="SVGID_10_">
		<use xlink:href="#SVGID_9_"  style="overflow:visible;"/>
	</clipPath>
	<g class="st5">
		<defs>
			<rect id="SVGID_11_" x="-68" y="-206" width="375" height="667"/>
		</defs>
		<clipPath id="SVGID_12_">
			<use xlink:href="#SVGID_11_"  style="overflow:visible;"/>
		</clipPath>
		<rect x="68.2" y="24.2" class="st6" width="29.8" height="42.2"/>
	</g>
</g>
<g>
	<defs>
		
			<rect id="SVGID_13_" x="96" y="39.9" transform="matrix(0.2622 -0.965 0.965 0.2622 38.7856 140.5122)" width="30.6" height="10.1"/>
	</defs>
	<clipPath id="SVGID_14_">
		<use xlink:href="#SVGID_13_"  style="overflow:visible;"/>
	</clipPath>
	<g class="st7">
		<defs>
			<rect id="SVGID_15_" x="-68" y="-206" width="375" height="667"/>
		</defs>
		<clipPath id="SVGID_16_">
			<use xlink:href="#SVGID_15_"  style="overflow:visible;"/>
		</clipPath>
		<rect x="97.4" y="23.8" class="st8" width="27.7" height="42.1"/>
	</g>
</g>
<g>
	<defs>
		
			<rect id="SVGID_17_" x="55.1" y="49.2" transform="matrix(0.507 -0.8619 0.8619 0.507 -25.967 83.6442)" width="10.1" height="30.6"/>
	</defs>
	<clipPath id="SVGID_18_">
		<use xlink:href="#SVGID_17_"  style="overflow:visible;"/>
	</clipPath>
	<g class="st9">
		<defs>
			<rect id="SVGID_19_" x="-68" y="-206" width="375" height="667"/>
		</defs>
		<clipPath id="SVGID_20_">
			<use xlink:href="#SVGID_19_"  style="overflow:visible;"/>
		</clipPath>
		<rect x="39.4" y="47.4" class="st10" width="41.4" height="34.2"/>
	</g>
</g>
</svg>
