<?xml version="1.0" encoding="UTF-8"?>
<svg width="320px" height="321px" viewBox="0 0 320 321" version="1.1" xmlns="http://www.w3.org/2000/svg" xmlns:xlink="http://www.w3.org/1999/xlink">
    <!-- Generator: Sketch 51.3 (57544) - http://www.bohemiancoding.com/sketch -->
    <title>Group 44</title>
    <desc>Created with Sketch.</desc>
    <defs></defs>
    <g id="WEB" stroke="none" stroke-width="1" fill="none" fill-rule="evenodd">
        <g id="WEB_01_Inital_TypeB" transform="translate(-240.000000, -465.000000)">
            <g id="Group-3" transform="translate(160.000000, 112.000000)">
                <g id="Group-44" transform="translate(80.000000, 353.000000)">
                    <g id="Group-28" transform="translate(5.000000, 6.004990)">
                        <path d="M27.5316491,68.3977544 C32.614846,69.5211852 37.8826823,69.4600546 42.9390565,68.2224717 C27.3757037,64.5384172 16.3790565,50.6542846 16.3522339,34.6623938 C16.3279064,18.6711267 27.2808889,4.75268616 42.8317661,1.01997661 C37.8196803,-0.247547758 32.5780429,-0.318035088 27.5316491,0.812881092 C11.6495439,4.28235478 0.329153996,18.3467602 0.329153996,34.6062534 C0.329153996,50.8613801 11.6495439,64.9257856 27.5316491,68.3977544" id="Fill-4" fill="#FFFFFF"></path>
                        <polygon id="Fill-6" fill="#BBC4E5" points="176.009591 308.676023 293.090292 308.676023 293.090292 175.632749 176.009591 175.632749"></polygon>
                        <polygon id="Fill-8" fill="#F1F1F5" points="176.009591 308.676023 277.125848 308.676023 277.125848 175.632749 176.009591 175.632749"></polygon>
                        <polygon id="Fill-9" fill="#BBC4E5" points="16.3545419 308.676023 176.008343 308.676023 176.008343 175.632749 16.3545419 175.632749"></polygon>
                        <polygon id="Fill-10" fill="#F1F1F5" points="16.3545419 308.676023 160.044522 308.676023 160.044522 175.632749 16.3545419 175.632749"></polygon>
                        <path d="M95.6506043,308.675836 C96.0161404,306.926129 96.1964133,305.142737 96.1820663,303.35685 C96.1745809,293.607766 90.8412476,284.640904 82.2761014,279.981879 C73.7140741,275.322854 63.2900585,275.715212 55.1004288,281.005505 L52.6146589,308.563556 L95.6506043,308.675836 L0.392904483,308.675836" id="Fill-11" fill="#5470E4"></path>
                        <path d="M303.202355,175.632437 L160.04446,175.632437 L174.04025,159.667368 L220.607423,106.448187 L223.906604,102.618168 L233.804148,91.3364522 C235.319938,91.9309162 236.669801,92.8784405 237.743953,94.1016764 L267.224499,127.788382 L271.800561,133.059337 L285.743953,149.021287 L292.505747,156.741209 L305.170386,171.21731 C305.855922,171.994542 306.023096,173.105497 305.600172,174.053645 C305.178495,175.003665 304.242823,175.619961 303.202355,175.632437" id="Fill-12" fill="#BBC4E5"></path>
                        <path d="M233.804211,91.3366394 L220.607485,106.448374 L174.039688,159.667556 L160.044522,175.632624 L6.83001949,175.632624 C5.75586745,175.637614 4.78401559,174.998862 4.36483431,174.007049 C3.94502924,173.017731 4.16210526,171.874963 4.91563353,171.110207 L17.8996491,158.124943 L26.9981287,149.021474 L39.1861988,136.838394 L69.574347,106.448374 L82.3974269,93.6221754 C84.4010136,91.6142222 87.1207018,90.486425 89.9582846,90.4839298 L229.705965,90.4839298 C231.118207,90.4689591 232.517349,90.7590175 233.804211,91.3366394" id="Fill-14" fill="#BBC4E5"></path>
                        <path d="M214.062519,91.3366394 L200.862674,106.448374 L154.29862,159.667556 L140.300335,175.632624 L6.83039376,175.632624 C5.75561793,175.637614 4.78376608,174.998862 4.3645848,174.007049 C3.94540351,173.017731 4.16247953,171.874963 4.91538402,171.110207 L17.9000234,158.124943 L26.9985029,149.021474 L39.1865731,136.838394 L69.5740975,106.448374 L82.3978012,93.6221754 C84.4007641,91.6142222 87.1204522,90.486425 89.9586589,90.4839298 L209.963649,90.4839298 C211.374643,90.4689591 212.773162,90.7590175 214.062519,91.3366394" id="Fill-15" fill="#F1F1F5"></path>
                        <path d="M250.514136,260.781068 L250.514136,308.675649 L207.940991,308.675649 L207.941037,260.781068 C207.922324,252.991283 213.560686,246.34177 221.245053,245.081731 C222.118347,244.884616 223.011602,244.796663 223.906729,244.816 L234.549068,244.816 C243.368094,244.816 250.514136,251.962667 250.514136,260.781068" id="Fill-16" fill="#5470E4"></path>
                        <path d="M234.549193,260.781068 L234.549246,308.675649 L207.941112,308.675649 L207.941162,260.781068 C207.921825,252.991283 213.560811,246.34177 221.245177,245.081731 C228.930791,246.34177 234.569154,252.991283 234.549193,260.781068" id="Fill-17" fill="#BBC4E5"></path>
                        <path d="M250.514136,202.240655 L266.479828,202.240655 C269.420959,202.240655 271.800686,204.623501 271.800686,207.562136 L271.800686,223.5297 C271.800686,226.468335 269.420959,228.848686 266.479828,228.848686 L250.514136,228.848686 C247.575501,228.848686 245.193279,226.468335 245.193279,223.5297 L245.193279,207.562136 C245.193279,204.623501 247.575501,202.240655 250.514136,202.240655" id="Fill-18" fill="#E3E7F2"></path>
                        <path d="M122.792717,202.240655 L138.757786,202.240655 C141.696421,202.240655 144.079267,204.623501 144.079267,207.562136 L144.079267,223.5297 C144.079267,226.468335 141.696421,228.848686 138.757786,228.848686 L122.792717,228.848686 C119.854082,228.848686 117.471236,226.468335 117.471236,223.5297 L117.471236,207.562136 C117.471236,204.623501 119.854082,202.240655 122.792717,202.240655" id="Fill-19" fill="#E3E7F2"></path>
                        <path d="M53.6089669,202.240655 L69.5740351,202.240655 C72.5126706,202.240655 74.8955166,204.623501 74.8955166,207.562136 L74.8955166,223.5297 C74.8955166,226.468335 72.5126706,228.848686 69.5740351,228.848686 L53.6089669,228.848686 C50.6703314,228.848686 48.2874854,226.468335 48.2874854,223.5297 L48.2874854,207.562136 C48.2874854,204.623501 50.6703314,202.240655 53.6089669,202.240655" id="Fill-20" fill="#E3E7F2"></path>
                        <path d="M197.298386,63.8753372 L197.298386,90.4839922 L165.365754,90.4839922 L165.365754,63.8753372 C165.365754,60.9342066 167.749224,58.5513606 170.687236,58.5513606 L191.976281,58.5513606 C194.914916,58.5513606 197.298386,60.9342066 197.298386,63.8753372" id="Fill-21" fill="#E3E7F2"></path>
                        <path d="M181.33101,63.8753372 L181.33101,90.4839922 L165.365318,90.4839922 L165.365318,63.8753372 C165.365318,60.9342066 167.749411,58.5513606 170.687423,58.5513606 L176.009528,58.5513606 C178.950659,58.5513606 181.33101,60.9342066 181.33101,63.8753372" id="Fill-22" fill="#E3E7F2"></path>
                        <path d="M64.2525536,303.3566 C64.2569201,305.139992 64.0966082,306.919018 63.7747368,308.675587 L0.867602339,308.675587 C0.548849903,306.919018 0.38791423,305.139992 0.392904483,303.3566 C0.38791423,288.821864 10.2174659,276.124788 24.2837427,272.489388 C26.9054971,271.782643 29.6077193,271.424593 32.3224172,271.424593 C49.9467446,271.44892 64.2300975,285.729778 64.2525536,303.3566" id="Fill-23" fill="#5470E4"></path>
                        <path d="M48.2876725,303.3566 C48.2901676,305.139992 48.129232,306.919018 47.8073606,308.675587 L0.867789474,308.675587 C0.549037037,306.919018 0.388101365,305.139992 0.393091618,303.3566 C0.388101365,288.821864 10.217653,276.124788 24.2839298,272.489388 C38.4069708,276.071142 48.2926628,288.785684 48.2876725,303.3566" id="Fill-24" fill="#F1F1F5"></path>
                        <path d="M68.4557817,25.9830331 L64.1479454,53.2323119 C55.3389006,67.0771462 38.0196023,72.83777 22.6733255,67.0334815 C7.32517739,61.2242027 -1.839423,45.4425263 0.724319688,29.2335595 C3.2874386,13.0252164 16.8765224,0.842136452 33.2707524,0.0549239766 C49.6593684,-0.732288499 64.3525458,10.0959376 68.4557817,25.9830331" id="Fill-25" fill="#BBC4E5"></path>
                        <path d="M53.6089669,25.9830331 L49.2986355,53.2323119 C44.3401949,60.9709474 36.5111111,66.4265419 27.5317739,68.397692 C11.6496686,64.9257232 0.329278752,50.8613177 0.329278752,34.606191 C0.329278752,18.3466979 11.6496686,4.2822924 27.5317739,0.812818713 C40.2924756,3.58053801 50.3877583,13.3271267 53.6089669,25.9830331" id="Fill-26" fill="#E3E7F2"></path>
                        <path d="M170.687111,21.2998051 C170.670269,27.1702144 165.917053,31.9265497 160.044148,31.9433918 L117.471049,31.9433918 C111.601263,31.962729 106.844928,36.7140741 106.825591,42.5863548 C106.783797,48.4467836 102.044304,53.1887719 96.1820039,53.2324366 L37.6438363,53.2324366 C31.7665653,53.2324366 26.9983782,48.4636257 26.9983782,42.5863548 C27.0420429,36.7265497 31.7840312,31.9870565 37.6438363,31.9433918 L58.930386,31.9433918 C64.8026667,31.9265497 69.5565068,27.1702144 69.5739727,21.2998051 C69.6176374,15.44 74.3571306,10.7005068 80.2169357,10.6568421 L160.044148,10.6568421 C165.917053,10.6736842 170.670269,15.4275244 170.687111,21.2998051" id="Fill-27" fill="#E3E7F2"></path>
                    </g>
                    <g id="Group-43" transform="translate(0.000000, 0.628772)" fill="#3053E4">
                        <path d="M19.3326784,243.433107 C19.6352125,243.586558 19.9589552,243.696343 20.2926784,243.752483 C20.6438674,243.81299 20.999423,243.847298 21.3549786,243.859774 C22.7659727,243.839813 24.1158363,243.287142 25.1344717,242.317162 C25.616655,241.808156 25.9971618,241.210573 26.2529123,240.560593 C27.0569669,238.574472 26.6184483,236.303283 25.1344717,234.758799 C24.6273372,234.275992 24.0303782,233.896109 23.3797739,233.639735 C22.7391501,233.367142 22.0523665,233.221177 21.3549786,233.213692 C19.1941988,233.20184 17.2398908,234.498058 16.4115088,236.496031 C15.5825029,238.494004 16.0434776,240.794511 17.5761092,242.317162 L18.3751735,242.95529 C18.6727173,243.155524 18.9939649,243.318331 19.3326784,243.433107" id="Fill-37"></path>
                        <path d="M255.514074,228.906043 L271.479766,228.906043 L271.479766,212.93848 L255.514074,212.93848 L255.514074,228.906043 Z M255.514074,239.549006 L271.479766,239.549006 C277.357037,239.549006 282.1246,234.783314 282.1246,228.906043 L282.1246,212.93848 C282.1246,207.061209 277.357037,202.294893 271.479766,202.294893 L255.514074,202.294893 C249.636803,202.294893 244.871735,207.061209 244.871735,212.93848 L244.871735,228.906043 C244.871735,234.783314 249.636803,239.549006 255.514074,239.549006 Z" id="Fill-38"></path>
                        <path d="M127.792904,228.906043 L143.757973,228.906043 L143.757973,212.93848 L127.792904,212.93848 L127.792904,228.906043 Z M143.757349,239.549006 C149.637739,239.549006 154.400312,234.783314 154.400312,228.906043 L154.400312,212.93848 C154.400312,207.061209 149.637739,202.294893 143.757349,202.294893 L127.792904,202.294893 C121.912515,202.294893 117.149942,207.061209 117.149942,212.93848 L117.149942,228.906043 C117.149942,234.783314 121.912515,239.549006 127.792904,239.549006 L143.757349,239.549006 Z" id="Fill-39"></path>
                        <path d="M58.6092788,228.906043 L74.574347,228.906043 L74.574347,212.93848 L58.6092788,212.93848 L58.6092788,228.906043 Z M74.574347,239.549006 C80.4541131,239.549006 85.2173099,234.783314 85.2173099,228.906043 L85.2173099,212.93848 C85.2173099,207.061209 80.4541131,202.294893 74.574347,202.294893 L58.6092788,202.294893 C52.7295127,202.294893 47.9663158,207.061209 47.9663158,212.93848 L47.9663158,228.906043 C47.9663158,234.783314 52.7295127,239.549006 58.6092788,239.549006 L74.574347,239.549006 Z" id="Fill-40"></path>
                        <path d="M39.9810994,10.7117037 C52.4785653,10.7017232 63.5800078,18.6767719 67.5616062,30.5236335 C66.5841404,31.4618012 65.2854269,31.990768 63.9305731,31.9982534 L42.6440234,31.9982534 C33.8262456,31.9982534 26.6795789,39.1474152 26.6795789,47.9626979 C26.6795789,56.7810994 33.8262456,63.9277661 42.6440234,63.9277661 L56.7789162,63.9277661 C46.4478441,71.1892086 32.622347,71.0064405 22.4883899,63.4724055 C12.3544327,55.9383704 8.1925614,42.7534971 12.1666745,30.7675322 C16.1432827,18.7815673 27.3563821,10.6967329 39.9810994,10.7117037 M85.2171228,21.3546667 L165.044335,21.3546667 C167.982971,21.3546667 170.365193,23.7375127 170.365193,26.6761481 C170.365193,29.6172788 167.982971,31.9982534 165.044335,31.9982534 L122.471236,31.9982534 C113.652834,31.9982534 106.506168,39.1474152 106.506168,47.9626979 C106.506168,50.9038285 104.123322,53.2848031 101.182191,53.2848031 L42.6440234,53.2848031 C39.7028928,53.2848031 37.3225419,50.9038285 37.3225419,47.9626979 C37.3225419,45.0246862 39.7028928,42.6412164 42.6440234,42.6412164 L63.9305731,42.6412164 C69.7959922,42.619384 75.1711189,39.3788382 77.9269864,34.2008265 C77.9949786,34.0885458 78.0436335,33.9768889 78.1072593,33.8671033 C79.2668694,31.6445692 79.8812943,29.1812554 79.8956413,26.6761481 C79.8956413,23.7375127 82.2784873,21.3546667 85.2171228,21.3546667 M39.9810994,79.8953294 C52.5172398,79.8853489 64.3154464,73.9694035 71.8232827,63.9277661 L101.182191,63.9277661 C110.000593,63.9277661 117.149754,56.7810994 117.149754,47.9626979 C117.149754,45.0246862 119.530105,42.6412164 122.471236,42.6412164 L165.044335,42.6412164 C173.862737,42.6412164 181.009404,35.4945497 181.009404,26.6761481 C181.009404,17.8608655 173.862737,10.7117037 165.044335,10.7117037 L85.2171228,10.7117037 C80.2468304,10.7260507 75.5684678,13.0677271 72.5805536,17.039345 C61.6961871,1.54460819 41.4257778,-4.16923197 24.0528343,3.35794152 C6.67926706,10.8819961 -3.01617154,29.5786043 0.841294347,48.1142768 C4.70063158,66.6493255 21.048078,79.9246472 39.9810994,79.8953294" id="Fill-41"></path>
                        <path d="M218.262643,308.732819 L218.262643,266.157224 C218.262643,260.277458 223.026464,255.514261 228.90623,255.514261 L239.549193,255.514261 C245.426464,255.514261 250.19278,260.277458 250.19278,266.157224 L250.19278,308.732819 L218.262643,308.732819 Z M186.331259,186.330012 L292.768374,186.330012 L292.768374,308.732819 L260.835743,308.732819 L260.835743,266.157224 C260.835743,254.400187 251.306854,244.867556 239.549193,244.867556 L228.90623,244.867556 C217.149193,244.867556 207.61968,254.400187 207.61968,266.157224 L207.61968,308.732819 L186.331259,308.732819 L186.331259,186.330012 Z M28.8794074,165.043462 L171.96432,165.043462 L162.651883,175.687049 L18.2358207,175.687049 L28.8794074,165.043462 Z M91.1845926,102.741396 C92.1832671,101.741474 93.5381209,101.179446 94.9516101,101.181942 L227.841435,101.181933 L218.528374,111.824904 L82.10046,111.824904 L91.1845926,102.741396 Z M175.687049,90.5383548 L196.976094,90.5383548 L196.976094,69.2518051 L175.687049,69.2518051 L175.687049,90.5383548 Z M204.712858,143.755041 L271.479329,143.755041 C272.308335,143.74007 273.119251,143.528608 273.850324,143.138745 L283.721045,154.398004 L195.38046,154.398004 L204.712858,143.755041 Z M250.19278,122.468491 C251.715431,122.456016 253.160733,121.783579 254.14506,120.62584 L265.094924,133.111454 L214.005957,133.111454 L223.317146,122.468491 L250.19278,122.468491 Z M239.549193,103.945294 L246.466932,111.824904 L232.629583,111.824904 L239.549193,103.945294 Z M72.1274386,121.79855 C72.8753528,122.219602 73.7137154,122.451025 74.5739103,122.468491 L209.213442,122.468491 L199.902877,133.111454 L60.8139103,133.111454 L72.1274386,121.79855 Z M50.1684522,143.755041 L190.589817,143.755041 L181.276756,154.398004 L39.5248655,154.398004 L50.1684522,143.755041 Z M298.09048,175.687049 L176.751844,175.687049 L186.068023,165.043462 L292.768374,165.043462 C292.841981,165.043462 292.899992,165.007283 292.97547,165.002292 L302.346542,175.687049 L298.09048,175.687049 Z M68.5013957,288.328296 C74.9419415,286.410791 81.9127018,287.648374 87.3003041,291.664281 C92.6879064,295.684554 95.8629552,302.010324 95.8629552,308.732819 L74.5739103,308.732819 C74.5957427,301.481357 72.4879844,294.38584 68.5013957,288.328296 Z M10.7117661,308.732819 C10.7167563,297.926425 17.2539883,288.194183 27.2613177,284.107789 C37.266152,280.019524 48.7474776,282.390519 56.3158207,290.104827 C61.2281014,295.055782 63.9671267,301.756444 63.9306897,308.732819 L10.7117661,308.732819 Z M314.054924,308.732819 L303.411337,308.732819 L303.411337,186.330012 L308.202604,186.330012 C311.332741,186.332507 314.176561,184.50046 315.470285,181.647283 C316.766503,178.79161 316.271844,175.44814 314.208374,173.089622 L246.733287,95.9895828 C245.049076,94.0982768 242.936951,92.6392515 240.577809,91.7297778 L240.358238,91.6543002 C238.56237,90.9456842 236.65048,90.5651774 234.71738,90.5383548 L207.61968,90.5383548 L207.61968,69.2518051 C207.61968,63.3745341 202.853365,58.6088421 196.976094,58.6088421 L175.687049,58.6088421 C169.810402,58.6088421 165.04471,63.3745341 165.04471,69.2518051 L165.04471,90.5383548 L94.9516101,90.5383548 C90.7142612,90.5240078 86.6447096,92.2100897 83.6599142,95.2167173 L44.2032281,134.670908 L22.9141832,155.957458 L6.16751657,172.702253 C3.88447563,174.985294 3.19956335,178.418589 4.4371462,181.403384 C5.67036257,184.388179 8.58467057,186.332507 11.8152359,186.330012 L16.0357427,186.330012 L16.0357427,217.248998 C16.0357427,220.190129 18.4160936,222.57048 21.354729,222.57048 C24.2958596,222.57048 26.6793294,220.190129 26.6793294,217.248998 L26.6793294,186.330012 L175.687049,186.330012 L175.687049,308.732819 L106.505918,308.732819 C106.518394,297.77547 100.906854,287.580382 91.6449435,281.727439 C82.3830331,275.87699 70.7650994,275.190207 60.8775361,279.907244 C51.3280624,272.071298 38.5043587,269.506932 26.6793294,273.074963 L26.6793294,259.824593 C26.6793294,256.883462 24.2958596,254.502487 21.354729,254.502487 C18.4160936,254.502487 16.0357427,256.883462 16.0357427,259.824593 L16.0357427,278.206191 C6.03839376,285.155743 0.0756647173,296.5566 0.0681793372,308.732819 C0.107477583,310.21929 0.239095517,311.705762 0.468023392,313.174768 C0.392545809,313.462331 0.338900585,313.754885 0.309582846,314.051805 C0.358237817,315.755353 1.24026511,317.324164 2.66560624,318.252975 C2.83652242,318.379602 3.01430019,318.493754 3.19956335,318.59855 C3.5382768,318.785684 3.89383236,318.939758 4.26435867,319.057029 C4.6105575,319.16432 4.96611306,319.234807 5.329154,319.264125 C5.50443665,319.310285 5.67784795,319.347088 5.85812086,319.375782 L314.054924,319.375782 C316.993559,319.375782 319.377029,316.992936 319.377029,314.051805 C319.377029,311.115665 316.993559,308.732819 314.054924,308.732819 Z" id="Fill-42"></path>
                    </g>
                </g>
            </g>
        </g>
    </g>
</svg>