<?xml version="1.0" encoding="utf-8"?>
<!-- Generator: Adobe Illustrator 21.1.0, SVG Export Plug-In . SVG Version: 6.00 Build 0)  -->
<svg version="1.1" id="Layer_1" xmlns="http://www.w3.org/2000/svg" xmlns:xlink="http://www.w3.org/1999/xlink" x="0px" y="0px"
	 viewBox="0 0 320 320" style="enable-background:new 0 0 320 320;" xml:space="preserve">
<style type="text/css">
	.st0{fill:#231F20;}
	.st1{fill:#366CB3;}
	.st2{fill:#F37C20;}
	.st3{fill:#FFFFFF;}
	.st4{fill:#FBAE17;}
</style>
<g>
	<g>
		<path class="st0" d="M173.2,208.2h-26.3c-4,0-7.3-3.3-7.3-7.3s3.3-7.3,7.3-7.3h26.3c4,0,7.3,3.3,7.3,7.3S177.2,208.2,173.2,208.2z
			"/>
	</g>
	<g>
		<path class="st0" d="M131.1,199.2c-2.5,0-5-1.3-6.3-3.7l-13.1-22.8c-2-3.5-0.8-8,2.7-10c3.5-2,8-0.8,10,2.7l13.1,22.8
			c2,3.5,0.8,8-2.7,10C133.6,198.8,132.4,199.2,131.1,199.2z"/>
	</g>
	<g>
		<path class="st0" d="M173.2,126.4h-26.3c-4,0-7.3-3.3-7.3-7.3c0-4,3.3-7.3,7.3-7.3h26.3c4,0,7.3,3.3,7.3,7.3
			C180.5,123.1,177.2,126.4,173.2,126.4z"/>
	</g>
	<g>
		<g>
			<path class="st0" d="M173.2,144.3h-26.3c-4,0-7.3-3.3-7.3-7.3s3.3-7.3,7.3-7.3h26.3c4,0,7.3,3.3,7.3,7.3S177.2,144.3,173.2,144.3
				z"/>
		</g>
		<g>
			<path class="st0" d="M173.2,190.3h-26.3c-4,0-7.3-3.3-7.3-7.3s3.3-7.3,7.3-7.3h26.3c4,0,7.3,3.3,7.3,7.3S177.2,190.3,173.2,190.3
				z"/>
		</g>
	</g>
	<g>
		<path class="st0" d="M118,158.3c-1.2,0-2.5-0.3-3.7-1c-3.5-2-4.7-6.5-2.7-10l13.1-22.8c2-3.5,6.5-4.7,10-2.7c3.5,2,4.7,6.5,2.7,10
			l-13.1,22.8C123,157,120.5,158.3,118,158.3z"/>
	</g>
	<g>
		<path class="st0" d="M202,158.3c-2.5,0-5-1.3-6.3-3.7l-13.1-22.8c-2-3.5-0.8-8,2.7-10c3.5-2,8-0.8,10,2.7l13.1,22.8
			c2,3.5,0.8,8-2.7,10C204.5,158,203.3,158.3,202,158.3z"/>
	</g>
	<g>
		<path class="st0" d="M188.9,199.2c-1.2,0-2.5-0.3-3.7-1c-3.5-2-4.7-6.5-2.7-10l13.1-22.8c2-3.5,6.5-4.7,10-2.7
			c3.5,2,4.7,6.5,2.7,10l-13.1,22.8C193.9,197.8,191.4,199.2,188.9,199.2z"/>
	</g>
</g>
<g>
	<circle class="st1" cx="160" cy="269.1" r="33.6"/>
</g>
<g>
	<circle class="st2" cx="237.1" cy="82.9" r="33.6"/>
</g>
<g>
	<circle class="st3" cx="160" cy="50.9" r="33.6"/>
</g>
<g>
	<circle class="st3" cx="50.9" cy="160.2" r="33.6"/>
</g>
<g>
	<circle class="st3" cx="269.1" cy="160.2" r="33.6"/>
</g>
<g>
	<circle class="st3" cx="82.9" cy="237.1" r="33.6"/>
</g>
<g>
	<circle class="st3" cx="237.1" cy="237.1" r="33.6"/>
</g>
<g>
	<circle class="st4" cx="82.9" cy="82.9" r="33.6"/>
</g>
<g>
	<g>
		<path class="st0" d="M160,310c-22.6,0-40.9-18.3-40.9-40.9s18.3-40.9,40.9-40.9s40.9,18.3,40.9,40.9S182.6,310,160,310z
			 M160,242.8c-14.5,0-26.3,11.8-26.3,26.3c0,14.5,11.8,26.3,26.3,26.3c14.5,0,26.3-11.8,26.3-26.3
			C186.3,254.6,174.5,242.8,160,242.8z"/>
	</g>
</g>
<g>
	<g>
		<path class="st0" d="M160,10c22.6,0,40.9,18.3,40.9,40.9S182.6,91.8,160,91.8s-40.9-18.3-40.9-40.9S137.4,10,160,10z M160,77.2
			c14.5,0,26.3-11.8,26.3-26.3S174.5,24.6,160,24.6c-14.5,0-26.3,11.8-26.3,26.3S145.5,77.2,160,77.2z"/>
	</g>
</g>
<g>
	<g>
		<path class="st0" d="M53.9,266.1c-15.9-15.9-15.9-41.9,0-57.8s41.9-15.9,57.8,0s15.9,41.9,0,57.8S69.9,282,53.9,266.1z
			 M101.4,218.6c-10.2-10.2-26.9-10.2-37.1,0c-10.2,10.2-10.2,26.9,0,37.1s26.9,10.2,37.1,0C111.7,245.5,111.7,228.8,101.4,218.6z"
			/>
	</g>
</g>
<g>
	<g>
		<path class="st0" d="M266.1,53.9c15.9,15.9,15.9,41.9,0,57.8s-41.9,15.9-57.8,0s-15.9-41.9,0-57.8S250.1,38,266.1,53.9z
			 M218.6,101.4c10.2,10.2,26.9,10.2,37.1,0c10.2-10.2,10.2-26.9,0-37.1c-10.2-10.2-26.9-10.2-37.1,0
			C208.3,74.5,208.3,91.2,218.6,101.4z"/>
	</g>
</g>
<g>
	<g>
		<path class="st0" d="M10,160c0-22.6,18.3-40.9,40.9-40.9s40.9,18.3,40.9,40.9s-18.3,40.9-40.9,40.9S10,182.6,10,160z M77.2,160
			c0-14.5-11.8-26.3-26.3-26.3S24.6,145.5,24.6,160c0,14.5,11.8,26.3,26.3,26.3S77.2,174.5,77.2,160z"/>
	</g>
</g>
<g>
	<g>
		<path class="st0" d="M310,160c0,22.6-18.3,40.9-40.9,40.9s-40.9-18.3-40.9-40.9s18.3-40.9,40.9-40.9S310,137.4,310,160z
			 M242.8,160c0,14.5,11.8,26.3,26.3,26.3c14.5,0,26.3-11.8,26.3-26.3c0-14.5-11.8-26.3-26.3-26.3
			C254.6,133.7,242.8,145.5,242.8,160z"/>
	</g>
</g>
<g>
	<g>
		<path class="st0" d="M53.9,53.9c15.9-15.9,41.9-15.9,57.8,0s15.9,41.9,0,57.8s-41.9,15.9-57.8,0S38,69.9,53.9,53.9z M101.4,101.4
			c10.2-10.2,10.2-26.9,0-37.1s-26.9-10.2-37.1,0s-10.2,26.9,0,37.1S91.2,111.7,101.4,101.4z"/>
	</g>
</g>
<g>
	<g>
		<path class="st0" d="M266.1,266.1c-15.9,15.9-41.9,15.9-57.8,0s-15.9-41.9,0-57.8s41.9-15.9,57.8,0S282,250.1,266.1,266.1z
			 M218.6,218.6c-10.2,10.2-10.2,26.9,0,37.1c10.2,10.2,26.9,10.2,37.1,0c10.2-10.2,10.2-26.9,0-37.1
			C245.5,208.3,228.8,208.3,218.6,218.6z"/>
	</g>
</g>
</svg>
