<?xml version="1.0" encoding="utf-8"?>
<!-- Generator: Adobe Illustrator 21.1.0, SVG Export Plug-In . SVG Version: 6.00 Build 0)  -->
<svg version="1.1" id="Layer_1" xmlns="http://www.w3.org/2000/svg" xmlns:xlink="http://www.w3.org/1999/xlink" x="0px" y="0px"
	 viewBox="0 0 130 24" style="enable-background:new 0 0 130 24;" xml:space="preserve">
<style type="text/css">
	.st0{clip-path:url(#SVGID_2_);fill:#F37B20;}
	.st1{clip-path:url(#SVGID_4_);fill:#FFFFFF;}
	.st2{clip-path:url(#SVGID_6_);fill:#366BB4;}
	.st3{clip-path:url(#SVGID_8_);fill:#FFFFFF;}
	.st4{clip-path:url(#SVGID_10_);fill:#FFFFFF;}
	.st5{clip-path:url(#SVGID_12_);fill:#FFFFFF;}
	.st6{clip-path:url(#SVGID_14_);fill:#FFFFFF;}
	.st7{clip-path:url(#SVGID_16_);fill:#FBAF17;}
	.st8{clip-path:url(#SVGID_18_);fill:#FFFFFF;}
	.st9{clip-path:url(#SVGID_20_);fill:#FFFFFF;}
	.st10{clip-path:url(#SVGID_22_);fill:#FFFFFF;}
	.st11{clip-path:url(#SVGID_24_);fill:#FFFFFF;}
	.st12{clip-path:url(#SVGID_26_);fill:#FFFFFF;}
	.st13{clip-path:url(#SVGID_28_);fill:#FFFFFF;}
	.st14{clip-path:url(#SVGID_30_);fill:#FFFFFF;}
	.st15{clip-path:url(#SVGID_32_);fill:#FFFFFF;}
	.st16{clip-path:url(#SVGID_34_);fill:#FFFFFF;}
</style>
<g>
	<defs>
		<path id="SVGID_1_" d="M51.5,16c0-2.8,2.3-5.1,5.1-5.1c2.8,0,5.1,2.3,5.1,5.1c0,2.8-2.3,5.1-5.1,5.1C53.8,21,51.5,18.8,51.5,16"/>
	</defs>
	<clipPath id="SVGID_2_">
		<use xlink:href="#SVGID_1_"  style="overflow:visible;"/>
	</clipPath>
	<rect x="46.5" y="5.9" class="st0" width="20.1" height="20.1"/>
</g>
<g>
	<defs>
		<path id="SVGID_3_" d="M52.5,22.7c0,0,0.1,0.1,0.1,0.1l0,0c1.1,0.6,2.4,1,3.7,1.1c0,0,0.1,0,0.1,0c0,0,0,0,0.1,0c0,0,0,0,0,0
			c0,0,0,0,0,0c0,0,0,0,0,0c0,0,0.1,0,0.1,0c1.4,0,2.6-0.4,3.8-1.1l0,0c0.1,0,0.1-0.1,0.2-0.1c0.3-0.2,0.5-0.4,0.8-0.6v0.3
			c0,0.8,0.6,1.4,1.4,1.4c0.8,0,1.4-0.6,1.4-1.4v-5.1c0-0.8-0.6-1.4-1.4-1.4c-0.7,0-1.2,0.5-1.4,1.1h0c0,0,0,0,0,0
			c-0.5,2.3-2.5,4-4.9,4c0,0-0.1,0-0.1,0c0,0,0,0,0,0c-2.7-0.1-4.9-2.3-4.9-5.1c0-2.8,2.3-5.1,5.1-5.1c0.9,0,1.7,0.2,2.5,0.6
			c0.4,0.3,1,0.3,1.5,0c0.7-0.4,0.9-1.3,0.5-1.9c-0.1-0.2-0.3-0.4-0.5-0.5l0,0c-1.2-0.7-2.5-1.1-3.9-1.1c-4.3,0-7.9,3.5-7.9,7.9
			C48.7,18.8,50.2,21.3,52.5,22.7"/>
	</defs>
	<clipPath id="SVGID_4_">
		<use xlink:href="#SVGID_3_"  style="overflow:visible;"/>
	</clipPath>
	<rect x="43.7" y="3.1" class="st1" width="25.6" height="25.8"/>
</g>
<g>
	<defs>
		<path id="SVGID_5_" d="M83.9,16c0-2.8,2.3-5.1,5.1-5.1c2.8,0,5.1,2.3,5.1,5.1c0,2.8-2.3,5.1-5.1,5.1C86.2,21,83.9,18.8,83.9,16"/>
	</defs>
	<clipPath id="SVGID_6_">
		<use xlink:href="#SVGID_5_"  style="overflow:visible;"/>
	</clipPath>
	<rect x="78.9" y="5.9" class="st2" width="20.1" height="20.1"/>
</g>
<g>
	<defs>
		<path id="SVGID_7_" d="M84.8,22.7c0,0,0.1,0.1,0.1,0.1l0,0c1.1,0.6,2.4,1,3.7,1.1c0,0,0.1,0,0.1,0c0,0,0,0,0.1,0c0,0,0,0,0,0
			c0,0,0,0,0,0c0,0,0,0,0,0c0,0,0.1,0,0.1,0c1.4,0,2.6-0.4,3.8-1.1l0,0c0.1,0,0.1-0.1,0.2-0.1c0.3-0.2,0.5-0.4,0.8-0.6v0.3
			c0,0.8,0.6,1.4,1.4,1.4c0.8,0,1.4-0.6,1.4-1.4v-5.1c0-0.8-0.6-1.4-1.4-1.4c-0.7,0-1.2,0.5-1.4,1.1h0c0,0,0,0,0,0
			c-0.5,2.3-2.5,4-4.9,4c0,0-0.1,0-0.1,0c0,0,0,0,0,0c-2.7-0.1-4.9-2.3-4.9-5.1c0-2.8,2.3-5.1,5.1-5.1c0.9,0,1.7,0.2,2.5,0.6
			c0.4,0.3,1,0.3,1.5,0c0.7-0.4,0.9-1.3,0.5-1.9c-0.1-0.2-0.3-0.4-0.5-0.5l0,0c-1.2-0.7-2.5-1.1-3.9-1.1c-4.3,0-7.9,3.5-7.9,7.9
			C81.1,18.8,82.6,21.3,84.8,22.7"/>
	</defs>
	<clipPath id="SVGID_8_">
		<use xlink:href="#SVGID_7_"  style="overflow:visible;"/>
	</clipPath>
	<rect x="76.1" y="3.1" class="st3" width="25.6" height="25.8"/>
</g>
<g>
	<defs>
		<path id="SVGID_9_" d="M28.5,12c-0.3,0.5-0.2,1.1,0,1.5c0.4,0.7,0.6,1.6,0.6,2.5c0,2.8-2.3,5.1-5.1,5.1C21.3,21,19,18.8,19,16
			c0-0.9,0.2-1.7,0.6-2.5c0.3-0.4,0.3-1,0-1.5c-0.4-0.7-1.3-0.9-1.9-0.5c-0.2,0.1-0.4,0.3-0.5,0.5l0,0c-0.7,1.2-1.1,2.5-1.1,3.9
			c0,4.3,3.5,7.9,7.9,7.9c4.3,0,7.9-3.5,7.9-7.9c0-1.4-0.4-2.8-1.1-3.9l0,0c-0.1-0.2-0.3-0.4-0.5-0.5C29.7,11.1,28.9,11.4,28.5,12"
			/>
	</defs>
	<clipPath id="SVGID_10_">
		<use xlink:href="#SVGID_9_"  style="overflow:visible;"/>
	</clipPath>
	<rect x="11.2" y="6.3" class="st4" width="25.8" height="22.5"/>
</g>
<g>
	<defs>
		<path id="SVGID_11_" d="M109.4,12c-0.3,0.5-0.2,1.1,0,1.5c0.4,0.7,0.6,1.6,0.6,2.5c0,2.8-2.3,5.1-5.1,5.1c-2.8,0-5.1-2.3-5.1-5.1
			c0-0.9,0.2-1.7,0.6-2.5c0.3-0.4,0.3-1,0-1.5c-0.4-0.7-1.3-0.9-1.9-0.5c-0.2,0.1-0.4,0.3-0.5,0.5l0,0c-0.7,1.2-1.1,2.5-1.1,3.9
			c0,4.3,3.5,7.9,7.9,7.9c4.3,0,7.9-3.5,7.9-7.9c0-1.4-0.4-2.8-1.1-3.9l0,0c-0.1-0.2-0.3-0.4-0.5-0.5
			C110.7,11.1,109.8,11.4,109.4,12"/>
	</defs>
	<clipPath id="SVGID_12_">
		<use xlink:href="#SVGID_11_"  style="overflow:visible;"/>
	</clipPath>
	<rect x="92.2" y="6.3" class="st5" width="25.8" height="22.5"/>
</g>
<g>
	<defs>
		<path id="SVGID_13_" d="M11.8,20.3c-0.5-0.3-1.1-0.2-1.5,0C9.6,20.8,8.8,21,7.9,21c-2.8,0-5.1-2.3-5.1-5.1c0-2.8,2.3-5.1,5.1-5.1
			c0.9,0,1.7,0.2,2.5,0.6c0.4,0.3,1,0.3,1.5,0c0.7-0.4,0.9-1.3,0.5-1.9c-0.1-0.2-0.3-0.4-0.5-0.5l0,0c-1.2-0.7-2.5-1.1-3.9-1.1
			C3.5,8.1,0,11.6,0,16s3.5,7.9,7.9,7.9c1.4,0,2.8-0.4,3.9-1.1l0,0c0.2-0.1,0.4-0.3,0.5-0.5C12.7,21.6,12.5,20.7,11.8,20.3"/>
	</defs>
	<clipPath id="SVGID_14_">
		<use xlink:href="#SVGID_13_"  style="overflow:visible;"/>
	</clipPath>
	<rect x="-5" y="3.1" class="st6" width="22.5" height="25.8"/>
</g>
<g>
	<defs>
		<path id="SVGID_15_" d="M45.3,16c0,2.8-2.3,5.1-5.1,5.1c-2.8,0-5.1-2.3-5.1-5.1c0-2.8,2.3-5.1,5.1-5.1
			C43.1,10.9,45.3,13.2,45.3,16"/>
	</defs>
	<clipPath id="SVGID_16_">
		<use xlink:href="#SVGID_15_"  style="overflow:visible;"/>
	</clipPath>
	<rect x="30.2" y="5.9" class="st7" width="20.1" height="20.1"/>
</g>
<g>
	<defs>
		<path id="SVGID_17_" d="M44.4,9.2c0,0-0.1-0.1-0.1-0.1l0,0c-1.1-0.6-2.4-1-3.7-1.1c0,0-0.1,0-0.1,0c0,0,0,0-0.1,0c0,0,0,0,0,0
			c0,0,0,0,0,0c0,0,0,0,0,0c0,0-0.1,0-0.1,0c-1.4,0-2.6,0.4-3.8,1.1l0,0c-0.1,0-0.1,0.1-0.2,0.1c-0.3,0.2-0.5,0.4-0.8,0.6V9.5
			c0-0.8-0.6-1.4-1.4-1.4c-0.8,0-1.4,0.6-1.4,1.4v5.1c0,0.8,0.6,1.4,1.4,1.4c0.7,0,1.2-0.5,1.4-1.1h0c0,0,0,0,0,0
			c0.5-2.3,2.5-4,4.9-4c0,0,0.1,0,0.1,0c0,0,0,0,0,0c2.7,0.1,4.9,2.3,4.9,5.1c0,2.8-2.3,5.1-5.1,5.1c-0.9,0-1.7-0.2-2.5-0.6
			c-0.4-0.3-1-0.3-1.5,0c-0.7,0.4-0.9,1.3-0.5,1.9c0.1,0.2,0.3,0.4,0.5,0.5l0,0c1.2,0.7,2.5,1.1,3.9,1.1c4.3,0,7.9-3.5,7.9-7.9
			C48.2,13.1,46.7,10.6,44.4,9.2"/>
	</defs>
	<clipPath id="SVGID_18_">
		<use xlink:href="#SVGID_17_"  style="overflow:visible;"/>
	</clipPath>
	<rect x="27.6" y="3.1" class="st8" width="25.6" height="25.8"/>
</g>
<g>
	<defs>
		<path id="SVGID_19_" d="M34,8.1c-0.8,0-1.4-0.6-1.4-1.4V1.6c0-0.8,0.6-1.4,1.4-1.4c0.8,0,1.4,0.6,1.4,1.4v5.1
			C35.4,7.4,34.8,8.1,34,8.1"/>
	</defs>
	<clipPath id="SVGID_20_">
		<use xlink:href="#SVGID_19_"  style="overflow:visible;"/>
	</clipPath>
	<rect x="27.6" y="-4.8" class="st9" width="12.8" height="17.9"/>
</g>
<g>
	<defs>
		<path id="SVGID_21_" d="M68.3,19.9c0.3-0.5,0.2-1.1,0-1.5c-0.4-0.7-0.6-1.6-0.6-2.5c0-2.8,2.3-5.1,5.1-5.1c2.8,0,5.1,2.3,5.1,5.1
			c0,0.9-0.2,1.7-0.6,2.5c-0.3,0.4-0.3,1,0,1.5c0.4,0.7,1.3,0.9,1.9,0.5c0.2-0.1,0.4-0.3,0.5-0.5l0,0c0.7-1.2,1.1-2.5,1.1-3.9
			c0-4.3-3.5-7.9-7.9-7.9c-4.3,0-7.9,3.5-7.9,7.9c0,1.4,0.4,2.8,1.1,3.9l0,0c0.1,0.2,0.3,0.4,0.5,0.5C67.1,20.8,67.9,20.6,68.3,19.9
			"/>
	</defs>
	<clipPath id="SVGID_22_">
		<use xlink:href="#SVGID_21_"  style="overflow:visible;"/>
	</clipPath>
	<rect x="59.8" y="3.1" class="st10" width="25.8" height="22.5"/>
</g>
<g>
	<defs>
		<path id="SVGID_23_" d="M66.2,8.1c-0.8,0-1.4-0.6-1.4-1.4V1.6c0-0.8,0.6-1.4,1.4-1.4c0.8,0,1.4,0.6,1.4,1.4v5.1
			C67.6,7.4,67,8.1,66.2,8.1"/>
	</defs>
	<clipPath id="SVGID_24_">
		<use xlink:href="#SVGID_23_"  style="overflow:visible;"/>
	</clipPath>
	<rect x="59.8" y="-4.8" class="st11" width="12.8" height="17.9"/>
</g>
<g>
	<defs>
		<path id="SVGID_25_" d="M66.2,16.7c-0.8,0-1.4-0.6-1.4-1.4V9.5c0-0.8,0.6-1.4,1.4-1.4c0.8,0,1.4,0.6,1.4,1.4v5.8
			C67.6,16.1,67,16.7,66.2,16.7"/>
	</defs>
	<clipPath id="SVGID_26_">
		<use xlink:href="#SVGID_25_"  style="overflow:visible;"/>
	</clipPath>
	<rect x="59.8" y="3.1" class="st12" width="12.8" height="18.6"/>
</g>
<g>
	<defs>
		<path id="SVGID_27_" d="M113.4,15.9c0-0.8,0.6-1.4,1.4-1.4h5.1c0.8,0,1.4,0.6,1.4,1.4c0,0.8-0.6,1.4-1.4,1.4h-5.1
			C114,17.3,113.4,16.7,113.4,15.9"/>
	</defs>
	<clipPath id="SVGID_28_">
		<use xlink:href="#SVGID_27_"  style="overflow:visible;"/>
	</clipPath>
	<rect x="108.4" y="9.5" class="st13" width="17.9" height="12.8"/>
</g>
<g>
	<defs>
		<path id="SVGID_29_" d="M121.3,15.9c0-0.8,0.6-1.4,1.4-1.4h5.1c0.8,0,1.4,0.6,1.4,1.4c0,0.8-0.6,1.4-1.4,1.4h-5.1
			C121.9,17.3,121.3,16.7,121.3,15.9"/>
	</defs>
	<clipPath id="SVGID_30_">
		<use xlink:href="#SVGID_29_"  style="overflow:visible;"/>
	</clipPath>
	<rect x="116.3" y="9.5" class="st14" width="17.9" height="12.8"/>
</g>
<g>
	<defs>
		<path id="SVGID_31_" d="M113.4,16h2.8c0,0,0,0,0,0c0-2.8,2.3-5.1,5.1-5.1c0.9,0,1.8,0.2,2.5,0.7l0,0c0.4,0.2,1,0.3,1.4,0
			c0.7-0.4,0.9-1.3,0.5-1.9c-0.1-0.2-0.3-0.4-0.6-0.5c-1.2-0.7-2.5-1-3.9-1C116.9,8.1,113.4,11.6,113.4,16L113.4,16
			C113.4,15.9,113.4,16,113.4,16C113.4,16,113.4,16,113.4,16"/>
	</defs>
	<clipPath id="SVGID_32_">
		<use xlink:href="#SVGID_31_"  style="overflow:visible;"/>
	</clipPath>
	<rect x="108.4" y="3.1" class="st15" width="22.5" height="17.9"/>
</g>
<g>
	<defs>
		<path id="SVGID_33_" d="M129.1,16h-2.8c0,0,0,0,0,0c0,2.8-2.3,5.1-5.1,5.1c-0.9,0-1.8-0.2-2.5-0.7l0,0c-0.4-0.2-1-0.3-1.4,0
			c-0.7,0.4-0.9,1.3-0.5,1.9c0.1,0.2,0.3,0.4,0.6,0.5c1.2,0.7,2.5,1,3.9,1C125.6,23.9,129.1,20.3,129.1,16L129.1,16
			C129.1,16,129.1,16,129.1,16C129.1,16,129.1,16,129.1,16"/>
	</defs>
	<clipPath id="SVGID_34_">
		<use xlink:href="#SVGID_33_"  style="overflow:visible;"/>
	</clipPath>
	<rect x="111.6" y="11" class="st16" width="22.5" height="17.9"/>
</g>
</svg>
